<?xml version="1.0" encoding="UTF-8"?>
<!DOCTYPE score-partwise PUBLIC "-//Recordare//DTD MusicXML 3.1 Partwise//EN" "http://www.musicxml.org/dtds/partwise.dtd">
<score-partwise version="3.1">
  <work>
    <work-title>Bela pesmica</work-title>
    </work>
  <identification>
    <creator type="composer">Napisal in uglasbil: Janez Bitenc</creator>
    <rights>Prepisala: Lucija Gorjup</rights>
    <encoding>
      <software>MuseScore 3.6.2</software>
      <encoding-date>2022-04-12</encoding-date>
      <supports element="accidental" type="yes"/>
      <supports element="beam" type="yes"/>
      <supports element="print" attribute="new-page" type="yes" value="yes"/>
      <supports element="print" attribute="new-system" type="yes" value="yes"/>
      <supports element="stem" type="yes"/>
      </encoding>
    </identification>
  <defaults>
    <scaling>
      <millimeters>7.05556</millimeters>
      <tenths>40</tenths>
      </scaling>
    <page-layout>
      <page-height>1683.36</page-height>
      <page-width>1190.88</page-width>
      <page-margins type="even">
        <left-margin>56.6929</left-margin>
        <right-margin>56.6929</right-margin>
        <top-margin>56.6929</top-margin>
        <bottom-margin>113.386</bottom-margin>
        </page-margins>
      <page-margins type="odd">
        <left-margin>56.6929</left-margin>
        <right-margin>56.6929</right-margin>
        <top-margin>56.6929</top-margin>
        <bottom-margin>113.386</bottom-margin>
        </page-margins>
      </page-layout>
    <word-font font-family="Edwin" font-size="10"/>
    <lyric-font font-family="Edwin" font-size="10"/>
    </defaults>
  <credit page="1">
    <credit-type>title</credit-type>
    <credit-words default-x="595.44" default-y="1626.67" justify="center" valign="top" font-size="22">Bela pesmica</credit-words>
    </credit>
  <credit page="1">
    <credit-type>subtitle</credit-type>
    <credit-words default-x="595.44" default-y="1569.97" justify="center" valign="top" font-size="16">Ciciban, april 2001</credit-words>
    </credit>
  <credit page="1">
    <credit-type>composer</credit-type>
    <credit-words default-x="1134.19" default-y="1526.67" justify="right" valign="bottom">Napisal in uglasbil: Janez Bitenc</credit-words>
    </credit>
  <credit page="1">
    <credit-type>rights</credit-type>
    <credit-words default-x="595.44" default-y="113.386" justify="center" valign="bottom" font-family="FreeSerif" font-size="8">Prepisala: Lucija Gorjup</credit-words>
    </credit>
  <part-list>
    <score-part id="P1">
      <part-name>Piano</part-name>
      <part-abbreviation>Pno.</part-abbreviation>
      <score-instrument id="P1-I1">
        <instrument-name>Piano</instrument-name>
        </score-instrument>
      <midi-device id="P1-I1" port="1"></midi-device>
      <midi-instrument id="P1-I1">
        <midi-channel>1</midi-channel>
        <midi-program>1</midi-program>
        <volume>78.7402</volume>
        <pan>0</pan>
        </midi-instrument>
      </score-part>
    </part-list>
  <part id="P1">
    <measure number="1" width="275.51">
      <print>
        <system-layout>
          <system-margins>
            <left-margin>0.00</left-margin>
            <right-margin>0.00</right-margin>
            </system-margins>
          <top-system-distance>170.00</top-system-distance>
          </system-layout>
        </print>
      <attributes>
        <divisions>2</divisions>
        <key>
          <fifths>2</fifths>
          </key>
        <time>
          <beats>2</beats>
          <beat-type>4</beat-type>
          </time>
        <clef>
          <sign>G</sign>
          <line>2</line>
          </clef>
        </attributes>
      <note default-x="110.48" default-y="-35.00">
        <pitch>
          <step>F</step>
          <alter>1</alter>
          <octave>4</octave>
          </pitch>
        <duration>1</duration>
        <voice>1</voice>
        <type>eighth</type>
        <stem>up</stem>
        <beam number="1">begin</beam>
        <lyric number="1" default-x="6.50" default-y="-50.14" relative-y="-30.00">
          <syllabic>begin</syllabic>
          <text>Pri</text>
          </lyric>
        <lyric number="2" default-x="6.50" default-y="-74.11" relative-y="-30.00">
          <syllabic>begin</syllabic>
          <text>Pri</text>
          </lyric>
        </note>
      <note default-x="151.29" default-y="-30.00">
        <pitch>
          <step>G</step>
          <octave>4</octave>
          </pitch>
        <duration>1</duration>
        <voice>1</voice>
        <type>eighth</type>
        <stem>up</stem>
        <beam number="1">end</beam>
        <lyric number="1" default-x="6.50" default-y="-50.14" relative-y="-30.00">
          <syllabic>end</syllabic>
          <text>di</text>
          </lyric>
        <lyric number="2" default-x="6.50" default-y="-74.11" relative-y="-30.00">
          <syllabic>end</syllabic>
          <text>di</text>
          </lyric>
        </note>
      <note default-x="192.10" default-y="-25.00">
        <pitch>
          <step>A</step>
          <octave>4</octave>
          </pitch>
        <duration>1</duration>
        <voice>1</voice>
        <type>eighth</type>
        <stem>up</stem>
        <beam number="1">begin</beam>
        <lyric number="1" default-x="6.50" default-y="-50.14" relative-y="-30.00">
          <syllabic>begin</syllabic>
          <text>zi</text>
          </lyric>
        <lyric number="2" default-x="6.50" default-y="-74.11" relative-y="-30.00">
          <syllabic>begin</syllabic>
          <text>zi</text>
          </lyric>
        </note>
      <note default-x="232.91" default-y="-35.00">
        <pitch>
          <step>F</step>
          <alter>1</alter>
          <octave>4</octave>
          </pitch>
        <duration>1</duration>
        <voice>1</voice>
        <type>eighth</type>
        <stem>up</stem>
        <beam number="1">end</beam>
        <lyric number="1" default-x="8.90" default-y="-50.14" relative-y="-30.00">
          <syllabic>end</syllabic>
          <text>ma,</text>
          </lyric>
        <lyric number="2" default-x="6.50" default-y="-74.11" relative-y="-30.00">
          <syllabic>end</syllabic>
          <text>ma</text>
          </lyric>
        </note>
      </measure>
    <measure number="2" width="257.75">
      <note default-x="25.45" default-y="-40.00">
        <pitch>
          <step>E</step>
          <octave>4</octave>
          </pitch>
        <duration>1</duration>
        <voice>1</voice>
        <type>eighth</type>
        <stem>up</stem>
        <beam number="1">begin</beam>
        <lyric number="1" default-x="6.50" default-y="-50.14" relative-y="-30.00">
          <syllabic>begin</syllabic>
          <text>pri</text>
          </lyric>
        <lyric number="2" default-x="6.50" default-y="-74.11" relative-y="-30.00">
          <syllabic>begin</syllabic>
          <text>z͜ded</text>
          </lyric>
        </note>
      <note default-x="83.07" default-y="-35.00">
        <pitch>
          <step>F</step>
          <alter>1</alter>
          <octave>4</octave>
          </pitch>
        <duration>1</duration>
        <voice>1</voice>
        <type>eighth</type>
        <stem>up</stem>
        <beam number="1">end</beam>
        <lyric number="1" default-x="6.50" default-y="-50.14" relative-y="-30.00">
          <syllabic>end</syllabic>
          <text>di</text>
          </lyric>
        <lyric number="2" default-x="6.50" default-y="-74.11" relative-y="-30.00">
          <syllabic>end</syllabic>
          <text>kom</text>
          </lyric>
        </note>
      <note default-x="140.70" default-y="-30.00">
        <pitch>
          <step>G</step>
          <octave>4</octave>
          </pitch>
        <duration>1</duration>
        <voice>1</voice>
        <type>eighth</type>
        <stem>up</stem>
        <beam number="1">begin</beam>
        <lyric number="1" default-x="6.50" default-y="-50.14" relative-y="-30.00">
          <syllabic>begin</syllabic>
          <text>bo</text>
          </lyric>
        <lyric number="2" default-x="6.50" default-y="-74.11" relative-y="-30.00">
          <syllabic>begin</syllabic>
          <text>Mra</text>
          </lyric>
        </note>
      <note default-x="198.33" default-y="-40.00">
        <pitch>
          <step>E</step>
          <octave>4</octave>
          </pitch>
        <duration>1</duration>
        <voice>1</voice>
        <type>eighth</type>
        <stem>up</stem>
        <beam number="1">end</beam>
        <lyric number="1" default-x="9.06" default-y="-50.14" relative-y="-30.00">
          <syllabic>end</syllabic>
          <text>žič,</text>
          </lyric>
        <lyric number="2" default-x="9.14" default-y="-74.11" relative-y="-30.00">
          <syllabic>end</syllabic>
          <text>zom,</text>
          </lyric>
        </note>
      </measure>
    <measure number="3" width="182.33">
      <note default-x="14.28" default-y="-45.00">
        <pitch>
          <step>D</step>
          <octave>4</octave>
          </pitch>
        <duration>1</duration>
        <voice>1</voice>
        <type>eighth</type>
        <stem>up</stem>
        <beam number="1">begin</beam>
        <lyric number="1" default-x="6.50" default-y="-50.14" relative-y="-30.00">
          <syllabic>begin</syllabic>
          <text>ča</text>
          </lyric>
        <lyric number="2" default-x="6.50" default-y="-74.11" relative-y="-30.00">
          <syllabic>begin</syllabic>
          <text>ča</text>
          </lyric>
        </note>
      <note default-x="55.84" default-y="-50.00">
        <pitch>
          <step>C</step>
          <alter>1</alter>
          <octave>4</octave>
          </pitch>
        <duration>1</duration>
        <voice>1</voice>
        <type>eighth</type>
        <stem>up</stem>
        <beam number="1">end</beam>
        <lyric number="1" default-x="6.50" default-y="-50.14" relative-y="-30.00">
          <syllabic>middle</syllabic>
          <text>ka</text>
          </lyric>
        <lyric number="2" default-x="6.50" default-y="-74.11" relative-y="-30.00">
          <syllabic>middle</syllabic>
          <text>ka</text>
          </lyric>
        </note>
      <note default-x="97.40" default-y="-45.00">
        <pitch>
          <step>D</step>
          <octave>4</octave>
          </pitch>
        <duration>1</duration>
        <voice>1</voice>
        <type>eighth</type>
        <stem>up</stem>
        <beam number="1">begin</beam>
        <lyric number="1" default-x="6.50" default-y="-50.14" relative-y="-30.00">
          <syllabic>end</syllabic>
          <text>mo</text>
          </lyric>
        <lyric number="2" default-x="6.50" default-y="-74.11" relative-y="-30.00">
          <syllabic>end</syllabic>
          <text>mo</text>
          </lyric>
        </note>
      <note default-x="138.97" default-y="-35.00">
        <pitch>
          <step>F</step>
          <alter>1</alter>
          <octave>4</octave>
          </pitch>
        <duration>1</duration>
        <voice>1</voice>
        <type>eighth</type>
        <stem>up</stem>
        <beam number="1">end</beam>
        <lyric number="1" default-x="8.78" default-y="-50.14" relative-y="-30.00">
          <syllabic>single</syllabic>
          <text>te,</text>
          </lyric>
        <lyric number="2" default-x="8.78" default-y="-74.11" relative-y="-30.00">
          <syllabic>single</syllabic>
          <text>te,</text>
          </lyric>
        </note>
      </measure>
    <measure number="4" width="160.15">
      <note default-x="14.89" default-y="-40.00">
        <pitch>
          <step>E</step>
          <octave>4</octave>
          </pitch>
        <duration>1</duration>
        <voice>1</voice>
        <type>eighth</type>
        <stem>up</stem>
        <beam number="1">begin</beam>
        <lyric number="1" default-x="6.50" default-y="-50.14" relative-y="-30.00">
          <syllabic>begin</syllabic>
          <text>be</text>
          </lyric>
        <lyric number="2" default-x="6.50" default-y="-74.11" relative-y="-30.00">
          <syllabic>begin</syllabic>
          <text>be</text>
          </lyric>
        </note>
      <note default-x="54.74" default-y="-35.00">
        <pitch>
          <step>F</step>
          <alter>1</alter>
          <octave>4</octave>
          </pitch>
        <duration>1</duration>
        <voice>1</voice>
        <type>eighth</type>
        <stem>up</stem>
        <beam number="1">end</beam>
        <lyric number="1" default-x="6.50" default-y="-50.14" relative-y="-30.00">
          <syllabic>end</syllabic>
          <text>li</text>
          </lyric>
        <lyric number="2" default-x="6.50" default-y="-74.11" relative-y="-30.00">
          <syllabic>end</syllabic>
          <text>li</text>
          </lyric>
        </note>
      <note default-x="94.59" default-y="-40.00">
        <pitch>
          <step>E</step>
          <octave>4</octave>
          </pitch>
        <duration>2</duration>
        <voice>1</voice>
        <type>quarter</type>
        <stem>up</stem>
        <lyric number="1" default-x="9.25" default-y="-50.14" relative-y="-30.00">
          <syllabic>single</syllabic>
          <text>sneg,</text>
          </lyric>
        <lyric number="2" default-x="9.25" default-y="-74.11" relative-y="-30.00">
          <syllabic>single</syllabic>
          <text>sneg,</text>
          </lyric>
        </note>
      </measure>
    <measure number="5" width="201.74">
      <note default-x="17.76" default-y="-40.00">
        <pitch>
          <step>E</step>
          <octave>4</octave>
          </pitch>
        <duration>1</duration>
        <voice>1</voice>
        <type>eighth</type>
        <stem>up</stem>
        <beam number="1">begin</beam>
        <lyric number="1" default-x="6.50" default-y="-50.14" relative-y="-30.00">
          <syllabic>single</syllabic>
          <text>da</text>
          </lyric>
        <lyric number="2" default-x="6.50" default-y="-74.11" relative-y="-30.00">
          <syllabic>begin</syllabic>
          <text>mr</text>
          </lyric>
        </note>
      <note default-x="63.30" default-y="-35.00">
        <pitch>
          <step>F</step>
          <alter>1</alter>
          <octave>4</octave>
          </pitch>
        <duration>1</duration>
        <voice>1</voice>
        <type>eighth</type>
        <stem>up</stem>
        <beam number="1">end</beam>
        <lyric number="1" default-x="6.50" default-y="-50.14" relative-y="-30.00">
          <syllabic>begin</syllabic>
          <text>gre</text>
          </lyric>
        <lyric number="2" default-x="6.50" default-y="-74.11" relative-y="-30.00">
          <syllabic>end</syllabic>
          <text>zle</text>
          </lyric>
        </note>
      <note default-x="108.85" default-y="-30.00">
        <pitch>
          <step>G</step>
          <octave>4</octave>
          </pitch>
        <duration>1</duration>
        <voice>1</voice>
        <type>eighth</type>
        <stem>up</stem>
        <beam number="1">begin</beam>
        <lyric number="1" default-x="6.50" default-y="-50.14" relative-y="-30.00">
          <syllabic>end</syllabic>
          <text>mo</text>
          </lyric>
        <lyric number="2" default-x="6.50" default-y="-74.11" relative-y="-30.00">
          <syllabic>begin</syllabic>
          <text>ro</text>
          </lyric>
        </note>
      <note default-x="154.40" default-y="-40.00">
        <pitch>
          <step>E</step>
          <octave>4</octave>
          </pitch>
        <duration>1</duration>
        <voice>1</voice>
        <type>eighth</type>
        <stem>up</stem>
        <beam number="1">end</beam>
        <lyric number="1" default-x="6.50" default-y="-50.14" relative-y="-30.00">
          <syllabic>single</syllabic>
          <text>na</text>
          </lyric>
        <lyric number="2" default-x="8.99" default-y="-74.11" relative-y="-30.00">
          <syllabic>end</syllabic>
          <text>ke,</text>
          </lyric>
        </note>
      </measure>
    <measure number="6" width="430.88">
      <print new-system="yes">
        <system-layout>
          <system-margins>
            <left-margin>0.00</left-margin>
            <right-margin>0.00</right-margin>
            </system-margins>
          <system-distance>150.00</system-distance>
          </system-layout>
        </print>
      <note default-x="88.35" default-y="-35.00">
        <pitch>
          <step>F</step>
          <alter>1</alter>
          <octave>4</octave>
          </pitch>
        <duration>1</duration>
        <voice>1</voice>
        <type>eighth</type>
        <stem>up</stem>
        <beam number="1">begin</beam>
        <lyric number="1" default-x="6.50" default-y="-50.14" relative-y="-30.00">
          <syllabic>begin</syllabic>
          <text>be</text>
          </lyric>
        <lyric number="2" default-x="6.50" default-y="-74.11" relative-y="-30.00">
          <syllabic>begin</syllabic>
          <text>top</text>
          </lyric>
        </note>
      <note default-x="173.54" default-y="-30.00">
        <pitch>
          <step>G</step>
          <octave>4</octave>
          </pitch>
        <duration>1</duration>
        <voice>1</voice>
        <type>eighth</type>
        <stem>up</stem>
        <beam number="1">end</beam>
        <lyric number="1" default-x="6.50" default-y="-50.14" relative-y="-30.00">
          <syllabic>end</syllabic>
          <text>le</text>
          </lyric>
        <lyric number="2" default-x="6.50" default-y="-74.11" relative-y="-30.00">
          <syllabic>end</syllabic>
          <text>la</text>
          </lyric>
        </note>
      <note default-x="258.72" default-y="-25.00">
        <pitch>
          <step>A</step>
          <octave>4</octave>
          </pitch>
        <duration>1</duration>
        <voice>1</voice>
        <type>eighth</type>
        <stem>up</stem>
        <beam number="1">begin</beam>
        <lyric number="1" default-x="6.50" default-y="-50.14" relative-y="-30.00">
          <syllabic>begin</syllabic>
          <text>ste</text>
          </lyric>
        <lyric number="2" default-x="6.50" default-y="-74.11" relative-y="-30.00">
          <syllabic>begin</syllabic>
          <text>sr</text>
          </lyric>
        </note>
      <note default-x="343.90" default-y="-35.00">
        <pitch>
          <step>F</step>
          <alter>1</alter>
          <octave>4</octave>
          </pitch>
        <duration>1</duration>
        <voice>1</voice>
        <type>eighth</type>
        <stem>up</stem>
        <beam number="1">end</beam>
        <lyric number="1" default-x="6.50" default-y="-50.14" relative-y="-30.00">
          <syllabic>end</syllabic>
          <text>ze</text>
          </lyric>
        <lyric number="2" default-x="9.00" default-y="-74.11" relative-y="-30.00">
          <syllabic>end</syllabic>
          <text>ca,</text>
          </lyric>
        </note>
      </measure>
    <measure number="7" width="354.09">
      <note default-x="18.04" default-y="-45.00">
        <pitch>
          <step>D</step>
          <octave>4</octave>
          </pitch>
        <duration>1</duration>
        <voice>1</voice>
        <type>eighth</type>
        <stem>up</stem>
        <beam number="1">begin</beam>
        <lyric number="1" default-x="6.50" default-y="-50.14" relative-y="-30.00">
          <syllabic>single</syllabic>
          <text>in͜s</text>
          </lyric>
        <lyric number="2" default-x="6.50" default-y="-74.11" relative-y="-30.00">
          <syllabic>begin</syllabic>
          <text>ra</text>
          </lyric>
        </note>
      <note default-x="101.60" default-y="-40.00">
        <pitch>
          <step>E</step>
          <octave>4</octave>
          </pitch>
        <duration>1</duration>
        <voice>1</voice>
        <type>eighth</type>
        <stem>up</stem>
        <beam number="1">end</beam>
        <lyric number="1" default-x="6.50" default-y="-50.14" relative-y="-30.00">
          <syllabic>begin</syllabic>
          <text>san</text>
          </lyric>
        <lyric number="2" default-x="6.50" default-y="-74.11" relative-y="-30.00">
          <syllabic>end</syllabic>
          <text>dost</text>
          </lyric>
        </note>
      <note default-x="185.17" default-y="-35.00">
        <pitch>
          <step>F</step>
          <alter>1</alter>
          <octave>4</octave>
          </pitch>
        <duration>1</duration>
        <voice>1</voice>
        <type>eighth</type>
        <stem>up</stem>
        <beam number="1">begin</beam>
        <lyric number="1" default-x="6.50" default-y="-50.14" relative-y="-30.00">
          <syllabic>end</syllabic>
          <text>mi</text>
          </lyric>
        <lyric number="2" default-x="6.50" default-y="-74.11" relative-y="-30.00">
          <syllabic>single</syllabic>
          <text>nam</text>
          </lyric>
        </note>
      <note default-x="268.73" default-y="-45.00">
        <pitch>
          <step>D</step>
          <octave>4</octave>
          </pitch>
        <duration>1</duration>
        <voice>1</voice>
        <type>eighth</type>
        <stem>up</stem>
        <beam number="1">end</beam>
        <lyric number="1" default-x="6.50" default-y="-50.14" relative-y="-30.00">
          <syllabic>single</syllabic>
          <text>na</text>
          </lyric>
        <lyric number="2" default-x="6.50" default-y="-74.11" relative-y="-30.00">
          <syllabic>begin</syllabic>
          <text>ža</text>
          </lyric>
        </note>
      </measure>
    <measure number="8" width="292.52">
      <note default-x="14.89" default-y="-40.00">
        <pitch>
          <step>E</step>
          <octave>4</octave>
          </pitch>
        <duration>1</duration>
        <voice>1</voice>
        <type>eighth</type>
        <stem>up</stem>
        <beam number="1">begin</beam>
        <lyric number="1" default-x="6.50" default-y="-50.14" relative-y="-30.00">
          <syllabic>begin</syllabic>
          <text>be</text>
          </lyric>
        <lyric number="2" default-x="6.50" default-y="-74.11" relative-y="-30.00">
          <syllabic>end</syllabic>
          <text>ri</text>
          </lyric>
        </note>
      <note default-x="89.05" default-y="-50.00">
        <pitch>
          <step>C</step>
          <alter>1</alter>
          <octave>4</octave>
          </pitch>
        <duration>1</duration>
        <voice>1</voice>
        <type>eighth</type>
        <stem>up</stem>
        <beam number="1">end</beam>
        <lyric number="1" default-x="6.50" default-y="-50.14" relative-y="-30.00">
          <syllabic>end</syllabic>
          <text>li</text>
          </lyric>
        <lyric number="2" default-x="6.50" default-y="-74.11" relative-y="-30.00">
          <syllabic>begin</syllabic>
          <text>v͜o</text>
          </lyric>
        </note>
      <note default-x="163.21" default-y="-45.00">
        <pitch>
          <step>D</step>
          <octave>4</octave>
          </pitch>
        <duration>2</duration>
        <voice>1</voice>
        <type>quarter</type>
        <stem>up</stem>
        <lyric number="1" default-x="8.69" default-y="-50.14" relative-y="-30.00">
          <syllabic>single</syllabic>
          <text>breg.</text>
          </lyric>
        <lyric number="2" default-x="9.02" default-y="-74.11" relative-y="-30.00">
          <syllabic>end</syllabic>
          <text>čeh.</text>
          </lyric>
        </note>
      <barline location="right">
        <bar-style>light-heavy</bar-style>
        </barline>
      </measure>
    </part>
  </score-partwise>
