<?xml version="1.0" encoding="UTF-8"?>
<!DOCTYPE score-partwise PUBLIC "-//Recordare//DTD MusicXML 3.1 Partwise//EN" "http://www.musicxml.org/dtds/partwise.dtd">
<score-partwise version="3.1">
  <work>
    <work-title>Biba in ptiček</work-title>
    </work>
  <identification>
    <creator type="composer">Napisala in uglasbila: Mira Voglar</creator>
    <creator type="lyricist">Uredila: Katja Virant Iršič</creator>
    <rights>Prepisala: Lucija Gorjup</rights>
    <encoding>
      <software>MuseScore 3.6.2</software>
      <encoding-date>2022-05-03</encoding-date>
      <supports element="accidental" type="yes"/>
      <supports element="beam" type="yes"/>
      <supports element="print" attribute="new-page" type="yes" value="yes"/>
      <supports element="print" attribute="new-system" type="yes" value="yes"/>
      <supports element="stem" type="yes"/>
      </encoding>
    </identification>
  <defaults>
    <scaling>
      <millimeters>7.05556</millimeters>
      <tenths>40</tenths>
      </scaling>
    <page-layout>
      <page-height>1683.36</page-height>
      <page-width>1190.88</page-width>
      <page-margins type="even">
        <left-margin>56.6929</left-margin>
        <right-margin>56.6929</right-margin>
        <top-margin>56.6929</top-margin>
        <bottom-margin>113.386</bottom-margin>
        </page-margins>
      <page-margins type="odd">
        <left-margin>56.6929</left-margin>
        <right-margin>56.6929</right-margin>
        <top-margin>56.6929</top-margin>
        <bottom-margin>113.386</bottom-margin>
        </page-margins>
      </page-layout>
    <word-font font-family="Edwin" font-size="10"/>
    <lyric-font font-family="Edwin" font-size="10"/>
    </defaults>
  <credit page="1">
    <credit-type>title</credit-type>
    <credit-words default-x="595.44" default-y="1626.67" justify="center" valign="top" font-size="22">Biba in ptiček</credit-words>
    </credit>
  <credit page="1">
    <credit-type>subtitle</credit-type>
    <credit-words default-x="595.44" default-y="1569.97" justify="center" valign="top" font-size="16">Ciciban, november 2003 </credit-words>
    </credit>
  <credit page="1">
    <credit-type>composer</credit-type>
    <credit-words default-x="1134.19" default-y="1487.57" justify="right" valign="bottom">Napisala in uglasbila: Mira Voglar</credit-words>
    </credit>
  <credit page="1">
    <credit-type>lyricist</credit-type>
    <credit-words default-x="56.6929" default-y="1487.57" justify="left" valign="bottom">Uredila: Katja Virant Iršič
</credit-words>
    <credit-words>
</credit-words>
    <credit-words></credit-words>
    </credit>
  <credit page="1">
    <credit-type>rights</credit-type>
    <credit-words default-x="595.44" default-y="113.386" justify="center" valign="bottom" font-family="FreeSerif" font-size="8">Prepisala: Lucija Gorjup</credit-words>
    </credit>
  <part-list>
    <score-part id="P1">
      <part-name>Piano</part-name>
      <part-abbreviation>Pno.</part-abbreviation>
      <score-instrument id="P1-I1">
        <instrument-name>Piano</instrument-name>
        </score-instrument>
      <midi-device id="P1-I1" port="1"></midi-device>
      <midi-instrument id="P1-I1">
        <midi-channel>1</midi-channel>
        <midi-program>1</midi-program>
        <volume>78.7402</volume>
        <pan>0</pan>
        </midi-instrument>
      </score-part>
    </part-list>
  <part id="P1">
    <measure number="0" implicit="yes" width="146.94">
      <print>
        <system-layout>
          <system-margins>
            <left-margin>0.00</left-margin>
            <right-margin>-0.00</right-margin>
            </system-margins>
          <top-system-distance>209.09</top-system-distance>
          </system-layout>
        </print>
      <attributes>
        <divisions>2</divisions>
        <key>
          <fifths>2</fifths>
          </key>
        <time>
          <beats>6</beats>
          <beat-type>8</beat-type>
          </time>
        <clef>
          <sign>G</sign>
          <line>2</line>
          </clef>
        </attributes>
      <direction placement="above">
        <direction-type>
          <words default-x="-35.72" default-y="24.24" relative-y="20.00" font-style="italic" font-family="FreeSerif" font-size="11">Spevno  </words>
          </direction-type>
        <direction-type>
          <metronome parentheses="no" default-x="-35.72" default-y="24.24" relative-y="20.00">
            <beat-unit>eighth</beat-unit>
            <per-minute>120</per-minute>
            </metronome>
          </direction-type>
        <sound tempo="60"/>
        </direction>
      <direction placement="above">
        <direction-type>
          <words relative-y="20.00">1. solist</words>
          </direction-type>
        </direction>
      <note default-x="108.47" default-y="-35.00">
        <pitch>
          <step>F</step>
          <alter>1</alter>
          <octave>4</octave>
          </pitch>
        <duration>1</duration>
        <voice>1</voice>
        <type>eighth</type>
        <stem>up</stem>
        <lyric number="1" default-x="-14.67" default-y="-45.14" relative-y="-30.00">
          <syllabic>single</syllabic>
          <text>1.Če</text>
          </lyric>
        <lyric number="2" default-x="-15.97" default-y="-69.11" relative-y="-30.00">
          <syllabic>single</syllabic>
          <text>2.A</text>
          </lyric>
        </note>
      </measure>
    <measure number="1" width="217.70">
      <note default-x="17.97" default-y="-35.00">
        <pitch>
          <step>F</step>
          <alter>1</alter>
          <octave>4</octave>
          </pitch>
        <duration>2</duration>
        <voice>1</voice>
        <type>quarter</type>
        <stem>up</stem>
        <lyric number="1" default-x="6.50" default-y="-45.14" relative-y="-30.00">
          <syllabic>begin</syllabic>
          <text>sre</text>
          </lyric>
        <lyric number="2" default-x="6.50" default-y="-69.11" relative-y="-30.00">
          <syllabic>begin</syllabic>
          <text>ve</text>
          </lyric>
        </note>
      <note default-x="74.26" default-y="-35.00">
        <pitch>
          <step>F</step>
          <alter>1</alter>
          <octave>4</octave>
          </pitch>
        <duration>1</duration>
        <voice>1</voice>
        <type>eighth</type>
        <stem>up</stem>
        <lyric number="1" default-x="6.50" default-y="-45.14" relative-y="-30.00">
          <syllabic>end</syllabic>
          <text>ča</text>
          </lyric>
        <lyric number="2" default-x="6.50" default-y="-69.11" relative-y="-30.00">
          <syllabic>end</syllabic>
          <text>ter</text>
          </lyric>
        </note>
      <direction placement="above">
        <direction-type>
          <words relative-x="-12.17" relative-y="42.50" font-style="italic">Doživeto, pripovedno</words>
          </direction-type>
        </direction>
      <note default-x="109.45" default-y="-25.00">
        <pitch>
          <step>A</step>
          <octave>4</octave>
          </pitch>
        <duration>1</duration>
        <voice>1</voice>
        <type>eighth</type>
        <stem>up</stem>
        <beam number="1">begin</beam>
        <lyric number="1" default-x="6.50" default-y="-45.14" relative-y="-30.00">
          <syllabic>begin</syllabic>
          <text>mr</text>
          </lyric>
        <lyric number="2" default-x="6.50" default-y="-69.11" relative-y="-30.00">
          <syllabic>begin</syllabic>
          <text>mr</text>
          </lyric>
        </note>
      <note default-x="144.63" default-y="-30.00">
        <pitch>
          <step>G</step>
          <octave>4</octave>
          </pitch>
        <duration>1</duration>
        <voice>1</voice>
        <type>eighth</type>
        <stem>up</stem>
        <beam number="1">continue</beam>
        <lyric number="1" default-x="6.50" default-y="-45.14" relative-y="-30.00">
          <syllabic>middle</syllabic>
          <text>tve</text>
          </lyric>
        <lyric number="2" default-x="6.50" default-y="-69.11" relative-y="-30.00">
          <syllabic>middle</syllabic>
          <text>tve</text>
          </lyric>
        </note>
      <note default-x="180.72" default-y="-35.00">
        <pitch>
          <step>F</step>
          <alter>1</alter>
          <octave>4</octave>
          </pitch>
        <duration>1</duration>
        <voice>1</voice>
        <type>eighth</type>
        <stem>up</stem>
        <beam number="1">end</beam>
        <lyric number="1" default-x="6.50" default-y="-45.14" relative-y="-30.00">
          <syllabic>end</syllabic>
          <text>ga</text>
          </lyric>
        <lyric number="2" default-x="6.50" default-y="-69.11" relative-y="-30.00">
          <syllabic>end</syllabic>
          <text>mu</text>
          </lyric>
        </note>
      </measure>
    <measure number="2" width="109.02">
      <note default-x="16.99" default-y="-40.00">
        <pitch>
          <step>E</step>
          <octave>4</octave>
          </pitch>
        <duration>3</duration>
        <voice>1</voice>
        <type>quarter</type>
        <dot/>
        <stem>up</stem>
        <lyric number="1" default-x="6.50" default-y="-45.14" relative-y="-30.00">
          <syllabic>begin</syllabic>
          <text>pti</text>
          </lyric>
        <lyric number="2" default-x="6.50" default-y="-69.11" relative-y="-30.00">
          <syllabic>begin</syllabic>
          <text>pti</text>
          </lyric>
        </note>
      <note default-x="62.10" default-y="-40.00">
        <pitch>
          <step>E</step>
          <octave>4</octave>
          </pitch>
        <duration>3</duration>
        <voice>1</voice>
        <type>quarter</type>
        <dot/>
        <stem>up</stem>
        <lyric number="1" default-x="8.98" default-y="-45.14" relative-y="-30.00">
          <syllabic>end</syllabic>
          <text>čka,</text>
          </lyric>
        <lyric number="2" default-x="9.03" default-y="-69.11" relative-y="-30.00">
          <syllabic>end</syllabic>
          <text>čku,</text>
          </lyric>
        </note>
      </measure>
    <measure number="3" width="221.98">
      <direction placement="above">
        <direction-type>
          <words relative-y="20.00">2. solist</words>
          </direction-type>
        </direction>
      <note default-x="20.04" default-y="-40.00">
        <pitch>
          <step>E</step>
          <octave>4</octave>
          </pitch>
        <duration>1</duration>
        <voice>1</voice>
        <type>eighth</type>
        <stem>up</stem>
        <beam number="1">begin</beam>
        <lyric number="1" default-x="6.50" default-y="-45.14" relative-y="-30.00">
          <syllabic>begin</syllabic>
          <text>pti</text>
          </lyric>
        <lyric number="2" default-x="6.50" default-y="-69.11" relative-y="-30.00">
          <syllabic>begin</syllabic>
          <text>ptu</text>
          </lyric>
        </note>
      <note default-x="58.85" default-y="-40.00">
        <pitch>
          <step>E</step>
          <octave>4</octave>
          </pitch>
        <duration>1</duration>
        <voice>1</voice>
        <type>eighth</type>
        <stem>up</stem>
        <beam number="1">continue</beam>
        <lyric number="1" default-x="8.98" default-y="-45.14" relative-y="-30.00">
          <syllabic>end</syllabic>
          <text>čka,</text>
          </lyric>
        <lyric number="2" default-x="9.03" default-y="-69.11" relative-y="-30.00">
          <syllabic>end</syllabic>
          <text>čku,</text>
          </lyric>
        </note>
      <note default-x="93.37" default-y="-40.00">
        <pitch>
          <step>E</step>
          <octave>4</octave>
          </pitch>
        <duration>1</duration>
        <voice>1</voice>
        <type>eighth</type>
        <stem>up</stem>
        <beam number="1">end</beam>
        <lyric number="1" default-x="6.50" default-y="-45.14" relative-y="-30.00">
          <syllabic>single</syllabic>
          <text>ki</text>
          </lyric>
        <lyric number="2" default-x="6.50" default-y="-69.11" relative-y="-30.00">
          <syllabic>single</syllabic>
          <text>ki</text>
          </lyric>
        </note>
      <note default-x="125.08" default-y="-40.00">
        <pitch>
          <step>E</step>
          <octave>4</octave>
          </pitch>
        <duration>1</duration>
        <voice>1</voice>
        <type>eighth</type>
        <stem>up</stem>
        <beam number="1">begin</beam>
        <lyric number="1" default-x="6.50" default-y="-45.14" relative-y="-30.00">
          <syllabic>begin</syllabic>
          <text>ti</text>
          </lyric>
        <lyric number="2" default-x="6.50" default-y="-69.11" relative-y="-30.00">
          <syllabic>begin</syllabic>
          <text>ti</text>
          </lyric>
        </note>
      <note default-x="156.78" default-y="-45.00">
        <pitch>
          <step>D</step>
          <octave>4</octave>
          </pitch>
        <duration>1</duration>
        <voice>1</voice>
        <type>eighth</type>
        <stem>up</stem>
        <beam number="1">continue</beam>
        <lyric number="1" default-x="6.50" default-y="-45.14" relative-y="-30.00">
          <syllabic>end</syllabic>
          <text>ho</text>
          </lyric>
        <lyric number="2" default-x="6.50" default-y="-69.11" relative-y="-30.00">
          <syllabic>end</syllabic>
          <text>ho</text>
          </lyric>
        </note>
      <note default-x="188.48" default-y="-40.00">
        <pitch>
          <step>E</step>
          <octave>4</octave>
          </pitch>
        <duration>1</duration>
        <voice>1</voice>
        <type>eighth</type>
        <stem>up</stem>
        <beam number="1">end</beam>
        <lyric number="1" default-x="6.50" default-y="-45.14" relative-y="-30.00">
          <syllabic>begin</syllabic>
          <text>le</text>
          </lyric>
        <lyric number="2" default-x="6.50" default-y="-69.11" relative-y="-30.00">
          <syllabic>begin</syllabic>
          <text>le</text>
          </lyric>
        </note>
      </measure>
    <measure number="4" width="96.59">
      <note default-x="11.94" default-y="-35.00">
        <pitch>
          <step>F</step>
          <alter>1</alter>
          <octave>4</octave>
          </pitch>
        <duration>3</duration>
        <tie type="start"/>
        <voice>1</voice>
        <type>quarter</type>
        <dot/>
        <stem>up</stem>
        <notations>
          <tied type="start"/>
          </notations>
        <lyric number="1" default-x="9.06" default-y="-45.14" relative-y="-30.00">
          <syllabic>end</syllabic>
          <text>ži,</text>
          </lyric>
        <lyric number="2" default-x="9.06" default-y="-69.11" relative-y="-30.00">
          <syllabic>end</syllabic>
          <text>ži,</text>
          </lyric>
        </note>
      <note default-x="40.70" default-y="-35.00">
        <pitch>
          <step>F</step>
          <alter>1</alter>
          <octave>4</octave>
          </pitch>
        <duration>2</duration>
        <tie type="stop"/>
        <voice>1</voice>
        <type>quarter</type>
        <stem>up</stem>
        <notations>
          <tied type="stop"/>
          </notations>
        </note>
      <note>
        <rest/>
        <duration>1</duration>
        <voice>1</voice>
        <type>eighth</type>
        <notations>
          <articulations>
            <breath-mark/>
            </articulations>
          </notations>
        </note>
      </measure>
    <measure number="5" width="285.25">
      <direction placement="above">
        <direction-type>
          <words relative-y="20.00">zbor</words>
          </direction-type>
        </direction>
      <note default-x="14.87" default-y="-45.00">
        <pitch>
          <step>D</step>
          <octave>4</octave>
          </pitch>
        <duration>1</duration>
        <voice>1</voice>
        <type>eighth</type>
        <stem>up</stem>
        <beam number="1">begin</beam>
        <lyric number="1" default-x="6.50" default-y="-45.14" relative-y="-30.00">
          <syllabic>begin</syllabic>
          <text>bi</text>
          </lyric>
        <lyric number="2" default-x="6.50" default-y="-69.11" relative-y="-30.00">
          <syllabic>begin</syllabic>
          <text>pe</text>
          </lyric>
        </note>
      <note default-x="59.34" default-y="-45.00">
        <pitch>
          <step>D</step>
          <octave>4</octave>
          </pitch>
        <duration>1</duration>
        <voice>1</voice>
        <type>eighth</type>
        <stem>up</stem>
        <beam number="1">continue</beam>
        <lyric number="1" default-x="6.50" default-y="-45.14" relative-y="-30.00">
          <syllabic>end</syllabic>
          <text>ba</text>
          </lyric>
        <lyric number="2" default-x="6.50" default-y="-69.11" relative-y="-30.00">
          <syllabic>middle</syllabic>
          <text>smi</text>
          </lyric>
        </note>
      <note default-x="103.82" default-y="-45.00">
        <pitch>
          <step>D</step>
          <octave>4</octave>
          </pitch>
        <duration>1</duration>
        <voice>1</voice>
        <type>eighth</type>
        <stem>up</stem>
        <beam number="1">end</beam>
        <lyric number="1" default-x="6.50" default-y="-45.14" relative-y="-30.00">
          <syllabic>begin</syllabic>
          <text>se</text>
          </lyric>
        <lyric number="2" default-x="6.50" default-y="-69.11" relative-y="-30.00">
          <syllabic>end</syllabic>
          <text>co</text>
          </lyric>
        </note>
      <note default-x="148.29" default-y="-45.00">
        <pitch>
          <step>D</step>
          <octave>4</octave>
          </pitch>
        <duration>1</duration>
        <voice>1</voice>
        <type>eighth</type>
        <stem>up</stem>
        <beam number="1">begin</beam>
        <lyric number="1" default-x="6.50" default-y="-45.14" relative-y="-30.00">
          <syllabic>middle</syllabic>
          <text>zi</text>
          </lyric>
        <lyric number="2" default-x="6.50" default-y="-69.11" relative-y="-30.00">
          <syllabic>begin</syllabic>
          <text>uspa</text>
          </lyric>
        </note>
      <note default-x="194.51" default-y="-40.00">
        <pitch>
          <step>E</step>
          <octave>4</octave>
          </pitch>
        <duration>1</duration>
        <voice>1</voice>
        <type>eighth</type>
        <stem>up</stem>
        <beam number="1">continue</beam>
        <lyric number="1" default-x="6.50" default-y="-45.14" relative-y="-30.00">
          <syllabic>end</syllabic>
          <text>da</text>
          </lyric>
        <lyric number="2" default-x="6.50" default-y="-69.11" relative-y="-30.00">
          <syllabic>middle</syllabic>
          <text>van</text>
          </lyric>
        </note>
      <note default-x="238.98" default-y="-35.00">
        <pitch>
          <step>F</step>
          <alter>1</alter>
          <octave>4</octave>
          </pitch>
        <duration>1</duration>
        <voice>1</voice>
        <type>eighth</type>
        <stem>up</stem>
        <beam number="1">end</beam>
        <lyric number="1" default-x="6.50" default-y="-45.14" relative-y="-30.00">
          <syllabic>single</syllabic>
          <text>zanj</text>
          </lyric>
        <lyric number="2" default-x="6.50" default-y="-69.11" relative-y="-30.00">
          <syllabic>end</syllabic>
          <text>ko</text>
          </lyric>
        </note>
      </measure>
    <measure number="6" width="237.00">
      <print new-system="yes">
        <system-layout>
          <system-margins>
            <left-margin>0.00</left-margin>
            <right-margin>0.00</right-margin>
            </system-margins>
          <system-distance>150.00</system-distance>
          </system-layout>
        </print>
      <note default-x="88.35" default-y="-30.00">
        <pitch>
          <step>G</step>
          <octave>4</octave>
          </pitch>
        <duration>2</duration>
        <voice>1</voice>
        <type>quarter</type>
        <stem>up</stem>
        <lyric number="1" default-x="6.50" default-y="-52.31" relative-y="-30.00">
          <syllabic>begin</syllabic>
          <text>sve</text>
          </lyric>
        <lyric number="2" default-x="6.50" default-y="-76.28" relative-y="-30.00">
          <syllabic>begin</syllabic>
          <text>za</text>
          </lyric>
        </note>
      <note default-x="135.14" default-y="-25.00">
        <pitch>
          <step>A</step>
          <octave>4</octave>
          </pitch>
        <duration>1</duration>
        <voice>1</voice>
        <type>eighth</type>
        <stem>up</stem>
        <lyric number="1" default-x="6.50" default-y="-52.31" relative-y="-30.00">
          <syllabic>end</syllabic>
          <text>tel</text>
          </lyric>
        <lyric number="2" default-x="6.50" default-y="-76.28" relative-y="-30.00">
          <syllabic>middle</syllabic>
          <text>žgo</text>
          </lyric>
        </note>
      <note default-x="178.15" default-y="-30.00">
        <pitch>
          <step>G</step>
          <octave>4</octave>
          </pitch>
        <duration>3</duration>
        <voice>1</voice>
        <type>quarter</type>
        <dot/>
        <stem>up</stem>
        <lyric number="1" default-x="8.73" default-y="-52.31" relative-y="-30.00">
          <syllabic>single</syllabic>
          <text>grad,</text>
          </lyric>
        <lyric number="2" default-x="8.80" default-y="-76.28" relative-y="-30.00">
          <syllabic>end</syllabic>
          <text>li:</text>
          </lyric>
        </note>
      </measure>
    <measure number="7" width="187.64">
      <direction placement="above">
        <direction-type>
          <words relative-x="-16.23" relative-y="17.55" font-style="italic">vedno tišje</words>
          </direction-type>
        </direction>
      <note default-x="23.89" default-y="-35.00">
        <pitch>
          <step>F</step>
          <alter>1</alter>
          <octave>4</octave>
          </pitch>
        <duration>2</duration>
        <voice>1</voice>
        <type>quarter</type>
        <stem>up</stem>
        <lyric number="1" default-x="6.50" default-y="-52.31" relative-y="-30.00">
          <syllabic>single</syllabic>
          <text>vanj</text>
          </lyric>
        <lyric number="2" default-x="6.50" default-y="-76.28" relative-y="-30.00">
          <syllabic>begin</syllabic>
          <text>fi</text>
          </lyric>
        </note>
      <note default-x="72.26" default-y="-25.00">
        <pitch>
          <step>A</step>
          <octave>4</octave>
          </pitch>
        <duration>1</duration>
        <voice>1</voice>
        <type>eighth</type>
        <stem>up</stem>
        <lyric number="1" default-x="6.50" default-y="-52.31" relative-y="-30.00">
          <syllabic>single</syllabic>
          <text>da</text>
          </lyric>
        <lyric number="2" default-x="7.85" default-y="-76.28" relative-y="-30.00">
          <syllabic>end</syllabic>
          <text>ju,</text>
          </lyric>
        </note>
      <note default-x="102.91" default-y="-35.00">
        <pitch>
          <step>F</step>
          <alter>1</alter>
          <octave>4</octave>
          </pitch>
        <duration>2</duration>
        <voice>1</voice>
        <type>quarter</type>
        <stem>up</stem>
        <lyric number="1" default-x="6.50" default-y="-52.31" relative-y="-30.00">
          <syllabic>begin</syllabic>
          <text>pti</text>
          </lyric>
        <lyric number="2" default-x="6.50" default-y="-76.28" relative-y="-30.00">
          <syllabic>begin</syllabic>
          <text>fi</text>
          </lyric>
        </note>
      <note default-x="151.28" default-y="-40.00">
        <pitch>
          <step>E</step>
          <octave>4</octave>
          </pitch>
        <duration>1</duration>
        <voice>1</voice>
        <type>eighth</type>
        <stem>up</stem>
        <lyric number="1" default-x="6.50" default-y="-52.31" relative-y="-30.00">
          <syllabic>end</syllabic>
          <text>čka</text>
          </lyric>
        <lyric number="2" default-x="7.85" default-y="-76.28" relative-y="-30.00">
          <syllabic>end</syllabic>
          <text>ju,</text>
          </lyric>
        </note>
      </measure>
    <measure number="8" width="102.76">
      <note default-x="23.12" default-y="-45.00">
        <pitch>
          <step>D</step>
          <octave>4</octave>
          </pitch>
        <duration>3</duration>
        <tie type="start"/>
        <voice>1</voice>
        <type>quarter</type>
        <dot/>
        <stem>up</stem>
        <notations>
          <tied type="start"/>
          </notations>
        <lyric number="1" default-x="9.61" default-y="-52.31" relative-y="-30.00">
          <syllabic>single</syllabic>
          <text>spat,</text>
          </lyric>
        <lyric number="2" default-x="8.54" default-y="-76.28" relative-y="-30.00">
          <syllabic>single</syllabic>
          <text>fi,</text>
          </lyric>
        </note>
      <note default-x="53.25" default-y="-45.00">
        <pitch>
          <step>D</step>
          <octave>4</octave>
          </pitch>
        <duration>2</duration>
        <tie type="stop"/>
        <voice>1</voice>
        <type>quarter</type>
        <stem>up</stem>
        <notations>
          <tied type="stop"/>
          </notations>
        </note>
      <note>
        <rest/>
        <duration>1</duration>
        <voice>1</voice>
        <type>eighth</type>
        </note>
      </measure>
    <measure number="9" width="187.64">
      <direction placement="above">
        <direction-type>
          <words relative-x="-12.17" relative-y="19.18" font-style="italic">še tiše</words>
          </direction-type>
        </direction>
      <note default-x="23.89" default-y="-35.00">
        <pitch>
          <step>F</step>
          <alter>1</alter>
          <octave>4</octave>
          </pitch>
        <duration>2</duration>
        <voice>1</voice>
        <type>quarter</type>
        <stem>up</stem>
        <lyric number="1" default-x="6.50" default-y="-52.31" relative-y="-30.00">
          <syllabic>single</syllabic>
          <text>vanj</text>
          </lyric>
        <lyric number="2" default-x="6.50" default-y="-76.28" relative-y="-30.00">
          <syllabic>begin</syllabic>
          <text>fi</text>
          </lyric>
        </note>
      <note default-x="72.26" default-y="-25.00">
        <pitch>
          <step>A</step>
          <octave>4</octave>
          </pitch>
        <duration>1</duration>
        <voice>1</voice>
        <type>eighth</type>
        <stem>up</stem>
        <lyric number="1" default-x="6.50" default-y="-52.31" relative-y="-30.00">
          <syllabic>single</syllabic>
          <text>da</text>
          </lyric>
        <lyric number="2" default-x="7.85" default-y="-76.28" relative-y="-30.00">
          <syllabic>end</syllabic>
          <text>ju,</text>
          </lyric>
        </note>
      <note default-x="102.91" default-y="-35.00">
        <pitch>
          <step>F</step>
          <alter>1</alter>
          <octave>4</octave>
          </pitch>
        <duration>2</duration>
        <voice>1</voice>
        <type>quarter</type>
        <stem>up</stem>
        <lyric number="1" default-x="6.50" default-y="-52.31" relative-y="-30.00">
          <syllabic>begin</syllabic>
          <text>pti</text>
          </lyric>
        <lyric number="2" default-x="6.50" default-y="-76.28" relative-y="-30.00">
          <syllabic>begin</syllabic>
          <text>fi</text>
          </lyric>
        </note>
      <note default-x="151.28" default-y="-40.00">
        <pitch>
          <step>E</step>
          <octave>4</octave>
          </pitch>
        <duration>1</duration>
        <voice>1</voice>
        <type>eighth</type>
        <stem>up</stem>
        <lyric number="1" default-x="6.50" default-y="-52.31" relative-y="-30.00">
          <syllabic>end</syllabic>
          <text>čka</text>
          </lyric>
        <lyric number="2" default-x="7.85" default-y="-76.28" relative-y="-30.00">
          <syllabic>end</syllabic>
          <text>ju,</text>
          </lyric>
        </note>
      </measure>
    <measure number="10" width="108.26">
      <note default-x="23.12" default-y="-45.00">
        <pitch>
          <step>D</step>
          <octave>4</octave>
          </pitch>
        <duration>3</duration>
        <tie type="start"/>
        <voice>1</voice>
        <type>quarter</type>
        <dot/>
        <stem>up</stem>
        <notations>
          <tied type="start"/>
          </notations>
        <lyric number="1" default-x="9.61" default-y="-52.31" relative-y="-30.00">
          <syllabic>single</syllabic>
          <text>spat,</text>
          </lyric>
        <lyric number="2" default-x="8.54" default-y="-76.28" relative-y="-30.00">
          <syllabic>single</syllabic>
          <text>fi,</text>
          </lyric>
        </note>
      <note default-x="53.25" default-y="-45.00">
        <pitch>
          <step>D</step>
          <octave>4</octave>
          </pitch>
        <duration>2</duration>
        <tie type="stop"/>
        <voice>1</voice>
        <type>quarter</type>
        <stem>up</stem>
        <notations>
          <tied type="stop"/>
          </notations>
        </note>
      <note>
        <rest/>
        <duration>1</duration>
        <voice>1</voice>
        <type>eighth</type>
        </note>
      <barline location="right">
        <bar-style>light-light</bar-style>
        <fermata type="upright" relative-y="10.00"/>
        </barline>
      </measure>
    <measure number="11" width="145.85">
      <direction placement="above">
        <direction-type>
          <words relative-x="8.12" relative-y="26.28" font-style="italic">najtiše</words>
          </direction-type>
        </direction>
      <note default-x="10.78" default-y="-35.00">
        <pitch>
          <step>F</step>
          <alter>1</alter>
          <octave>4</octave>
          </pitch>
        <duration>2</duration>
        <voice>1</voice>
        <type>quarter</type>
        <stem>up</stem>
        <lyric number="1" default-x="6.50" default-y="-52.31" relative-y="-30.00">
          <syllabic>begin</syllabic>
          <text>fi</text>
          </lyric>
        <lyric number="2" default-x="6.50" default-y="-76.28" relative-y="-30.00">
          <syllabic>begin</syllabic>
          <text>fi</text>
          </lyric>
        </note>
      <note default-x="46.61" default-y="-25.00">
        <pitch>
          <step>A</step>
          <octave>4</octave>
          </pitch>
        <duration>1</duration>
        <voice>1</voice>
        <type>eighth</type>
        <stem>up</stem>
        <lyric number="1" default-x="7.85" default-y="-52.31" relative-y="-30.00">
          <syllabic>end</syllabic>
          <text>ju,</text>
          </lyric>
        <lyric number="2" default-x="7.85" default-y="-76.28" relative-y="-30.00">
          <syllabic>end</syllabic>
          <text>ju,</text>
          </lyric>
        </note>
      <note default-x="73.66" default-y="-35.00">
        <pitch>
          <step>F</step>
          <alter>1</alter>
          <octave>4</octave>
          </pitch>
        <duration>2</duration>
        <voice>1</voice>
        <type>quarter</type>
        <stem>up</stem>
        <lyric number="1" default-x="6.50" default-y="-52.31" relative-y="-30.00">
          <syllabic>begin</syllabic>
          <text>fi</text>
          </lyric>
        <lyric number="2" default-x="6.50" default-y="-76.28" relative-y="-30.00">
          <syllabic>begin</syllabic>
          <text>fi</text>
          </lyric>
        </note>
      <note default-x="109.49" default-y="-40.00">
        <pitch>
          <step>E</step>
          <octave>4</octave>
          </pitch>
        <duration>1</duration>
        <voice>1</voice>
        <type>eighth</type>
        <stem>up</stem>
        <lyric number="1" default-x="6.50" default-y="-52.31" relative-y="-30.00">
          <syllabic>end</syllabic>
          <text>ju</text>
          </lyric>
        <lyric number="2" default-x="7.85" default-y="-76.28" relative-y="-30.00">
          <syllabic>end</syllabic>
          <text>ju,</text>
          </lyric>
        </note>
      </measure>
    <measure number="12" width="108.35">
      <note default-x="11.17" default-y="-45.00">
        <pitch>
          <step>D</step>
          <octave>4</octave>
          </pitch>
        <duration>3</duration>
        <tie type="start"/>
        <voice>1</voice>
        <type>quarter</type>
        <dot/>
        <stem>up</stem>
        <notations>
          <tied type="start"/>
          </notations>
        <lyric number="1" default-x="8.35" default-y="-52.31" relative-y="-30.00">
          <syllabic>single</syllabic>
          <text>fi.</text>
          </lyric>
        <lyric number="2" default-x="8.35" default-y="-76.28" relative-y="-30.00">
          <syllabic>single</syllabic>
          <text>fi.</text>
          </lyric>
        </note>
      <note default-x="46.29" default-y="-45.00">
        <pitch>
          <step>D</step>
          <octave>4</octave>
          </pitch>
        <duration>1</duration>
        <tie type="stop"/>
        <voice>1</voice>
        <type>eighth</type>
        <stem>up</stem>
        <notations>
          <tied type="stop"/>
          </notations>
        </note>
      <note>
        <rest/>
        <duration>2</duration>
        <voice>1</voice>
        <type>quarter</type>
        </note>
      <barline location="right">
        <bar-style>light-light</bar-style>
        </barline>
      </measure>
    </part>
  </score-partwise>
