<?xml version="1.0" encoding="UTF-8"?>
<!DOCTYPE score-partwise PUBLIC "-//Recordare//DTD MusicXML 3.1 Partwise//EN" "http://www.musicxml.org/dtds/partwise.dtd">
<score-partwise version="3.1">
  <work>
    <work-title>Čolnički</work-title>
    </work>
  <identification>
    <creator type="composer">Napisala: Anja Štefan Uglasbil: Jani Golob</creator>
    <creator type="lyricist">Uredila: Katja Virant Iršič</creator>
    <rights>Prepisala: Lucija Gorjup</rights>
    <encoding>
      <software>MuseScore 3.6.2</software>
      <encoding-date>2022-04-12</encoding-date>
      <supports element="accidental" type="yes"/>
      <supports element="beam" type="yes"/>
      <supports element="print" attribute="new-page" type="yes" value="yes"/>
      <supports element="print" attribute="new-system" type="yes" value="yes"/>
      <supports element="stem" type="yes"/>
      </encoding>
    </identification>
  <defaults>
    <scaling>
      <millimeters>7.05556</millimeters>
      <tenths>40</tenths>
      </scaling>
    <page-layout>
      <page-height>1683.36</page-height>
      <page-width>1190.88</page-width>
      <page-margins type="even">
        <left-margin>56.6929</left-margin>
        <right-margin>56.6929</right-margin>
        <top-margin>56.6929</top-margin>
        <bottom-margin>113.386</bottom-margin>
        </page-margins>
      <page-margins type="odd">
        <left-margin>56.6929</left-margin>
        <right-margin>56.6929</right-margin>
        <top-margin>56.6929</top-margin>
        <bottom-margin>113.386</bottom-margin>
        </page-margins>
      </page-layout>
    <word-font font-family="Edwin" font-size="10"/>
    <lyric-font font-family="Edwin" font-size="10"/>
    </defaults>
  <credit page="1">
    <credit-type>title</credit-type>
    <credit-words default-x="595.44" default-y="1626.67" justify="center" valign="top" font-size="22">Čolnički</credit-words>
    </credit>
  <credit page="1">
    <credit-type>subtitle</credit-type>
    <credit-words default-x="595.44" default-y="1569.97" justify="center" valign="top" font-size="16">Ciciban, november 2002</credit-words>
    </credit>
  <credit page="1">
    <credit-type>composer</credit-type>
    <credit-words default-x="1134.19" default-y="1526.67" justify="right" valign="bottom">Napisala: Anja Štefan Uglasbil: Jani Golob</credit-words>
    </credit>
  <credit page="1">
    <credit-type>lyricist</credit-type>
    <credit-words default-x="56.6929" default-y="1526.67" justify="left" valign="bottom">Uredila: Katja Virant Iršič</credit-words>
    </credit>
  <credit page="1">
    <credit-type>rights</credit-type>
    <credit-words default-x="595.44" default-y="113.386" justify="center" valign="bottom" font-family="FreeSerif" font-size="8">Prepisala: Lucija Gorjup</credit-words>
    </credit>
  <part-list>
    <score-part id="P1">
      <part-name>Piano</part-name>
      <part-abbreviation>Pno.</part-abbreviation>
      <score-instrument id="P1-I1">
        <instrument-name>Piano</instrument-name>
        </score-instrument>
      <midi-device id="P1-I1" port="1"></midi-device>
      <midi-instrument id="P1-I1">
        <midi-channel>1</midi-channel>
        <midi-program>1</midi-program>
        <volume>78.7402</volume>
        <pan>0</pan>
        </midi-instrument>
      </score-part>
    </part-list>
  <part id="P1">
    <measure number="1" width="226.63">
      <print>
        <system-layout>
          <system-margins>
            <left-margin>0.00</left-margin>
            <right-margin>0.00</right-margin>
            </system-margins>
          <top-system-distance>170.00</top-system-distance>
          </system-layout>
        </print>
      <attributes>
        <divisions>2</divisions>
        <key>
          <fifths>2</fifths>
          </key>
        <time>
          <beats>3</beats>
          <beat-type>8</beat-type>
          </time>
        <clef>
          <sign>G</sign>
          <line>2</line>
          </clef>
        </attributes>
      <note default-x="108.47" default-y="-25.00">
        <pitch>
          <step>A</step>
          <octave>4</octave>
          </pitch>
        <duration>1</duration>
        <voice>1</voice>
        <type>eighth</type>
        <stem>up</stem>
        <beam number="1">begin</beam>
        <lyric number="1" default-x="6.50" default-y="-45.14" relative-y="-30.00">
          <syllabic>begin</syllabic>
          <text>Se</text>
          </lyric>
        </note>
      <note default-x="147.26" default-y="-25.00">
        <pitch>
          <step>A</step>
          <octave>4</octave>
          </pitch>
        <duration>1</duration>
        <voice>1</voice>
        <type>eighth</type>
        <stem>up</stem>
        <beam number="1">continue</beam>
        <lyric number="1" default-x="6.50" default-y="-45.14" relative-y="-30.00">
          <syllabic>end</syllabic>
          <text>dem</text>
          </lyric>
        </note>
      <note default-x="186.05" default-y="-25.00">
        <pitch>
          <step>A</step>
          <octave>4</octave>
          </pitch>
        <duration>1</duration>
        <voice>1</voice>
        <type>eighth</type>
        <stem>up</stem>
        <beam number="1">end</beam>
        <lyric number="1" default-x="6.50" default-y="-45.14" relative-y="-30.00">
          <syllabic>begin</syllabic>
          <text>čol</text>
          </lyric>
        </note>
      </measure>
    <measure number="2" width="99.62">
      <note default-x="18.00" default-y="-10.00">
        <pitch>
          <step>D</step>
          <octave>5</octave>
          </pitch>
        <duration>2</duration>
        <voice>1</voice>
        <type>quarter</type>
        <stem>down</stem>
        <lyric number="1" default-x="6.50" default-y="-45.14" relative-y="-30.00">
          <syllabic>middle</syllabic>
          <text>nič</text>
          </lyric>
        </note>
      <note default-x="63.27" default-y="-25.00">
        <pitch>
          <step>A</step>
          <octave>4</octave>
          </pitch>
        <duration>1</duration>
        <voice>1</voice>
        <type>eighth</type>
        <stem>up</stem>
        <lyric number="1" default-x="6.50" default-y="-45.14" relative-y="-30.00">
          <syllabic>end</syllabic>
          <text>kov</text>
          </lyric>
        </note>
      </measure>
    <measure number="3" width="111.51">
      <note default-x="13.19" default-y="-30.00">
        <pitch>
          <step>G</step>
          <octave>4</octave>
          </pitch>
        <duration>1</duration>
        <voice>1</voice>
        <type>eighth</type>
        <stem>up</stem>
        <beam number="1">begin</beam>
        <lyric number="1" default-x="6.50" default-y="-45.14" relative-y="-30.00">
          <syllabic>single</syllabic>
          <text>je</text>
          </lyric>
        </note>
      <note default-x="45.36" default-y="-35.00">
        <pitch>
          <step>F</step>
          <alter>1</alter>
          <octave>4</octave>
          </pitch>
        <duration>1</duration>
        <voice>1</voice>
        <type>eighth</type>
        <stem>up</stem>
        <beam number="1">continue</beam>
        <lyric number="1" default-x="6.50" default-y="-45.14" relative-y="-30.00">
          <syllabic>begin</syllabic>
          <text>pri</text>
          </lyric>
        </note>
      <note default-x="77.54" default-y="-40.00">
        <pitch>
          <step>E</step>
          <octave>4</octave>
          </pitch>
        <duration>1</duration>
        <voice>1</voice>
        <type>eighth</type>
        <stem>up</stem>
        <beam number="1">end</beam>
        <lyric number="1" default-x="6.50" default-y="-45.14" relative-y="-30.00">
          <syllabic>middle</syllabic>
          <text>ve</text>
          </lyric>
        </note>
      </measure>
    <measure number="4" width="89.56">
      <note default-x="17.45" default-y="-35.00">
        <pitch>
          <step>F</step>
          <alter>1</alter>
          <octave>4</octave>
          </pitch>
        <duration>2</duration>
        <voice>1</voice>
        <type>quarter</type>
        <stem>up</stem>
        <lyric number="1" default-x="6.50" default-y="-45.14" relative-y="-30.00">
          <syllabic>middle</syllabic>
          <text>sla</text>
          </lyric>
        </note>
      <note default-x="53.20" default-y="-25.00">
        <pitch>
          <step>A</step>
          <octave>4</octave>
          </pitch>
        <duration>1</duration>
        <voice>1</voice>
        <type>eighth</type>
        <stem>up</stem>
        <lyric number="1" default-x="8.86" default-y="-45.14" relative-y="-30.00">
          <syllabic>end</syllabic>
          <text>lo,</text>
          </lyric>
        </note>
      </measure>
    <measure number="5" width="132.79">
      <note default-x="13.53" default-y="-20.00">
        <pitch>
          <step>B</step>
          <octave>4</octave>
          </pitch>
        <duration>1</duration>
        <voice>1</voice>
        <type>eighth</type>
        <stem>up</stem>
        <beam number="1">begin</beam>
        <lyric number="1" default-x="6.50" default-y="-45.14" relative-y="-30.00">
          <syllabic>begin</syllabic>
          <text>se</text>
          </lyric>
        </note>
      <note default-x="52.68" default-y="-25.00">
        <pitch>
          <step>A</step>
          <octave>4</octave>
          </pitch>
        <duration>1</duration>
        <voice>1</voice>
        <type>eighth</type>
        <stem>up</stem>
        <beam number="1">continue</beam>
        <lyric number="1" default-x="6.50" default-y="-45.14" relative-y="-30.00">
          <syllabic>end</syllabic>
          <text>dem</text>
          </lyric>
        </note>
      <note default-x="91.84" default-y="-30.00">
        <pitch>
          <step>G</step>
          <octave>4</octave>
          </pitch>
        <duration>1</duration>
        <voice>1</voice>
        <type>eighth</type>
        <stem>up</stem>
        <beam number="1">end</beam>
        <lyric number="1" default-x="6.50" default-y="-45.14" relative-y="-30.00">
          <syllabic>begin</syllabic>
          <text>mo</text>
          </lyric>
        </note>
      </measure>
    <measure number="6" width="96.68">
      <note default-x="16.58" default-y="-35.00">
        <pitch>
          <step>F</step>
          <alter>1</alter>
          <octave>4</octave>
          </pitch>
        <duration>2</duration>
        <voice>1</voice>
        <type>quarter</type>
        <stem>up</stem>
        <lyric number="1" default-x="6.50" default-y="-45.14" relative-y="-30.00">
          <syllabic>middle</syllabic>
          <text>žič</text>
          </lyric>
        </note>
      <note default-x="60.32" default-y="-45.00">
        <pitch>
          <step>D</step>
          <octave>4</octave>
          </pitch>
        <duration>1</duration>
        <voice>1</voice>
        <type>eighth</type>
        <stem>up</stem>
        <lyric number="1" default-x="6.50" default-y="-45.14" relative-y="-30.00">
          <syllabic>end</syllabic>
          <text>kov</text>
          </lyric>
        </note>
      </measure>
    <measure number="7" width="109.51">
      <note default-x="21.06" default-y="-40.00">
        <pitch>
          <step>E</step>
          <octave>4</octave>
          </pitch>
        <duration>1</duration>
        <voice>1</voice>
        <type>eighth</type>
        <stem>up</stem>
        <beam number="1">begin</beam>
        <lyric number="1" default-x="6.50" default-y="-45.14" relative-y="-30.00">
          <syllabic>single</syllabic>
          <text>hop</text>
          </lyric>
        </note>
      <note default-x="53.63" default-y="-45.00">
        <pitch>
          <step>D</step>
          <octave>4</octave>
          </pitch>
        <duration>1</duration>
        <voice>1</voice>
        <type>eighth</type>
        <stem>up</stem>
        <beam number="1">continue</beam>
        <lyric number="1" default-x="6.50" default-y="-45.14" relative-y="-30.00">
          <syllabic>single</syllabic>
          <text>na</text>
          </lyric>
        </note>
      <note default-x="80.67" default-y="-50.00">
        <pitch>
          <step>C</step>
          <alter>1</alter>
          <octave>4</octave>
          </pitch>
        <duration>1</duration>
        <voice>1</voice>
        <type>eighth</type>
        <stem>up</stem>
        <beam number="1">end</beam>
        <lyric number="1" default-x="6.50" default-y="-45.14" relative-y="-30.00">
          <syllabic>begin</syllabic>
          <text>o</text>
          </lyric>
        </note>
      </measure>
    <measure number="8" width="85.85">
      <note default-x="15.66" default-y="-45.00">
        <pitch>
          <step>D</step>
          <octave>4</octave>
          </pitch>
        <duration>2</duration>
        <voice>1</voice>
        <type>quarter</type>
        <stem>up</stem>
        <lyric number="1" default-x="6.50" default-y="-45.14" relative-y="-30.00">
          <syllabic>middle</syllabic>
          <text>ba</text>
          </lyric>
        </note>
      <note default-x="49.49" default-y="-45.00">
        <pitch>
          <step>D</step>
          <octave>4</octave>
          </pitch>
        <duration>1</duration>
        <voice>1</voice>
        <type>eighth</type>
        <stem>up</stem>
        <lyric number="1" default-x="8.86" default-y="-45.14" relative-y="-30.00">
          <syllabic>end</syllabic>
          <text>lo,</text>
          </lyric>
        </note>
      </measure>
    <measure number="9" width="125.33">
      <note default-x="13.53" default-y="-40.00">
        <pitch>
          <step>E</step>
          <octave>4</octave>
          </pitch>
        <duration>1</duration>
        <voice>1</voice>
        <type>eighth</type>
        <stem>up</stem>
        <beam number="1">begin</beam>
        <lyric number="1" default-x="6.50" default-y="-45.14" relative-y="-30.00">
          <syllabic>begin</syllabic>
          <text>se</text>
          </lyric>
        </note>
      <note default-x="50.20" default-y="-40.00">
        <pitch>
          <step>E</step>
          <octave>4</octave>
          </pitch>
        <duration>1</duration>
        <voice>1</voice>
        <type>eighth</type>
        <stem>up</stem>
        <beam number="1">continue</beam>
        <lyric number="1" default-x="6.50" default-y="-45.14" relative-y="-30.00">
          <syllabic>end</syllabic>
          <text>dem</text>
          </lyric>
        </note>
      <note default-x="86.87" default-y="-35.00">
        <pitch>
          <step>F</step>
          <alter>1</alter>
          <octave>4</octave>
          </pitch>
        <duration>1</duration>
        <voice>1</voice>
        <type>eighth</type>
        <stem>up</stem>
        <beam number="1">end</beam>
        <lyric number="1" default-x="6.50" default-y="-45.14" relative-y="-30.00">
          <syllabic>begin</syllabic>
          <text>za</text>
          </lyric>
        </note>
      </measure>
    <measure number="10" width="163.14">
      <print new-system="yes">
        <system-layout>
          <system-margins>
            <left-margin>0.00</left-margin>
            <right-margin>0.00</right-margin>
            </system-margins>
          <system-distance>150.00</system-distance>
          </system-layout>
        </print>
      <note default-x="88.35" default-y="-30.00">
        <pitch>
          <step>G</step>
          <octave>4</octave>
          </pitch>
        <duration>2</duration>
        <voice>1</voice>
        <type>quarter</type>
        <stem>up</stem>
        <lyric number="1" default-x="6.50" default-y="-46.10" relative-y="-30.00">
          <syllabic>middle</syllabic>
          <text>bo</text>
          </lyric>
        </note>
      <note default-x="126.78" default-y="-40.00">
        <pitch>
          <step>E</step>
          <octave>4</octave>
          </pitch>
        <duration>1</duration>
        <voice>1</voice>
        <type>eighth</type>
        <stem>up</stem>
        <lyric number="1" default-x="6.50" default-y="-46.10" relative-y="-30.00">
          <syllabic>end</syllabic>
          <text>jev</text>
          </lyric>
        </note>
      </measure>
    <measure number="11" width="117.36">
      <note default-x="17.75" default-y="-35.00">
        <pitch>
          <step>F</step>
          <alter>1</alter>
          <octave>4</octave>
          </pitch>
        <duration>1</duration>
        <voice>1</voice>
        <type>eighth</type>
        <stem>up</stem>
        <beam number="1">begin</beam>
        <lyric number="1" default-x="6.50" default-y="-46.10" relative-y="-30.00">
          <syllabic>begin</syllabic>
          <text>zla</text>
          </lyric>
        </note>
      <note default-x="51.28" default-y="-35.00">
        <pitch>
          <step>F</step>
          <alter>1</alter>
          <octave>4</octave>
          </pitch>
        <duration>1</duration>
        <voice>1</voice>
        <type>eighth</type>
        <stem>up</stem>
        <beam number="1">continue</beam>
        <lyric number="1" default-x="6.50" default-y="-46.10" relative-y="-30.00">
          <syllabic>end</syllabic>
          <text>tih</text>
          </lyric>
        </note>
      <note default-x="83.42" default-y="-30.00">
        <pitch>
          <step>G</step>
          <octave>4</octave>
          </pitch>
        <duration>1</duration>
        <voice>1</voice>
        <type>eighth</type>
        <stem>up</stem>
        <beam number="1">end</beam>
        <lyric number="1" default-x="6.50" default-y="-46.10" relative-y="-30.00">
          <syllabic>begin</syllabic>
          <text>re</text>
          </lyric>
        </note>
      </measure>
    <measure number="12" width="53.78">
      <note default-x="11.74" default-y="-25.00">
        <pitch>
          <step>A</step>
          <octave>4</octave>
          </pitch>
        <duration>3</duration>
        <voice>1</voice>
        <type>quarter</type>
        <dot/>
        <stem>up</stem>
        <lyric number="1" default-x="6.50" default-y="-46.10" relative-y="-30.00">
          <syllabic>end</syllabic>
          <text>či</text>
          </lyric>
        </note>
      </measure>
    <measure number="13" width="116.46">
      <note default-x="17.16" default-y="-30.00">
        <pitch>
          <step>G</step>
          <alter>1</alter>
          <octave>4</octave>
          </pitch>
        <duration>1</duration>
        <voice>1</voice>
        <type>eighth</type>
        <accidental>sharp</accidental>
        <stem>up</stem>
        <beam number="1">begin</beam>
        <lyric number="1" default-x="6.50" default-y="-46.10" relative-y="-30.00">
          <syllabic>begin</syllabic>
          <text>zvle</text>
          </lyric>
        </note>
      <note default-x="54.34" default-y="-30.00">
        <pitch>
          <step>G</step>
          <alter>1</alter>
          <octave>4</octave>
          </pitch>
        <duration>1</duration>
        <voice>1</voice>
        <type>eighth</type>
        <stem>up</stem>
        <beam number="1">continue</beam>
        <lyric number="1" default-x="6.50" default-y="-46.10" relative-y="-30.00">
          <syllabic>end</syllabic>
          <text>kli</text>
          </lyric>
        </note>
      <note default-x="84.50" default-y="-25.00">
        <pitch>
          <step>A</step>
          <octave>4</octave>
          </pitch>
        <duration>1</duration>
        <voice>1</voice>
        <type>eighth</type>
        <stem>up</stem>
        <beam number="1">end</beam>
        <lyric number="1" default-x="6.50" default-y="-46.10" relative-y="-30.00">
          <syllabic>single</syllabic>
          <text>so</text>
          </lyric>
        </note>
      </measure>
    <measure number="14" width="91.80">
      <note default-x="16.30" default-y="-20.00">
        <pitch>
          <step>B</step>
          <octave>4</octave>
          </pitch>
        <duration>2</duration>
        <voice>1</voice>
        <type>quarter</type>
        <stem>down</stem>
        <lyric number="1" default-x="6.50" default-y="-46.10" relative-y="-30.00">
          <syllabic>begin</syllabic>
          <text>mi</text>
          </lyric>
        </note>
      <note default-x="55.45" default-y="-40.00">
        <pitch>
          <step>E</step>
          <octave>4</octave>
          </pitch>
        <duration>1</duration>
        <voice>1</voice>
        <type>eighth</type>
        <stem>up</stem>
        <lyric number="1" default-x="6.50" default-y="-46.10" relative-y="-30.00">
          <syllabic>end</syllabic>
          <text>mo</text>
          </lyric>
        </note>
      </measure>
    <measure number="15" width="133.03">
      <note default-x="23.22" default-y="-25.00">
        <pitch>
          <step>A</step>
          <octave>4</octave>
          </pitch>
        <duration>1</duration>
        <voice>1</voice>
        <type>eighth</type>
        <stem>up</stem>
        <beam number="1">begin</beam>
        <lyric number="1" default-x="6.50" default-y="-46.10" relative-y="-30.00">
          <syllabic>begin</syllabic>
          <text>skal</text>
          </lyric>
        </note>
      <note default-x="64.36" default-y="-25.00">
        <pitch>
          <step>A</step>
          <octave>4</octave>
          </pitch>
        <duration>1</duration>
        <voice>1</voice>
        <type>eighth</type>
        <stem>up</stem>
        <beam number="1">continue</beam>
        <lyric number="1" default-x="6.50" default-y="-46.10" relative-y="-30.00">
          <syllabic>end</syllabic>
          <text>nih</text>
          </lyric>
        </note>
      <note default-x="97.80" default-y="-20.00">
        <pitch>
          <step>B</step>
          <octave>4</octave>
          </pitch>
        <duration>1</duration>
        <voice>1</voice>
        <type>eighth</type>
        <stem>up</stem>
        <beam number="1">end</beam>
        <lyric number="1" default-x="6.50" default-y="-46.10" relative-y="-30.00">
          <syllabic>begin</syllabic>
          <text>če</text>
          </lyric>
        </note>
      </measure>
    <measure number="16" width="53.78">
      <note default-x="12.12" default-y="-15.00">
        <pitch>
          <step>C</step>
          <alter>1</alter>
          <octave>5</octave>
          </pitch>
        <duration>3</duration>
        <voice>1</voice>
        <type>quarter</type>
        <dot/>
        <stem>down</stem>
        <lyric number="1" default-x="8.50" default-y="-46.10" relative-y="-30.00">
          <syllabic>end</syllabic>
          <text>ri.</text>
          </lyric>
        </note>
      <barline location="right">
        <bar-style>light-light</bar-style>
        </barline>
      </measure>
    <measure number="17" width="127.47">
      <note default-x="15.20" default-y="-25.00">
        <pitch>
          <step>A</step>
          <octave>4</octave>
          </pitch>
        <duration>1</duration>
        <voice>1</voice>
        <type>eighth</type>
        <stem>up</stem>
        <beam number="1">begin</beam>
        <lyric number="1" default-x="6.50" default-y="-46.10" relative-y="-30.00">
          <syllabic>begin</syllabic>
          <text>Se</text>
          </lyric>
        </note>
      <note default-x="52.39" default-y="-25.00">
        <pitch>
          <step>A</step>
          <octave>4</octave>
          </pitch>
        <duration>1</duration>
        <voice>1</voice>
        <type>eighth</type>
        <stem>up</stem>
        <beam number="1">continue</beam>
        <lyric number="1" default-x="6.50" default-y="-46.10" relative-y="-30.00">
          <syllabic>end</syllabic>
          <text>dem</text>
          </lyric>
        </note>
      <note default-x="89.03" default-y="-25.00">
        <pitch>
          <step>A</step>
          <octave>4</octave>
          </pitch>
        <duration>1</duration>
        <voice>1</voice>
        <type>eighth</type>
        <stem>up</stem>
        <beam number="1">end</beam>
        <lyric number="1" default-x="6.50" default-y="-46.10" relative-y="-30.00">
          <syllabic>begin</syllabic>
          <text>za</text>
          </lyric>
        </note>
      </measure>
    <measure number="18" width="89.67">
      <note default-x="14.89" default-y="-10.00">
        <pitch>
          <step>D</step>
          <octave>5</octave>
          </pitch>
        <duration>2</duration>
        <voice>1</voice>
        <type>quarter</type>
        <stem>down</stem>
        <lyric number="1" default-x="6.50" default-y="-46.10" relative-y="-30.00">
          <syllabic>middle</syllabic>
          <text>bo</text>
          </lyric>
        </note>
      <note default-x="53.32" default-y="-25.00">
        <pitch>
          <step>A</step>
          <octave>4</octave>
          </pitch>
        <duration>1</duration>
        <voice>1</voice>
        <type>eighth</type>
        <stem>up</stem>
        <lyric number="1" default-x="6.50" default-y="-46.10" relative-y="-30.00">
          <syllabic>end</syllabic>
          <text>jev</text>
          </lyric>
        </note>
      </measure>
    <measure number="19" width="130.99">
      <note default-x="25.17" default-y="-30.00">
        <pitch>
          <step>G</step>
          <octave>4</octave>
          </pitch>
        <duration>1</duration>
        <voice>1</voice>
        <type>eighth</type>
        <stem>up</stem>
        <beam number="1">begin</beam>
        <lyric number="1" default-x="6.50" default-y="-46.10" relative-y="-30.00">
          <syllabic>begin</syllabic>
          <text>v͜luk</text>
          </lyric>
        </note>
      <note default-x="66.79" default-y="-35.00">
        <pitch>
          <step>F</step>
          <alter>1</alter>
          <octave>4</octave>
          </pitch>
        <duration>1</duration>
        <voice>1</voice>
        <type>eighth</type>
        <stem>up</stem>
        <beam number="1">continue</beam>
        <lyric number="1" default-x="6.50" default-y="-46.10" relative-y="-30.00">
          <syllabic>end</syllabic>
          <text>njo</text>
          </lyric>
        </note>
      <note default-x="97.99" default-y="-40.00">
        <pitch>
          <step>E</step>
          <octave>4</octave>
          </pitch>
        <duration>1</duration>
        <voice>1</voice>
        <type>eighth</type>
        <stem>up</stem>
        <beam number="1">end</beam>
        <lyric number="1" default-x="6.50" default-y="-46.10" relative-y="-30.00">
          <syllabic>single</syllabic>
          <text>so</text>
          </lyric>
        </note>
      </measure>
    <measure number="20" width="163.94">
      <print new-system="yes">
        <system-layout>
          <system-margins>
            <left-margin>0.00</left-margin>
            <right-margin>0.00</right-margin>
            </system-margins>
          <system-distance>150.00</system-distance>
          </system-layout>
        </print>
      <note default-x="88.35" default-y="-35.00">
        <pitch>
          <step>F</step>
          <alter>1</alter>
          <octave>4</octave>
          </pitch>
        <duration>2</duration>
        <voice>1</voice>
        <type>quarter</type>
        <stem>up</stem>
        <lyric number="1" default-x="6.50" default-y="-45.14" relative-y="-30.00">
          <syllabic>begin</syllabic>
          <text>skri</text>
          </lyric>
        </note>
      <note default-x="127.58" default-y="-25.00">
        <pitch>
          <step>A</step>
          <octave>4</octave>
          </pitch>
        <duration>1</duration>
        <voice>1</voice>
        <type>eighth</type>
        <stem>up</stem>
        <lyric number="1" default-x="8.86" default-y="-45.14" relative-y="-30.00">
          <syllabic>end</syllabic>
          <text>li,</text>
          </lyric>
        </note>
      </measure>
    <measure number="21" width="126.39">
      <note default-x="13.53" default-y="-20.00">
        <pitch>
          <step>B</step>
          <octave>4</octave>
          </pitch>
        <duration>1</duration>
        <voice>1</voice>
        <type>eighth</type>
        <stem>up</stem>
        <beam number="1">begin</beam>
        <lyric number="1" default-x="6.50" default-y="-45.14" relative-y="-30.00">
          <syllabic>begin</syllabic>
          <text>se</text>
          </lyric>
        </note>
      <note default-x="50.55" default-y="-25.00">
        <pitch>
          <step>A</step>
          <octave>4</octave>
          </pitch>
        <duration>1</duration>
        <voice>1</voice>
        <type>eighth</type>
        <stem>up</stem>
        <beam number="1">continue</beam>
        <lyric number="1" default-x="6.50" default-y="-45.14" relative-y="-30.00">
          <syllabic>end</syllabic>
          <text>dem</text>
          </lyric>
        </note>
      <note default-x="87.57" default-y="-30.00">
        <pitch>
          <step>G</step>
          <octave>4</octave>
          </pitch>
        <duration>1</duration>
        <voice>1</voice>
        <type>eighth</type>
        <stem>up</stem>
        <beam number="1">end</beam>
        <lyric number="1" default-x="6.50" default-y="-45.14" relative-y="-30.00">
          <syllabic>begin</syllabic>
          <text>bo</text>
          </lyric>
        </note>
      </measure>
    <measure number="22" width="90.15">
      <note default-x="14.72" default-y="-35.00">
        <pitch>
          <step>F</step>
          <alter>1</alter>
          <octave>4</octave>
          </pitch>
        <duration>2</duration>
        <voice>1</voice>
        <type>quarter</type>
        <stem>up</stem>
        <lyric number="1" default-x="6.50" default-y="-45.14" relative-y="-30.00">
          <syllabic>middle</syllabic>
          <text>de</text>
          </lyric>
        </note>
      <note default-x="53.79" default-y="-45.00">
        <pitch>
          <step>D</step>
          <octave>4</octave>
          </pitch>
        <duration>1</duration>
        <voice>1</voice>
        <type>eighth</type>
        <stem>up</stem>
        <lyric number="1" default-x="6.50" default-y="-45.14" relative-y="-30.00">
          <syllabic>end</syllabic>
          <text>čih</text>
          </lyric>
        </note>
      </measure>
    <measure number="23" width="118.46">
      <note default-x="18.33" default-y="-40.00">
        <pitch>
          <step>E</step>
          <octave>4</octave>
          </pitch>
        <duration>1</duration>
        <voice>1</voice>
        <type>eighth</type>
        <stem>up</stem>
        <beam number="1">begin</beam>
        <lyric number="1" default-x="6.50" default-y="-45.14" relative-y="-30.00">
          <syllabic>single</syllabic>
          <text>rož</text>
          </lyric>
        </note>
      <note default-x="51.11" default-y="-45.00">
        <pitch>
          <step>D</step>
          <octave>4</octave>
          </pitch>
        <duration>1</duration>
        <voice>1</voice>
        <type>eighth</type>
        <stem>up</stem>
        <beam number="1">continue</beam>
        <lyric number="1" default-x="6.50" default-y="-45.14" relative-y="-30.00">
          <syllabic>begin</syllabic>
          <text>na</text>
          </lyric>
        </note>
      <note default-x="83.89" default-y="-50.00">
        <pitch>
          <step>C</step>
          <alter>1</alter>
          <octave>4</octave>
          </pitch>
        <duration>1</duration>
        <voice>1</voice>
        <type>eighth</type>
        <stem>up</stem>
        <beam number="1">end</beam>
        <lyric number="1" default-x="6.50" default-y="-45.14" relative-y="-30.00">
          <syllabic>middle</syllabic>
          <text>sa</text>
          </lyric>
        </note>
      </measure>
    <measure number="24" width="78.59">
      <note default-x="12.95" default-y="-45.00">
        <pitch>
          <step>D</step>
          <octave>4</octave>
          </pitch>
        <duration>2</duration>
        <voice>1</voice>
        <type>quarter</type>
        <stem>up</stem>
        <lyric number="1" default-x="6.50" default-y="-45.14" relative-y="-30.00">
          <syllabic>middle</syllabic>
          <text>di</text>
          </lyric>
        </note>
      <note default-x="42.23" default-y="-45.00">
        <pitch>
          <step>D</step>
          <octave>4</octave>
          </pitch>
        <duration>1</duration>
        <voice>1</voice>
        <type>eighth</type>
        <stem>up</stem>
        <lyric number="1" default-x="6.50" default-y="-45.14" relative-y="-30.00">
          <syllabic>end</syllabic>
          <text>li</text>
          </lyric>
        </note>
      </measure>
    <measure number="25" width="101.86">
      <note default-x="13.65" default-y="-40.00">
        <pitch>
          <step>E</step>
          <octave>4</octave>
          </pitch>
        <duration>1</duration>
        <voice>1</voice>
        <type>eighth</type>
        <stem>up</stem>
        <beam number="1">begin</beam>
        <lyric number="1" default-x="6.50" default-y="-45.14" relative-y="-30.00">
          <syllabic>single</syllabic>
          <text>in</text>
          </lyric>
        </note>
      <note default-x="41.51" default-y="-40.00">
        <pitch>
          <step>E</step>
          <octave>4</octave>
          </pitch>
        <duration>1</duration>
        <voice>1</voice>
        <type>eighth</type>
        <stem>up</stem>
        <beam number="1">continue</beam>
        <lyric number="1" default-x="6.50" default-y="-45.14" relative-y="-30.00">
          <syllabic>single</syllabic>
          <text>so</text>
          </lyric>
        </note>
      <note default-x="69.37" default-y="-35.00">
        <pitch>
          <step>F</step>
          <alter>1</alter>
          <octave>4</octave>
          </pitch>
        <duration>1</duration>
        <voice>1</voice>
        <type>eighth</type>
        <stem>up</stem>
        <beam number="1">end</beam>
        <lyric number="1" default-x="6.50" default-y="-45.14" relative-y="-30.00">
          <syllabic>begin</syllabic>
          <text>od</text>
          </lyric>
        </note>
      </measure>
    <measure number="26" width="107.31">
      <note default-x="14.91" default-y="-30.00">
        <pitch>
          <step>G</step>
          <octave>4</octave>
          </pitch>
        <duration>1</duration>
        <voice>1</voice>
        <type>eighth</type>
        <stem>up</stem>
        <beam number="1">begin</beam>
        <lyric number="1" default-x="6.50" default-y="-45.14" relative-y="-30.00">
          <syllabic>end</syllabic>
          <text>šli</text>
          </lyric>
        </note>
      <note default-x="44.26" default-y="-30.00">
        <pitch>
          <step>G</step>
          <octave>4</octave>
          </pitch>
        <duration>1</duration>
        <voice>1</voice>
        <type>eighth</type>
        <stem>up</stem>
        <beam number="1">continue</beam>
        <lyric number="1" default-x="6.50" default-y="-45.14" relative-y="-30.00">
          <syllabic>single</syllabic>
          <text>in</text>
          </lyric>
        </note>
      <note default-x="73.62" default-y="-30.00">
        <pitch>
          <step>G</step>
          <octave>4</octave>
          </pitch>
        <duration>1</duration>
        <voice>1</voice>
        <type>eighth</type>
        <stem>up</stem>
        <beam number="1">end</beam>
        <lyric number="1" default-x="6.50" default-y="-45.14" relative-y="-30.00">
          <syllabic>begin</syllabic>
          <text>pu</text>
          </lyric>
        </note>
      </measure>
    <measure number="27" width="114.81">
      <note default-x="15.65" default-y="-40.00">
        <pitch>
          <step>E</step>
          <octave>4</octave>
          </pitch>
        <duration>1</duration>
        <voice>1</voice>
        <type>eighth</type>
        <stem>up</stem>
        <beam number="1">begin</beam>
        <lyric number="1" default-x="6.50" default-y="-45.14" relative-y="-30.00">
          <syllabic>middle</syllabic>
          <text>sti</text>
          </lyric>
        </note>
      <note default-x="46.15" default-y="-40.00">
        <pitch>
          <step>E</step>
          <octave>4</octave>
          </pitch>
        <duration>1</duration>
        <voice>1</voice>
        <type>eighth</type>
        <stem>up</stem>
        <beam number="1">continue</beam>
        <lyric number="1" default-x="6.50" default-y="-45.14" relative-y="-30.00">
          <syllabic>end</syllabic>
          <text>li</text>
          </lyric>
        </note>
      <note default-x="76.66" default-y="-35.00">
        <pitch>
          <step>F</step>
          <alter>1</alter>
          <octave>4</octave>
          </pitch>
        <duration>1</duration>
        <voice>1</voice>
        <type>eighth</type>
        <stem>up</stem>
        <beam number="1">end</beam>
        <lyric number="1" default-x="6.50" default-y="-45.14" relative-y="-30.00">
          <syllabic>begin</syllabic>
          <text>zak</text>
          </lyric>
        </note>
      </measure>
    <measure number="28" width="65.27">
      <note default-x="18.82" default-y="-30.00">
        <pitch>
          <step>G</step>
          <octave>4</octave>
          </pitch>
        <duration>2</duration>
        <voice>1</voice>
        <type>quarter</type>
        <stem>up</stem>
        <lyric number="1" default-x="8.67" default-y="-45.14" relative-y="-30.00">
          <syllabic>end</syllabic>
          <text>lad.</text>
          </lyric>
        </note>
      <note>
        <rest/>
        <duration>1</duration>
        <voice>1</voice>
        <type>eighth</type>
        </note>
      </measure>
    <measure number="29" width="110.71">
      <note default-x="16.40" default-y="-30.00">
        <pitch>
          <step>G</step>
          <octave>4</octave>
          </pitch>
        <duration>1</duration>
        <voice>1</voice>
        <type>eighth</type>
        <stem>up</stem>
        <beam number="1">begin</beam>
        <lyric number="1" default-x="9.07" default-y="-45.14" relative-y="-30.00">
          <syllabic>single</syllabic>
          <text>Ta,</text>
          </lyric>
        </note>
      <note default-x="47.23" default-y="-30.00">
        <pitch>
          <step>G</step>
          <octave>4</octave>
          </pitch>
        <duration>1</duration>
        <voice>1</voice>
        <type>eighth</type>
        <stem>up</stem>
        <beam number="1">continue</beam>
        <lyric number="1" default-x="6.50" default-y="-45.14" relative-y="-30.00">
          <syllabic>single</syllabic>
          <text>ki</text>
          </lyric>
        </note>
      <note default-x="78.07" default-y="-25.00">
        <pitch>
          <step>A</step>
          <octave>4</octave>
          </pitch>
        <duration>1</duration>
        <voice>1</voice>
        <type>eighth</type>
        <stem>up</stem>
        <beam number="1">end</beam>
        <lyric number="1" default-x="6.50" default-y="-45.14" relative-y="-30.00">
          <syllabic>single</syllabic>
          <text>ga</text>
          </lyric>
        </note>
      </measure>
    <measure number="30" width="404.58">
      <print new-system="yes">
        <system-layout>
          <system-margins>
            <left-margin>0.00</left-margin>
            <right-margin>0.00</right-margin>
            </system-margins>
          <system-distance>150.00</system-distance>
          </system-layout>
        </print>
      <note default-x="88.35" default-y="-20.00">
        <pitch>
          <step>B</step>
          <octave>4</octave>
          </pitch>
        <duration>2</duration>
        <voice>1</voice>
        <type>quarter</type>
        <stem>down</stem>
        <lyric number="1" default-x="6.50" default-y="-50.29" relative-y="-30.00">
          <syllabic>begin</syllabic>
          <text>naj</text>
          </lyric>
        </note>
      <note default-x="281.85" default-y="-20.00">
        <pitch>
          <step>B</step>
          <octave>4</octave>
          </pitch>
        <duration>1</duration>
        <voice>1</voice>
        <type>eighth</type>
        <stem>down</stem>
        <lyric number="1" default-x="6.50" default-y="-50.29" relative-y="-30.00">
          <syllabic>end</syllabic>
          <text>de</text>
          </lyric>
        </note>
      </measure>
    <measure number="31" width="352.87">
      <note default-x="13.89" default-y="-15.00">
        <pitch>
          <step>C</step>
          <alter>1</alter>
          <octave>5</octave>
          </pitch>
        <duration>1</duration>
        <voice>1</voice>
        <type>eighth</type>
        <stem>down</stem>
        <beam number="1">begin</beam>
        <lyric number="1" default-x="6.50" default-y="-50.29" relative-y="-30.00">
          <syllabic>single</syllabic>
          <text>ta</text>
          </lyric>
        </note>
      <note default-x="126.28" default-y="-20.00">
        <pitch>
          <step>B</step>
          <octave>4</octave>
          </pitch>
        <duration>1</duration>
        <voice>1</voice>
        <type>eighth</type>
        <stem>down</stem>
        <beam number="1">continue</beam>
        <lyric number="1" default-x="6.50" default-y="-50.29" relative-y="-30.00">
          <syllabic>single</syllabic>
          <text>bo</text>
          </lyric>
        </note>
      <note default-x="238.67" default-y="-25.00">
        <pitch>
          <step>A</step>
          <octave>4</octave>
          </pitch>
        <duration>1</duration>
        <voice>1</voice>
        <type>eighth</type>
        <stem>down</stem>
        <beam number="1">end</beam>
        <lyric number="1" default-x="6.50" default-y="-50.29" relative-y="-30.00">
          <syllabic>begin</syllabic>
          <text>bo</text>
          </lyric>
        </note>
      </measure>
    <measure number="32" width="320.05">
      <note default-x="18.79" default-y="-10.00">
        <pitch>
          <step>D</step>
          <octave>5</octave>
          </pitch>
        <duration>3</duration>
        <voice>1</voice>
        <type>quarter</type>
        <dot/>
        <stem>down</stem>
        <lyric number="1" default-x="9.03" default-y="-50.29" relative-y="-30.00">
          <syllabic>end</syllabic>
          <text>gat.</text>
          </lyric>
        </note>
      <barline location="right">
        <bar-style>light-heavy</bar-style>
        </barline>
      </measure>
    </part>
  </score-partwise>
