<?xml version="1.0" encoding="UTF-8"?>
<!DOCTYPE score-partwise PUBLIC "-//Recordare//DTD MusicXML 3.1 Partwise//EN" "http://www.musicxml.org/dtds/partwise.dtd">
<score-partwise version="3.1">
  <work>
    <work-title>Jesensko listje</work-title>
    </work>
  <identification>
    <creator type="composer">Joseph Haydn</creator>
    <creator type="lyricist">prevedla: Stana Vinšek</creator>
    <encoding>
      <software>MuseScore 3.6.2</software>
      <encoding-date>2022-03-28</encoding-date>
      <supports element="accidental" type="yes"/>
      <supports element="beam" type="yes"/>
      <supports element="print" attribute="new-page" type="yes" value="yes"/>
      <supports element="print" attribute="new-system" type="yes" value="yes"/>
      <supports element="stem" type="yes"/>
      </encoding>
    </identification>
  <defaults>
    <scaling>
      <millimeters>7.05556</millimeters>
      <tenths>40</tenths>
      </scaling>
    <page-layout>
      <page-height>1683.36</page-height>
      <page-width>1190.88</page-width>
      <page-margins type="even">
        <left-margin>56.6929</left-margin>
        <right-margin>56.6929</right-margin>
        <top-margin>56.6929</top-margin>
        <bottom-margin>113.386</bottom-margin>
        </page-margins>
      <page-margins type="odd">
        <left-margin>56.6929</left-margin>
        <right-margin>56.6929</right-margin>
        <top-margin>56.6929</top-margin>
        <bottom-margin>113.386</bottom-margin>
        </page-margins>
      </page-layout>
    <word-font font-family="Edwin" font-size="10"/>
    <lyric-font font-family="Edwin" font-size="10"/>
    </defaults>
  <credit page="1">
    <credit-type>title</credit-type>
    <credit-words default-x="595.44" default-y="1626.67" justify="center" valign="top" font-size="22">Jesensko listje</credit-words>
    </credit>
  <credit page="1">
    <credit-type>composer</credit-type>
    <credit-words default-x="1134.19" default-y="1526.67" justify="right" valign="bottom">glasba: Joseph Haydn</credit-words>
    </credit>
  <credit page="1">
    <credit-type>lyricist</credit-type>
    <credit-words default-x="56.6929" default-y="1526.67" justify="left" valign="bottom">prevedla: Stana Vinšek</credit-words>
    </credit>
  <credit page="1">
    <credit-type>subtitle</credit-type>
    <credit-words default-x="595.44" default-y="1569.97" justify="center" valign="top" font-size="16">Ciciban, oktober 2000</credit-words>
    </credit>
  <part-list>
    <score-part id="P1">
      <part-name>Piano</part-name>
      <part-abbreviation>Pno.</part-abbreviation>
      <score-instrument id="P1-I1">
        <instrument-name>Piano</instrument-name>
        </score-instrument>
      <midi-device id="P1-I1" port="1"></midi-device>
      <midi-instrument id="P1-I1">
        <midi-channel>1</midi-channel>
        <midi-program>1</midi-program>
        <volume>78.7402</volume>
        <pan>0</pan>
        </midi-instrument>
      </score-part>
    </part-list>
  <part id="P1">
    <measure number="0" implicit="yes" width="156.06">
      <print>
        <system-layout>
          <system-margins>
            <left-margin>0.00</left-margin>
            <right-margin>0.00</right-margin>
            </system-margins>
          <top-system-distance>170.00</top-system-distance>
          </system-layout>
        </print>
      <attributes>
        <divisions>2</divisions>
        <key>
          <fifths>-1</fifths>
          </key>
        <time symbol="common">
          <beats>4</beats>
          <beat-type>4</beat-type>
          </time>
        <clef>
          <sign>G</sign>
          <line>2</line>
          </clef>
        </attributes>
      <note default-x="103.73" default-y="-50.00">
        <pitch>
          <step>C</step>
          <octave>4</octave>
          </pitch>
        <duration>2</duration>
        <voice>1</voice>
        <type>quarter</type>
        <stem>up</stem>
        <lyric number="1" default-x="-14.67" default-y="-50.14" relative-y="-30.00">
          <syllabic>begin</syllabic>
          <text>1.Le</text>
          </lyric>
        <lyric number="2" default-x="-15.97" default-y="-74.11" relative-y="-30.00">
          <syllabic>begin</syllabic>
          <text>2.Je</text>
          </lyric>
        <lyric number="3" default-x="-15.84" default-y="-98.07" relative-y="-30.00">
          <syllabic>begin</syllabic>
          <text>3.Je</text>
          </lyric>
        </note>
      </measure>
    <measure number="1" width="233.50">
      <note default-x="19.80" default-y="-35.00">
        <pitch>
          <step>F</step>
          <octave>4</octave>
          </pitch>
        <duration>2</duration>
        <voice>1</voice>
        <type>quarter</type>
        <stem>up</stem>
        <lyric number="1" default-x="6.50" default-y="-50.14" relative-y="-30.00">
          <syllabic>end</syllabic>
          <text>po</text>
          </lyric>
        <lyric number="2" default-x="6.50" default-y="-74.11" relative-y="-30.00">
          <syllabic>middle</syllabic>
          <text>sen</text>
          </lyric>
        <lyric number="3" default-x="6.50" default-y="-98.07" relative-y="-30.00">
          <syllabic>middle</syllabic>
          <text>či</text>
          </lyric>
        </note>
      <note default-x="72.77" default-y="-35.00">
        <pitch>
          <step>F</step>
          <octave>4</octave>
          </pitch>
        <duration>2</duration>
        <voice>1</voice>
        <type>quarter</type>
        <stem>up</stem>
        <lyric number="1" default-x="6.50" default-y="-50.14" relative-y="-30.00">
          <syllabic>begin</syllabic>
          <text>šrk</text>
          </lyric>
        <lyric number="2" default-x="6.50" default-y="-74.11" relative-y="-30.00">
          <syllabic>end</syllabic>
          <text>sko</text>
          </lyric>
        <lyric number="3" default-x="6.50" default-y="-98.07" relative-y="-30.00">
          <syllabic>end</syllabic>
          <text>jo</text>
          </lyric>
        </note>
      <note default-x="125.75" default-y="-35.00">
        <pitch>
          <step>F</step>
          <octave>4</octave>
          </pitch>
        <duration>2</duration>
        <voice>1</voice>
        <type>quarter</type>
        <stem>up</stem>
        <lyric number="1" default-x="6.50" default-y="-50.14" relative-y="-30.00">
          <syllabic>middle</syllabic>
          <text>la</text>
          </lyric>
        <lyric number="2" default-x="6.50" default-y="-74.11" relative-y="-30.00">
          <syllabic>begin</syllabic>
          <text>lis</text>
          </lyric>
        <lyric number="3" default-x="6.50" default-y="-98.07" relative-y="-30.00">
          <syllabic>begin</syllabic>
          <text>ve</text>
          </lyric>
        </note>
      <note default-x="178.73" default-y="-35.00">
        <pitch>
          <step>F</step>
          <octave>4</octave>
          </pitch>
        <duration>2</duration>
        <voice>1</voice>
        <type>quarter</type>
        <stem>up</stem>
        <lyric number="1" default-x="6.50" default-y="-50.14" relative-y="-30.00">
          <syllabic>end</syllabic>
          <text>tno</text>
          </lyric>
        <lyric number="2" default-x="8.82" default-y="-74.11" relative-y="-30.00">
          <syllabic>end</syllabic>
          <text>tje,</text>
          </lyric>
        <lyric number="3" default-x="6.50" default-y="-98.07" relative-y="-30.00">
          <syllabic>end</syllabic>
          <text>je</text>
          </lyric>
        </note>
      </measure>
    <measure number="2" width="262.66">
      <note default-x="24.78" default-y="-40.00">
        <pitch>
          <step>E</step>
          <octave>4</octave>
          </pitch>
        <duration>3</duration>
        <voice>1</voice>
        <type>quarter</type>
        <dot/>
        <stem>up</stem>
        <lyric number="1" default-x="6.50" default-y="-50.14" relative-y="-30.00">
          <syllabic>single</syllabic>
          <text>je</text>
          </lyric>
        <lyric number="2" default-x="6.50" default-y="-74.11" relative-y="-30.00">
          <syllabic>single</syllabic>
          <text>kam</text>
          </lyric>
        <lyric number="3" default-x="6.50" default-y="-98.07" relative-y="-30.00">
          <syllabic>single</syllabic>
          <text>in</text>
          </lyric>
        </note>
      <note default-x="99.66" default-y="-35.00">
        <pitch>
          <step>F</step>
          <octave>4</octave>
          </pitch>
        <duration>1</duration>
        <voice>1</voice>
        <type>eighth</type>
        <stem>up</stem>
        <lyric number="1" default-x="6.50" default-y="-50.14" relative-y="-30.00">
          <syllabic>begin</syllabic>
          <text>dre</text>
          </lyric>
        <lyric number="2" default-x="6.50" default-y="-74.11" relative-y="-30.00">
          <syllabic>begin</syllabic>
          <text>hi</text>
          </lyric>
        <lyric number="3" default-x="6.50" default-y="-98.07" relative-y="-30.00">
          <syllabic>begin</syllabic>
          <text>drh</text>
          </lyric>
        </note>
      <note default-x="138.04" default-y="-40.00">
        <pitch>
          <step>E</step>
          <octave>4</octave>
          </pitch>
        <duration>2</duration>
        <voice>1</voice>
        <type>quarter</type>
        <stem>up</stem>
        <lyric number="1" default-x="8.98" default-y="-50.14" relative-y="-30.00">
          <syllabic>end</syllabic>
          <text>vo,</text>
          </lyric>
        <lyric number="2" default-x="10.79" default-y="-74.11" relative-y="-30.00">
          <syllabic>end</syllabic>
          <text>tiš?</text>
          </lyric>
        <lyric number="3" default-x="6.50" default-y="-98.07" relative-y="-30.00">
          <syllabic>end</syllabic>
          <text>té</text>
          </lyric>
        </note>
      <note default-x="199.45" default-y="-50.00">
        <pitch>
          <step>C</step>
          <octave>4</octave>
          </pitch>
        <duration>2</duration>
        <voice>1</voice>
        <type>quarter</type>
        <stem>up</stem>
        <lyric number="1" default-x="6.50" default-y="-50.14" relative-y="-30.00">
          <syllabic>single</syllabic>
          <text>ko</text>
          </lyric>
        <lyric number="2" default-x="6.50" default-y="-74.11" relative-y="-30.00">
          <syllabic>begin</syllabic>
          <text>U</text>
          </lyric>
        <lyric number="3" default-x="6.50" default-y="-98.07" relative-y="-30.00">
          <syllabic>single</syllabic>
          <text>brez</text>
          </lyric>
        </note>
      </measure>
    <measure number="3" width="227.43">
      <note default-x="19.29" default-y="-35.00">
        <pitch>
          <step>F</step>
          <octave>4</octave>
          </pitch>
        <duration>2</duration>
        <voice>1</voice>
        <type>quarter</type>
        <stem>up</stem>
        <lyric number="1" default-x="6.50" default-y="-50.14" relative-y="-30.00">
          <syllabic>begin</syllabic>
          <text>hla</text>
          </lyric>
        <lyric number="2" default-x="6.50" default-y="-74.11" relative-y="-30.00">
          <syllabic>middle</syllabic>
          <text>je</text>
          </lyric>
        <lyric number="3" default-x="6.50" default-y="-98.07" relative-y="-30.00">
          <syllabic>begin</syllabic>
          <text>pi</text>
          </lyric>
        </note>
      <note default-x="70.87" default-y="-30.00">
        <pitch>
          <step>G</step>
          <octave>4</octave>
          </pitch>
        <duration>2</duration>
        <voice>1</voice>
        <type>quarter</type>
        <stem>up</stem>
        <lyric number="1" default-x="6.50" default-y="-50.14" relative-y="-30.00">
          <syllabic>end</syllabic>
          <text>den</text>
          </lyric>
        <lyric number="2" default-x="6.50" default-y="-74.11" relative-y="-30.00">
          <syllabic>end</syllabic>
          <text>li</text>
          </lyric>
        <lyric number="3" default-x="6.50" default-y="-98.07" relative-y="-30.00">
          <syllabic>middle</syllabic>
          <text>sa</text>
          </lyric>
        </note>
      <note default-x="122.46" default-y="-25.00">
        <pitch>
          <step>A</step>
          <octave>4</octave>
          </pitch>
        <duration>2</duration>
        <voice>1</voice>
        <type>quarter</type>
        <stem>up</stem>
        <lyric number="1" default-x="6.50" default-y="-50.14" relative-y="-30.00">
          <syllabic>begin</syllabic>
          <text>ve</text>
          </lyric>
        <lyric number="2" default-x="6.50" default-y="-74.11" relative-y="-30.00">
          <syllabic>single</syllabic>
          <text>bi</text>
          </lyric>
        <lyric number="3" default-x="6.50" default-y="-98.07" relative-y="-30.00">
          <syllabic>end</syllabic>
          <text>ne</text>
          </lyric>
        </note>
      <note default-x="174.04" default-y="-20.00">
        <pitch>
          <step>B</step>
          <alter>-1</alter>
          <octave>4</octave>
          </pitch>
        <duration>2</duration>
        <voice>1</voice>
        <type>quarter</type>
        <stem>down</stem>
        <lyric number="1" default-x="6.50" default-y="-50.14" relative-y="-30.00">
          <syllabic>end</syllabic>
          <text>ter</text>
          </lyric>
        <lyric number="2" default-x="6.50" default-y="-74.11" relative-y="-30.00">
          <syllabic>single</syllabic>
          <text>te</text>
          </lyric>
        <lyric number="3" default-x="6.50" default-y="-98.07" relative-y="-30.00">
          <syllabic>begin</syllabic>
          <text>o</text>
          </lyric>
        </note>
      </measure>
    <measure number="4" width="117.88">
      <note default-x="14.72" default-y="-25.00">
        <pitch>
          <step>A</step>
          <octave>4</octave>
          </pitch>
        <duration>4</duration>
        <voice>1</voice>
        <type>half</type>
        <stem>up</stem>
        <lyric number="1" default-x="6.50" default-y="-50.14" relative-y="-30.00">
          <syllabic>begin</syllabic>
          <text>ve</text>
          </lyric>
        <lyric number="2" default-x="6.50" default-y="-74.11" relative-y="-30.00">
          <syllabic>begin</syllabic>
          <text>ra</text>
          </lyric>
        <lyric number="3" default-x="6.50" default-y="-98.07" relative-y="-30.00">
          <syllabic>middle</syllabic>
          <text>de</text>
          </lyric>
        </note>
      <note default-x="78.21" default-y="-30.00">
        <pitch>
          <step>G</step>
          <octave>4</octave>
          </pitch>
        <duration>2</duration>
        <voice>1</voice>
        <type>quarter</type>
        <stem>up</stem>
        <lyric number="1" default-x="7.85" default-y="-50.14" relative-y="-30.00">
          <syllabic>end</syllabic>
          <text>je,</text>
          </lyric>
        <lyric number="2" default-x="9.10" default-y="-74.11" relative-y="-30.00">
          <syllabic>end</syllabic>
          <text>di,</text>
          </lyric>
        <lyric number="3" default-x="7.85" default-y="-98.07" relative-y="-30.00">
          <syllabic>end</syllabic>
          <text>je,</text>
          </lyric>
        </note>
      </measure>
    <measure number="5" width="79.96">
      <barline location="left">
        <bar-style>heavy-light</bar-style>
        <repeat direction="forward"/>
        </barline>
      <note default-x="25.60" default-y="-50.00">
        <pitch>
          <step>C</step>
          <octave>4</octave>
          </pitch>
        <duration>2</duration>
        <voice>1</voice>
        <type>quarter</type>
        <stem>up</stem>
        <lyric number="1" default-x="6.50" default-y="-50.14" relative-y="-30.00">
          <syllabic>single</syllabic>
          <text>vseh</text>
          </lyric>
        <lyric number="2" default-x="6.50" default-y="-74.11" relative-y="-30.00">
          <syllabic>single</syllabic>
          <text>ko</text>
          </lyric>
        <lyric number="3" default-x="6.50" default-y="-98.07" relative-y="-30.00">
          <syllabic>begin</syllabic>
          <text>ka</text>
          </lyric>
        </note>
      </measure>
    <measure number="6" width="442.55">
      <print new-system="yes">
        <system-layout>
          <system-margins>
            <left-margin>0.00</left-margin>
            <right-margin>0.00</right-margin>
            </system-margins>
          <system-distance>150.00</system-distance>
          </system-layout>
        </print>
      <direction placement="below">
        <direction-type>
          <words default-y="-148.07" valign="top">Lepo škrlatno je drevo,
</words>
          <words>ko gladene veter veje,
</words>
          <words>v vseh barvah zažari jesen,
</words>
          <words>a sivo je nebo.
</words>
          <words>
</words>
          <words>Jesensko listje, kam hitiš? 
</words>
          <words>Ujeli bi te radi,
</words>
          <words>ko z vetrom rajaš in vrtiš
</words>
          <words>kot zlato se kolo.
</words>
          <words>
</words>
          <words>Ječijo veje in drhté
</words>
          <words>brez pisane odeje,
</words>
          <words>kako jih zebe brez koprej,
</words>
          <words>ko pride k nam jesen.
</words>
          <words></words>
          </direction-type>
        </direction>
      <note default-x="76.71" default-y="-35.00">
        <pitch>
          <step>F</step>
          <octave>4</octave>
          </pitch>
        <duration>2</duration>
        <voice>1</voice>
        <type>quarter</type>
        <stem>up</stem>
        <lyric number="1" default-x="6.50" default-y="-46.10" relative-y="-30.00">
          <syllabic>begin</syllabic>
          <text>bar</text>
          </lyric>
        <lyric number="2" default-x="6.50" default-y="-70.07" relative-y="-30.00">
          <syllabic>single</syllabic>
          <text>zve</text>
          </lyric>
        <lyric number="3" default-x="6.50" default-y="-94.04" relative-y="-30.00">
          <syllabic>end</syllabic>
          <text>ko</text>
          </lyric>
        </note>
      <note default-x="167.72" default-y="-35.00">
        <pitch>
          <step>F</step>
          <octave>4</octave>
          </pitch>
        <duration>2</duration>
        <voice>1</voice>
        <type>quarter</type>
        <stem>up</stem>
        <lyric number="1" default-x="6.50" default-y="-46.10" relative-y="-30.00">
          <syllabic>end</syllabic>
          <text>vah</text>
          </lyric>
        <lyric number="2" default-x="6.50" default-y="-70.07" relative-y="-30.00">
          <syllabic>single</syllabic>
          <text>trom</text>
          </lyric>
        <lyric number="3" default-x="6.50" default-y="-94.04" relative-y="-30.00">
          <syllabic>single</syllabic>
          <text>jih</text>
          </lyric>
        </note>
      <note default-x="258.73" default-y="-35.00">
        <pitch>
          <step>F</step>
          <octave>4</octave>
          </pitch>
        <duration>2</duration>
        <voice>1</voice>
        <type>quarter</type>
        <stem>up</stem>
        <lyric number="1" default-x="6.50" default-y="-46.10" relative-y="-30.00">
          <syllabic>begin</syllabic>
          <text>za</text>
          </lyric>
        <lyric number="2" default-x="6.50" default-y="-70.07" relative-y="-30.00">
          <syllabic>begin</syllabic>
          <text>ra</text>
          </lyric>
        <lyric number="3" default-x="6.50" default-y="-94.04" relative-y="-30.00">
          <syllabic>begin</syllabic>
          <text>ze</text>
          </lyric>
        </note>
      <note default-x="349.74" default-y="-35.00">
        <pitch>
          <step>F</step>
          <octave>4</octave>
          </pitch>
        <duration>2</duration>
        <voice>1</voice>
        <type>quarter</type>
        <stem>up</stem>
        <lyric number="1" default-x="6.50" default-y="-46.10" relative-y="-30.00">
          <syllabic>middle</syllabic>
          <text>ža</text>
          </lyric>
        <lyric number="2" default-x="6.50" default-y="-70.07" relative-y="-30.00">
          <syllabic>end</syllabic>
          <text>jaš</text>
          </lyric>
        <lyric number="3" default-x="6.50" default-y="-94.04" relative-y="-30.00">
          <syllabic>end</syllabic>
          <text>be</text>
          </lyric>
        </note>
      </measure>
    <measure number="7" width="261.75">
      <note default-x="24.02" default-y="-40.00">
        <pitch>
          <step>E</step>
          <octave>4</octave>
          </pitch>
        <duration>3</duration>
        <voice>1</voice>
        <type>quarter</type>
        <dot/>
        <stem>up</stem>
        <lyric number="1" default-x="6.50" default-y="-46.10" relative-y="-30.00">
          <syllabic>end</syllabic>
          <text>ri</text>
          </lyric>
        <lyric number="2" default-x="6.50" default-y="-70.07" relative-y="-30.00">
          <syllabic>single</syllabic>
          <text>in</text>
          </lyric>
        <lyric number="3" default-x="6.50" default-y="-94.04" relative-y="-30.00">
          <syllabic>single</syllabic>
          <text>brez</text>
          </lyric>
        </note>
      <note default-x="98.66" default-y="-35.00">
        <pitch>
          <step>F</step>
          <octave>4</octave>
          </pitch>
        <duration>1</duration>
        <voice>1</voice>
        <type>eighth</type>
        <stem>up</stem>
        <lyric number="1" default-x="6.50" default-y="-46.10" relative-y="-30.00">
          <syllabic>begin</syllabic>
          <text>je</text>
          </lyric>
        <lyric number="2" default-x="6.50" default-y="-70.07" relative-y="-30.00">
          <syllabic>begin</syllabic>
          <text>vr</text>
          </lyric>
        <lyric number="3" default-x="6.50" default-y="-94.04" relative-y="-30.00">
          <syllabic>begin</syllabic>
          <text>ko</text>
          </lyric>
        </note>
      <note default-x="137.52" default-y="-40.00">
        <pitch>
          <step>E</step>
          <octave>4</octave>
          </pitch>
        <duration>2</duration>
        <voice>1</voice>
        <type>quarter</type>
        <stem>up</stem>
        <lyric number="1" default-x="9.18" default-y="-46.10" relative-y="-30.00">
          <syllabic>end</syllabic>
          <text>sen,</text>
          </lyric>
        <lyric number="2" default-x="6.50" default-y="-70.07" relative-y="-30.00">
          <syllabic>end</syllabic>
          <text>tiš</text>
          </lyric>
        <lyric number="3" default-x="9.01" default-y="-94.04" relative-y="-30.00">
          <syllabic>end</syllabic>
          <text>pren,</text>
          </lyric>
        </note>
      <note default-x="198.73" default-y="-50.00">
        <pitch>
          <step>C</step>
          <octave>4</octave>
          </pitch>
        <duration>2</duration>
        <voice>1</voice>
        <type>quarter</type>
        <stem>up</stem>
        <lyric number="1" default-x="6.50" default-y="-46.10" relative-y="-30.00">
          <syllabic>single</syllabic>
          <text>a</text>
          </lyric>
        <lyric number="2" default-x="6.50" default-y="-70.07" relative-y="-30.00">
          <syllabic>single</syllabic>
          <text>kot</text>
          </lyric>
        <lyric number="3" default-x="6.50" default-y="-94.04" relative-y="-30.00">
          <syllabic>single</syllabic>
          <text>ko</text>
          </lyric>
        </note>
      </measure>
    <measure number="8" width="250.84">
      <note default-x="17.75" default-y="-15.00">
        <pitch>
          <step>C</step>
          <octave>5</octave>
          </pitch>
        <duration>2</duration>
        <voice>1</voice>
        <type>quarter</type>
        <stem>down</stem>
        <lyric number="1" default-x="6.50" default-y="-46.10" relative-y="-30.00">
          <syllabic>begin</syllabic>
          <text>si</text>
          </lyric>
        <lyric number="2" default-x="6.50" default-y="-70.07" relative-y="-30.00">
          <syllabic>begin</syllabic>
          <text>zla</text>
          </lyric>
        <lyric number="3" default-x="6.50" default-y="-94.04" relative-y="-30.00">
          <syllabic>begin</syllabic>
          <text>pri</text>
          </lyric>
        </note>
      <note default-x="75.57" default-y="-20.00">
        <pitch>
          <step>B</step>
          <alter>-1</alter>
          <octave>4</octave>
          </pitch>
        <duration>2</duration>
        <voice>1</voice>
        <type>quarter</type>
        <stem>down</stem>
        <lyric number="1" default-x="6.50" default-y="-46.10" relative-y="-30.00">
          <syllabic>end</syllabic>
          <text>vi</text>
          </lyric>
        <lyric number="2" default-x="6.50" default-y="-70.07" relative-y="-30.00">
          <syllabic>end</syllabic>
          <text>to</text>
          </lyric>
        <lyric number="3" default-x="6.50" default-y="-94.04" relative-y="-30.00">
          <syllabic>middle</syllabic>
          <text>de</text>
          </lyric>
        </note>
      <note default-x="133.39" default-y="-25.00">
        <pitch>
          <step>A</step>
          <octave>4</octave>
          </pitch>
        <duration>2</duration>
        <voice>1</voice>
        <type>quarter</type>
        <stem>up</stem>
        <lyric number="1" default-x="6.50" default-y="-46.10" relative-y="-30.00">
          <syllabic>single</syllabic>
          <text>je</text>
          </lyric>
        <lyric number="2" default-x="6.50" default-y="-70.07" relative-y="-30.00">
          <syllabic>single</syllabic>
          <text>se</text>
          </lyric>
        <lyric number="3" default-x="6.50" default-y="-94.04" relative-y="-30.00">
          <syllabic>end</syllabic>
          <text>knam</text>
          </lyric>
        </note>
      <note default-x="191.21" default-y="-30.00">
        <pitch>
          <step>G</step>
          <octave>4</octave>
          </pitch>
        <duration>2</duration>
        <voice>1</voice>
        <type>quarter</type>
        <stem>up</stem>
        <lyric number="1" default-x="6.50" default-y="-46.10" relative-y="-30.00">
          <syllabic>begin</syllabic>
          <text>ne</text>
          </lyric>
        <lyric number="2" default-x="6.50" default-y="-70.07" relative-y="-30.00">
          <syllabic>begin</syllabic>
          <text>ko</text>
          </lyric>
        <lyric number="3" default-x="6.50" default-y="-94.04" relative-y="-30.00">
          <syllabic>begin</syllabic>
          <text>je</text>
          </lyric>
        </note>
      </measure>
    <measure number="9" width="122.36">
      <note default-x="19.47" default-y="-35.00">
        <pitch>
          <step>F</step>
          <octave>4</octave>
          </pitch>
        <duration>6</duration>
        <voice>1</voice>
        <type>half</type>
        <dot/>
        <stem>up</stem>
        <lyric number="1" default-x="8.56" default-y="-46.10" relative-y="-30.00">
          <syllabic>end</syllabic>
          <text>bo.</text>
          </lyric>
        <lyric number="2" default-x="8.67" default-y="-70.07" relative-y="-30.00">
          <syllabic>end</syllabic>
          <text>lo.</text>
          </lyric>
        <lyric number="3" default-x="9.00" default-y="-94.04" relative-y="-30.00">
          <syllabic>end</syllabic>
          <text>sen.</text>
          </lyric>
        </note>
      <barline location="right">
        <bar-style>light-heavy</bar-style>
        <repeat direction="backward"/>
        </barline>
      </measure>
    </part>
  </score-partwise>
