<?xml version="1.0" encoding="UTF-8"?>
<!DOCTYPE score-partwise PUBLIC "-//Recordare//DTD MusicXML 3.1 Partwise//EN" "http://www.musicxml.org/dtds/partwise.dtd">
<score-partwise version="3.1">
  <work>
    <work-title>Lepi pujsek</work-title>
    </work>
  <identification>
    <creator type="composer">Napisala in uglasbila: Mira Voglar</creator>
    <creator type="lyricist">Uredila: Katja Virant Iršič</creator>
    <rights>Prepisala: Lucija Gorjup</rights>
    <encoding>
      <software>MuseScore 3.6.2</software>
      <encoding-date>2022-05-03</encoding-date>
      <supports element="accidental" type="yes"/>
      <supports element="beam" type="yes"/>
      <supports element="print" attribute="new-page" type="yes" value="yes"/>
      <supports element="print" attribute="new-system" type="yes" value="yes"/>
      <supports element="stem" type="yes"/>
      </encoding>
    </identification>
  <defaults>
    <scaling>
      <millimeters>7.05556</millimeters>
      <tenths>40</tenths>
      </scaling>
    <page-layout>
      <page-height>1683.36</page-height>
      <page-width>1190.88</page-width>
      <page-margins type="even">
        <left-margin>56.6929</left-margin>
        <right-margin>56.6929</right-margin>
        <top-margin>56.6929</top-margin>
        <bottom-margin>113.386</bottom-margin>
        </page-margins>
      <page-margins type="odd">
        <left-margin>56.6929</left-margin>
        <right-margin>56.6929</right-margin>
        <top-margin>56.6929</top-margin>
        <bottom-margin>113.386</bottom-margin>
        </page-margins>
      </page-layout>
    <word-font font-family="Edwin" font-size="10"/>
    <lyric-font font-family="Edwin" font-size="10"/>
    </defaults>
  <credit page="1">
    <credit-type>title</credit-type>
    <credit-words default-x="595.44" default-y="1626.67" justify="center" valign="top" font-size="22">Lepi pujsek</credit-words>
    </credit>
  <credit page="1">
    <credit-type>subtitle</credit-type>
    <credit-words default-x="595.44" default-y="1569.97" justify="center" valign="top" font-size="16">Ciciban, oktober 2004</credit-words>
    </credit>
  <credit page="1">
    <credit-type>composer</credit-type>
    <credit-words default-x="1134.19" default-y="1519.02" justify="right" valign="bottom">Napisala in uglasbila: Mira Voglar</credit-words>
    </credit>
  <credit page="1">
    <credit-type>lyricist</credit-type>
    <credit-words default-x="56.6929" default-y="1519.02" justify="left" valign="bottom">Uredila: Katja Virant Iršič</credit-words>
    </credit>
  <credit page="1">
    <credit-type>rights</credit-type>
    <credit-words default-x="595.44" default-y="113.386" justify="center" valign="bottom" font-family="FreeSerif" font-size="8">Prepisala: Lucija Gorjup</credit-words>
    </credit>
  <part-list>
    <score-part id="P1">
      <part-name>Piano</part-name>
      <part-abbreviation>Pno.</part-abbreviation>
      <score-instrument id="P1-I1">
        <instrument-name>Piano</instrument-name>
        </score-instrument>
      <midi-device id="P1-I1" port="1"></midi-device>
      <midi-instrument id="P1-I1">
        <midi-channel>1</midi-channel>
        <midi-program>1</midi-program>
        <volume>78.7402</volume>
        <pan>0</pan>
        </midi-instrument>
      </score-part>
    </part-list>
  <part id="P1">
    <measure number="1" width="335.43">
      <print>
        <system-layout>
          <system-margins>
            <left-margin>0.00</left-margin>
            <right-margin>0.00</right-margin>
            </system-margins>
          <top-system-distance>177.64</top-system-distance>
          </system-layout>
        </print>
      <attributes>
        <divisions>2</divisions>
        <key>
          <fifths>2</fifths>
          </key>
        <time>
          <beats>4</beats>
          <beat-type>4</beat-type>
          </time>
        <clef>
          <sign>G</sign>
          <line>2</line>
          </clef>
        </attributes>
      <direction placement="above">
        <direction-type>
          <words relative-x="3.04" relative-y="36.23" font-size="9">SOLO</words>
          </direction-type>
        </direction>
      <direction placement="above">
        <direction-type>
          <words relative-x="-3.04" relative-y="16.63" font-style="italic">Z navdušenjem</words>
          </direction-type>
        </direction>
      <note default-x="110.48" default-y="-35.00">
        <pitch>
          <step>F</step>
          <alter>1</alter>
          <octave>4</octave>
          </pitch>
        <duration>2</duration>
        <voice>1</voice>
        <type>quarter</type>
        <stem>up</stem>
        <lyric number="1" default-x="6.50" default-y="-40.14" relative-y="-30.00">
          <syllabic>begin</syllabic>
          <text>Ro</text>
          </lyric>
        <lyric number="2" default-x="6.50" default-y="-64.11" relative-y="-30.00">
          <syllabic>single</syllabic>
          <text>Na</text>
          </lyric>
        <lyric number="3" default-x="6.50" default-y="-88.07" relative-y="-30.00">
          <syllabic>begin</syllabic>
          <text>Tu</text>
          </lyric>
        </note>
      <note default-x="166.27" default-y="-35.00">
        <pitch>
          <step>F</step>
          <alter>1</alter>
          <octave>4</octave>
          </pitch>
        <duration>2</duration>
        <voice>1</voice>
        <type>quarter</type>
        <stem>up</stem>
        <lyric number="1" default-x="6.50" default-y="-40.14" relative-y="-30.00">
          <syllabic>middle</syllabic>
          <text>žna</text>
          </lyric>
        <lyric number="2" default-x="6.50" default-y="-64.11" relative-y="-30.00">
          <syllabic>begin</syllabic>
          <text>tro</text>
          </lyric>
        <lyric number="3" default-x="6.50" default-y="-88.07" relative-y="-30.00">
          <syllabic>middle</syllabic>
          <text>tu</text>
          </lyric>
        </note>
      <note default-x="222.06" default-y="-35.00">
        <pitch>
          <step>F</step>
          <alter>1</alter>
          <octave>4</octave>
          </pitch>
        <duration>2</duration>
        <voice>1</voice>
        <type>quarter</type>
        <stem>up</stem>
        <lyric number="1" default-x="6.50" default-y="-40.14" relative-y="-30.00">
          <syllabic>middle</syllabic>
          <text>te</text>
          </lyric>
        <lyric number="2" default-x="6.50" default-y="-64.11" relative-y="-30.00">
          <syllabic>middle</syllabic>
          <text>ben</text>
          </lyric>
        <lyric number="3" default-x="6.50" default-y="-88.07" relative-y="-30.00">
          <syllabic>middle</syllabic>
          <text>tu</text>
          </lyric>
        </note>
      <note default-x="277.84" default-y="-35.00">
        <pitch>
          <step>F</step>
          <alter>1</alter>
          <octave>4</octave>
          </pitch>
        <duration>2</duration>
        <voice>1</voice>
        <type>quarter</type>
        <stem>up</stem>
        <lyric number="1" default-x="6.50" default-y="-40.14" relative-y="-30.00">
          <syllabic>end</syllabic>
          <text>ga</text>
          </lyric>
        <lyric number="2" default-x="6.50" default-y="-64.11" relative-y="-30.00">
          <syllabic>end</syllabic>
          <text>ti</text>
          </lyric>
        <lyric number="3" default-x="8.86" default-y="-88.07" relative-y="-30.00">
          <syllabic>end</syllabic>
          <text>tu,</text>
          </lyric>
        </note>
      </measure>
    <measure number="2" width="261.74">
      <note default-x="18.50" default-y="-40.00">
        <pitch>
          <step>E</step>
          <octave>4</octave>
          </pitch>
        <duration>2</duration>
        <voice>1</voice>
        <type>quarter</type>
        <stem>up</stem>
        <lyric number="1" default-x="6.50" default-y="-40.14" relative-y="-30.00">
          <syllabic>begin</syllabic>
          <text>puj</text>
          </lyric>
        <lyric number="2" default-x="6.50" default-y="-64.11" relative-y="-30.00">
          <syllabic>begin</syllabic>
          <text>puj</text>
          </lyric>
        <lyric number="3" default-x="6.50" default-y="-88.07" relative-y="-30.00">
          <syllabic>begin</syllabic>
          <text>zju</text>
          </lyric>
        </note>
      <note default-x="84.83" default-y="-40.00">
        <pitch>
          <step>E</step>
          <octave>4</octave>
          </pitch>
        <duration>1</duration>
        <voice>1</voice>
        <type>eighth</type>
        <stem>up</stem>
        <beam number="1">begin</beam>
        <lyric number="1" default-x="6.50" default-y="-40.14" relative-y="-30.00">
          <syllabic>end</syllabic>
          <text>ska</text>
          </lyric>
        <lyric number="2" default-x="6.50" default-y="-64.11" relative-y="-30.00">
          <syllabic>end</syllabic>
          <text>sek</text>
          </lyric>
        <lyric number="3" default-x="6.50" default-y="-88.07" relative-y="-30.00">
          <syllabic>end</syllabic>
          <text>traj</text>
          </lyric>
        </note>
      <note default-x="126.28" default-y="-40.00">
        <pitch>
          <step>E</step>
          <octave>4</octave>
          </pitch>
        <duration>1</duration>
        <voice>1</voice>
        <type>eighth</type>
        <stem>up</stem>
        <beam number="1">end</beam>
        <lyric number="1" default-x="6.50" default-y="-40.14" relative-y="-30.00">
          <syllabic>begin</syllabic>
          <text>po</text>
          </lyric>
        <lyric number="2" default-x="6.50" default-y="-64.11" relative-y="-30.00">
          <syllabic>begin</syllabic>
          <text>i</text>
          </lyric>
        <lyric number="3" default-x="6.50" default-y="-88.07" relative-y="-30.00">
          <syllabic>begin</syllabic>
          <text>i</text>
          </lyric>
        </note>
      <note default-x="168.74" default-y="-40.00">
        <pitch>
          <step>E</step>
          <octave>4</octave>
          </pitch>
        <duration>4</duration>
        <voice>1</voice>
        <type>half</type>
        <stem>up</stem>
        <lyric number="1" default-x="9.06" default-y="-40.14" relative-y="-30.00">
          <syllabic>end</syllabic>
          <text>znam,</text>
          </lyric>
        <lyric number="2" default-x="6.50" default-y="-64.11" relative-y="-30.00">
          <syllabic>end</syllabic>
          <text>gra</text>
          </lyric>
        <lyric number="3" default-x="8.73" default-y="-88.07" relative-y="-30.00">
          <syllabic>end</syllabic>
          <text>gra,</text>
          </lyric>
        </note>
      </measure>
    <measure number="3" width="186.43">
      <direction placement="above">
        <direction-type>
          <words relative-x="-9.13" relative-y="24.21" font-style="italic">doživeto pripovedno</words>
          </direction-type>
        </direction>
      <note default-x="13.65" default-y="-40.00">
        <pitch>
          <step>E</step>
          <octave>4</octave>
          </pitch>
        <duration>2</duration>
        <voice>1</voice>
        <type>quarter</type>
        <stem>up</stem>
        <lyric number="1" default-x="6.50" default-y="-40.14" relative-y="-30.00">
          <syllabic>single</syllabic>
          <text>ki</text>
          </lyric>
        <lyric number="2" default-x="6.50" default-y="-64.11" relative-y="-30.00">
          <syllabic>single</syllabic>
          <text>in</text>
          </lyric>
        <lyric number="3" default-x="6.50" default-y="-88.07" relative-y="-30.00">
          <syllabic>single</syllabic>
          <text>a</text>
          </lyric>
        </note>
      <note default-x="61.14" default-y="-35.00">
        <pitch>
          <step>F</step>
          <alter>1</alter>
          <octave>4</octave>
          </pitch>
        <duration>2</duration>
        <voice>1</voice>
        <type>quarter</type>
        <stem>up</stem>
        <lyric number="1" default-x="6.50" default-y="-40.14" relative-y="-30.00">
          <syllabic>begin</syllabic>
          <text>ži</text>
          </lyric>
        <lyric number="2" default-x="6.50" default-y="-64.11" relative-y="-30.00">
          <syllabic>begin</syllabic>
          <text>za</text>
          </lyric>
        <lyric number="3" default-x="6.50" default-y="-88.07" relative-y="-30.00">
          <syllabic>begin</syllabic>
          <text>zve</text>
          </lyric>
        </note>
      <note default-x="108.64" default-y="-30.00">
        <pitch>
          <step>G</step>
          <octave>4</octave>
          </pitch>
        <duration>4</duration>
        <voice>1</voice>
        <type>half</type>
        <stem>up</stem>
        <lyric number="1" default-x="8.49" default-y="-40.14" relative-y="-30.00">
          <syllabic>end</syllabic>
          <text>vi:</text>
          </lyric>
        <lyric number="2" default-x="8.73" default-y="-64.11" relative-y="-30.00">
          <syllabic>end</syllabic>
          <text>to:</text>
          </lyric>
        <lyric number="3" default-x="8.95" default-y="-88.07" relative-y="-30.00">
          <syllabic>end</syllabic>
          <text>čer:</text>
          </lyric>
        </note>
      </measure>
    <measure number="4" width="293.90">
      <note default-x="20.08" default-y="-25.00">
        <pitch>
          <step>A</step>
          <octave>4</octave>
          </pitch>
        <duration>1</duration>
        <voice>1</voice>
        <type>eighth</type>
        <stem>up</stem>
        <beam number="1">begin</beam>
        <lyric number="1" default-x="6.50" default-y="-40.14" relative-y="-30.00">
          <syllabic>begin</syllabic>
          <text>v͜hi</text>
          </lyric>
        <lyric number="2" default-x="6.50" default-y="-64.11" relative-y="-30.00">
          <syllabic>single</syllabic>
          <text>rad</text>
          </lyric>
        <lyric number="3" default-x="6.50" default-y="-88.07" relative-y="-30.00">
          <syllabic>begin</syllabic>
          <text>Pa</text>
          </lyric>
        </note>
      <note default-x="63.95" default-y="-25.00">
        <pitch>
          <step>A</step>
          <octave>4</octave>
          </pitch>
        <duration>1</duration>
        <voice>1</voice>
        <type>eighth</type>
        <stem>up</stem>
        <beam number="1">continue</beam>
        <lyric number="1" default-x="6.50" default-y="-40.14" relative-y="-30.00">
          <syllabic>end</syllabic>
          <text>ši</text>
          </lyric>
        <lyric number="2" default-x="6.50" default-y="-64.11" relative-y="-30.00">
          <syllabic>single</syllabic>
          <text>je</text>
          </lyric>
        <lyric number="3" default-x="6.50" default-y="-88.07" relative-y="-30.00">
          <syllabic>middle</syllabic>
          <text>pa</text>
          </lyric>
        </note>
      <note default-x="107.82" default-y="-35.00">
        <pitch>
          <step>F</step>
          <alter>1</alter>
          <octave>4</octave>
          </pitch>
        <duration>1</duration>
        <voice>1</voice>
        <type>eighth</type>
        <stem>up</stem>
        <beam number="1">continue</beam>
        <lyric number="1" default-x="6.50" default-y="-40.14" relative-y="-30.00">
          <syllabic>begin</syllabic>
          <text>či</text>
          </lyric>
        <lyric number="2" default-x="6.50" default-y="-64.11" relative-y="-30.00">
          <syllabic>single</syllabic>
          <text>sam</text>
          </lyric>
        <lyric number="3" default-x="6.50" default-y="-88.07" relative-y="-30.00">
          <syllabic>middle</syllabic>
          <text>pa</text>
          </lyric>
        </note>
      <note default-x="151.70" default-y="-20.00">
        <pitch>
          <step>B</step>
          <octave>4</octave>
          </pitch>
        <duration>1</duration>
        <voice>1</voice>
        <type>eighth</type>
        <stem>up</stem>
        <beam number="1">end</beam>
        <lyric number="1" default-x="6.50" default-y="-40.14" relative-y="-30.00">
          <syllabic>end</syllabic>
          <text>sto</text>
          </lyric>
        <lyric number="2" default-x="6.50" default-y="-64.11" relative-y="-30.00">
          <syllabic>begin</syllabic>
          <text>do</text>
          </lyric>
        <lyric number="3" default-x="6.50" default-y="-88.07" relative-y="-30.00">
          <syllabic>middle</syllabic>
          <text>pa</text>
          </lyric>
        </note>
      <note default-x="195.57" default-y="-25.00">
        <pitch>
          <step>A</step>
          <octave>4</octave>
          </pitch>
        <duration>4</duration>
        <voice>1</voice>
        <type>half</type>
        <stem>up</stem>
        <lyric number="1" default-x="9.28" default-y="-40.14" relative-y="-30.00">
          <syllabic>single</syllabic>
          <text>sam,</text>
          </lyric>
        <lyric number="2" default-x="8.90" default-y="-64.11" relative-y="-30.00">
          <syllabic>end</syllabic>
          <text>ma,</text>
          </lyric>
        <lyric number="3" default-x="8.95" default-y="-88.07" relative-y="-30.00">
          <syllabic>end</syllabic>
          <text>pa,</text>
          </lyric>
        </note>
      </measure>
    <measure number="5" width="347.13">
      <print new-system="yes">
        <system-layout>
          <system-margins>
            <left-margin>0.00</left-margin>
            <right-margin>0.00</right-margin>
            </system-margins>
          <system-distance>150.00</system-distance>
          </system-layout>
        </print>
      <note default-x="88.35" default-y="-35.00">
        <pitch>
          <step>F</step>
          <alter>1</alter>
          <octave>4</octave>
          </pitch>
        <duration>1</duration>
        <voice>1</voice>
        <type>eighth</type>
        <stem>up</stem>
        <beam number="1">begin</beam>
        <lyric number="1" default-x="6.50" default-y="-45.03" relative-y="-30.00">
          <syllabic>begin</syllabic>
          <text>v͜hi</text>
          </lyric>
        <lyric number="2" default-x="6.50" default-y="-69.00" relative-y="-30.00">
          <syllabic>single</syllabic>
          <text>rad</text>
          </lyric>
        <lyric number="3" default-x="6.50" default-y="-92.97" relative-y="-30.00">
          <syllabic>begin</syllabic>
          <text>pa</text>
          </lyric>
        </note>
      <note default-x="123.44" default-y="-35.00">
        <pitch>
          <step>F</step>
          <alter>1</alter>
          <octave>4</octave>
          </pitch>
        <duration>1</duration>
        <voice>1</voice>
        <type>eighth</type>
        <stem>up</stem>
        <beam number="1">continue</beam>
        <lyric number="1" default-x="6.50" default-y="-45.03" relative-y="-30.00">
          <syllabic>end</syllabic>
          <text>ši</text>
          </lyric>
        <lyric number="2" default-x="6.50" default-y="-69.00" relative-y="-30.00">
          <syllabic>single</syllabic>
          <text>je</text>
          </lyric>
        <lyric number="3" default-x="6.50" default-y="-92.97" relative-y="-30.00">
          <syllabic>middle</syllabic>
          <text>pa</text>
          </lyric>
        </note>
      <note default-x="160.43" default-y="-45.00">
        <pitch>
          <step>D</step>
          <octave>4</octave>
          </pitch>
        <duration>1</duration>
        <voice>1</voice>
        <type>eighth</type>
        <stem>up</stem>
        <beam number="1">continue</beam>
        <lyric number="1" default-x="6.50" default-y="-45.03" relative-y="-30.00">
          <syllabic>begin</syllabic>
          <text>či</text>
          </lyric>
        <lyric number="2" default-x="6.50" default-y="-69.00" relative-y="-30.00">
          <syllabic>single</syllabic>
          <text>sam</text>
          </lyric>
        <lyric number="3" default-x="6.50" default-y="-92.97" relative-y="-30.00">
          <syllabic>middle</syllabic>
          <text>pa</text>
          </lyric>
        </note>
      <note default-x="196.45" default-y="-30.00">
        <pitch>
          <step>G</step>
          <octave>4</octave>
          </pitch>
        <duration>1</duration>
        <voice>1</voice>
        <type>eighth</type>
        <stem>up</stem>
        <beam number="1">end</beam>
        <lyric number="1" default-x="6.50" default-y="-45.03" relative-y="-30.00">
          <syllabic>end</syllabic>
          <text>sto</text>
          </lyric>
        <lyric number="2" default-x="6.50" default-y="-69.00" relative-y="-30.00">
          <syllabic>begin</syllabic>
          <text>do</text>
          </lyric>
        <lyric number="3" default-x="6.50" default-y="-92.97" relative-y="-30.00">
          <syllabic>middle</syllabic>
          <text>pa</text>
          </lyric>
        </note>
      <note default-x="233.04" default-y="-35.00">
        <pitch>
          <step>F</step>
          <alter>1</alter>
          <octave>4</octave>
          </pitch>
        <duration>2</duration>
        <voice>1</voice>
        <type>quarter</type>
        <stem>up</stem>
        <lyric number="1" default-x="9.28" default-y="-45.03" relative-y="-30.00">
          <syllabic>single</syllabic>
          <text>sam,</text>
          </lyric>
        <lyric number="2" default-x="8.90" default-y="-69.00" relative-y="-30.00">
          <syllabic>end</syllabic>
          <text>ma,</text>
          </lyric>
        <lyric number="3" default-x="8.95" default-y="-92.97" relative-y="-30.00">
          <syllabic>end</syllabic>
          <text>pa,</text>
          </lyric>
        </note>
      <note default-x="289.19" default-y="-40.00">
        <pitch>
          <step>E</step>
          <octave>4</octave>
          </pitch>
        <duration>2</duration>
        <voice>1</voice>
        <type>quarter</type>
        <stem>up</stem>
        <lyric number="1" default-x="7.85" default-y="-45.03" relative-y="-30.00">
          <syllabic>single</syllabic>
          <text>ja,</text>
          </lyric>
        <lyric number="2" default-x="7.85" default-y="-69.00" relative-y="-30.00">
          <syllabic>single</syllabic>
          <text>ja,</text>
          </lyric>
        <lyric number="3" default-x="6.50" default-y="-92.97" relative-y="-30.00">
          <syllabic>begin</syllabic>
          <text>pa</text>
          </lyric>
        </note>
      </measure>
    <measure number="6" width="64.49">
      <note default-x="15.49" default-y="-45.00">
        <pitch>
          <step>D</step>
          <octave>4</octave>
          </pitch>
        <duration>4</duration>
        <voice>1</voice>
        <type>half</type>
        <stem>up</stem>
        <lyric number="1" default-x="7.80" default-y="-45.03" relative-y="-30.00">
          <syllabic>single</syllabic>
          <text>ja!</text>
          </lyric>
        <lyric number="2" default-x="7.80" default-y="-69.00" relative-y="-30.00">
          <syllabic>single</syllabic>
          <text>ja!</text>
          </lyric>
        <lyric number="3" default-x="8.76" default-y="-92.97" relative-y="-30.00">
          <syllabic>end</syllabic>
          <text>pa.</text>
          </lyric>
        </note>
      <note>
        <rest/>
        <duration>4</duration>
        <voice>1</voice>
        <type>half</type>
        </note>
      </measure>
    <measure number="7" width="139.19">
      <direction placement="above">
        <direction-type>
          <words relative-y="20.00" font-size="9">ZBOR</words>
          </direction-type>
        </direction>
      <note default-x="15.12" default-y="-40.00">
        <pitch>
          <step>E</step>
          <octave>4</octave>
          </pitch>
        <duration>2</duration>
        <voice>1</voice>
        <type>quarter</type>
        <stem>up</stem>
        <lyric number="1" default-x="6.50" default-y="-45.03" relative-y="-30.00">
          <syllabic>single</syllabic>
          <text>Ki</text>
          </lyric>
        <lyric number="2" default-x="6.50" default-y="-69.00" relative-y="-30.00">
          <syllabic>single</syllabic>
          <text>In</text>
          </lyric>
        <lyric number="3" default-x="6.50" default-y="-92.97" relative-y="-30.00">
          <syllabic>single</syllabic>
          <text>A</text>
          </lyric>
        </note>
      <note default-x="48.53" default-y="-35.00">
        <pitch>
          <step>F</step>
          <alter>1</alter>
          <octave>4</octave>
          </pitch>
        <duration>2</duration>
        <voice>1</voice>
        <type>quarter</type>
        <stem>up</stem>
        <lyric number="1" default-x="6.50" default-y="-45.03" relative-y="-30.00">
          <syllabic>begin</syllabic>
          <text>ži</text>
          </lyric>
        <lyric number="2" default-x="6.50" default-y="-69.00" relative-y="-30.00">
          <syllabic>begin</syllabic>
          <text>za</text>
          </lyric>
        <lyric number="3" default-x="6.50" default-y="-92.97" relative-y="-30.00">
          <syllabic>begin</syllabic>
          <text>zve</text>
          </lyric>
        </note>
      <note default-x="83.93" default-y="-30.00">
        <pitch>
          <step>G</step>
          <octave>4</octave>
          </pitch>
        <duration>4</duration>
        <voice>1</voice>
        <type>half</type>
        <stem>up</stem>
        <lyric number="1" default-x="8.49" default-y="-45.03" relative-y="-30.00">
          <syllabic>end</syllabic>
          <text>vi:</text>
          </lyric>
        <lyric number="2" default-x="8.73" default-y="-69.00" relative-y="-30.00">
          <syllabic>end</syllabic>
          <text>to:</text>
          </lyric>
        <lyric number="3" default-x="8.95" default-y="-92.97" relative-y="-30.00">
          <syllabic>end</syllabic>
          <text>čer:</text>
          </lyric>
        </note>
      </measure>
    <measure number="8" width="243.43">
      <note default-x="20.08" default-y="-25.00">
        <pitch>
          <step>A</step>
          <octave>4</octave>
          </pitch>
        <duration>1</duration>
        <voice>1</voice>
        <type>eighth</type>
        <stem>up</stem>
        <beam number="1">begin</beam>
        <lyric number="1" default-x="6.50" default-y="-45.03" relative-y="-30.00">
          <syllabic>begin</syllabic>
          <text>v͜hi</text>
          </lyric>
        <lyric number="2" default-x="6.50" default-y="-69.00" relative-y="-30.00">
          <syllabic>single</syllabic>
          <text>rad</text>
          </lyric>
        <lyric number="3" default-x="6.50" default-y="-92.97" relative-y="-30.00">
          <syllabic>begin</syllabic>
          <text>pa</text>
          </lyric>
        </note>
      <note default-x="55.06" default-y="-25.00">
        <pitch>
          <step>A</step>
          <octave>4</octave>
          </pitch>
        <duration>1</duration>
        <voice>1</voice>
        <type>eighth</type>
        <stem>up</stem>
        <beam number="1">continue</beam>
        <lyric number="1" default-x="6.50" default-y="-45.03" relative-y="-30.00">
          <syllabic>end</syllabic>
          <text>ši</text>
          </lyric>
        <lyric number="2" default-x="6.50" default-y="-69.00" relative-y="-30.00">
          <syllabic>single</syllabic>
          <text>je</text>
          </lyric>
        <lyric number="3" default-x="6.50" default-y="-92.97" relative-y="-30.00">
          <syllabic>middle</syllabic>
          <text>pa</text>
          </lyric>
        </note>
      <note default-x="92.05" default-y="-35.00">
        <pitch>
          <step>F</step>
          <alter>1</alter>
          <octave>4</octave>
          </pitch>
        <duration>1</duration>
        <voice>1</voice>
        <type>eighth</type>
        <stem>up</stem>
        <beam number="1">continue</beam>
        <lyric number="1" default-x="6.50" default-y="-45.03" relative-y="-30.00">
          <syllabic>begin</syllabic>
          <text>či</text>
          </lyric>
        <lyric number="2" default-x="6.50" default-y="-69.00" relative-y="-30.00">
          <syllabic>single</syllabic>
          <text>sam</text>
          </lyric>
        <lyric number="3" default-x="6.50" default-y="-92.97" relative-y="-30.00">
          <syllabic>middle</syllabic>
          <text>pa</text>
          </lyric>
        </note>
      <note default-x="128.07" default-y="-20.00">
        <pitch>
          <step>B</step>
          <octave>4</octave>
          </pitch>
        <duration>1</duration>
        <voice>1</voice>
        <type>eighth</type>
        <stem>up</stem>
        <beam number="1">end</beam>
        <lyric number="1" default-x="6.50" default-y="-45.03" relative-y="-30.00">
          <syllabic>end</syllabic>
          <text>sto</text>
          </lyric>
        <lyric number="2" default-x="6.50" default-y="-69.00" relative-y="-30.00">
          <syllabic>begin</syllabic>
          <text>do</text>
          </lyric>
        <lyric number="3" default-x="6.50" default-y="-92.97" relative-y="-30.00">
          <syllabic>middle</syllabic>
          <text>pa</text>
          </lyric>
        </note>
      <note default-x="164.66" default-y="-25.00">
        <pitch>
          <step>A</step>
          <octave>4</octave>
          </pitch>
        <duration>4</duration>
        <voice>1</voice>
        <type>half</type>
        <stem>up</stem>
        <lyric number="1" default-x="9.28" default-y="-45.03" relative-y="-30.00">
          <syllabic>single</syllabic>
          <text>sam,</text>
          </lyric>
        <lyric number="2" default-x="8.90" default-y="-69.00" relative-y="-30.00">
          <syllabic>end</syllabic>
          <text>ma,</text>
          </lyric>
        <lyric number="3" default-x="8.95" default-y="-92.97" relative-y="-30.00">
          <syllabic>end</syllabic>
          <text>pa,</text>
          </lyric>
        </note>
      </measure>
    <measure number="9" width="283.25">
      <note default-x="20.08" default-y="-35.00">
        <pitch>
          <step>F</step>
          <alter>1</alter>
          <octave>4</octave>
          </pitch>
        <duration>1</duration>
        <voice>1</voice>
        <type>eighth</type>
        <stem>up</stem>
        <beam number="1">begin</beam>
        <lyric number="1" default-x="6.50" default-y="-45.03" relative-y="-30.00">
          <syllabic>begin</syllabic>
          <text>v͜hi</text>
          </lyric>
        <lyric number="2" default-x="6.50" default-y="-69.00" relative-y="-30.00">
          <syllabic>single</syllabic>
          <text>rad</text>
          </lyric>
        <lyric number="3" default-x="6.50" default-y="-92.97" relative-y="-30.00">
          <syllabic>begin</syllabic>
          <text>pa</text>
          </lyric>
        </note>
      <note default-x="56.19" default-y="-35.00">
        <pitch>
          <step>F</step>
          <alter>1</alter>
          <octave>4</octave>
          </pitch>
        <duration>1</duration>
        <voice>1</voice>
        <type>eighth</type>
        <stem>up</stem>
        <beam number="1">continue</beam>
        <lyric number="1" default-x="6.50" default-y="-45.03" relative-y="-30.00">
          <syllabic>end</syllabic>
          <text>ši</text>
          </lyric>
        <lyric number="2" default-x="6.50" default-y="-69.00" relative-y="-30.00">
          <syllabic>single</syllabic>
          <text>je</text>
          </lyric>
        <lyric number="3" default-x="6.50" default-y="-92.97" relative-y="-30.00">
          <syllabic>middle</syllabic>
          <text>pa</text>
          </lyric>
        </note>
      <note default-x="93.18" default-y="-45.00">
        <pitch>
          <step>D</step>
          <octave>4</octave>
          </pitch>
        <duration>1</duration>
        <voice>1</voice>
        <type>eighth</type>
        <stem>up</stem>
        <beam number="1">continue</beam>
        <lyric number="1" default-x="6.50" default-y="-45.03" relative-y="-30.00">
          <syllabic>begin</syllabic>
          <text>či</text>
          </lyric>
        <lyric number="2" default-x="6.50" default-y="-69.00" relative-y="-30.00">
          <syllabic>single</syllabic>
          <text>sam</text>
          </lyric>
        <lyric number="3" default-x="6.50" default-y="-92.97" relative-y="-30.00">
          <syllabic>middle</syllabic>
          <text>pa</text>
          </lyric>
        </note>
      <note default-x="129.29" default-y="-30.00">
        <pitch>
          <step>G</step>
          <octave>4</octave>
          </pitch>
        <duration>1</duration>
        <voice>1</voice>
        <type>eighth</type>
        <stem>up</stem>
        <beam number="1">end</beam>
        <lyric number="1" default-x="6.50" default-y="-45.03" relative-y="-30.00">
          <syllabic>end</syllabic>
          <text>sto</text>
          </lyric>
        <lyric number="2" default-x="6.50" default-y="-69.00" relative-y="-30.00">
          <syllabic>begin</syllabic>
          <text>do</text>
          </lyric>
        <lyric number="3" default-x="6.50" default-y="-92.97" relative-y="-30.00">
          <syllabic>middle</syllabic>
          <text>pa</text>
          </lyric>
        </note>
      <note default-x="165.88" default-y="-35.00">
        <pitch>
          <step>F</step>
          <alter>1</alter>
          <octave>4</octave>
          </pitch>
        <duration>2</duration>
        <voice>1</voice>
        <type>quarter</type>
        <stem>up</stem>
        <lyric number="1" default-x="9.28" default-y="-45.03" relative-y="-30.00">
          <syllabic>single</syllabic>
          <text>sam,</text>
          </lyric>
        <lyric number="2" default-x="8.90" default-y="-69.00" relative-y="-30.00">
          <syllabic>end</syllabic>
          <text>ma,</text>
          </lyric>
        <lyric number="3" default-x="8.95" default-y="-92.97" relative-y="-30.00">
          <syllabic>end</syllabic>
          <text>pa,</text>
          </lyric>
        </note>
      <note default-x="223.67" default-y="-40.00">
        <pitch>
          <step>E</step>
          <octave>4</octave>
          </pitch>
        <duration>2</duration>
        <voice>1</voice>
        <type>quarter</type>
        <stem>up</stem>
        <lyric number="1" default-x="7.85" default-y="-45.03" relative-y="-30.00">
          <syllabic>single</syllabic>
          <text>ja,</text>
          </lyric>
        <lyric number="2" default-x="7.85" default-y="-69.00" relative-y="-30.00">
          <syllabic>single</syllabic>
          <text>ja,</text>
          </lyric>
        <lyric number="3" default-y="-92.97" relative-y="-30.00">
          <syllabic>begin</syllabic>
          <text>pa</text>
          </lyric>
        </note>
      </measure>
    <measure number="10" width="266.23">
      <print new-system="yes">
        <system-layout>
          <system-margins>
            <left-margin>0.00</left-margin>
            <right-margin>626.07</right-margin>
            </system-margins>
          <system-distance>150.00</system-distance>
          </system-layout>
        </print>
      <barline location="left">
        <ending number="1" type="start" default-y="30.10"/>
        </barline>
      <note default-x="88.35" default-y="-45.00">
        <pitch>
          <step>D</step>
          <octave>4</octave>
          </pitch>
        <duration>4</duration>
        <voice>1</voice>
        <type>half</type>
        <stem>up</stem>
        <lyric number="1" default-x="7.80" default-y="-45.03" relative-y="-30.00">
          <syllabic>single</syllabic>
          <text>ja!</text>
          </lyric>
        <lyric number="2" default-x="7.80" default-y="-69.00" relative-y="-30.00">
          <syllabic>single</syllabic>
          <text>ja!</text>
          </lyric>
        </note>
      <note>
        <rest/>
        <duration>4</duration>
        <voice>1</voice>
        <type>half</type>
        </note>
      <barline location="right">
        <bar-style>light-heavy</bar-style>
        <ending number="1" type="stop"/>
        <repeat direction="backward"/>
        </barline>
      </measure>
    <measure number="11" width="185.19">
      <barline location="left">
        <ending number="3" type="start" default-y="30.10"/>
        </barline>
      <note default-x="15.49" default-y="-45.00">
        <pitch>
          <step>D</step>
          <octave>4</octave>
          </pitch>
        <duration>6</duration>
        <voice>1</voice>
        <type>half</type>
        <dot/>
        <stem>up</stem>
        <lyric number="3" default-x="8.76" default-y="-92.97" relative-y="-30.00">
          <syllabic>end</syllabic>
          <text>pa.</text>
          </lyric>
        </note>
      <note>
        <rest/>
        <duration>2</duration>
        <voice>1</voice>
        <type>quarter</type>
        </note>
      <barline location="right">
        <bar-style>light-heavy</bar-style>
        <ending number="3" type="stop"/>
        </barline>
      </measure>
    </part>
  </score-partwise>
