<?xml version="1.0" encoding="UTF-8"?>
<!DOCTYPE score-partwise PUBLIC "-//Recordare//DTD MusicXML 3.1 Partwise//EN" "http://www.musicxml.org/dtds/partwise.dtd">
<score-partwise version="3.1">
  <work>
    <work-title>Noči so črno črne</work-title>
    </work>
  <identification>
    <creator type="composer">Napisala: Anja Štefan Uglasbila: Irma in Damijan Močnik</creator>
    <creator type="lyricist">Uredila: Katja Virant Iršič</creator>
    <rights>Prepisala: Lucija Gorjup</rights>
    <encoding>
      <software>MuseScore 3.6.2</software>
      <encoding-date>2022-05-03</encoding-date>
      <supports element="accidental" type="yes"/>
      <supports element="beam" type="yes"/>
      <supports element="print" attribute="new-page" type="yes" value="yes"/>
      <supports element="print" attribute="new-system" type="yes" value="yes"/>
      <supports element="stem" type="yes"/>
      </encoding>
    </identification>
  <defaults>
    <scaling>
      <millimeters>7.05556</millimeters>
      <tenths>40</tenths>
      </scaling>
    <page-layout>
      <page-height>1683.36</page-height>
      <page-width>1190.88</page-width>
      <page-margins type="even">
        <left-margin>56.6929</left-margin>
        <right-margin>56.6929</right-margin>
        <top-margin>56.6929</top-margin>
        <bottom-margin>113.386</bottom-margin>
        </page-margins>
      <page-margins type="odd">
        <left-margin>56.6929</left-margin>
        <right-margin>56.6929</right-margin>
        <top-margin>56.6929</top-margin>
        <bottom-margin>113.386</bottom-margin>
        </page-margins>
      </page-layout>
    <word-font font-family="Edwin" font-size="10"/>
    <lyric-font font-family="Edwin" font-size="10"/>
    </defaults>
  <credit page="1">
    <credit-type>title</credit-type>
    <credit-words default-x="595.44" default-y="1626.67" justify="center" valign="top" font-size="22">Noči so črno črne</credit-words>
    </credit>
  <credit page="1">
    <credit-type>subtitle</credit-type>
    <credit-words default-x="595.44" default-y="1569.97" justify="center" valign="top" font-size="16">Ciciban, marec 2004</credit-words>
    </credit>
  <credit page="1">
    <credit-type>composer</credit-type>
    <credit-words default-x="1134.19" default-y="1485.54" justify="right" valign="bottom">Napisala: Anja Štefan 
</credit-words>
    <credit-words>Uglasbila: Irma in Damijan Močnik
</credit-words>
    <credit-words></credit-words>
    </credit>
  <credit page="1">
    <credit-type>lyricist</credit-type>
    <credit-words default-x="56.6929" default-y="1485.54" justify="left" valign="bottom">Uredila: Katja Virant Iršič</credit-words>
    </credit>
  <credit page="1">
    <credit-type>rights</credit-type>
    <credit-words default-x="595.44" default-y="113.386" justify="center" valign="bottom" font-family="FreeSerif" font-size="8">Prepisala: Lucija Gorjup</credit-words>
    </credit>
  <part-list>
    <score-part id="P1">
      <part-name>Piano</part-name>
      <part-abbreviation>Pno.</part-abbreviation>
      <score-instrument id="P1-I1">
        <instrument-name>Piano</instrument-name>
        </score-instrument>
      <midi-device id="P1-I1" port="1"></midi-device>
      <midi-instrument id="P1-I1">
        <midi-channel>1</midi-channel>
        <midi-program>1</midi-program>
        <volume>78.7402</volume>
        <pan>0</pan>
        </midi-instrument>
      </score-part>
    </part-list>
  <part id="P1">
    <measure number="0" implicit="yes" width="157.32">
      <print>
        <system-layout>
          <system-margins>
            <left-margin>0.00</left-margin>
            <right-margin>0.00</right-margin>
            </system-margins>
          <top-system-distance>211.12</top-system-distance>
          </system-layout>
        </print>
      <attributes>
        <divisions>4</divisions>
        <key>
          <fifths>-1</fifths>
          </key>
        <time symbol="common">
          <beats>4</beats>
          <beat-type>4</beat-type>
          </time>
        <clef>
          <sign>G</sign>
          <line>2</line>
          </clef>
        </attributes>
      <note>
        <rest/>
        <duration>2</duration>
        <voice>1</voice>
        <type>eighth</type>
        </note>
      <note default-x="120.97" default-y="-50.00">
        <pitch>
          <step>C</step>
          <octave>4</octave>
          </pitch>
        <duration>2</duration>
        <voice>1</voice>
        <type>eighth</type>
        <stem>up</stem>
        <lyric number="1" default-x="6.50" default-y="-52.78" relative-y="-30.00">
          <syllabic>begin</syllabic>
          <text>No</text>
          </lyric>
        <lyric number="2" default-x="6.50" default-y="-76.75" relative-y="-30.00">
          <syllabic>single</syllabic>
          <text>Mu</text>
          </lyric>
        </note>
      </measure>
    <measure number="1" width="292.65">
      <note default-x="19.20" default-y="-35.00">
        <pitch>
          <step>F</step>
          <octave>4</octave>
          </pitch>
        <duration>2</duration>
        <voice>1</voice>
        <type>eighth</type>
        <stem>up</stem>
        <beam number="1">begin</beam>
        <lyric number="1" default-x="6.50" default-y="-52.78" relative-y="-30.00">
          <syllabic>end</syllabic>
          <text>či</text>
          </lyric>
        <lyric number="2" default-x="6.50" default-y="-76.75" relative-y="-30.00">
          <syllabic>begin</syllabic>
          <text>zve</text>
          </lyric>
        </note>
      <note default-x="56.22" default-y="-25.00">
        <pitch>
          <step>A</step>
          <octave>4</octave>
          </pitch>
        <duration>2</duration>
        <voice>1</voice>
        <type>eighth</type>
        <stem>up</stem>
        <beam number="1">continue</beam>
        <lyric number="1" default-x="6.50" default-y="-52.78" relative-y="-30.00">
          <syllabic>single</syllabic>
          <text>so</text>
          </lyric>
        <lyric number="2" default-x="6.50" default-y="-76.75" relative-y="-30.00">
          <syllabic>end</syllabic>
          <text>zde</text>
          </lyric>
        </note>
      <note default-x="91.77" default-y="-30.00">
        <pitch>
          <step>G</step>
          <octave>4</octave>
          </pitch>
        <duration>2</duration>
        <voice>1</voice>
        <type>eighth</type>
        <stem>up</stem>
        <beam number="1">continue</beam>
        <lyric number="1" default-x="6.50" default-y="-52.78" relative-y="-30.00">
          <syllabic>begin</syllabic>
          <text>čr</text>
          </lyric>
        <lyric number="2" default-x="6.50" default-y="-76.75" relative-y="-30.00">
          <syllabic>begin</syllabic>
          <text>še</text>
          </lyric>
        </note>
      <note default-x="127.32" default-y="-25.00">
        <pitch>
          <step>A</step>
          <octave>4</octave>
          </pitch>
        <duration>2</duration>
        <voice>1</voice>
        <type>eighth</type>
        <stem>up</stem>
        <beam number="1">end</beam>
        <lyric number="1" default-x="6.50" default-y="-52.78" relative-y="-30.00">
          <syllabic>end</syllabic>
          <text>no</text>
          </lyric>
        <lyric number="2" default-x="6.50" default-y="-76.75" relative-y="-30.00">
          <syllabic>middle</syllabic>
          <text>pe</text>
          </lyric>
        </note>
      <note default-x="162.87" default-y="-35.00">
        <pitch>
          <step>F</step>
          <octave>4</octave>
          </pitch>
        <duration>2</duration>
        <voice>1</voice>
        <type>eighth</type>
        <stem>up</stem>
        <lyric number="1" default-x="6.50" default-y="-52.78" relative-y="-30.00">
          <syllabic>begin</syllabic>
          <text>čr</text>
          </lyric>
        <lyric number="2" default-x="6.50" default-y="-76.75" relative-y="-30.00">
          <syllabic>middle</syllabic>
          <text>ta</text>
          </lyric>
        </note>
      <note default-x="198.42" default-y="-35.00">
        <pitch>
          <step>F</step>
          <octave>4</octave>
          </pitch>
        <duration>4</duration>
        <voice>1</voice>
        <type>quarter</type>
        <stem>up</stem>
        <lyric number="1" default-x="8.94" default-y="-52.78" relative-y="-30.00">
          <syllabic>end</syllabic>
          <text>ne,</text>
          </lyric>
        <lyric number="2" default-x="7.85" default-y="-76.75" relative-y="-30.00">
          <syllabic>end</syllabic>
          <text>jo,</text>
          </lyric>
        </note>
      <note default-x="255.30" default-y="-25.00">
        <pitch>
          <step>A</step>
          <octave>4</octave>
          </pitch>
        <duration>2</duration>
        <voice>1</voice>
        <type>eighth</type>
        <stem>up</stem>
        <lyric number="1" default-x="6.50" default-y="-52.78" relative-y="-30.00">
          <syllabic>single</syllabic>
          <text>ker</text>
          </lyric>
        <lyric number="2" default-x="6.50" default-y="-76.75" relative-y="-30.00">
          <syllabic>single</syllabic>
          <text>da</text>
          </lyric>
        </note>
      </measure>
    <measure number="2" width="291.37">
      <note default-x="19.85" default-y="-20.00">
        <pitch>
          <step>B</step>
          <alter>-1</alter>
          <octave>4</octave>
          </pitch>
        <duration>2</duration>
        <voice>1</voice>
        <type>eighth</type>
        <stem>down</stem>
        <beam number="1">begin</beam>
        <lyric number="1" default-x="6.50" default-y="-52.78" relative-y="-30.00">
          <syllabic>begin</syllabic>
          <text>son</text>
          </lyric>
        <lyric number="2" default-x="6.50" default-y="-76.75" relative-y="-30.00">
          <syllabic>single</syllabic>
          <text>noč</text>
          </lyric>
        </note>
      <note default-x="58.52" default-y="-15.00">
        <pitch>
          <step>C</step>
          <octave>5</octave>
          </pitch>
        <duration>2</duration>
        <voice>1</voice>
        <type>eighth</type>
        <stem>down</stem>
        <beam number="1">continue</beam>
        <lyric number="1" default-x="6.50" default-y="-52.78" relative-y="-30.00">
          <syllabic>middle</syllabic>
          <text>če</text>
          </lyric>
        <lyric number="2" default-x="6.50" default-y="-76.75" relative-y="-30.00">
          <syllabic>single</syllabic>
          <text>je</text>
          </lyric>
        </note>
      <note default-x="97.19" default-y="-20.00">
        <pitch>
          <step>B</step>
          <alter>-1</alter>
          <octave>4</octave>
          </pitch>
        <duration>2</duration>
        <voice>1</voice>
        <type>eighth</type>
        <stem>down</stem>
        <beam number="1">continue</beam>
        <lyric number="1" default-x="6.50" default-y="-52.78" relative-y="-30.00">
          <syllabic>end</syllabic>
          <text>ce</text>
          </lyric>
        <lyric number="2" default-x="6.50" default-y="-76.75" relative-y="-30.00">
          <syllabic>begin</syllabic>
          <text>nji</text>
          </lyric>
        </note>
      <note default-x="135.86" default-y="-25.00">
        <pitch>
          <step>A</step>
          <octave>4</octave>
          </pitch>
        <duration>2</duration>
        <voice>1</voice>
        <type>eighth</type>
        <stem>down</stem>
        <beam number="1">end</beam>
        <lyric number="1" default-x="6.50" default-y="-52.78" relative-y="-30.00">
          <syllabic>single</syllabic>
          <text>gre</text>
          </lyric>
        <lyric number="2" default-x="6.50" default-y="-76.75" relative-y="-30.00">
          <syllabic>end</syllabic>
          <text>hov</text>
          </lyric>
        </note>
      <note default-x="175.46" default-y="-30.00">
        <pitch>
          <step>G</step>
          <octave>4</octave>
          </pitch>
        <duration>6</duration>
        <voice>1</voice>
        <type>quarter</type>
        <dot/>
        <stem>up</stem>
        <lyric number="1" default-x="9.42" default-y="-52.78" relative-y="-30.00">
          <syllabic>single</syllabic>
          <text>spat.</text>
          </lyric>
        <lyric number="2" default-x="8.81" default-y="-76.75" relative-y="-30.00">
          <syllabic>single</syllabic>
          <text>čas.</text>
          </lyric>
        </note>
      <note default-x="250.90" default-y="-40.00">
        <pitch>
          <step>E</step>
          <octave>4</octave>
          </pitch>
        <duration>2</duration>
        <voice>1</voice>
        <type>eighth</type>
        <stem>up</stem>
        <lyric number="1" default-x="6.50" default-y="-52.78" relative-y="-30.00">
          <syllabic>single</syllabic>
          <text>Ker</text>
          </lyric>
        <lyric number="2" default-x="6.50" default-y="-76.75" relative-y="-30.00">
          <syllabic>single</syllabic>
          <text>Da</text>
          </lyric>
        </note>
      </measure>
    <measure number="3" width="336.15">
      <note default-x="19.08" default-y="-30.00">
        <pitch>
          <step>G</step>
          <octave>4</octave>
          </pitch>
        <duration>2</duration>
        <voice>1</voice>
        <type>eighth</type>
        <stem>up</stem>
        <beam number="1">begin</beam>
        <lyric number="1" default-x="6.50" default-y="-52.78" relative-y="-30.00">
          <syllabic>begin</syllabic>
          <text>žar</text>
          </lyric>
        <lyric number="2" default-x="6.50" default-y="-76.75" relative-y="-30.00">
          <syllabic>begin</syllabic>
          <text>sa</text>
          </lyric>
        </note>
      <note default-x="60.45" default-y="-20.00">
        <pitch>
          <step>B</step>
          <alter>-1</alter>
          <octave>4</octave>
          </pitch>
        <duration>2</duration>
        <voice>1</voice>
        <type>eighth</type>
        <stem>up</stem>
        <beam number="1">continue</beam>
        <lyric number="1" default-x="6.50" default-y="-52.78" relative-y="-30.00">
          <syllabic>end</syllabic>
          <text>ke</text>
          </lyric>
        <lyric number="2" default-x="6.50" default-y="-76.75" relative-y="-30.00">
          <syllabic>end</syllabic>
          <text>me</text>
          </lyric>
        </note>
      <note default-x="102.70" default-y="-25.00">
        <pitch>
          <step>A</step>
          <octave>4</octave>
          </pitch>
        <duration>2</duration>
        <voice>1</voice>
        <type>eighth</type>
        <stem>up</stem>
        <beam number="1">continue</beam>
        <lyric number="1" default-x="6.50" default-y="-52.78" relative-y="-30.00">
          <syllabic>single</syllabic>
          <text>stran</text>
          </lyric>
        <lyric number="2" default-x="6.50" default-y="-76.75" relative-y="-30.00">
          <syllabic>begin</syllabic>
          <text>sve</text>
          </lyric>
        </note>
      <note default-x="144.06" default-y="-20.00">
        <pitch>
          <step>B</step>
          <alter>-1</alter>
          <octave>4</octave>
          </pitch>
        <duration>2</duration>
        <voice>1</voice>
        <type>eighth</type>
        <stem>up</stem>
        <beam number="1">end</beam>
        <lyric number="1" default-x="6.50" default-y="-52.78" relative-y="-30.00">
          <syllabic>begin</syllabic>
          <text>o</text>
          </lyric>
        <lyric number="2" default-x="8.12" default-y="-76.75" relative-y="-30.00">
          <syllabic>end</syllabic>
          <text>tit'</text>
          </lyric>
        </note>
      <note default-x="185.43" default-y="-30.00">
        <pitch>
          <step>G</step>
          <octave>4</octave>
          </pitch>
        <duration>2</duration>
        <voice>1</voice>
        <type>eighth</type>
        <stem>up</stem>
        <lyric number="1" default-x="6.50" default-y="-52.78" relative-y="-30.00">
          <syllabic>middle</syllabic>
          <text>br</text>
          </lyric>
        <lyric number="2" default-x="6.50" default-y="-76.75" relative-y="-30.00">
          <syllabic>begin</syllabic>
          <text>zna</text>
          </lyric>
        </note>
      <note default-x="226.80" default-y="-30.00">
        <pitch>
          <step>G</step>
          <octave>4</octave>
          </pitch>
        <duration>4</duration>
        <voice>1</voice>
        <type>quarter</type>
        <stem>up</stem>
        <lyric number="1" default-x="8.94" default-y="-52.78" relative-y="-30.00">
          <syllabic>end</syllabic>
          <text>ne,</text>
          </lyric>
        <lyric number="2" default-x="7.85" default-y="-76.75" relative-y="-30.00">
          <syllabic>end</syllabic>
          <text>jo,</text>
          </lyric>
        </note>
      <note default-x="292.98" default-y="-20.00">
        <pitch>
          <step>B</step>
          <alter>-1</alter>
          <octave>4</octave>
          </pitch>
        <duration>2</duration>
        <voice>1</voice>
        <type>eighth</type>
        <stem>down</stem>
        <lyric number="1" default-x="6.50" default-y="-52.78" relative-y="-30.00">
          <syllabic>begin</syllabic>
          <text>no</text>
          </lyric>
        <lyric number="2" default-x="6.50" default-y="-76.75" relative-y="-30.00">
          <syllabic>single</syllabic>
          <text>mu</text>
          </lyric>
        </note>
      </measure>
    <measure number="4" width="390.26">
      <print new-system="yes">
        <system-layout>
          <system-margins>
            <left-margin>0.00</left-margin>
            <right-margin>-0.00</right-margin>
            </system-margins>
          <system-distance>150.00</system-distance>
          </system-layout>
        </print>
      <note default-x="76.71" default-y="-25.00">
        <pitch>
          <step>A</step>
          <octave>4</octave>
          </pitch>
        <duration>2</duration>
        <voice>1</voice>
        <type>eighth</type>
        <stem>up</stem>
        <beam number="1">begin</beam>
        <lyric number="1" default-x="6.50" default-y="-48.67" relative-y="-30.00">
          <syllabic>end</syllabic>
          <text>či</text>
          </lyric>
        <lyric number="2" default-x="6.50" default-y="-72.64" relative-y="-30.00">
          <syllabic>begin</syllabic>
          <text>zve</text>
          </lyric>
        </note>
      <note default-x="117.73" default-y="-35.00">
        <pitch>
          <step>F</step>
          <octave>4</octave>
          </pitch>
        <duration>2</duration>
        <voice>1</voice>
        <type>eighth</type>
        <stem>up</stem>
        <beam number="1">continue</beam>
        <lyric number="1" default-x="6.50" default-y="-48.67" relative-y="-30.00">
          <syllabic>single</syllabic>
          <text>so</text>
          </lyric>
        <lyric number="2" default-x="6.50" default-y="-72.64" relative-y="-30.00">
          <syllabic>end</syllabic>
          <text>zde</text>
          </lyric>
        </note>
      <note default-x="158.75" default-y="-30.00">
        <pitch>
          <step>G</step>
          <octave>4</octave>
          </pitch>
        <duration>2</duration>
        <voice>1</voice>
        <type>eighth</type>
        <stem>up</stem>
        <beam number="1">continue</beam>
        <lyric number="1" default-x="6.50" default-y="-48.67" relative-y="-30.00">
          <syllabic>begin</syllabic>
          <text>čr</text>
          </lyric>
        <lyric number="2" default-x="6.50" default-y="-72.64" relative-y="-30.00">
          <syllabic>begin</syllabic>
          <text>še</text>
          </lyric>
        </note>
      <note default-x="199.77" default-y="-50.00">
        <pitch>
          <step>C</step>
          <octave>4</octave>
          </pitch>
        <duration>2</duration>
        <voice>1</voice>
        <type>eighth</type>
        <stem>up</stem>
        <beam number="1">end</beam>
        <lyric number="1" default-x="6.50" default-y="-48.67" relative-y="-30.00">
          <syllabic>end</syllabic>
          <text>no</text>
          </lyric>
        <lyric number="2" default-x="6.50" default-y="-72.64" relative-y="-30.00">
          <syllabic>middle</syllabic>
          <text>pe</text>
          </lyric>
        </note>
      <note default-x="240.79" default-y="-35.00">
        <pitch>
          <step>F</step>
          <octave>4</octave>
          </pitch>
        <duration>2</duration>
        <voice>1</voice>
        <type>eighth</type>
        <stem>up</stem>
        <lyric number="1" default-x="6.50" default-y="-48.67" relative-y="-30.00">
          <syllabic>begin</syllabic>
          <text>čr</text>
          </lyric>
        <lyric number="2" default-x="6.50" default-y="-72.64" relative-y="-30.00">
          <syllabic>middle</syllabic>
          <text>ta</text>
          </lyric>
        </note>
      <note default-x="281.81" default-y="-35.00">
        <pitch>
          <step>F</step>
          <octave>4</octave>
          </pitch>
        <duration>4</duration>
        <voice>1</voice>
        <type>quarter</type>
        <stem>up</stem>
        <lyric number="1" default-x="8.75" default-y="-48.67" relative-y="-30.00">
          <syllabic>end</syllabic>
          <text>ne.</text>
          </lyric>
        <lyric number="2" default-x="7.67" default-y="-72.64" relative-y="-30.00">
          <syllabic>end</syllabic>
          <text>jo.</text>
          </lyric>
        </note>
      <note default-x="347.44" default-y="-25.00">
        <pitch>
          <step>A</step>
          <octave>4</octave>
          </pitch>
        <duration>2</duration>
        <voice>1</voice>
        <type>eighth</type>
        <stem>up</stem>
        <lyric number="1" default-x="6.50" default-y="-48.67" relative-y="-30.00">
          <syllabic>single</syllabic>
          <text>Z͜o</text>
          </lyric>
        <lyric number="2" default-x="6.50" default-y="-72.64" relative-y="-30.00">
          <syllabic>single</syllabic>
          <text>In</text>
          </lyric>
        </note>
      </measure>
    <measure number="5" width="357.46">
      <note default-x="18.81" default-y="-30.00">
        <pitch>
          <step>G</step>
          <octave>4</octave>
          </pitch>
        <duration>3</duration>
        <voice>1</voice>
        <type>eighth</type>
        <dot/>
        <stem>up</stem>
        <beam number="1">begin</beam>
        <lyric number="1" default-x="6.50" default-y="-48.67" relative-y="-30.00">
          <syllabic>begin</syllabic>
          <text>bla</text>
          </lyric>
        <lyric number="2" default-x="6.50" default-y="-72.64" relative-y="-30.00">
          <syllabic>begin</syllabic>
          <text>z͜lu</text>
          </lyric>
        </note>
      <note default-x="69.83" default-y="-25.00">
        <pitch>
          <step>A</step>
          <octave>4</octave>
          </pitch>
        <duration>1</duration>
        <voice>1</voice>
        <type>16th</type>
        <stem>up</stem>
        <beam number="1">end</beam>
        <beam number="2">backward hook</beam>
        <lyric number="1" default-x="6.50" default-y="-48.67" relative-y="-30.00">
          <syllabic>end</syllabic>
          <text>ki</text>
          </lyric>
        <lyric number="2" default-x="6.50" default-y="-72.64" relative-y="-30.00">
          <syllabic>middle</syllabic>
          <text>čka</text>
          </lyric>
        </note>
      <note default-x="104.58" default-y="-30.00">
        <pitch>
          <step>G</step>
          <octave>4</octave>
          </pitch>
        <duration>2</duration>
        <voice>1</voice>
        <type>eighth</type>
        <stem>up</stem>
        <beam number="1">begin</beam>
        <lyric number="1" default-x="6.50" default-y="-48.67" relative-y="-30.00">
          <syllabic>single</syllabic>
          <text>se</text>
          </lyric>
        <lyric number="2" default-x="6.50" default-y="-72.64" relative-y="-30.00">
          <syllabic>end</syllabic>
          <text>mi</text>
          </lyric>
        </note>
      <note default-x="146.43" default-y="-35.00">
        <pitch>
          <step>F</step>
          <octave>4</octave>
          </pitch>
        <duration>2</duration>
        <voice>1</voice>
        <type>eighth</type>
        <stem>up</stem>
        <beam number="1">end</beam>
        <lyric number="1" default-x="6.50" default-y="-48.67" relative-y="-30.00">
          <syllabic>begin</syllabic>
          <text>po</text>
          </lyric>
        <lyric number="2" default-x="6.50" default-y="-72.64" relative-y="-30.00">
          <syllabic>begin</syllabic>
          <text>mi</text>
          </lyric>
        </note>
      <note default-x="188.28" default-y="-40.00">
        <pitch>
          <step>E</step>
          <octave>4</octave>
          </pitch>
        <duration>2</duration>
        <voice>1</voice>
        <type>eighth</type>
        <stem>up</stem>
        <beam number="1">begin</beam>
        <lyric number="1" default-x="6.50" default-y="-48.67" relative-y="-30.00">
          <syllabic>middle</syllabic>
          <text>gr</text>
          </lyric>
        <lyric number="2" default-x="6.50" default-y="-72.64" relative-y="-30.00">
          <syllabic>middle</syllabic>
          <text>glja</text>
          </lyric>
        </note>
      <note default-x="230.12" default-y="-35.00">
        <pitch>
          <step>F</step>
          <octave>4</octave>
          </pitch>
        <duration>2</duration>
        <voice>1</voice>
        <type>eighth</type>
        <stem>up</stem>
        <beam number="1">continue</beam>
        <notations>
          <slur type="start" placement="below" number="1"/>
          </notations>
        <lyric number="1" default-x="6.50" default-y="-48.67" relative-y="-30.00">
          <syllabic>end</syllabic>
          <text>ne</text>
          </lyric>
        <lyric number="2" default-x="6.50" default-y="-72.64" relative-y="-30.00">
          <syllabic>end</syllabic>
          <text>jo</text>
          </lyric>
        </note>
      <note default-x="271.97" default-y="-30.00">
        <pitch>
          <step>G</step>
          <octave>4</octave>
          </pitch>
        <duration>2</duration>
        <voice>1</voice>
        <type>eighth</type>
        <stem>up</stem>
        <beam number="1">continue</beam>
        <notations>
          <slur type="stop" number="1"/>
          </notations>
        </note>
      <note default-x="313.82" default-y="-40.00">
        <pitch>
          <step>E</step>
          <octave>4</octave>
          </pitch>
        <duration>2</duration>
        <voice>1</voice>
        <type>eighth</type>
        <stem>up</stem>
        <beam number="1">end</beam>
        <lyric number="1" default-x="6.50" default-y="-48.67" relative-y="-30.00">
          <syllabic>single</syllabic>
          <text>na</text>
          </lyric>
        <lyric number="2" default-x="6.50" default-y="-72.64" relative-y="-30.00">
          <syllabic>single</syllabic>
          <text>čez</text>
          </lyric>
        </note>
      </measure>
    <measure number="6" width="329.77">
      <note default-x="18.07" default-y="-45.00">
        <pitch>
          <step>D</step>
          <octave>4</octave>
          </pitch>
        <duration>2</duration>
        <voice>1</voice>
        <type>eighth</type>
        <stem>up</stem>
        <beam number="1">begin</beam>
        <lyric number="1" default-x="6.50" default-y="-48.67" relative-y="-30.00">
          <syllabic>begin</syllabic>
          <text>sre</text>
          </lyric>
        <lyric number="2" default-x="6.50" default-y="-72.64" relative-y="-30.00">
          <syllabic>begin</syllabic>
          <text>me</text>
          </lyric>
        </note>
      <note default-x="62.65" default-y="-35.00">
        <pitch>
          <step>F</step>
          <octave>4</octave>
          </pitch>
        <duration>2</duration>
        <voice>1</voice>
        <type>eighth</type>
        <stem>up</stem>
        <beam number="1">continue</beam>
        <lyric number="1" default-x="6.50" default-y="-48.67" relative-y="-30.00">
          <syllabic>end</syllabic>
          <text>di</text>
          </lyric>
        <lyric number="2" default-x="6.50" default-y="-72.64" relative-y="-30.00">
          <syllabic>end</syllabic>
          <text>sto</text>
          </lyric>
        </note>
      <note default-x="107.24" default-y="-40.00">
        <pitch>
          <step>E</step>
          <octave>4</octave>
          </pitch>
        <duration>2</duration>
        <voice>1</voice>
        <type>eighth</type>
        <stem>up</stem>
        <beam number="1">continue</beam>
        <lyric number="1" default-x="6.50" default-y="-48.67" relative-y="-30.00">
          <syllabic>begin</syllabic>
          <text>zla</text>
          </lyric>
        <lyric number="2" default-x="6.50" default-y="-72.64" relative-y="-30.00">
          <syllabic>single</syllabic>
          <text>in</text>
          </lyric>
        </note>
      <note default-x="151.82" default-y="-45.00">
        <pitch>
          <step>D</step>
          <octave>4</octave>
          </pitch>
        <duration>2</duration>
        <voice>1</voice>
        <type>eighth</type>
        <stem>up</stem>
        <beam number="1">end</beam>
        <lyric number="1" default-x="6.50" default-y="-48.67" relative-y="-30.00">
          <syllabic>end</syllabic>
          <text>tih</text>
          </lyric>
        <lyric number="2" default-x="6.50" default-y="-72.64" relative-y="-30.00">
          <syllabic>single</syllabic>
          <text>čez</text>
          </lyric>
        </note>
      <note default-x="196.40" default-y="-50.00">
        <pitch>
          <step>C</step>
          <octave>4</octave>
          </pitch>
        <duration>6</duration>
        <voice>1</voice>
        <type>quarter</type>
        <dot/>
        <stem>up</stem>
        <lyric number="1" default-x="9.19" default-y="-48.67" relative-y="-30.00">
          <syllabic>single</syllabic>
          <text>trat,</text>
          </lyric>
        <lyric number="2" default-x="8.91" default-y="-72.64" relative-y="-30.00">
          <syllabic>single</syllabic>
          <text>vas,</text>
          </lyric>
        </note>
      <note default-x="283.38" default-y="-45.00">
        <pitch>
          <step>D</step>
          <octave>4</octave>
          </pitch>
        <duration>2</duration>
        <voice>1</voice>
        <type>eighth</type>
        <stem>up</stem>
        <lyric number="1" default-x="6.50" default-y="-48.67" relative-y="-30.00">
          <syllabic>begin</syllabic>
          <text>no</text>
          </lyric>
        <lyric number="2" default-x="6.50" default-y="-72.64" relative-y="-30.00">
          <syllabic>single</syllabic>
          <text>mu</text>
          </lyric>
        </note>
      </measure>
    <measure number="7" width="588.99">
      <print new-system="yes">
        <system-layout>
          <system-margins>
            <left-margin>0.00</left-margin>
            <right-margin>0.00</right-margin>
            </system-margins>
          <system-distance>150.00</system-distance>
          </system-layout>
        </print>
      <note default-x="76.71" default-y="-35.00">
        <pitch>
          <step>F</step>
          <octave>4</octave>
          </pitch>
        <duration>2</duration>
        <voice>1</voice>
        <type>eighth</type>
        <stem>up</stem>
        <beam number="1">begin</beam>
        <lyric number="1" default-x="6.50" default-y="-40.00" relative-y="-30.00">
          <syllabic>end</syllabic>
          <text>či</text>
          </lyric>
        <lyric number="2" default-x="6.50" default-y="-63.97" relative-y="-30.00">
          <syllabic>begin</syllabic>
          <text>zve</text>
          </lyric>
        </note>
      <note default-x="143.88" default-y="-25.00">
        <pitch>
          <step>A</step>
          <octave>4</octave>
          </pitch>
        <duration>2</duration>
        <voice>1</voice>
        <type>eighth</type>
        <stem>up</stem>
        <beam number="1">continue</beam>
        <lyric number="1" default-x="6.50" default-y="-40.00" relative-y="-30.00">
          <syllabic>single</syllabic>
          <text>so</text>
          </lyric>
        <lyric number="2" default-x="6.50" default-y="-63.97" relative-y="-30.00">
          <syllabic>end</syllabic>
          <text>zde</text>
          </lyric>
        </note>
      <note default-x="211.05" default-y="-30.00">
        <pitch>
          <step>G</step>
          <octave>4</octave>
          </pitch>
        <duration>2</duration>
        <voice>1</voice>
        <type>eighth</type>
        <stem>up</stem>
        <beam number="1">continue</beam>
        <lyric number="1" default-x="6.50" default-y="-40.00" relative-y="-30.00">
          <syllabic>begin</syllabic>
          <text>čr</text>
          </lyric>
        <lyric number="2" default-x="6.50" default-y="-63.97" relative-y="-30.00">
          <syllabic>begin</syllabic>
          <text>še</text>
          </lyric>
        </note>
      <note default-x="278.22" default-y="-25.00">
        <pitch>
          <step>A</step>
          <octave>4</octave>
          </pitch>
        <duration>2</duration>
        <voice>1</voice>
        <type>eighth</type>
        <stem>up</stem>
        <beam number="1">end</beam>
        <lyric number="1" default-x="6.50" default-y="-40.00" relative-y="-30.00">
          <syllabic>end</syllabic>
          <text>no</text>
          </lyric>
        <lyric number="2" default-x="6.50" default-y="-63.97" relative-y="-30.00">
          <syllabic>middle</syllabic>
          <text>pe</text>
          </lyric>
        </note>
      <note default-x="345.39" default-y="-35.00">
        <pitch>
          <step>F</step>
          <octave>4</octave>
          </pitch>
        <duration>2</duration>
        <voice>1</voice>
        <type>eighth</type>
        <stem>up</stem>
        <lyric number="1" default-x="6.50" default-y="-40.00" relative-y="-30.00">
          <syllabic>begin</syllabic>
          <text>čr</text>
          </lyric>
        <lyric number="2" default-x="6.50" default-y="-63.97" relative-y="-30.00">
          <syllabic>middle</syllabic>
          <text>ta</text>
          </lyric>
        </note>
      <note default-x="412.55" default-y="-35.00">
        <pitch>
          <step>F</step>
          <octave>4</octave>
          </pitch>
        <duration>4</duration>
        <voice>1</voice>
        <type>quarter</type>
        <stem>up</stem>
        <lyric number="1" default-x="8.94" default-y="-40.00" relative-y="-30.00">
          <syllabic>end</syllabic>
          <text>ne,</text>
          </lyric>
        <lyric number="2" default-x="7.85" default-y="-63.97" relative-y="-30.00">
          <syllabic>end</syllabic>
          <text>jo,</text>
          </lyric>
        </note>
      <note default-x="520.02" default-y="-25.00">
        <pitch>
          <step>A</step>
          <octave>4</octave>
          </pitch>
        <duration>2</duration>
        <voice>1</voice>
        <type>eighth</type>
        <stem>up</stem>
        <lyric number="1" default-x="6.50" default-y="-40.00" relative-y="-30.00">
          <syllabic>single</syllabic>
          <text>ker</text>
          </lyric>
        <lyric number="2" default-x="6.50" default-y="-63.97" relative-y="-30.00">
          <syllabic>single</syllabic>
          <text>da</text>
          </lyric>
        </note>
      </measure>
    <measure number="8" width="488.50">
      <note default-x="19.85" default-y="-30.00">
        <pitch>
          <step>G</step>
          <octave>4</octave>
          </pitch>
        <duration>2</duration>
        <voice>1</voice>
        <type>eighth</type>
        <stem>up</stem>
        <beam number="1">begin</beam>
        <lyric number="1" default-x="6.50" default-y="-40.00" relative-y="-30.00">
          <syllabic>begin</syllabic>
          <text>son</text>
          </lyric>
        <lyric number="2" default-x="6.50" default-y="-63.97" relative-y="-30.00">
          <syllabic>single</syllabic>
          <text>noč</text>
          </lyric>
        </note>
      <note default-x="85.74" default-y="-35.00">
        <pitch>
          <step>F</step>
          <octave>4</octave>
          </pitch>
        <duration>2</duration>
        <voice>1</voice>
        <type>eighth</type>
        <stem>up</stem>
        <beam number="1">continue</beam>
        <lyric number="1" default-x="6.50" default-y="-40.00" relative-y="-30.00">
          <syllabic>middle</syllabic>
          <text>če</text>
          </lyric>
        <lyric number="2" default-x="6.50" default-y="-63.97" relative-y="-30.00">
          <syllabic>single</syllabic>
          <text>je</text>
          </lyric>
        </note>
      <note default-x="151.63" default-y="-40.00">
        <pitch>
          <step>E</step>
          <octave>4</octave>
          </pitch>
        <duration>2</duration>
        <voice>1</voice>
        <type>eighth</type>
        <stem>up</stem>
        <beam number="1">continue</beam>
        <lyric number="1" default-x="6.50" default-y="-40.00" relative-y="-30.00">
          <syllabic>end</syllabic>
          <text>ce</text>
          </lyric>
        <lyric number="2" default-x="6.50" default-y="-63.97" relative-y="-30.00">
          <syllabic>begin</syllabic>
          <text>nji</text>
          </lyric>
        </note>
      <note default-x="217.52" default-y="-30.00">
        <pitch>
          <step>G</step>
          <octave>4</octave>
          </pitch>
        <duration>2</duration>
        <voice>1</voice>
        <type>eighth</type>
        <stem>up</stem>
        <beam number="1">end</beam>
        <lyric number="1" default-x="6.50" default-y="-40.00" relative-y="-30.00">
          <syllabic>single</syllabic>
          <text>gre</text>
          </lyric>
        <lyric number="2" default-x="6.50" default-y="-63.97" relative-y="-30.00">
          <syllabic>end</syllabic>
          <text>hov</text>
          </lyric>
        </note>
      <note default-x="283.41" default-y="-35.00">
        <pitch>
          <step>F</step>
          <octave>4</octave>
          </pitch>
        <duration>6</duration>
        <voice>1</voice>
        <type>quarter</type>
        <dot/>
        <stem>up</stem>
        <notations>
          <fermata type="upright" relative-y="10.00"/>
          </notations>
        <lyric number="1" default-x="9.42" default-y="-40.00" relative-y="-30.00">
          <syllabic>single</syllabic>
          <text>spat.</text>
          </lyric>
        <lyric number="2" default-x="8.81" default-y="-63.97" relative-y="-30.00">
          <syllabic>single</syllabic>
          <text>čas.</text>
          </lyric>
        </note>
      <note>
        <rest/>
        <duration>2</duration>
        <voice>1</voice>
        <type>eighth</type>
        </note>
      <barline location="right">
        <bar-style>light-heavy</bar-style>
        </barline>
      </measure>
    </part>
  </score-partwise>
