<?xml version="1.0" encoding="UTF-8"?>
<!DOCTYPE score-partwise PUBLIC "-//Recordare//DTD MusicXML 3.1 Partwise//EN" "http://www.musicxml.org/dtds/partwise.dtd">
<score-partwise version="3.1">
  <work>
    <work-title>Pav</work-title>
    </work>
  <identification>
    <creator type="composer">Napisala: Bina Štampe Žmavc Uglasbil: Boris Vremšak</creator>
    <creator type="lyricist">Uredila: Katja Virant Iršič</creator>
    <rights>Prepisala: Lucija Gorjup</rights>
    <encoding>
      <software>MuseScore 3.6.2</software>
      <encoding-date>2022-04-12</encoding-date>
      <supports element="accidental" type="yes"/>
      <supports element="beam" type="yes"/>
      <supports element="print" attribute="new-page" type="yes" value="yes"/>
      <supports element="print" attribute="new-system" type="yes" value="yes"/>
      <supports element="stem" type="yes"/>
      </encoding>
    </identification>
  <defaults>
    <scaling>
      <millimeters>7.05556</millimeters>
      <tenths>40</tenths>
      </scaling>
    <page-layout>
      <page-height>1683.36</page-height>
      <page-width>1190.88</page-width>
      <page-margins type="even">
        <left-margin>56.6929</left-margin>
        <right-margin>56.6929</right-margin>
        <top-margin>56.6929</top-margin>
        <bottom-margin>113.386</bottom-margin>
        </page-margins>
      <page-margins type="odd">
        <left-margin>56.6929</left-margin>
        <right-margin>56.6929</right-margin>
        <top-margin>56.6929</top-margin>
        <bottom-margin>113.386</bottom-margin>
        </page-margins>
      </page-layout>
    <word-font font-family="Edwin" font-size="10"/>
    <lyric-font font-family="Edwin" font-size="10"/>
    </defaults>
  <credit page="1">
    <credit-type>title</credit-type>
    <credit-words default-x="595.44" default-y="1626.67" justify="center" valign="top" font-size="22">Pav</credit-words>
    </credit>
  <credit page="1">
    <credit-type>subtitle</credit-type>
    <credit-words default-x="595.44" default-y="1569.97" justify="center" valign="top" font-size="16">Ciciban, marec 2002</credit-words>
    </credit>
  <credit page="1">
    <credit-type>composer</credit-type>
    <credit-words default-x="1134.19" default-y="1526.67" justify="right" valign="bottom">Napisala: Bina Štampe Žmavc 
</credit-words>
    <credit-words>Uglasbil: Boris Vremšak
</credit-words>
    <credit-words></credit-words>
    </credit>
  <credit page="1">
    <credit-type>lyricist</credit-type>
    <credit-words default-x="56.6929" default-y="1526.67" justify="left" valign="bottom">Uredila: Katja Virant Iršič</credit-words>
    </credit>
  <credit page="1">
    <credit-type>rights</credit-type>
    <credit-words default-x="595.44" default-y="113.386" justify="center" valign="bottom" font-family="FreeSerif" font-size="8">Prepisala: Lucija Gorjup</credit-words>
    </credit>
  <part-list>
    <score-part id="P1">
      <part-name>Piano</part-name>
      <part-abbreviation>Pno.</part-abbreviation>
      <score-instrument id="P1-I1">
        <instrument-name>Piano</instrument-name>
        </score-instrument>
      <midi-device id="P1-I1" port="1"></midi-device>
      <midi-instrument id="P1-I1">
        <midi-channel>1</midi-channel>
        <midi-program>1</midi-program>
        <volume>78.7402</volume>
        <pan>0</pan>
        </midi-instrument>
      </score-part>
    </part-list>
  <part id="P1">
    <measure number="1" width="340.47">
      <print>
        <system-layout>
          <system-margins>
            <left-margin>0.00</left-margin>
            <right-margin>-0.00</right-margin>
            </system-margins>
          <top-system-distance>170.00</top-system-distance>
          </system-layout>
        </print>
      <attributes>
        <divisions>2</divisions>
        <key>
          <fifths>1</fifths>
          </key>
        <time>
          <beats>6</beats>
          <beat-type>8</beat-type>
          </time>
        <clef>
          <sign>G</sign>
          <line>2</line>
          </clef>
        </attributes>
      <note default-x="98.47" default-y="-30.00">
        <pitch>
          <step>G</step>
          <octave>4</octave>
          </pitch>
        <duration>2</duration>
        <voice>1</voice>
        <type>quarter</type>
        <stem>up</stem>
        <lyric number="1" default-x="6.50" default-y="-45.99" relative-y="-30.00">
          <syllabic>single</syllabic>
          <text>Na</text>
          </lyric>
        <lyric number="2" default-x="6.50" default-y="-69.96" relative-y="-30.00">
          <syllabic>begin</syllabic>
          <text>Pra</text>
          </lyric>
        </note>
      <note default-x="172.38" default-y="-30.00">
        <pitch>
          <step>G</step>
          <octave>4</octave>
          </pitch>
        <duration>1</duration>
        <voice>1</voice>
        <type>eighth</type>
        <stem>up</stem>
        <lyric number="1" default-x="6.50" default-y="-45.99" relative-y="-30.00">
          <syllabic>begin</syllabic>
          <text>dvo</text>
          </lyric>
        <lyric number="2" default-x="6.50" default-y="-69.96" relative-y="-30.00">
          <syllabic>end</syllabic>
          <text>va</text>
          </lyric>
        </note>
      <note default-x="218.57" default-y="-40.00">
        <pitch>
          <step>E</step>
          <octave>4</octave>
          </pitch>
        <duration>2</duration>
        <voice>1</voice>
        <type>quarter</type>
        <stem>up</stem>
        <lyric number="1" default-x="6.50" default-y="-45.99" relative-y="-30.00">
          <syllabic>middle</syllabic>
          <text>ri</text>
          </lyric>
        <lyric number="2" default-x="6.50" default-y="-69.96" relative-y="-30.00">
          <syllabic>begin</syllabic>
          <text>pav</text>
          </lyric>
        </note>
      <note default-x="292.48" default-y="-40.00">
        <pitch>
          <step>E</step>
          <octave>4</octave>
          </pitch>
        <duration>1</duration>
        <voice>1</voice>
        <type>eighth</type>
        <stem>up</stem>
        <lyric number="1" default-x="6.50" default-y="-45.99" relative-y="-30.00">
          <syllabic>end</syllabic>
          <text>šču</text>
          </lyric>
        <lyric number="2" default-x="6.50" default-y="-69.96" relative-y="-30.00">
          <syllabic>end</syllabic>
          <text>ja</text>
          </lyric>
        </note>
      </measure>
    <measure number="2" width="251.31">
      <note default-x="18.02" default-y="-35.00">
        <pitch>
          <step>F</step>
          <alter>1</alter>
          <octave>4</octave>
          </pitch>
        <duration>2</duration>
        <voice>1</voice>
        <type>quarter</type>
        <stem>up</stem>
        <lyric number="1" default-x="6.50" default-y="-45.99" relative-y="-30.00">
          <syllabic>begin</syllabic>
          <text>ple</text>
          </lyric>
        <lyric number="2" default-x="6.50" default-y="-69.96" relative-y="-30.00">
          <syllabic>begin</syllabic>
          <text>ča</text>
          </lyric>
        </note>
      <note default-x="89.25" default-y="-35.00">
        <pitch>
          <step>F</step>
          <alter>1</alter>
          <octave>4</octave>
          </pitch>
        <duration>1</duration>
        <voice>1</voice>
        <type>eighth</type>
        <stem>up</stem>
        <lyric number="1" default-x="6.50" default-y="-45.99" relative-y="-30.00">
          <syllabic>end</syllabic>
          <text>še</text>
          </lyric>
        <lyric number="2" default-x="6.50" default-y="-69.96" relative-y="-30.00">
          <syllabic>middle</syllabic>
          <text>rov</text>
          </lyric>
        </note>
      <note default-x="133.76" default-y="-45.00">
        <pitch>
          <step>D</step>
          <octave>4</octave>
          </pitch>
        <duration>2</duration>
        <voice>1</voice>
        <type>quarter</type>
        <stem>up</stem>
        <lyric number="1" default-x="9.07" default-y="-45.99" relative-y="-30.00">
          <syllabic>single</syllabic>
          <text>pav.</text>
          </lyric>
        <lyric number="2" default-x="6.50" default-y="-69.96" relative-y="-30.00">
          <syllabic>middle</syllabic>
          <text>ni</text>
          </lyric>
        </note>
      <note default-x="204.99" default-y="-45.00">
        <pitch>
          <step>D</step>
          <octave>4</octave>
          </pitch>
        <duration>1</duration>
        <voice>1</voice>
        <type>eighth</type>
        <stem>up</stem>
        <lyric number="2" default-x="7.85" default-y="-69.96" relative-y="-30.00">
          <syllabic>end</syllabic>
          <text>ja,</text>
          </lyric>
        </note>
      <backup>
        <duration>6</duration>
        </backup>
      <forward>
        <duration>5</duration>
        </forward>
      <note>
        <rest>
          <display-step>E</display-step>
          <display-octave>4</display-octave>
          </rest>
        <duration>1</duration>
        <voice>2</voice>
        <type>eighth</type>
        </note>
      </measure>
    <measure number="3" width="237.34">
      <note default-x="20.92" default-y="-30.00">
        <pitch>
          <step>G</step>
          <octave>4</octave>
          </pitch>
        <duration>2</duration>
        <voice>1</voice>
        <type>quarter</type>
        <stem>up</stem>
        <lyric number="1" default-x="6.50" default-y="-45.99" relative-y="-30.00">
          <syllabic>single</syllabic>
          <text>Res</text>
          </lyric>
        <lyric number="2" default-x="6.50" default-y="-69.96" relative-y="-30.00">
          <syllabic>begin</syllabic>
          <text>ko</text>
          </lyric>
        </note>
      <note default-x="86.96" default-y="-30.00">
        <pitch>
          <step>G</step>
          <octave>4</octave>
          </pitch>
        <duration>1</duration>
        <voice>1</voice>
        <type>eighth</type>
        <stem>up</stem>
        <lyric number="1" default-x="6.50" default-y="-45.99" relative-y="-30.00">
          <syllabic>single</syllabic>
          <text>je</text>
          </lyric>
        <lyric number="2" default-x="6.50" default-y="-69.96" relative-y="-30.00">
          <syllabic>middle</syllabic>
          <text>či</text>
          </lyric>
        </note>
      <note default-x="128.23" default-y="-40.00">
        <pitch>
          <step>E</step>
          <octave>4</octave>
          </pitch>
        <duration>2</duration>
        <voice>1</voice>
        <type>quarter</type>
        <stem>up</stem>
        <lyric number="1" default-x="6.50" default-y="-45.99" relative-y="-30.00">
          <syllabic>begin</syllabic>
          <text>mal</text>
          </lyric>
        <lyric number="2" default-x="6.50" default-y="-69.96" relative-y="-30.00">
          <syllabic>end</syllabic>
          <text>jaž</text>
          </lyric>
        </note>
      <note default-x="194.27" default-y="-40.00">
        <pitch>
          <step>E</step>
          <octave>4</octave>
          </pitch>
        <duration>1</duration>
        <voice>1</voice>
        <type>eighth</type>
        <stem>up</stem>
        <lyric number="1" default-x="6.50" default-y="-45.99" relative-y="-30.00">
          <syllabic>end</syllabic>
          <text>ce</text>
          </lyric>
        <lyric number="2" default-x="6.50" default-y="-69.96" relative-y="-30.00">
          <syllabic>single</syllabic>
          <text>je</text>
          </lyric>
        </note>
      </measure>
    <measure number="4" width="248.37">
      <note default-x="14.72" default-y="-35.00">
        <pitch>
          <step>F</step>
          <alter>1</alter>
          <octave>4</octave>
          </pitch>
        <duration>2</duration>
        <voice>1</voice>
        <type>quarter</type>
        <stem>up</stem>
        <lyric number="1" default-x="6.50" default-y="-45.99" relative-y="-30.00">
          <syllabic>begin</syllabic>
          <text>do</text>
          </lyric>
        <lyric number="2" default-x="6.50" default-y="-69.96" relative-y="-30.00">
          <syllabic>single</syllabic>
          <text>in</text>
          </lyric>
        </note>
      <note default-x="86.06" default-y="-35.00">
        <pitch>
          <step>F</step>
          <alter>1</alter>
          <octave>4</octave>
          </pitch>
        <duration>1</duration>
        <voice>1</voice>
        <type>eighth</type>
        <stem>up</stem>
        <lyric number="1" default-x="6.50" default-y="-45.99" relative-y="-30.00">
          <syllabic>middle</syllabic>
          <text>mi</text>
          </lyric>
        <lyric number="2" default-x="6.50" default-y="-69.96" relative-y="-30.00">
          <syllabic>begin</syllabic>
          <text>ko</text>
          </lyric>
        </note>
      <note default-x="130.64" default-y="-45.00">
        <pitch>
          <step>D</step>
          <octave>4</octave>
          </pitch>
        <duration>2</duration>
        <voice>1</voice>
        <type>quarter</type>
        <stem>up</stem>
        <lyric number="1" default-x="9.59" default-y="-45.99" relative-y="-30.00">
          <syllabic>end</syllabic>
          <text>šljav.</text>
          </lyric>
        <lyric number="2" default-x="6.50" default-y="-69.96" relative-y="-30.00">
          <syllabic>middle</syllabic>
          <text>či</text>
          </lyric>
        </note>
      <note default-x="201.98" default-y="-45.00">
        <pitch>
          <step>D</step>
          <octave>4</octave>
          </pitch>
        <duration>1</duration>
        <voice>1</voice>
        <type>eighth</type>
        <stem>up</stem>
        <lyric number="2" default-x="7.85" default-y="-69.96" relative-y="-30.00">
          <syllabic>end</syllabic>
          <text>ja,</text>
          </lyric>
        </note>
      <backup>
        <duration>6</duration>
        </backup>
      <forward>
        <duration>5</duration>
        </forward>
      <note>
        <rest>
          <display-step>C</display-step>
          <display-octave>4</display-octave>
          </rest>
        <duration>1</duration>
        <voice>2</voice>
        <type>eighth</type>
        </note>
      </measure>
    <measure number="5" width="395.82">
      <print new-system="yes">
        <system-layout>
          <system-margins>
            <left-margin>0.00</left-margin>
            <right-margin>0.00</right-margin>
            </system-margins>
          <system-distance>150.00</system-distance>
          </system-layout>
        </print>
      <note default-x="81.85" default-y="-50.00">
        <pitch>
          <step>C</step>
          <octave>4</octave>
          </pitch>
        <duration>2</duration>
        <voice>1</voice>
        <type>quarter</type>
        <stem>up</stem>
        <lyric number="1" default-x="6.50" default-y="-54.70" relative-y="-30.00">
          <syllabic>begin</syllabic>
          <text>Ven</text>
          </lyric>
        <lyric number="2" default-x="6.50" default-y="-78.67" relative-y="-30.00">
          <syllabic>single</syllabic>
          <text>ko</text>
          </lyric>
        </note>
      <note default-x="177.91" default-y="-50.00">
        <pitch>
          <step>C</step>
          <octave>4</octave>
          </pitch>
        <duration>1</duration>
        <voice>1</voice>
        <type>eighth</type>
        <stem>up</stem>
        <lyric number="1" default-x="6.50" default-y="-54.70" relative-y="-30.00">
          <syllabic>end</syllabic>
          <text>dar</text>
          </lyric>
        <lyric number="2" default-x="6.50" default-y="-78.67" relative-y="-30.00">
          <syllabic>begin</syllabic>
          <text>sto</text>
          </lyric>
        </note>
      <note default-x="237.94" default-y="-55.00">
        <pitch>
          <step>B</step>
          <octave>3</octave>
          </pitch>
        <duration>2</duration>
        <voice>1</voice>
        <type>quarter</type>
        <stem>up</stem>
        <lyric number="1" default-x="6.50" default-y="-54.70" relative-y="-30.00">
          <syllabic>single</syllabic>
          <text>je</text>
          </lyric>
        <lyric number="2" default-x="6.50" default-y="-78.67" relative-y="-30.00">
          <syllabic>middle</syllabic>
          <text>pi</text>
          </lyric>
        </note>
      <note default-x="333.99" default-y="-55.00">
        <pitch>
          <step>B</step>
          <octave>3</octave>
          </pitch>
        <duration>1</duration>
        <voice>1</voice>
        <type>eighth</type>
        <stem>up</stem>
        <lyric number="1" default-x="6.50" default-y="-54.70" relative-y="-30.00">
          <syllabic>begin</syllabic>
          <text>nez</text>
          </lyric>
        <lyric number="2" default-x="6.50" default-y="-78.67" relative-y="-30.00">
          <syllabic>end</syllabic>
          <text>ca</text>
          </lyric>
        </note>
      </measure>
    <measure number="6" width="217.75">
      <note default-x="22.17" default-y="-40.00">
        <pitch>
          <step>E</step>
          <octave>4</octave>
          </pitch>
        <duration>2</duration>
        <voice>1</voice>
        <type>quarter</type>
        <stem>up</stem>
        <lyric number="1" default-x="6.50" default-y="-54.70" relative-y="-30.00">
          <syllabic>middle</syllabic>
          <text>nan</text>
          </lyric>
        <lyric number="2" default-x="6.50" default-y="-78.67" relative-y="-30.00">
          <syllabic>single</syllabic>
          <text>v͜šir</text>
          </lyric>
        </note>
      <note default-x="90.30" default-y="-35.00">
        <pitch>
          <step>F</step>
          <alter>1</alter>
          <octave>4</octave>
          </pitch>
        <duration>1</duration>
        <voice>1</voice>
        <type>eighth</type>
        <stem>up</stem>
        <lyric number="1" default-x="6.50" default-y="-54.70" relative-y="-30.00">
          <syllabic>middle</syllabic>
          <text>sko</text>
          </lyric>
        <lyric number="2" default-x="6.50" default-y="-78.67" relative-y="-30.00">
          <syllabic>single</syllabic>
          <text>in</text>
          </lyric>
        </note>
      <note default-x="132.88" default-y="-30.00">
        <pitch>
          <step>G</step>
          <octave>4</octave>
          </pitch>
        <duration>3</duration>
        <voice>1</voice>
        <type>quarter</type>
        <dot/>
        <stem>up</stem>
        <lyric number="1" default-x="8.86" default-y="-54.70" relative-y="-30.00">
          <syllabic>end</syllabic>
          <text>lep,</text>
          </lyric>
        <lyric number="2" default-x="9.42" default-y="-78.67" relative-y="-30.00">
          <syllabic>single</syllabic>
          <text>dalj,</text>
          </lyric>
        </note>
      </measure>
    <measure number="7" width="227.53">
      <note default-x="15.20" default-y="-25.00">
        <pitch>
          <step>A</step>
          <octave>4</octave>
          </pitch>
        <duration>2</duration>
        <voice>1</voice>
        <type>quarter</type>
        <stem>up</stem>
        <lyric number="1" default-x="6.50" default-y="-54.70" relative-y="-30.00">
          <syllabic>single</syllabic>
          <text>ko</text>
          </lyric>
        <lyric number="2" default-x="6.50" default-y="-78.67" relative-y="-30.00">
          <syllabic>begin</syllabic>
          <text>si</text>
          </lyric>
        </note>
      <note default-x="79.12" default-y="-35.00">
        <pitch>
          <step>F</step>
          <alter>1</alter>
          <octave>4</octave>
          </pitch>
        <duration>1</duration>
        <voice>1</voice>
        <type>eighth</type>
        <stem>up</stem>
        <lyric number="1" default-x="6.50" default-y="-54.70" relative-y="-30.00">
          <syllabic>begin</syllabic>
          <text>raz</text>
          </lyric>
        <lyric number="2" default-x="6.50" default-y="-78.67" relative-y="-30.00">
          <syllabic>end</syllabic>
          <text>je</text>
          </lyric>
        </note>
      <note default-x="121.85" default-y="-45.00">
        <pitch>
          <step>D</step>
          <octave>4</octave>
          </pitch>
        <duration>2</duration>
        <voice>1</voice>
        <type>quarter</type>
        <stem>up</stem>
        <lyric number="1" default-x="6.50" default-y="-54.70" relative-y="-30.00">
          <syllabic>middle</syllabic>
          <text>ši</text>
          </lyric>
        <lyric number="2" default-x="6.50" default-y="-78.67" relative-y="-30.00">
          <syllabic>begin</syllabic>
          <text>v͜son</text>
          </lyric>
        </note>
      <note default-x="185.78" default-y="-45.00">
        <pitch>
          <step>D</step>
          <octave>4</octave>
          </pitch>
        <duration>1</duration>
        <voice>1</voice>
        <type>eighth</type>
        <stem>up</stem>
        <lyric number="1" default-x="6.50" default-y="-54.70" relative-y="-30.00">
          <syllabic>end</syllabic>
          <text>ri</text>
          </lyric>
        <lyric number="2" default-x="6.50" default-y="-78.67" relative-y="-30.00">
          <syllabic>end</syllabic>
          <text>cu</text>
          </lyric>
        </note>
      </measure>
    <measure number="8" width="236.38">
      <note default-x="21.05" default-y="-40.00">
        <pitch>
          <step>E</step>
          <octave>4</octave>
          </pitch>
        <duration>2</duration>
        <voice>1</voice>
        <type>quarter</type>
        <stem>up</stem>
        <lyric number="1" default-x="6.50" default-y="-54.70" relative-y="-30.00">
          <syllabic>begin</syllabic>
          <text>pav</text>
          </lyric>
        <lyric number="2" default-x="6.50" default-y="-78.67" relative-y="-30.00">
          <syllabic>begin</syllabic>
          <text>ka</text>
          </lyric>
        </note>
      <note default-x="93.01" default-y="-35.00">
        <pitch>
          <step>F</step>
          <alter>1</alter>
          <octave>4</octave>
          </pitch>
        <duration>1</duration>
        <voice>1</voice>
        <type>eighth</type>
        <stem>up</stem>
        <lyric number="1" default-x="6.50" default-y="-54.70" relative-y="-30.00">
          <syllabic>end</syllabic>
          <text>ji</text>
          </lyric>
        <lyric number="2" default-x="6.50" default-y="-78.67" relative-y="-30.00">
          <syllabic>end</syllabic>
          <text>kor</text>
          </lyric>
        </note>
      <note default-x="137.99" default-y="-30.00">
        <pitch>
          <step>G</step>
          <octave>4</octave>
          </pitch>
        <duration>3</duration>
        <voice>1</voice>
        <type>quarter</type>
        <dot/>
        <stem>up</stem>
        <lyric number="1" default-x="8.89" default-y="-54.70" relative-y="-30.00">
          <syllabic>single</syllabic>
          <text>rep!</text>
          </lyric>
        <lyric number="2" default-x="8.94" default-y="-78.67" relative-y="-30.00">
          <syllabic>single</syllabic>
          <text>kralj!</text>
          </lyric>
        </note>
      <barline location="right">
        <bar-style>light-heavy</bar-style>
        </barline>
      </measure>
    </part>
  </score-partwise>
