<?xml version="1.0" encoding="UTF-8"?>
<!DOCTYPE score-partwise PUBLIC "-//Recordare//DTD MusicXML 3.1 Partwise//EN" "http://www.musicxml.org/dtds/partwise.dtd">
<score-partwise version="3.1">
  <work>
    <work-title>Peter in luna</work-title>
    </work>
  <identification>
    <creator type="composer">Jean Baptiste Lully</creator>
    <creator type="lyricist">Janez Bitenc</creator>
    <encoding>
      <software>MuseScore 3.6.2</software>
      <encoding-date>2022-03-28</encoding-date>
      <supports element="accidental" type="yes"/>
      <supports element="beam" type="yes"/>
      <supports element="print" attribute="new-page" type="yes" value="yes"/>
      <supports element="print" attribute="new-system" type="yes" value="yes"/>
      <supports element="stem" type="yes"/>
      </encoding>
    </identification>
  <defaults>
    <scaling>
      <millimeters>7.05556</millimeters>
      <tenths>40</tenths>
      </scaling>
    <page-layout>
      <page-height>1683.36</page-height>
      <page-width>1190.88</page-width>
      <page-margins type="even">
        <left-margin>56.6929</left-margin>
        <right-margin>56.6929</right-margin>
        <top-margin>56.6929</top-margin>
        <bottom-margin>113.386</bottom-margin>
        </page-margins>
      <page-margins type="odd">
        <left-margin>56.6929</left-margin>
        <right-margin>56.6929</right-margin>
        <top-margin>56.6929</top-margin>
        <bottom-margin>113.386</bottom-margin>
        </page-margins>
      </page-layout>
    <word-font font-family="Edwin" font-size="10"/>
    <lyric-font font-family="Edwin" font-size="10"/>
    </defaults>
  <credit page="1">
    <credit-type>title</credit-type>
    <credit-words default-x="595.44" default-y="1626.67" justify="center" valign="top" font-size="22">Peter in luna</credit-words>
    </credit>
  <credit page="1">
    <credit-type>composer</credit-type>
    <credit-words default-x="1134.19" default-y="1526.67" justify="right" valign="bottom">glasba: Jean Baptiste Lully</credit-words>
    </credit>
  <credit page="1">
    <credit-type>lyricist</credit-type>
    <credit-words default-x="56.6929" default-y="1526.67" justify="left" valign="bottom">beseduli: Janez Bitenc</credit-words>
    </credit>
  <credit page="1">
    <credit-type>subtitle</credit-type>
    <credit-words default-x="595.44" default-y="1569.97" justify="center" valign="top" font-size="16">Ciciban, december 2000</credit-words>
    </credit>
  <part-list>
    <score-part id="P1">
      <part-name>Piano</part-name>
      <part-abbreviation>Pno.</part-abbreviation>
      <score-instrument id="P1-I1">
        <instrument-name>Piano</instrument-name>
        </score-instrument>
      <midi-device id="P1-I1" port="1"></midi-device>
      <midi-instrument id="P1-I1">
        <midi-channel>1</midi-channel>
        <midi-program>1</midi-program>
        <volume>78.7402</volume>
        <pan>0</pan>
        </midi-instrument>
      </score-part>
    </part-list>
  <part id="P1">
    <measure number="1" width="276.09">
      <print>
        <system-layout>
          <system-margins>
            <left-margin>0.00</left-margin>
            <right-margin>0.00</right-margin>
            </system-margins>
          <top-system-distance>170.00</top-system-distance>
          </system-layout>
        </print>
      <attributes>
        <divisions>1</divisions>
        <key>
          <fifths>1</fifths>
          </key>
        <time symbol="common">
          <beats>4</beats>
          <beat-type>4</beat-type>
          </time>
        <clef>
          <sign>G</sign>
          <line>2</line>
          </clef>
        </attributes>
      <note default-x="101.87" default-y="-30.00">
        <pitch>
          <step>G</step>
          <octave>4</octave>
          </pitch>
        <duration>1</duration>
        <voice>1</voice>
        <type>quarter</type>
        <stem>up</stem>
        <lyric number="1" default-x="-14.67" default-y="-46.54" relative-y="-30.00">
          <syllabic>begin</syllabic>
          <text>1.Tr</text>
          </lyric>
        <lyric number="2" default-x="-15.97" default-y="-70.51" relative-y="-30.00">
          <syllabic>begin</syllabic>
          <text>2.Tr</text>
          </lyric>
        </note>
      <note default-x="144.98" default-y="-30.00">
        <pitch>
          <step>G</step>
          <octave>4</octave>
          </pitch>
        <duration>1</duration>
        <voice>1</voice>
        <type>quarter</type>
        <stem>up</stem>
        <lyric number="1" default-x="8.78" default-y="-46.54" relative-y="-30.00">
          <syllabic>end</syllabic>
          <text>ka,</text>
          </lyric>
        <lyric number="2" default-x="8.78" default-y="-70.51" relative-y="-30.00">
          <syllabic>end</syllabic>
          <text>ka,</text>
          </lyric>
        </note>
      <note default-x="188.08" default-y="-30.00">
        <pitch>
          <step>G</step>
          <octave>4</octave>
          </pitch>
        <duration>1</duration>
        <voice>1</voice>
        <type>quarter</type>
        <stem>up</stem>
        <lyric number="1" default-x="6.50" default-y="-46.54" relative-y="-30.00">
          <syllabic>begin</syllabic>
          <text>tr</text>
          </lyric>
        <lyric number="2" default-x="6.50" default-y="-70.51" relative-y="-30.00">
          <syllabic>begin</syllabic>
          <text>tr</text>
          </lyric>
        </note>
      <note default-x="231.18" default-y="-25.00">
        <pitch>
          <step>A</step>
          <octave>4</octave>
          </pitch>
        <duration>1</duration>
        <voice>1</voice>
        <type>quarter</type>
        <stem>up</stem>
        <lyric number="1" default-x="6.50" default-y="-46.54" relative-y="-30.00">
          <syllabic>end</syllabic>
          <text>ka</text>
          </lyric>
        <lyric number="2" default-x="6.50" default-y="-70.51" relative-y="-30.00">
          <syllabic>end</syllabic>
          <text>ka</text>
          </lyric>
        </note>
      </measure>
    <measure number="2" width="127.40">
      <note default-x="15.80" default-y="-20.00">
        <pitch>
          <step>B</step>
          <octave>4</octave>
          </pitch>
        <duration>2</duration>
        <voice>1</voice>
        <type>half</type>
        <stem>down</stem>
        <lyric number="1" default-x="6.50" default-y="-46.54" relative-y="-30.00">
          <syllabic>begin</syllabic>
          <text>Pe</text>
          </lyric>
        <lyric number="2" default-x="6.50" default-y="-70.51" relative-y="-30.00">
          <syllabic>begin</syllabic>
          <text>Pe</text>
          </lyric>
        </note>
      <note default-x="70.70" default-y="-25.00">
        <pitch>
          <step>A</step>
          <octave>4</octave>
          </pitch>
        <duration>2</duration>
        <voice>1</voice>
        <type>half</type>
        <stem>up</stem>
        <lyric number="1" default-x="8.72" default-y="-46.54" relative-y="-30.00">
          <syllabic>end</syllabic>
          <text>ter:</text>
          </lyric>
        <lyric number="2" default-x="8.78" default-y="-70.51" relative-y="-30.00">
          <syllabic>end</syllabic>
          <text>ter,</text>
          </lyric>
        </note>
      </measure>
    <measure number="3" width="230.57">
      <note default-x="20.08" default-y="-30.00">
        <pitch>
          <step>G</step>
          <octave>4</octave>
          </pitch>
        <duration>1</duration>
        <voice>1</voice>
        <type>quarter</type>
        <stem>up</stem>
        <lyric number="1" default-x="6.50" default-y="-46.54" relative-y="-30.00">
          <syllabic>begin</syllabic>
          <text>stri</text>
          </lyric>
        <lyric number="2" default-x="6.50" default-y="-70.51" relative-y="-30.00">
          <syllabic>begin</syllabic>
          <text>lu</text>
          </lyric>
        </note>
      <note default-x="72.25" default-y="-20.00">
        <pitch>
          <step>B</step>
          <octave>4</octave>
          </pitch>
        <duration>1</duration>
        <voice>1</voice>
        <type>quarter</type>
        <stem>down</stem>
        <lyric number="1" default-x="9.22" default-y="-46.54" relative-y="-30.00">
          <syllabic>end</syllabic>
          <text>ček,</text>
          </lyric>
        <lyric number="2" default-x="6.50" default-y="-70.51" relative-y="-30.00">
          <syllabic>end</syllabic>
          <text>na</text>
          </lyric>
        </note>
      <note default-x="124.43" default-y="-25.00">
        <pitch>
          <step>A</step>
          <octave>4</octave>
          </pitch>
        <duration>1</duration>
        <voice>1</voice>
        <type>quarter</type>
        <stem>up</stem>
        <lyric number="1" default-x="6.50" default-y="-46.54" relative-y="-30.00">
          <syllabic>single</syllabic>
          <text>hej</text>
          </lyric>
        <lyric number="2" default-x="6.50" default-y="-70.51" relative-y="-30.00">
          <syllabic>single</syllabic>
          <text>se</text>
          </lyric>
        </note>
      <note default-x="176.60" default-y="-25.00">
        <pitch>
          <step>A</step>
          <octave>4</octave>
          </pitch>
        <duration>1</duration>
        <voice>1</voice>
        <type>quarter</type>
        <stem>up</stem>
        <lyric number="1" default-x="6.50" default-y="-46.54" relative-y="-30.00">
          <syllabic>single</syllabic>
          <text>si</text>
          </lyric>
        <lyric number="2" default-x="6.50" default-y="-70.51" relative-y="-30.00">
          <syllabic>begin</syllabic>
          <text>sme</text>
          </lyric>
        </note>
      </measure>
    <measure number="4" width="98.65">
      <note default-x="12.50" default-y="-30.00">
        <pitch>
          <step>G</step>
          <octave>4</octave>
          </pitch>
        <duration>3</duration>
        <voice>1</voice>
        <type>half</type>
        <dot/>
        <stem>up</stem>
        <lyric number="1" default-x="10.79" default-y="-46.54" relative-y="-30.00">
          <syllabic>single</syllabic>
          <text>ti?</text>
          </lyric>
        <lyric number="2" default-x="7.67" default-y="-70.51" relative-y="-30.00">
          <syllabic>end</syllabic>
          <text>ji.</text>
          </lyric>
        </note>
      <note>
        <rest/>
        <duration>1</duration>
        <voice>1</voice>
        <type>quarter</type>
        </note>
      </measure>
    <measure number="5" width="214.48">
      <note default-x="22.81" default-y="-30.00">
        <pitch>
          <step>G</step>
          <octave>4</octave>
          </pitch>
        <duration>1</duration>
        <voice>1</voice>
        <type>quarter</type>
        <stem>up</stem>
        <lyric number="1" default-x="6.50" default-y="-46.54" relative-y="-30.00">
          <syllabic>single</syllabic>
          <text>Rad</text>
          </lyric>
        <lyric number="2" default-x="6.50" default-y="-70.51" relative-y="-30.00">
          <syllabic>begin</syllabic>
          <text>Pe</text>
          </lyric>
        </note>
      <note default-x="70.28" default-y="-30.00">
        <pitch>
          <step>G</step>
          <octave>4</octave>
          </pitch>
        <duration>1</duration>
        <voice>1</voice>
        <type>quarter</type>
        <stem>up</stem>
        <lyric number="1" default-x="6.50" default-y="-46.54" relative-y="-30.00">
          <syllabic>single</syllabic>
          <text>bi</text>
          </lyric>
        <lyric number="2" default-x="6.50" default-y="-70.51" relative-y="-30.00">
          <syllabic>end</syllabic>
          <text>tru</text>
          </lyric>
        </note>
      <note default-x="117.75" default-y="-30.00">
        <pitch>
          <step>G</step>
          <octave>4</octave>
          </pitch>
        <duration>1</duration>
        <voice>1</voice>
        <type>quarter</type>
        <stem>up</stem>
        <lyric number="1" default-x="6.50" default-y="-46.54" relative-y="-30.00">
          <syllabic>begin</syllabic>
          <text>pe</text>
          </lyric>
        <lyric number="2" default-x="6.50" default-y="-70.51" relative-y="-30.00">
          <syllabic>begin</syllabic>
          <text>po</text>
          </lyric>
        </note>
      <note default-x="165.21" default-y="-25.00">
        <pitch>
          <step>A</step>
          <octave>4</octave>
          </pitch>
        <duration>1</duration>
        <voice>1</voice>
        <type>quarter</type>
        <stem>up</stem>
        <lyric number="1" default-x="6.50" default-y="-46.54" relative-y="-30.00">
          <syllabic>end</syllabic>
          <text>smi</text>
          </lyric>
        <lyric number="2" default-x="6.50" default-y="-70.51" relative-y="-30.00">
          <syllabic>middle</syllabic>
          <text>me</text>
          </lyric>
        </note>
      </measure>
    <measure number="6" width="130.30">
      <note default-x="13.10" default-y="-20.00">
        <pitch>
          <step>B</step>
          <octave>4</octave>
          </pitch>
        <duration>2</duration>
        <voice>1</voice>
        <type>half</type>
        <stem>down</stem>
        <lyric number="1" default-x="6.50" default-y="-46.54" relative-y="-30.00">
          <syllabic>begin</syllabic>
          <text>pi</text>
          </lyric>
        <lyric number="2" default-x="6.50" default-y="-70.51" relative-y="-30.00">
          <syllabic>middle</syllabic>
          <text>ži</text>
          </lyric>
        </note>
      <note default-x="70.80" default-y="-25.00">
        <pitch>
          <step>A</step>
          <octave>4</octave>
          </pitch>
        <duration>2</duration>
        <voice>1</voice>
        <type>half</type>
        <stem>up</stem>
        <lyric number="1" default-x="9.28" default-y="-46.54" relative-y="-30.00">
          <syllabic>end</syllabic>
          <text>sal,</text>
          </lyric>
        <lyric number="2" default-x="8.58" default-y="-70.51" relative-y="-30.00">
          <syllabic>end</syllabic>
          <text>kne:</text>
          </lyric>
        </note>
      </measure>
    <measure number="7" width="247.95">
      <print new-system="yes">
        <system-layout>
          <system-margins>
            <left-margin>0.00</left-margin>
            <right-margin>0.00</right-margin>
            </system-margins>
          <system-distance>150.00</system-distance>
          </system-layout>
        </print>
      <note default-x="78.35" default-y="-30.00">
        <pitch>
          <step>G</step>
          <octave>4</octave>
          </pitch>
        <duration>1</duration>
        <voice>1</voice>
        <type>quarter</type>
        <stem>up</stem>
        <lyric number="1" default-x="6.50" default-y="-44.61" relative-y="-30.00">
          <syllabic>single</syllabic>
          <text>pa</text>
          </lyric>
        <lyric number="2" default-x="6.50" default-y="-68.57" relative-y="-30.00">
          <syllabic>begin</syllabic>
          <text>Pra</text>
          </lyric>
        </note>
      <note default-x="120.30" default-y="-20.00">
        <pitch>
          <step>B</step>
          <octave>4</octave>
          </pitch>
        <duration>1</duration>
        <voice>1</voice>
        <type>quarter</type>
        <stem>down</stem>
        <lyric number="1" default-x="6.50" default-y="-44.61" relative-y="-30.00">
          <syllabic>begin</syllabic>
          <text>pe</text>
          </lyric>
        <lyric number="2" default-x="6.50" default-y="-68.57" relative-y="-30.00">
          <syllabic>end</syllabic>
          <text>vi</text>
          </lyric>
        </note>
      <note default-x="162.25" default-y="-25.00">
        <pitch>
          <step>A</step>
          <octave>4</octave>
          </pitch>
        <duration>1</duration>
        <voice>1</voice>
        <type>quarter</type>
        <stem>up</stem>
        <lyric number="1" default-x="6.50" default-y="-44.61" relative-y="-30.00">
          <syllabic>middle</syllabic>
          <text>re</text>
          </lyric>
        <lyric number="2" default-x="6.50" default-y="-68.57" relative-y="-30.00">
          <syllabic>begin</syllabic>
          <text>pe</text>
          </lyric>
        </note>
      <note default-x="204.20" default-y="-25.00">
        <pitch>
          <step>A</step>
          <octave>4</octave>
          </pitch>
        <duration>1</duration>
        <voice>1</voice>
        <type>quarter</type>
        <stem>up</stem>
        <lyric number="1" default-x="6.50" default-y="-44.61" relative-y="-30.00">
          <syllabic>end</syllabic>
          <text>sa</text>
          </lyric>
        <lyric number="2" default-x="6.50" default-y="-68.57" relative-y="-30.00">
          <syllabic>end</syllabic>
          <text>snik</text>
          </lyric>
        </note>
      </measure>
    <measure number="8" width="74.80">
      <note default-x="13.47" default-y="-30.00">
        <pitch>
          <step>G</step>
          <octave>4</octave>
          </pitch>
        <duration>3</duration>
        <voice>1</voice>
        <type>half</type>
        <dot/>
        <stem>up</stem>
        <lyric number="1" default-x="8.75" default-y="-44.61" relative-y="-30.00">
          <syllabic>single</syllabic>
          <text>ni.</text>
          </lyric>
        <lyric number="2" default-x="9.13" default-y="-68.57" relative-y="-30.00">
          <syllabic>single</syllabic>
          <text>si!</text>
          </lyric>
        </note>
      <note>
        <rest/>
        <duration>1</duration>
        <voice>1</voice>
        <type>quarter</type>
        </note>
      </measure>
    <measure number="9" width="181.69">
      <note default-x="20.57" default-y="-25.00">
        <pitch>
          <step>A</step>
          <octave>4</octave>
          </pitch>
        <duration>1</duration>
        <voice>1</voice>
        <type>quarter</type>
        <stem>up</stem>
        <lyric number="1" default-x="6.50" default-y="-44.61" relative-y="-30.00">
          <syllabic>begin</syllabic>
          <text>Sve</text>
          </lyric>
        <lyric number="2" default-x="6.50" default-y="-68.57" relative-y="-30.00">
          <syllabic>begin</syllabic>
          <text>Pe</text>
          </lyric>
        </note>
      <note default-x="60.40" default-y="-25.00">
        <pitch>
          <step>A</step>
          <octave>4</octave>
          </pitch>
        <duration>1</duration>
        <voice>1</voice>
        <type>quarter</type>
        <stem>up</stem>
        <lyric number="1" default-x="6.50" default-y="-44.61" relative-y="-30.00">
          <syllabic>end</syllabic>
          <text>ča</text>
          </lyric>
        <lyric number="2" default-x="6.50" default-y="-68.57" relative-y="-30.00">
          <syllabic>end</syllabic>
          <text>ter</text>
          </lyric>
        </note>
      <note default-x="100.23" default-y="-25.00">
        <pitch>
          <step>A</step>
          <octave>4</octave>
          </pitch>
        <duration>1</duration>
        <voice>1</voice>
        <type>quarter</type>
        <stem>up</stem>
        <lyric number="1" default-x="6.50" default-y="-44.61" relative-y="-30.00">
          <syllabic>single</syllabic>
          <text>ne</text>
          </lyric>
        <lyric number="2" default-x="6.50" default-y="-68.57" relative-y="-30.00">
          <syllabic>begin</syllabic>
          <text>mo</text>
          </lyric>
        </note>
      <note default-x="140.06" default-y="-25.00">
        <pitch>
          <step>A</step>
          <octave>4</octave>
          </pitch>
        <duration>1</duration>
        <voice>1</voice>
        <type>quarter</type>
        <stem>up</stem>
        <lyric number="1" default-x="6.50" default-y="-44.61" relative-y="-30.00">
          <syllabic>begin</syllabic>
          <text>go</text>
          </lyric>
        <lyric number="2" default-x="6.50" default-y="-68.57" relative-y="-30.00">
          <syllabic>middle</syllabic>
          <text>le</text>
          </lyric>
        </note>
      </measure>
    <measure number="10" width="105.02">
      <note default-x="16.00" default-y="-40.00">
        <pitch>
          <step>E</step>
          <octave>4</octave>
          </pitch>
        <duration>2</duration>
        <voice>1</voice>
        <type>half</type>
        <stem>up</stem>
        <lyric number="1" default-x="6.50" default-y="-44.61" relative-y="-30.00">
          <syllabic>end</syllabic>
          <text>ri</text>
          </lyric>
        <lyric number="2" default-x="6.50" default-y="-68.57" relative-y="-30.00">
          <syllabic>middle</syllabic>
          <text>du</text>
          </lyric>
        </note>
      <note default-x="54.76" default-y="-40.00">
        <pitch>
          <step>E</step>
          <octave>4</octave>
          </pitch>
        <duration>1</duration>
        <voice>1</voice>
        <type>quarter</type>
        <stem>up</stem>
        <lyric number="1" default-x="8.90" default-y="-44.61" relative-y="-30.00">
          <syllabic>single</syllabic>
          <text>mi,</text>
          </lyric>
        <lyric number="2" default-x="7.85" default-y="-68.57" relative-y="-30.00">
          <syllabic>end</syllabic>
          <text>je,</text>
          </lyric>
        </note>
      <note>
        <rest/>
        <duration>1</duration>
        <voice>1</voice>
        <type>quarter</type>
        </note>
      </measure>
    <measure number="11" width="192.10">
      <note default-x="20.44" default-y="-25.00">
        <pitch>
          <step>A</step>
          <octave>4</octave>
          </pitch>
        <duration>1</duration>
        <voice>1</voice>
        <type>quarter</type>
        <stem>up</stem>
        <lyric number="1" default-x="6.50" default-y="-44.61" relative-y="-30.00">
          <syllabic>begin</syllabic>
          <text>vpe</text>
          </lyric>
        <lyric number="2" default-x="6.50" default-y="-68.57" relative-y="-30.00">
          <syllabic>begin</syllabic>
          <text>stri</text>
          </lyric>
        </note>
      <note default-x="62.91" default-y="-30.00">
        <pitch>
          <step>G</step>
          <octave>4</octave>
          </pitch>
        <duration>1</duration>
        <voice>1</voice>
        <type>quarter</type>
        <stem>up</stem>
        <lyric number="1" default-x="6.50" default-y="-44.61" relative-y="-30.00">
          <syllabic>end</syllabic>
          <text>či</text>
          </lyric>
        <lyric number="2" default-x="6.50" default-y="-68.57" relative-y="-30.00">
          <syllabic>end</syllabic>
          <text>ček</text>
          </lyric>
        </note>
      <note default-x="105.37" default-y="-35.00">
        <pitch>
          <step>F</step>
          <alter>1</alter>
          <octave>4</octave>
          </pitch>
        <duration>1</duration>
        <voice>1</voice>
        <type>quarter</type>
        <stem>up</stem>
        <lyric number="1" default-x="6.50" default-y="-44.61" relative-y="-30.00">
          <syllabic>begin</syllabic>
          <text>o</text>
          </lyric>
        <lyric number="2" default-x="6.50" default-y="-68.57" relative-y="-30.00">
          <syllabic>single</syllabic>
          <text>se</text>
          </lyric>
        </note>
      <note default-x="147.84" default-y="-40.00">
        <pitch>
          <step>E</step>
          <octave>4</octave>
          </pitch>
        <duration>1</duration>
        <voice>1</voice>
        <type>quarter</type>
        <stem>up</stem>
        <lyric number="1" default-x="6.50" default-y="-44.61" relative-y="-30.00">
          <syllabic>end</syllabic>
          <text>gnja</text>
          </lyric>
        <lyric number="2" default-x="6.50" default-y="-68.57" relative-y="-30.00">
          <syllabic>begin</syllabic>
          <text>je</text>
          </lyric>
        </note>
      </measure>
    <measure number="12" width="65.80">
      <note default-x="13.47" default-y="-45.00">
        <pitch>
          <step>D</step>
          <octave>4</octave>
          </pitch>
        <duration>3</duration>
        <voice>1</voice>
        <type>half</type>
        <dot/>
        <stem>up</stem>
        <lyric number="1" default-x="8.75" default-y="-44.61" relative-y="-30.00">
          <syllabic>single</syllabic>
          <text>ni.</text>
          </lyric>
        <lyric number="2" default-x="9.01" default-y="-68.57" relative-y="-30.00">
          <syllabic>end</syllabic>
          <text>zi:</text>
          </lyric>
        </note>
      <note>
        <rest/>
        <duration>1</duration>
        <voice>1</voice>
        <type>quarter</type>
        </note>
      </measure>
    <measure number="13" width="210.13">
      <note default-x="19.97" default-y="-30.00">
        <pitch>
          <step>G</step>
          <octave>4</octave>
          </pitch>
        <duration>1</duration>
        <voice>1</voice>
        <type>quarter</type>
        <stem>up</stem>
        <lyric number="1" default-x="6.50" default-y="-44.61" relative-y="-30.00">
          <syllabic>single</syllabic>
          <text>Kaj</text>
          </lyric>
        <lyric number="2" default-x="6.50" default-y="-68.57" relative-y="-30.00">
          <syllabic>begin</syllabic>
          <text>Poj</text>
          </lyric>
        </note>
      <note default-x="67.06" default-y="-30.00">
        <pitch>
          <step>G</step>
          <octave>4</octave>
          </pitch>
        <duration>1</duration>
        <voice>1</voice>
        <type>quarter</type>
        <stem>up</stem>
        <lyric number="1" default-x="6.50" default-y="-44.61" relative-y="-30.00">
          <syllabic>begin</syllabic>
          <text>poč</text>
          </lyric>
        <lyric number="2" default-x="6.50" default-y="-68.57" relative-y="-30.00">
          <syllabic>end</syllabic>
          <text>di</text>
          </lyric>
        </note>
      <note default-x="114.15" default-y="-30.00">
        <pitch>
          <step>G</step>
          <octave>4</octave>
          </pitch>
        <duration>1</duration>
        <voice>1</voice>
        <type>quarter</type>
        <stem>up</stem>
        <lyric number="1" default-x="6.50" default-y="-44.61" relative-y="-30.00">
          <syllabic>end</syllabic>
          <text>nem</text>
          </lyric>
        <lyric number="2" default-x="8.77" default-y="-68.57" relative-y="-30.00">
          <syllabic>single</syllabic>
          <text>brž,</text>
          </lyric>
        </note>
      <note default-x="161.24" default-y="-25.00">
        <pitch>
          <step>A</step>
          <octave>4</octave>
          </pitch>
        <duration>1</duration>
        <voice>1</voice>
        <type>quarter</type>
        <stem>up</stem>
        <lyric number="1" default-x="9.23" default-y="-44.61" relative-y="-30.00">
          <syllabic>single</syllabic>
          <text>naj,</text>
          </lyric>
        <lyric number="2" default-x="6.50" default-y="-68.57" relative-y="-30.00">
          <syllabic>begin</syllabic>
          <text>po</text>
          </lyric>
        </note>
      </measure>
    <measure number="14" width="390.95">
      <print new-system="yes">
        <system-layout>
          <system-margins>
            <left-margin>0.00</left-margin>
            <right-margin>0.00</right-margin>
            </system-margins>
          <system-distance>150.00</system-distance>
          </system-layout>
        </print>
      <direction placement="below">
        <direction-type>
          <words default-y="-124.11" valign="top">Trka, trk Peter:
</words>
          <words>&quot;Striček, hej, si ti?
</words>
          <words>Rad bi pesmi pisal, 
</words>
          <words>pa peresa ni. 
</words>
          <words>Sveča ne gori mi,
</words>
          <words>v peči ognja ni.
</words>
          <words>Kaj počnem naj, striček?
</words>
          <words>Reši me skrbi!&quot;
</words>
          <words>
</words>
          <words>Trka, trka Peter,
</words>
          <words>luna se smeji.
</words>
          <words>Petru pomežikne: 
</words>
          <words>&quot;Pravi pesnik si!&quot;
</words>
          <words>Peter moleduje,
</words>
          <words>striček se jezi:
</words>
          <words>&quot;Pojdi brž, pokora,
</words>
          <words>v hišo in zaspi!&quot;
</words>
          <words></words>
          </direction-type>
        </direction>
      <note default-x="78.35" default-y="-20.00">
        <pitch>
          <step>B</step>
          <octave>4</octave>
          </pitch>
        <duration>2</duration>
        <voice>1</voice>
        <type>half</type>
        <stem>down</stem>
        <lyric number="1" default-x="6.50" default-y="-46.10" relative-y="-30.00">
          <syllabic>begin</syllabic>
          <text>stri</text>
          </lyric>
        <lyric number="2" default-x="6.50" default-y="-70.07" relative-y="-30.00">
          <syllabic>middle</syllabic>
          <text>ko</text>
          </lyric>
        </note>
      <note default-x="233.75" default-y="-25.00">
        <pitch>
          <step>A</step>
          <octave>4</octave>
          </pitch>
        <duration>2</duration>
        <voice>1</voice>
        <type>half</type>
        <stem>up</stem>
        <lyric number="1" default-x="11.15" default-y="-46.10" relative-y="-30.00">
          <syllabic>end</syllabic>
          <text>ček?</text>
          </lyric>
        <lyric number="2" default-x="8.96" default-y="-70.07" relative-y="-30.00">
          <syllabic>end</syllabic>
          <text>ra,</text>
          </lyric>
        </note>
      </measure>
    <measure number="15" width="387.33">
      <note default-x="19.04" default-y="-30.00">
        <pitch>
          <step>G</step>
          <octave>4</octave>
          </pitch>
        <duration>1</duration>
        <voice>1</voice>
        <type>quarter</type>
        <stem>up</stem>
        <lyric number="1" default-x="6.50" default-y="-46.10" relative-y="-30.00">
          <syllabic>begin</syllabic>
          <text>re</text>
          </lyric>
        <lyric number="2" default-x="6.50" default-y="-70.07" relative-y="-30.00">
          <syllabic>begin</syllabic>
          <text>vhi</text>
          </lyric>
        </note>
      <note default-x="110.66" default-y="-20.00">
        <pitch>
          <step>B</step>
          <octave>4</octave>
          </pitch>
        <duration>1</duration>
        <voice>1</voice>
        <type>quarter</type>
        <stem>down</stem>
        <lyric number="1" default-x="6.50" default-y="-46.10" relative-y="-30.00">
          <syllabic>end</syllabic>
          <text>ši</text>
          </lyric>
        <lyric number="2" default-x="6.50" default-y="-70.07" relative-y="-30.00">
          <syllabic>end</syllabic>
          <text>šo</text>
          </lyric>
        </note>
      <note default-x="202.28" default-y="-25.00">
        <pitch>
          <step>A</step>
          <octave>4</octave>
          </pitch>
        <duration>1</duration>
        <voice>1</voice>
        <type>quarter</type>
        <stem>up</stem>
        <lyric number="1" default-x="6.50" default-y="-46.10" relative-y="-30.00">
          <syllabic>single</syllabic>
          <text>me</text>
          </lyric>
        <lyric number="2" default-x="6.50" default-y="-70.07" relative-y="-30.00">
          <syllabic>single</syllabic>
          <text>in</text>
          </lyric>
        </note>
      <note default-x="293.91" default-y="-25.00">
        <pitch>
          <step>A</step>
          <octave>4</octave>
          </pitch>
        <duration>1</duration>
        <voice>1</voice>
        <type>quarter</type>
        <stem>up</stem>
        <lyric number="1" default-x="6.50" default-y="-46.10" relative-y="-30.00">
          <syllabic>begin</syllabic>
          <text>skr</text>
          </lyric>
        <lyric number="2" default-x="6.50" default-y="-70.07" relative-y="-30.00">
          <syllabic>begin</syllabic>
          <text>za</text>
          </lyric>
        </note>
      </measure>
    <measure number="16" width="299.21">
      <note default-x="17.50" default-y="-30.00">
        <pitch>
          <step>G</step>
          <octave>4</octave>
          </pitch>
        <duration>3</duration>
        <voice>1</voice>
        <type>half</type>
        <dot/>
        <stem>up</stem>
        <lyric number="1" default-x="8.70" default-y="-46.10" relative-y="-30.00">
          <syllabic>end</syllabic>
          <text>bi!</text>
          </lyric>
        <lyric number="2" default-x="6.50" default-y="-70.07" relative-y="-30.00">
          <syllabic>end</syllabic>
          <text>spi</text>
          </lyric>
        </note>
      <note>
        <rest/>
        <duration>1</duration>
        <voice>1</voice>
        <type>quarter</type>
        </note>
      <barline location="right">
        <bar-style>light-heavy</bar-style>
        </barline>
      </measure>
    </part>
  </score-partwise>
