<?xml version="1.0" encoding="UTF-8"?>
<!DOCTYPE score-partwise PUBLIC "-//Recordare//DTD MusicXML 3.1 Partwise//EN" "http://www.musicxml.org/dtds/partwise.dtd">
<score-partwise version="3.1">
  <work>
    <work-title>Plesalka</work-title>
    </work>
  <identification>
    <creator type="composer">Janez Bitenc</creator>
    <encoding>
      <software>MuseScore 3.6.2</software>
      <encoding-date>2022-03-28</encoding-date>
      <supports element="accidental" type="yes"/>
      <supports element="beam" type="yes"/>
      <supports element="print" attribute="new-page" type="yes" value="yes"/>
      <supports element="print" attribute="new-system" type="yes" value="yes"/>
      <supports element="stem" type="yes"/>
      </encoding>
    </identification>
  <defaults>
    <scaling>
      <millimeters>7.05556</millimeters>
      <tenths>40</tenths>
      </scaling>
    <page-layout>
      <page-height>1683.36</page-height>
      <page-width>1190.88</page-width>
      <page-margins type="even">
        <left-margin>56.6929</left-margin>
        <right-margin>56.6929</right-margin>
        <top-margin>56.6929</top-margin>
        <bottom-margin>113.386</bottom-margin>
        </page-margins>
      <page-margins type="odd">
        <left-margin>56.6929</left-margin>
        <right-margin>56.6929</right-margin>
        <top-margin>56.6929</top-margin>
        <bottom-margin>113.386</bottom-margin>
        </page-margins>
      </page-layout>
    <word-font font-family="Edwin" font-size="10"/>
    <lyric-font font-family="Edwin" font-size="10"/>
    </defaults>
  <credit page="1">
    <credit-type>title</credit-type>
    <credit-words default-x="595.44" default-y="1626.67" justify="center" valign="top" font-size="22">Plesalka</credit-words>
    </credit>
  <credit page="1">
    <credit-type>composer</credit-type>
    <credit-words default-x="1134.19" default-y="1526.67" justify="right" valign="bottom">napisal in uglasbil: Janez Bitenc</credit-words>
    </credit>
  <credit page="1">
    <credit-type>subtitle</credit-type>
    <credit-words default-x="595.44" default-y="1569.97" justify="center" valign="top" font-size="16">Ciciban, februar 2000</credit-words>
    </credit>
  <part-list>
    <score-part id="P1">
      <part-name>Piano</part-name>
      <part-abbreviation>Pno.</part-abbreviation>
      <score-instrument id="P1-I1">
        <instrument-name>Piano</instrument-name>
        </score-instrument>
      <midi-device id="P1-I1" port="1"></midi-device>
      <midi-instrument id="P1-I1">
        <midi-channel>1</midi-channel>
        <midi-program>1</midi-program>
        <volume>78.7402</volume>
        <pan>0</pan>
        </midi-instrument>
      </score-part>
    </part-list>
  <part id="P1">
    <measure number="1" width="294.65">
      <print>
        <system-layout>
          <system-margins>
            <left-margin>0.00</left-margin>
            <right-margin>0.00</right-margin>
            </system-margins>
          <top-system-distance>170.00</top-system-distance>
          </system-layout>
        </print>
      <attributes>
        <divisions>2</divisions>
        <key>
          <fifths>0</fifths>
          </key>
        <time>
          <beats>2</beats>
          <beat-type>4</beat-type>
          </time>
        <clef>
          <sign>G</sign>
          <line>2</line>
          </clef>
        </attributes>
      <note default-x="80.72" default-y="-30.00">
        <pitch>
          <step>G</step>
          <octave>4</octave>
          </pitch>
        <duration>1</duration>
        <voice>1</voice>
        <type>eighth</type>
        <stem>up</stem>
        <beam number="1">begin</beam>
        <lyric number="1" default-x="-14.67" default-y="-49.89" relative-y="-30.00">
          <syllabic>single</syllabic>
          <text>1.To,</text>
          </lyric>
        <lyric number="2" default-x="-15.97" default-y="-73.85" relative-y="-30.00">
          <syllabic>single</syllabic>
          <text>2.Zdaj</text>
          </lyric>
        <lyric number="3" default-x="-15.84" default-y="-97.82" relative-y="-30.00">
          <syllabic>begin</syllabic>
          <text>3.Ti</text>
          </lyric>
        </note>
      <note default-x="134.10" default-y="-30.00">
        <pitch>
          <step>G</step>
          <octave>4</octave>
          </pitch>
        <duration>1</duration>
        <voice>1</voice>
        <type>eighth</type>
        <stem>up</stem>
        <beam number="1">end</beam>
        <lyric number="1" default-x="6.50" default-y="-49.89" relative-y="-30.00">
          <syllabic>single</syllabic>
          <text>kar</text>
          </lyric>
        <lyric number="2" default-x="6.50" default-y="-73.85" relative-y="-30.00">
          <syllabic>begin</syllabic>
          <text>po</text>
          </lyric>
        <lyric number="3" default-x="6.50" default-y="-97.82" relative-y="-30.00">
          <syllabic>end</syllabic>
          <text>soč</text>
          </lyric>
        </note>
      <note default-x="187.01" default-y="-40.00">
        <pitch>
          <step>E</step>
          <octave>4</octave>
          </pitch>
        <duration>1</duration>
        <voice>1</voice>
        <type>eighth</type>
        <stem>up</stem>
        <beam number="1">begin</beam>
        <lyric number="1" default-x="6.50" default-y="-49.89" relative-y="-30.00">
          <syllabic>single</syllabic>
          <text>zdaj</text>
          </lyric>
        <lyric number="2" default-x="6.50" default-y="-73.85" relative-y="-30.00">
          <syllabic>middle</syllabic>
          <text>sko</text>
          </lyric>
        <lyric number="3" default-x="6.50" default-y="-97.82" relative-y="-30.00">
          <syllabic>single</syllabic>
          <text>rok</text>
          </lyric>
        </note>
      <note default-x="239.93" default-y="-35.00">
        <pitch>
          <step>F</step>
          <octave>4</octave>
          </pitch>
        <duration>1</duration>
        <voice>1</voice>
        <type>eighth</type>
        <stem>up</stem>
        <beam number="1">end</beam>
        <lyric number="1" default-x="6.50" default-y="-49.89" relative-y="-30.00">
          <syllabic>single</syllabic>
          <text>se</text>
          </lyric>
        <lyric number="2" default-x="9.01" default-y="-73.85" relative-y="-30.00">
          <syllabic>end</syllabic>
          <text>či,</text>
          </lyric>
        <lyric number="3" default-x="6.50" default-y="-97.82" relative-y="-30.00">
          <syllabic>single</syllabic>
          <text>zdaj</text>
          </lyric>
        </note>
      </measure>
    <measure number="2" width="208.21">
      <note default-x="24.83" default-y="-30.00">
        <pitch>
          <step>G</step>
          <octave>4</octave>
          </pitch>
        <duration>1</duration>
        <voice>1</voice>
        <type>eighth</type>
        <stem>up</stem>
        <beam number="1">begin</beam>
        <lyric number="1" default-x="6.50" default-y="-49.89" relative-y="-30.00">
          <syllabic>single</syllabic>
          <text>nam</text>
          </lyric>
        <lyric number="2" default-x="6.50" default-y="-73.85" relative-y="-30.00">
          <syllabic>single</syllabic>
          <text>se</text>
          </lyric>
        <lyric number="3" default-x="6.50" default-y="-97.82" relative-y="-30.00">
          <syllabic>begin</syllabic>
          <text>vne</text>
          </lyric>
        </note>
      <note default-x="70.23" default-y="-40.00">
        <pitch>
          <step>E</step>
          <octave>4</octave>
          </pitch>
        <duration>1</duration>
        <voice>1</voice>
        <type>eighth</type>
        <stem>up</stem>
        <beam number="1">end</beam>
        <lyric number="1" default-x="6.50" default-y="-49.89" relative-y="-30.00">
          <syllabic>begin</syllabic>
          <text>po</text>
          </lyric>
        <lyric number="2" default-x="6.50" default-y="-73.85" relative-y="-30.00">
          <syllabic>begin</syllabic>
          <text>za</text>
          </lyric>
        <lyric number="3" default-x="6.50" default-y="-97.82" relative-y="-30.00">
          <syllabic>end</syllabic>
          <text>to</text>
          </lyric>
        </note>
      <note default-x="115.62" default-y="-25.00">
        <pitch>
          <step>A</step>
          <octave>4</octave>
          </pitch>
        <duration>1</duration>
        <voice>1</voice>
        <type>eighth</type>
        <stem>up</stem>
        <beam number="1">begin</beam>
        <lyric number="1" default-x="6.50" default-y="-49.89" relative-y="-30.00">
          <syllabic>middle</syllabic>
          <text>ka</text>
          </lyric>
        <lyric number="2" default-x="6.50" default-y="-73.85" relative-y="-30.00">
          <syllabic>middle</syllabic>
          <text>su</text>
          </lyric>
        <lyric number="3" default-x="6.50" default-y="-97.82" relative-y="-30.00">
          <syllabic>begin</syllabic>
          <text>plo</text>
          </lyric>
        </note>
      <note default-x="161.02" default-y="-30.00">
        <pitch>
          <step>G</step>
          <octave>4</octave>
          </pitch>
        <duration>1</duration>
        <voice>1</voice>
        <type>eighth</type>
        <stem>up</stem>
        <beam number="1">end</beam>
        <lyric number="1" default-x="9.14" default-y="-49.89" relative-y="-30.00">
          <syllabic>end</syllabic>
          <text>že,</text>
          </lyric>
        <lyric number="2" default-x="9.01" default-y="-73.85" relative-y="-30.00">
          <syllabic>end</syllabic>
          <text>če,</text>
          </lyric>
        <lyric number="3" default-x="9.29" default-y="-97.82" relative-y="-30.00">
          <syllabic>end</syllabic>
          <text>ska,</text>
          </lyric>
        </note>
      </measure>
    <measure number="3" width="205.33">
      <note default-x="19.48" default-y="-35.00">
        <pitch>
          <step>F</step>
          <octave>4</octave>
          </pitch>
        <duration>1</duration>
        <voice>1</voice>
        <type>eighth</type>
        <stem>up</stem>
        <beam number="1">begin</beam>
        <lyric number="1" default-x="6.50" default-y="-49.89" relative-y="-30.00">
          <syllabic>single</syllabic>
          <text>je</text>
          </lyric>
        <lyric number="2" default-x="6.50" default-y="-73.85" relative-y="-30.00">
          <syllabic>begin</syllabic>
          <text>dvi</text>
          </lyric>
        <lyric number="3" default-x="8.86" default-y="-97.82" relative-y="-30.00">
          <syllabic>single</syllabic>
          <text>vse,</text>
          </lyric>
        </note>
      <note default-x="65.49" default-y="-40.00">
        <pitch>
          <step>E</step>
          <octave>4</octave>
          </pitch>
        <duration>1</duration>
        <voice>1</voice>
        <type>eighth</type>
        <stem>up</stem>
        <beam number="1">end</beam>
        <lyric number="1" default-x="6.50" default-y="-49.89" relative-y="-30.00">
          <syllabic>single</syllabic>
          <text>res</text>
          </lyric>
        <lyric number="2" default-x="6.50" default-y="-73.85" relative-y="-30.00">
          <syllabic>end</syllabic>
          <text>gne</text>
          </lyric>
        <lyric number="3" default-x="6.50" default-y="-97.82" relative-y="-30.00">
          <syllabic>single</syllabic>
          <text>kar</text>
          </lyric>
        </note>
      <note default-x="111.51" default-y="-45.00">
        <pitch>
          <step>D</step>
          <octave>4</octave>
          </pitch>
        <duration>1</duration>
        <voice>1</voice>
        <type>eighth</type>
        <stem>up</stem>
        <beam number="1">begin</beam>
        <lyric number="1" default-x="6.50" default-y="-49.89" relative-y="-30.00">
          <syllabic>begin</syllabic>
          <text>pa</text>
          </lyric>
        <lyric number="2" default-x="6.50" default-y="-73.85" relative-y="-30.00">
          <syllabic>single</syllabic>
          <text>se</text>
          </lyric>
        <lyric number="3" default-x="6.50" default-y="-97.82" relative-y="-30.00">
          <syllabic>begin</syllabic>
          <text>gle</text>
          </lyric>
        </note>
      <note default-x="157.52" default-y="-25.00">
        <pitch>
          <step>A</step>
          <octave>4</octave>
          </pitch>
        <duration>1</duration>
        <voice>1</voice>
        <type>eighth</type>
        <stem>up</stem>
        <beam number="1">end</beam>
        <lyric number="1" default-x="6.50" default-y="-49.89" relative-y="-30.00">
          <syllabic>end</syllabic>
          <text>ša</text>
          </lyric>
        <lyric number="2" default-x="6.50" default-y="-73.85" relative-y="-30.00">
          <syllabic>single</syllabic>
          <text>kot</text>
          </lyric>
        <lyric number="3" default-x="9.14" default-y="-97.82" relative-y="-30.00">
          <syllabic>end</syllabic>
          <text>da,</text>
          </lyric>
        </note>
      </measure>
    <measure number="4" width="170.03">
      <note default-x="22.76" default-y="-30.00">
        <pitch>
          <step>G</step>
          <octave>4</octave>
          </pitch>
        <duration>1</duration>
        <voice>1</voice>
        <type>eighth</type>
        <stem>up</stem>
        <beam number="1">begin</beam>
        <lyric number="1" default-x="6.50" default-y="-49.89" relative-y="-30.00">
          <syllabic>single</syllabic>
          <text>za</text>
          </lyric>
        <lyric number="2" default-x="6.50" default-y="-73.85" relative-y="-30.00">
          <syllabic>begin</syllabic>
          <text>mor</text>
          </lyric>
        <lyric number="3" default-x="6.50" default-y="-97.82" relative-y="-30.00">
          <syllabic>begin</syllabic>
          <text>za</text>
          </lyric>
        </note>
      <note default-x="63.67" default-y="-40.00">
        <pitch>
          <step>E</step>
          <octave>4</octave>
          </pitch>
        <duration>1</duration>
        <voice>1</voice>
        <type>eighth</type>
        <stem>up</stem>
        <beam number="1">end</beam>
        <lyric number="1" default-x="6.50" default-y="-49.89" relative-y="-30.00">
          <syllabic>begin</syllabic>
          <text>o</text>
          </lyric>
        <lyric number="2" default-x="6.50" default-y="-73.85" relative-y="-30.00">
          <syllabic>end</syllabic>
          <text>ski</text>
          </lyric>
        <lyric number="3" default-x="6.50" default-y="-97.82" relative-y="-30.00">
          <syllabic>middle</syllabic>
          <text>kri</text>
          </lyric>
        </note>
      <note default-x="104.58" default-y="-30.00">
        <pitch>
          <step>G</step>
          <octave>4</octave>
          </pitch>
        <duration>2</duration>
        <voice>1</voice>
        <type>quarter</type>
        <stem>up</stem>
        <lyric number="1" default-x="8.82" default-y="-49.89" relative-y="-30.00">
          <syllabic>end</syllabic>
          <text>či.</text>
          </lyric>
        <lyric number="2" default-x="8.73" default-y="-73.85" relative-y="-30.00">
          <syllabic>single</syllabic>
          <text>val.</text>
          </lyric>
        <lyric number="3" default-x="8.95" default-y="-97.82" relative-y="-30.00">
          <syllabic>end</syllabic>
          <text>či:</text>
          </lyric>
        </note>
      </measure>
    <measure number="5" width="199.27">
      <barline location="left">
        <bar-style>heavy-light</bar-style>
        <repeat direction="forward"/>
        </barline>
      <note default-x="28.83" default-y="-25.00">
        <pitch>
          <step>A</step>
          <octave>4</octave>
          </pitch>
        <duration>1</duration>
        <voice>1</voice>
        <type>eighth</type>
        <stem>up</stem>
        <beam number="1">begin</beam>
        <lyric number="1" default-x="6.50" default-y="-49.89" relative-y="-30.00">
          <syllabic>single</syllabic>
          <text>Na</text>
          </lyric>
        <lyric number="2" default-x="6.50" default-y="-73.85" relative-y="-30.00">
          <syllabic>single</syllabic>
          <text>Koj</text>
          </lyric>
        <lyric number="3" default-x="2.76" default-y="-97.82" relative-y="-30.00">
          <syllabic>begin</syllabic>
          <text>&quot;Pri</text>
          </lyric>
        </note>
      <note default-x="70.99" default-y="-20.00">
        <pitch>
          <step>B</step>
          <octave>4</octave>
          </pitch>
        <duration>1</duration>
        <voice>1</voice>
        <type>eighth</type>
        <stem>up</stem>
        <beam number="1">end</beam>
        <lyric number="1" default-x="6.50" default-y="-49.89" relative-y="-30.00">
          <syllabic>begin</syllabic>
          <text>vo</text>
          </lyric>
        <lyric number="2" default-x="6.50" default-y="-73.85" relative-y="-30.00">
          <syllabic>begin</syllabic>
          <text>na</text>
          </lyric>
        <lyric number="3" default-x="6.50" default-y="-97.82" relative-y="-30.00">
          <syllabic>end</syllabic>
          <text>di</text>
          </lyric>
        </note>
      <note default-x="113.15" default-y="-15.00">
        <pitch>
          <step>C</step>
          <octave>5</octave>
          </pitch>
        <duration>1</duration>
        <voice>1</voice>
        <type>eighth</type>
        <stem>down</stem>
        <beam number="1">begin</beam>
        <lyric number="1" default-x="6.50" default-y="-49.89" relative-y="-30.00">
          <syllabic>middle</syllabic>
          <text>zi</text>
          </lyric>
        <lyric number="2" default-x="6.50" default-y="-73.85" relative-y="-30.00">
          <syllabic>end</syllabic>
          <text>to</text>
          </lyric>
        <lyric number="3" default-x="9.18" default-y="-97.82" relative-y="-30.00">
          <syllabic>single</syllabic>
          <text>še,</text>
          </lyric>
        </note>
      <note default-x="155.31" default-y="-25.00">
        <pitch>
          <step>A</step>
          <octave>4</octave>
          </pitch>
        <duration>1</duration>
        <voice>1</voice>
        <type>eighth</type>
        <stem>down</stem>
        <beam number="1">end</beam>
        <lyric number="1" default-x="6.50" default-y="-49.89" relative-y="-30.00">
          <syllabic>end</syllabic>
          <text>čku</text>
          </lyric>
        <lyric number="2" default-x="6.50" default-y="-73.85" relative-y="-30.00">
          <syllabic>single</syllabic>
          <text>se</text>
          </lyric>
        <lyric number="3" default-x="6.50" default-y="-97.82" relative-y="-30.00">
          <syllabic>begin</syllabic>
          <text>ple</text>
          </lyric>
        </note>
      </measure>
    <measure number="6" width="495.72">
      <print new-system="yes">
        <system-layout>
          <system-margins>
            <left-margin>0.00</left-margin>
            <right-margin>0.00</right-margin>
            </system-margins>
          <system-distance>150.00</system-distance>
          </system-layout>
        </print>
      <note default-x="58.59" default-y="-30.00">
        <pitch>
          <step>G</step>
          <octave>4</octave>
          </pitch>
        <duration>1</duration>
        <voice>1</voice>
        <type>eighth</type>
        <stem>up</stem>
        <beam number="1">begin</beam>
        <lyric number="1" default-x="6.50" default-y="-44.70" relative-y="-30.00">
          <syllabic>begin</syllabic>
          <text>o</text>
          </lyric>
        <lyric number="2" default-x="6.50" default-y="-68.67" relative-y="-30.00">
          <syllabic>single</syllabic>
          <text>vzpne</text>
          </lyric>
        <lyric number="3" default-x="6.50" default-y="-92.64" relative-y="-30.00">
          <syllabic>middle</syllabic>
          <text>sal</text>
          </lyric>
        </note>
      <note default-x="167.43" default-y="-30.00">
        <pitch>
          <step>G</step>
          <octave>4</octave>
          </pitch>
        <duration>1</duration>
        <voice>1</voice>
        <type>eighth</type>
        <stem>up</stem>
        <beam number="1">end</beam>
        <lyric number="1" default-x="6.50" default-y="-44.70" relative-y="-30.00">
          <syllabic>middle</syllabic>
          <text>kra</text>
          </lyric>
        <lyric number="2" default-x="6.50" default-y="-68.67" relative-y="-30.00">
          <syllabic>single</syllabic>
          <text>na</text>
          </lyric>
        <lyric number="3" default-x="6.50" default-y="-92.64" relative-y="-30.00">
          <syllabic>end</syllabic>
          <text>ka</text>
          </lyric>
        </note>
      <note default-x="276.26" default-y="-40.00">
        <pitch>
          <step>E</step>
          <octave>4</octave>
          </pitch>
        <duration>1</duration>
        <voice>1</voice>
        <type>eighth</type>
        <stem>up</stem>
        <beam number="1">begin</beam>
        <lyric number="1" default-x="6.50" default-y="-44.70" relative-y="-30.00">
          <syllabic>middle</syllabic>
          <text>še</text>
          </lyric>
        <lyric number="2" default-x="6.50" default-y="-68.67" relative-y="-30.00">
          <syllabic>begin</syllabic>
          <text>pr</text>
          </lyric>
        <lyric number="3" default-x="6.50" default-y="-92.64" relative-y="-30.00">
          <syllabic>begin</syllabic>
          <text>le</text>
          </lyric>
        </note>
      <note default-x="385.09" default-y="-40.00">
        <pitch>
          <step>E</step>
          <octave>4</octave>
          </pitch>
        <duration>1</duration>
        <voice>1</voice>
        <type>eighth</type>
        <stem>up</stem>
        <beam number="1">end</beam>
        <lyric number="1" default-x="6.50" default-y="-44.70" relative-y="-30.00">
          <syllabic>end</syllabic>
          <text>nem</text>
          </lyric>
        <lyric number="2" default-x="6.50" default-y="-68.67" relative-y="-30.00">
          <syllabic>end</syllabic>
          <text>ste</text>
          </lyric>
        <lyric number="3" default-x="8.95" default-y="-92.64" relative-y="-30.00">
          <syllabic>end</syllabic>
          <text>pa,</text>
          </lyric>
        </note>
      </measure>
    <measure number="7" width="266.10">
      <note default-x="15.66" default-y="-35.00">
        <pitch>
          <step>F</step>
          <octave>4</octave>
          </pitch>
        <duration>1</duration>
        <voice>1</voice>
        <type>eighth</type>
        <stem>up</stem>
        <beam number="1">begin</beam>
        <lyric number="1" default-x="6.50" default-y="-44.70" relative-y="-30.00">
          <syllabic>begin</syllabic>
          <text>ba</text>
          </lyric>
        <lyric number="2" default-x="6.50" default-y="-68.67" relative-y="-30.00">
          <syllabic>single</syllabic>
          <text>in</text>
          </lyric>
        <lyric number="3" default-x="6.50" default-y="-92.64" relative-y="-30.00">
          <syllabic>single</syllabic>
          <text>ne</text>
          </lyric>
        </note>
      <note default-x="77.82" default-y="-40.00">
        <pitch>
          <step>E</step>
          <octave>4</octave>
          </pitch>
        <duration>1</duration>
        <voice>1</voice>
        <type>eighth</type>
        <stem>up</stem>
        <beam number="1">end</beam>
        <lyric number="1" default-x="6.50" default-y="-44.70" relative-y="-30.00">
          <syllabic>middle</syllabic>
          <text>le</text>
          </lyric>
        <lyric number="2" default-x="6.50" default-y="-68.67" relative-y="-30.00">
          <syllabic>begin</syllabic>
          <text>pri</text>
          </lyric>
        <lyric number="3" default-x="6.50" default-y="-92.64" relative-y="-30.00">
          <syllabic>begin</syllabic>
          <text>sa</text>
          </lyric>
        </note>
      <note default-x="139.98" default-y="-45.00">
        <pitch>
          <step>D</step>
          <octave>4</octave>
          </pitch>
        <duration>1</duration>
        <voice>1</voice>
        <type>eighth</type>
        <stem>up</stem>
        <beam number="1">begin</beam>
        <lyric number="1" default-x="6.50" default-y="-44.70" relative-y="-30.00">
          <syllabic>middle</syllabic>
          <text>ri</text>
          </lyric>
        <lyric number="2" default-x="6.50" default-y="-68.67" relative-y="-30.00">
          <syllabic>middle</syllabic>
          <text>klo</text>
          </lyric>
        <lyric number="3" default-x="6.50" default-y="-92.64" relative-y="-30.00">
          <syllabic>end</syllabic>
          <text>mo</text>
          </lyric>
        </note>
      <note default-x="202.14" default-y="-25.00">
        <pitch>
          <step>A</step>
          <octave>4</octave>
          </pitch>
        <duration>1</duration>
        <voice>1</voice>
        <type>eighth</type>
        <stem>up</stem>
        <beam number="1">end</beam>
        <lyric number="1" default-x="6.50" default-y="-44.70" relative-y="-30.00">
          <syllabic>end</syllabic>
          <text>na</text>
          </lyric>
        <lyric number="2" default-x="6.50" default-y="-68.67" relative-y="-30.00">
          <syllabic>end</syllabic>
          <text>ni</text>
          </lyric>
        <lyric number="3" default-x="6.50" default-y="-92.64" relative-y="-30.00">
          <syllabic>single</syllabic>
          <text>za</text>
          </lyric>
        </note>
      </measure>
    <measure number="8" width="315.67">
      <note default-x="24.69" default-y="-30.00">
        <pitch>
          <step>G</step>
          <octave>4</octave>
          </pitch>
        <duration>1</duration>
        <voice>1</voice>
        <type>eighth</type>
        <stem>up</stem>
        <beam number="1">begin</beam>
        <lyric number="1" default-x="6.50" default-y="-44.70" relative-y="-30.00">
          <syllabic>single</syllabic>
          <text>se</text>
          </lyric>
        <lyric number="2" default-x="6.50" default-y="-68.67" relative-y="-30.00">
          <syllabic>single</syllabic>
          <text>se</text>
          </lyric>
        <lyric number="3" default-x="6.50" default-y="-92.64" relative-y="-30.00">
          <syllabic>begin</syllabic>
          <text>pust</text>
          </lyric>
        </note>
      <note default-x="100.28" default-y="-35.00">
        <pitch>
          <step>F</step>
          <octave>4</octave>
          </pitch>
        <duration>1</duration>
        <voice>1</voice>
        <type>eighth</type>
        <stem>up</stem>
        <beam number="1">end</beam>
        <lyric number="1" default-x="6.50" default-y="-44.70" relative-y="-30.00">
          <syllabic>begin</syllabic>
          <text>vr</text>
          </lyric>
        <lyric number="2" default-x="6.50" default-y="-68.67" relative-y="-30.00">
          <syllabic>single</syllabic>
          <text>do</text>
          </lyric>
        <lyric number="3" default-x="6.50" default-y="-92.64" relative-y="-30.00">
          <syllabic>end</syllabic>
          <text>ne</text>
          </lyric>
        </note>
      <note default-x="175.88" default-y="-40.00">
        <pitch>
          <step>E</step>
          <octave>4</octave>
          </pitch>
        <duration>2</duration>
        <voice>1</voice>
        <type>quarter</type>
        <stem>up</stem>
        <lyric number="1" default-x="8.66" default-y="-44.70" relative-y="-30.00">
          <syllabic>end</syllabic>
          <text>ti.</text>
          </lyric>
        <lyric number="2" default-x="8.65" default-y="-68.67" relative-y="-30.00">
          <syllabic>single</syllabic>
          <text>tal.</text>
          </lyric>
        <lyric number="3" default-x="13.16" default-y="-92.64" relative-y="-30.00">
          <syllabic>single</syllabic>
          <text>dni!&quot;</text>
          </lyric>
        </note>
      <barline location="right">
        <bar-style>light-heavy</bar-style>
        <repeat direction="backward"/>
        </barline>
      </measure>
    </part>
  </score-partwise>
