<?xml version="1.0" encoding="UTF-8"?>
<!DOCTYPE score-partwise PUBLIC "-//Recordare//DTD MusicXML 3.1 Partwise//EN" "http://www.musicxml.org/dtds/partwise.dtd">
<score-partwise version="3.1">
  <work>
    <work-title>Poštar Peter</work-title>
    </work>
  <identification>
    <creator type="composer">Janez Bitenc</creator>
    <encoding>
      <software>MuseScore 3.6.2</software>
      <encoding-date>2022-03-28</encoding-date>
      <supports element="accidental" type="yes"/>
      <supports element="beam" type="yes"/>
      <supports element="print" attribute="new-page" type="yes" value="yes"/>
      <supports element="print" attribute="new-system" type="yes" value="yes"/>
      <supports element="stem" type="yes"/>
      </encoding>
    </identification>
  <defaults>
    <scaling>
      <millimeters>7.05556</millimeters>
      <tenths>40</tenths>
      </scaling>
    <page-layout>
      <page-height>1683.36</page-height>
      <page-width>1190.88</page-width>
      <page-margins type="even">
        <left-margin>56.6929</left-margin>
        <right-margin>56.6929</right-margin>
        <top-margin>56.6929</top-margin>
        <bottom-margin>113.386</bottom-margin>
        </page-margins>
      <page-margins type="odd">
        <left-margin>56.6929</left-margin>
        <right-margin>56.6929</right-margin>
        <top-margin>56.6929</top-margin>
        <bottom-margin>113.386</bottom-margin>
        </page-margins>
      </page-layout>
    <word-font font-family="Edwin" font-size="10"/>
    <lyric-font font-family="Edwin" font-size="10"/>
    </defaults>
  <credit page="1">
    <credit-type>title</credit-type>
    <credit-words default-x="595.44" default-y="1626.67" justify="center" valign="top" font-size="22">Poštar Peter</credit-words>
    </credit>
  <credit page="1">
    <credit-type>composer</credit-type>
    <credit-words default-x="1134.19" default-y="1526.67" justify="right" valign="bottom">besedilo: Janez Bitenc
</credit-words>
    <credit-words>glasba: Janez Bitenc
</credit-words>
    <credit-words></credit-words>
    </credit>
  <credit page="1">
    <credit-type>subtitle</credit-type>
    <credit-words default-x="595.44" default-y="1569.97" justify="center" valign="top" font-size="16">Ciciban, december 2000 </credit-words>
    </credit>
  <part-list>
    <score-part id="P1">
      <part-name>Piano</part-name>
      <part-abbreviation>Pno.</part-abbreviation>
      <score-instrument id="P1-I1">
        <instrument-name>Piano</instrument-name>
        </score-instrument>
      <midi-device id="P1-I1" port="1"></midi-device>
      <midi-instrument id="P1-I1">
        <midi-channel>1</midi-channel>
        <midi-program>1</midi-program>
        <volume>78.7402</volume>
        <pan>0</pan>
        </midi-instrument>
      </score-part>
    </part-list>
  <part id="P1">
    <measure number="1" width="275.10">
      <print>
        <system-layout>
          <system-margins>
            <left-margin>0.00</left-margin>
            <right-margin>0.00</right-margin>
            </system-margins>
          <top-system-distance>170.00</top-system-distance>
          </system-layout>
        </print>
      <attributes>
        <divisions>2</divisions>
        <key>
          <fifths>0</fifths>
          </key>
        <time>
          <beats>2</beats>
          <beat-type>4</beat-type>
          </time>
        <clef>
          <sign>G</sign>
          <line>2</line>
          </clef>
        </attributes>
      <note default-x="80.72" default-y="-30.00">
        <pitch>
          <step>G</step>
          <octave>4</octave>
          </pitch>
        <duration>1</duration>
        <voice>1</voice>
        <type>eighth</type>
        <stem>up</stem>
        <beam number="1">begin</beam>
        <lyric number="1" default-x="-14.67" default-y="-42.81" relative-y="-30.00">
          <syllabic>begin</syllabic>
          <text>1.Tor</text>
          </lyric>
        <lyric number="2" default-x="-10.42" default-y="-66.78" relative-y="-30.00">
          <syllabic>begin</syllabic>
          <text>2Hi</text>
          </lyric>
        </note>
      <note default-x="128.87" default-y="-30.00">
        <pitch>
          <step>G</step>
          <octave>4</octave>
          </pitch>
        <duration>1</duration>
        <voice>1</voice>
        <type>eighth</type>
        <stem>up</stem>
        <beam number="1">end</beam>
        <lyric number="1" default-x="6.50" default-y="-42.81" relative-y="-30.00">
          <syllabic>end</syllabic>
          <text>bo</text>
          </lyric>
        <lyric number="2" default-x="6.50" default-y="-66.78" relative-y="-30.00">
          <syllabic>end</syllabic>
          <text>tro</text>
          </lyric>
        </note>
      <note default-x="177.01" default-y="-30.00">
        <pitch>
          <step>G</step>
          <octave>4</octave>
          </pitch>
        <duration>1</duration>
        <voice>1</voice>
        <type>eighth</type>
        <stem>up</stem>
        <beam number="1">begin</beam>
        <lyric number="1" default-x="6.50" default-y="-42.81" relative-y="-30.00">
          <syllabic>begin</syllabic>
          <text>no</text>
          </lyric>
        <lyric number="2" default-x="6.50" default-y="-66.78" relative-y="-30.00">
          <syllabic>begin</syllabic>
          <text>pri</text>
          </lyric>
        </note>
      <note default-x="225.16" default-y="-40.00">
        <pitch>
          <step>E</step>
          <octave>4</octave>
          </pitch>
        <duration>1</duration>
        <voice>1</voice>
        <type>eighth</type>
        <stem>up</stem>
        <beam number="1">end</beam>
        <lyric number="1" default-x="9.18" default-y="-42.81" relative-y="-30.00">
          <syllabic>end</syllabic>
          <text>sim,</text>
          </lyric>
        <lyric number="2" default-x="6.50" default-y="-66.78" relative-y="-30.00">
          <syllabic>middle</syllabic>
          <text>di</text>
          </lyric>
        </note>
      </measure>
    <measure number="2" width="187.93">
      <note default-x="18.08" default-y="-35.00">
        <pitch>
          <step>F</step>
          <octave>4</octave>
          </pitch>
        <duration>1</duration>
        <voice>1</voice>
        <type>eighth</type>
        <stem>up</stem>
        <beam number="1">begin</beam>
        <lyric number="1" default-x="6.50" default-y="-42.81" relative-y="-30.00">
          <syllabic>begin</syllabic>
          <text>pol</text>
          </lyric>
        <lyric number="2" default-x="6.50" default-y="-66.78" relative-y="-30.00">
          <syllabic>end</syllabic>
          <text>te</text>
          </lyric>
        </note>
      <note default-x="60.09" default-y="-25.00">
        <pitch>
          <step>A</step>
          <octave>4</octave>
          </pitch>
        <duration>1</duration>
        <voice>1</voice>
        <type>eighth</type>
        <stem>up</stem>
        <beam number="1">end</beam>
        <lyric number="1" default-x="6.50" default-y="-42.81" relative-y="-30.00">
          <syllabic>end</syllabic>
          <text>no</text>
          </lyric>
        <lyric number="2" default-x="6.50" default-y="-66.78" relative-y="-30.00">
          <syllabic>single</syllabic>
          <text>ko</text>
          </lyric>
        </note>
      <note default-x="102.10" default-y="-30.00">
        <pitch>
          <step>G</step>
          <octave>4</octave>
          </pitch>
        <duration>1</duration>
        <voice>1</voice>
        <type>eighth</type>
        <stem>up</stem>
        <beam number="1">begin</beam>
        <lyric number="1" default-x="6.50" default-y="-42.81" relative-y="-30.00">
          <syllabic>begin</syllabic>
          <text>tor</text>
          </lyric>
        <lyric number="2" default-x="6.50" default-y="-66.78" relative-y="-30.00">
          <syllabic>begin</syllabic>
          <text>ve</text>
          </lyric>
        </note>
      <note default-x="144.12" default-y="-40.00">
        <pitch>
          <step>E</step>
          <octave>4</octave>
          </pitch>
        <duration>1</duration>
        <voice>1</voice>
        <type>eighth</type>
        <stem>up</stem>
        <beam number="1">end</beam>
        <lyric number="1" default-x="8.75" default-y="-42.81" relative-y="-30.00">
          <syllabic>end</syllabic>
          <text>bo,</text>
          </lyric>
        <lyric number="2" default-x="8.78" default-y="-66.78" relative-y="-30.00">
          <syllabic>end</syllabic>
          <text>ter,</text>
          </lyric>
        </note>
      </measure>
    <measure number="3" width="208.05">
      <note default-x="23.28" default-y="-30.00">
        <pitch>
          <step>G</step>
          <octave>4</octave>
          </pitch>
        <duration>1</duration>
        <voice>1</voice>
        <type>eighth</type>
        <stem>up</stem>
        <beam number="1">begin</beam>
        <lyric number="1" default-x="6.50" default-y="-42.81" relative-y="-30.00">
          <syllabic>begin</syllabic>
          <text>vtor</text>
          </lyric>
        <lyric number="2" default-x="6.50" default-y="-66.78" relative-y="-30.00">
          <syllabic>single</syllabic>
          <text>tu</text>
          </lyric>
        </note>
      <note default-x="69.02" default-y="-30.00">
        <pitch>
          <step>G</step>
          <octave>4</octave>
          </pitch>
        <duration>1</duration>
        <voice>1</voice>
        <type>eighth</type>
        <stem>up</stem>
        <beam number="1">end</beam>
        <lyric number="1" default-x="6.50" default-y="-42.81" relative-y="-30.00">
          <syllabic>end</syllabic>
          <text>bi</text>
          </lyric>
        <lyric number="2" default-x="6.50" default-y="-66.78" relative-y="-30.00">
          <syllabic>single</syllabic>
          <text>vas</text>
          </lyric>
        </note>
      <note default-x="114.77" default-y="-30.00">
        <pitch>
          <step>G</step>
          <octave>4</octave>
          </pitch>
        <duration>1</duration>
        <voice>1</voice>
        <type>eighth</type>
        <stem>up</stem>
        <beam number="1">begin</beam>
        <lyric number="1" default-x="6.50" default-y="-42.81" relative-y="-30.00">
          <syllabic>begin</syllabic>
          <text>dve</text>
          </lyric>
        <lyric number="2" default-x="6.50" default-y="-66.78" relative-y="-30.00">
          <syllabic>begin</syllabic>
          <text>ča</text>
          </lyric>
        </note>
      <note default-x="160.51" default-y="-40.00">
        <pitch>
          <step>E</step>
          <octave>4</octave>
          </pitch>
        <duration>1</duration>
        <voice>1</voice>
        <type>eighth</type>
        <stem>up</stem>
        <beam number="1">end</beam>
        <lyric number="1" default-x="6.50" default-y="-42.81" relative-y="-30.00">
          <syllabic>end</syllabic>
          <text>sto</text>
          </lyric>
        <lyric number="2" default-x="6.50" default-y="-66.78" relative-y="-30.00">
          <syllabic>end</syllabic>
          <text>ka</text>
          </lyric>
        </note>
      </measure>
    <measure number="4" width="192.68">
      <note default-x="14.87" default-y="-35.00">
        <pitch>
          <step>F</step>
          <octave>4</octave>
          </pitch>
        <duration>1</duration>
        <voice>1</voice>
        <type>eighth</type>
        <stem>up</stem>
        <beam number="1">begin</beam>
        <lyric number="1" default-x="6.50" default-y="-42.81" relative-y="-30.00">
          <syllabic>begin</syllabic>
          <text>pi</text>
          </lyric>
        <lyric number="2" default-x="6.50" default-y="-66.78" relative-y="-30.00">
          <syllabic>begin</syllabic>
          <text>po</text>
          </lyric>
        </note>
      <note default-x="58.87" default-y="-25.00">
        <pitch>
          <step>A</step>
          <octave>4</octave>
          </pitch>
        <duration>1</duration>
        <voice>1</voice>
        <type>eighth</type>
        <stem>up</stem>
        <beam number="1">end</beam>
        <lyric number="1" default-x="6.50" default-y="-42.81" relative-y="-30.00">
          <syllabic>end</syllabic>
          <text>sem</text>
          </lyric>
        <lyric number="2" default-x="6.50" default-y="-66.78" relative-y="-30.00">
          <syllabic>end</syllabic>
          <text>štar</text>
          </lyric>
        </note>
      <note default-x="102.87" default-y="-30.00">
        <pitch>
          <step>G</step>
          <octave>4</octave>
          </pitch>
        <duration>1</duration>
        <voice>1</voice>
        <type>eighth</type>
        <stem>up</stem>
        <beam number="1">begin</beam>
        <notations>
          <slur type="start" placement="below" number="1"/>
          </notations>
        <lyric number="1" default-x="7.85" default-y="-42.81" relative-y="-30.00">
          <syllabic>single</syllabic>
          <text>je,</text>
          </lyric>
        <lyric number="2" default-x="6.50" default-y="-66.78" relative-y="-30.00">
          <syllabic>begin</syllabic>
          <text>Pe</text>
          </lyric>
        </note>
      <note default-x="146.88" default-y="-30.00">
        <pitch>
          <step>G</step>
          <octave>4</octave>
          </pitch>
        <duration>1</duration>
        <voice>1</voice>
        <type>eighth</type>
        <stem>up</stem>
        <beam number="1">end</beam>
        <notations>
          <slur type="stop" number="1"/>
          </notations>
        <lyric number="2" default-x="8.60" default-y="-66.78" relative-y="-30.00">
          <syllabic>end</syllabic>
          <text>ter.</text>
          </lyric>
        </note>
      </measure>
    <measure number="5" width="213.73">
      <note default-x="17.41" default-y="-25.00">
        <pitch>
          <step>A</step>
          <octave>4</octave>
          </pitch>
        <duration>1</duration>
        <voice>1</voice>
        <type>eighth</type>
        <stem>up</stem>
        <beam number="1">begin</beam>
        <lyric number="1" default-x="6.50" default-y="-42.81" relative-y="-30.00">
          <syllabic>single</syllabic>
          <text>sto</text>
          </lyric>
        <lyric number="2" default-x="6.50" default-y="-66.78" relative-y="-30.00">
          <syllabic>begin</syllabic>
          <text>Po</text>
          </lyric>
        </note>
      <note default-x="66.04" default-y="-25.00">
        <pitch>
          <step>A</step>
          <octave>4</octave>
          </pitch>
        <duration>1</duration>
        <voice>1</voice>
        <type>eighth</type>
        <stem>up</stem>
        <beam number="1">end</beam>
        <lyric number="1" default-x="6.50" default-y="-42.81" relative-y="-30.00">
          <syllabic>begin</syllabic>
          <text>raz</text>
          </lyric>
        <lyric number="2" default-x="6.50" default-y="-66.78" relative-y="-30.00">
          <syllabic>end</syllabic>
          <text>štar</text>
          </lyric>
        </note>
      <note default-x="114.67" default-y="-20.00">
        <pitch>
          <step>B</step>
          <octave>4</octave>
          </pitch>
        <duration>1</duration>
        <voice>1</voice>
        <type>eighth</type>
        <stem>up</stem>
        <beam number="1">begin</beam>
        <lyric number="1" default-x="6.50" default-y="-42.81" relative-y="-30.00">
          <syllabic>middle</syllabic>
          <text>gle</text>
          </lyric>
        <lyric number="2" default-x="6.50" default-y="-66.78" relative-y="-30.00">
          <syllabic>begin</syllabic>
          <text>Pe</text>
          </lyric>
        </note>
      <note default-x="163.30" default-y="-25.00">
        <pitch>
          <step>A</step>
          <octave>4</octave>
          </pitch>
        <duration>1</duration>
        <voice>1</voice>
        <type>eighth</type>
        <stem>up</stem>
        <beam number="1">end</beam>
        <lyric number="1" default-x="9.10" default-y="-42.81" relative-y="-30.00">
          <syllabic>end</syllabic>
          <text>dnic,</text>
          </lyric>
        <lyric number="2" default-x="6.50" default-y="-66.78" relative-y="-30.00">
          <syllabic>end</syllabic>
          <text>ter</text>
          </lyric>
        </note>
      </measure>
    <measure number="6" width="440.42">
      <print new-system="yes">
        <system-layout>
          <system-margins>
            <left-margin>0.00</left-margin>
            <right-margin>-0.00</right-margin>
            </system-margins>
          <system-distance>150.00</system-distance>
          </system-layout>
        </print>
      <direction placement="below">
        <direction-type>
          <words default-y="-123.16" valign="top">Torbo nosim,
</words>
          <words>polno torbo,
</words>
          <words>v torbi dvesto pisem je,
</words>
          <words>sto razglednic,
</words>
          <words>en paket,
</words>
          <words>kaj je v njem,
</words>
          <words>nihče ne ve.
</words>
          <words>
</words>
          <words>Hitro pridite kot veter,
</words>
          <words>tu vas čaka poštar Peter!
</words>
          <words>Poštar Peter iz Vodic,
</words>
          <words>hitrih nor in rdečih lic.
</words>
          <words></words>
          </direction-type>
        </direction>
      <note default-x="58.59" default-y="-30.00">
        <pitch>
          <step>G</step>
          <octave>4</octave>
          </pitch>
        <duration>1</duration>
        <voice>1</voice>
        <type>eighth</type>
        <stem>up</stem>
        <beam number="1">begin</beam>
        <lyric number="1" default-x="6.50" default-y="-45.14" relative-y="-30.00">
          <syllabic>single</syllabic>
          <text>en</text>
          </lyric>
        <lyric number="2" default-x="6.50" default-y="-69.11" relative-y="-30.00">
          <syllabic>single</syllabic>
          <text>iz</text>
          </lyric>
        </note>
      <note default-x="164.16" default-y="-30.00">
        <pitch>
          <step>G</step>
          <octave>4</octave>
          </pitch>
        <duration>1</duration>
        <voice>1</voice>
        <type>eighth</type>
        <stem>up</stem>
        <beam number="1">end</beam>
        <lyric number="1" default-x="6.50" default-y="-45.14" relative-y="-30.00">
          <syllabic>begin</syllabic>
          <text>pa</text>
          </lyric>
        <lyric number="2" default-x="6.50" default-y="-69.11" relative-y="-30.00">
          <syllabic>begin</syllabic>
          <text>vo</text>
          </lyric>
        </note>
      <note default-x="269.72" default-y="-40.00">
        <pitch>
          <step>E</step>
          <octave>4</octave>
          </pitch>
        <duration>2</duration>
        <voice>1</voice>
        <type>quarter</type>
        <stem>up</stem>
        <lyric number="1" default-x="6.50" default-y="-45.14" relative-y="-30.00">
          <syllabic>end</syllabic>
          <text>ket</text>
          </lyric>
        <lyric number="2" default-x="9.10" default-y="-69.11" relative-y="-30.00">
          <syllabic>end</syllabic>
          <text>dic,</text>
          </lyric>
        </note>
      </measure>
    <measure number="7" width="323.25">
      <note default-x="18.28" default-y="-45.00">
        <pitch>
          <step>D</step>
          <octave>4</octave>
          </pitch>
        <duration>1</duration>
        <voice>1</voice>
        <type>eighth</type>
        <stem>up</stem>
        <beam number="1">begin</beam>
        <lyric number="1" default-x="6.50" default-y="-45.14" relative-y="-30.00">
          <syllabic>single</syllabic>
          <text>kaj</text>
          </lyric>
        <lyric number="2" default-x="6.50" default-y="-69.11" relative-y="-30.00">
          <syllabic>begin</syllabic>
          <text>hi</text>
          </lyric>
        </note>
      <note default-x="94.07" default-y="-40.00">
        <pitch>
          <step>E</step>
          <octave>4</octave>
          </pitch>
        <duration>1</duration>
        <voice>1</voice>
        <type>eighth</type>
        <stem>up</stem>
        <beam number="1">end</beam>
        <lyric number="1" default-x="6.50" default-y="-45.14" relative-y="-30.00">
          <syllabic>single</syllabic>
          <text>je</text>
          </lyric>
        <lyric number="2" default-x="6.50" default-y="-69.11" relative-y="-30.00">
          <syllabic>end</syllabic>
          <text>trih</text>
          </lyric>
        </note>
      <note default-x="169.86" default-y="-35.00">
        <pitch>
          <step>F</step>
          <octave>4</octave>
          </pitch>
        <duration>1</duration>
        <voice>1</voice>
        <type>eighth</type>
        <stem>up</stem>
        <beam number="1">begin</beam>
        <lyric number="1" default-x="9.04" default-y="-45.14" relative-y="-30.00">
          <syllabic>single</syllabic>
          <text>vnjem,</text>
          </lyric>
        <lyric number="2" default-x="6.50" default-y="-69.11" relative-y="-30.00">
          <syllabic>single</syllabic>
          <text>nog</text>
          </lyric>
        </note>
      <note default-x="245.66" default-y="-25.00">
        <pitch>
          <step>A</step>
          <octave>4</octave>
          </pitch>
        <duration>1</duration>
        <voice>1</voice>
        <type>eighth</type>
        <stem>up</stem>
        <beam number="1">end</beam>
        <lyric number="1" default-x="6.50" default-y="-45.14" relative-y="-30.00">
          <syllabic>begin</syllabic>
          <text>nih</text>
          </lyric>
        <lyric number="2" default-x="6.50" default-y="-69.11" relative-y="-30.00">
          <syllabic>single</syllabic>
          <text>in</text>
          </lyric>
        </note>
      </measure>
    <measure number="8" width="313.83">
      <note default-x="19.38" default-y="-30.00">
        <pitch>
          <step>G</step>
          <octave>4</octave>
          </pitch>
        <duration>1</duration>
        <voice>1</voice>
        <type>eighth</type>
        <stem>up</stem>
        <beam number="1">begin</beam>
        <lyric number="1" default-x="6.50" default-y="-45.14" relative-y="-30.00">
          <syllabic>end</syllabic>
          <text>če</text>
          </lyric>
        <lyric number="2" default-x="6.50" default-y="-69.11" relative-y="-30.00">
          <syllabic>begin</syllabic>
          <text>rde</text>
          </lyric>
        </note>
      <note default-x="95.94" default-y="-35.00">
        <pitch>
          <step>F</step>
          <octave>4</octave>
          </pitch>
        <duration>1</duration>
        <voice>1</voice>
        <type>eighth</type>
        <stem>up</stem>
        <beam number="1">end</beam>
        <lyric number="1" default-x="6.50" default-y="-45.14" relative-y="-30.00">
          <syllabic>single</syllabic>
          <text>ne</text>
          </lyric>
        <lyric number="2" default-x="6.50" default-y="-69.11" relative-y="-30.00">
          <syllabic>end</syllabic>
          <text>čih</text>
          </lyric>
        </note>
      <note default-x="172.50" default-y="-40.00">
        <pitch>
          <step>E</step>
          <octave>4</octave>
          </pitch>
        <duration>2</duration>
        <voice>1</voice>
        <type>quarter</type>
        <stem>up</stem>
        <lyric number="1" default-x="8.80" default-y="-45.14" relative-y="-30.00">
          <syllabic>single</syllabic>
          <text>ve.</text>
          </lyric>
        <lyric number="2" default-x="8.67" default-y="-69.11" relative-y="-30.00">
          <syllabic>single</syllabic>
          <text>lic.</text>
          </lyric>
        </note>
      <barline location="right">
        <bar-style>light-heavy</bar-style>
        <repeat direction="backward"/>
        </barline>
      </measure>
    </part>
  </score-partwise>
