<?xml version="1.0" encoding="UTF-8"?>
<!DOCTYPE score-partwise PUBLIC "-//Recordare//DTD MusicXML 3.1 Partwise//EN" "http://www.musicxml.org/dtds/partwise.dtd">
<score-partwise version="3.1">
  <work>
    <work-title>Pustna</work-title>
    </work>
  <identification>
    <creator type="composer">Napisal: Danilo Gorinšek Uglasbil: Tomaž Habe</creator>
    <creator type="lyricist">Uredila: Katja Virant Uršič</creator>
    <rights>Prepisala: Lucija Gorjup</rights>
    <encoding>
      <software>MuseScore 3.6.2</software>
      <encoding-date>2022-05-03</encoding-date>
      <supports element="accidental" type="yes"/>
      <supports element="beam" type="yes"/>
      <supports element="print" attribute="new-page" type="yes" value="yes"/>
      <supports element="print" attribute="new-system" type="yes" value="yes"/>
      <supports element="stem" type="yes"/>
      </encoding>
    </identification>
  <defaults>
    <scaling>
      <millimeters>7.05556</millimeters>
      <tenths>40</tenths>
      </scaling>
    <page-layout>
      <page-height>1683.36</page-height>
      <page-width>1190.88</page-width>
      <page-margins type="even">
        <left-margin>56.6929</left-margin>
        <right-margin>56.6929</right-margin>
        <top-margin>56.6929</top-margin>
        <bottom-margin>113.386</bottom-margin>
        </page-margins>
      <page-margins type="odd">
        <left-margin>56.6929</left-margin>
        <right-margin>56.6929</right-margin>
        <top-margin>56.6929</top-margin>
        <bottom-margin>113.386</bottom-margin>
        </page-margins>
      </page-layout>
    <word-font font-family="Edwin" font-size="10"/>
    <lyric-font font-family="Edwin" font-size="10"/>
    </defaults>
  <credit page="1">
    <credit-type>title</credit-type>
    <credit-words default-x="595.44" default-y="1626.67" justify="center" valign="top" font-size="22">Pustna</credit-words>
    </credit>
  <credit page="1">
    <credit-type>subtitle</credit-type>
    <credit-words default-x="595.44" default-y="1569.97" justify="center" valign="top" font-size="16">Ciciban, februar 2005</credit-words>
    </credit>
  <credit page="1">
    <credit-type>composer</credit-type>
    <credit-words default-x="1134.19" default-y="1481.49" justify="right" valign="bottom">Napisal: Danilo Gorinšek 
</credit-words>
    <credit-words>Uglasbil: Tomaž Habe
</credit-words>
    <credit-words></credit-words>
    </credit>
  <credit page="1">
    <credit-type>lyricist</credit-type>
    <credit-words default-x="56.6929" default-y="1481.49" justify="left" valign="bottom">Uredila: Katja Virant Iršič</credit-words>
    </credit>
  <credit page="1">
    <credit-type>rights</credit-type>
    <credit-words default-x="595.44" default-y="113.386" justify="center" valign="bottom" font-family="FreeSerif" font-size="8">Prepisala: Lucija Gorjup</credit-words>
    </credit>
  <part-list>
    <score-part id="P1">
      <part-name>Piano</part-name>
      <part-abbreviation>Pno.</part-abbreviation>
      <score-instrument id="P1-I1">
        <instrument-name>Piano</instrument-name>
        </score-instrument>
      <midi-device id="P1-I1" port="1"></midi-device>
      <midi-instrument id="P1-I1">
        <midi-channel>1</midi-channel>
        <midi-program>1</midi-program>
        <volume>78.7402</volume>
        <pan>0</pan>
        </midi-instrument>
      </score-part>
    </part-list>
  <part id="P1">
    <measure number="1" width="220.67">
      <print>
        <system-layout>
          <system-margins>
            <left-margin>0.00</left-margin>
            <right-margin>0.00</right-margin>
            </system-margins>
          <top-system-distance>215.18</top-system-distance>
          </system-layout>
        </print>
      <barline location="left">
        <bar-style>heavy-light</bar-style>
        <repeat direction="forward"/>
        </barline>
      <attributes>
        <divisions>4</divisions>
        <key>
          <fifths>-1</fifths>
          </key>
        <time>
          <beats>2</beats>
          <beat-type>4</beat-type>
          </time>
        <clef>
          <sign>G</sign>
          <line>2</line>
          </clef>
        </attributes>
      <direction placement="above">
        <direction-type>
          <words relative-x="-17.25" relative-y="28.28" font-style="italic">Allegro un poco marcato</words>
          </direction-type>
        </direction>
      <note default-x="127.67" default-y="-25.00">
        <pitch>
          <step>A</step>
          <octave>4</octave>
          </pitch>
        <duration>4</duration>
        <voice>1</voice>
        <type>quarter</type>
        <stem>up</stem>
        <lyric number="1" default-x="6.50" default-y="-49.76" relative-y="-30.00">
          <syllabic>begin</syllabic>
          <text>Da</text>
          </lyric>
        <lyric number="2" default-x="6.50" default-y="-73.73" relative-y="-30.00">
          <syllabic>single</syllabic>
          <text>Vso</text>
          </lyric>
        </note>
      <note default-x="173.27" default-y="-30.00">
        <pitch>
          <step>G</step>
          <octave>4</octave>
          </pitch>
        <duration>4</duration>
        <voice>1</voice>
        <type>quarter</type>
        <stem>up</stem>
        <lyric number="1" default-x="8.98" default-y="-49.76" relative-y="-30.00">
          <syllabic>end</syllabic>
          <text>nes,</text>
          </lyric>
        <lyric number="2" default-x="6.50" default-y="-73.73" relative-y="-30.00">
          <syllabic>begin</syllabic>
          <text>o</text>
          </lyric>
        </note>
      </measure>
    <measure number="2" width="175.91">
      <note default-x="18.04" default-y="-25.00">
        <pitch>
          <step>A</step>
          <octave>4</octave>
          </pitch>
        <duration>2</duration>
        <voice>1</voice>
        <type>eighth</type>
        <stem>down</stem>
        <beam number="1">begin</beam>
        <lyric number="1" default-x="6.50" default-y="-49.76" relative-y="-30.00">
          <syllabic>begin</syllabic>
          <text>da</text>
          </lyric>
        <lyric number="2" default-x="6.50" default-y="-73.73" relative-y="-30.00">
          <syllabic>middle</syllabic>
          <text>ble</text>
          </lyric>
        </note>
      <note default-x="57.06" default-y="-15.00">
        <pitch>
          <step>C</step>
          <octave>5</octave>
          </pitch>
        <duration>2</duration>
        <voice>1</voice>
        <type>eighth</type>
        <stem>down</stem>
        <beam number="1">end</beam>
        <lyric number="1" default-x="6.50" default-y="-49.76" relative-y="-30.00">
          <syllabic>end</syllabic>
          <text>nes</text>
          </lyric>
        <lyric number="2" default-x="6.50" default-y="-73.73" relative-y="-30.00">
          <syllabic>end</syllabic>
          <text>ko</text>
          </lyric>
        </note>
      <note default-x="96.07" default-y="-30.00">
        <pitch>
          <step>G</step>
          <octave>4</octave>
          </pitch>
        <duration>2</duration>
        <voice>1</voice>
        <type>eighth</type>
        <stem>up</stem>
        <beam number="1">begin</beam>
        <lyric number="1" default-x="6.50" default-y="-49.76" relative-y="-30.00">
          <syllabic>begin</syllabic>
          <text>bo</text>
          </lyric>
        <lyric number="2" default-x="6.50" default-y="-73.73" relative-y="-30.00">
          <syllabic>begin</syllabic>
          <text>bo</text>
          </lyric>
        </note>
      <note default-x="135.09" default-y="-35.00">
        <pitch>
          <step>F</step>
          <octave>4</octave>
          </pitch>
        <duration>2</duration>
        <voice>1</voice>
        <type>eighth</type>
        <stem>up</stem>
        <beam number="1">end</beam>
        <lyric number="1" default-x="8.90" default-y="-49.76" relative-y="-30.00">
          <syllabic>end</syllabic>
          <text>mo,</text>
          </lyric>
        <lyric number="2" default-x="8.90" default-y="-73.73" relative-y="-30.00">
          <syllabic>end</syllabic>
          <text>mo,</text>
          </lyric>
        </note>
      </measure>
    <measure number="3" width="176.97">
      <note default-x="19.33" default-y="-20.00">
        <pitch>
          <step>B</step>
          <alter>-1</alter>
          <octave>4</octave>
          </pitch>
        <duration>2</duration>
        <voice>1</voice>
        <type>eighth</type>
        <stem>down</stem>
        <beam number="1">begin</beam>
        <lyric number="1" default-x="6.50" default-y="-49.76" relative-y="-30.00">
          <syllabic>begin</syllabic>
          <text>da</text>
          </lyric>
        <lyric number="2" default-x="6.50" default-y="-73.73" relative-y="-30.00">
          <syllabic>single</syllabic>
          <text>vso</text>
          </lyric>
        </note>
      <note default-x="58.29" default-y="-20.00">
        <pitch>
          <step>B</step>
          <alter>-1</alter>
          <octave>4</octave>
          </pitch>
        <duration>2</duration>
        <voice>1</voice>
        <type>eighth</type>
        <stem>down</stem>
        <beam number="1">end</beam>
        <lyric number="1" default-x="6.50" default-y="-49.76" relative-y="-30.00">
          <syllabic>end</syllabic>
          <text>nes</text>
          </lyric>
        <lyric number="2" default-x="6.50" default-y="-73.73" relative-y="-30.00">
          <syllabic>begin</syllabic>
          <text>o</text>
          </lyric>
        </note>
      <note default-x="97.25" default-y="-25.00">
        <pitch>
          <step>A</step>
          <octave>4</octave>
          </pitch>
        <duration>2</duration>
        <voice>1</voice>
        <type>eighth</type>
        <stem>up</stem>
        <beam number="1">begin</beam>
        <lyric number="1" default-x="6.50" default-y="-49.76" relative-y="-30.00">
          <syllabic>begin</syllabic>
          <text>bo</text>
          </lyric>
        <lyric number="2" default-x="6.50" default-y="-73.73" relative-y="-30.00">
          <syllabic>middle</syllabic>
          <text>ble</text>
          </lyric>
        </note>
      <note default-x="136.21" default-y="-30.00">
        <pitch>
          <step>G</step>
          <octave>4</octave>
          </pitch>
        <duration>2</duration>
        <voice>1</voice>
        <type>eighth</type>
        <stem>up</stem>
        <beam number="1">end</beam>
        <lyric number="1" default-x="6.50" default-y="-49.76" relative-y="-30.00">
          <syllabic>end</syllabic>
          <text>mo</text>
          </lyric>
        <lyric number="2" default-x="6.50" default-y="-73.73" relative-y="-30.00">
          <syllabic>end</syllabic>
          <text>ko</text>
          </lyric>
        </note>
      </measure>
    <measure number="4" width="180.08">
      <note default-x="19.64" default-y="-25.00">
        <pitch>
          <step>A</step>
          <octave>4</octave>
          </pitch>
        <duration>2</duration>
        <voice>1</voice>
        <type>eighth</type>
        <stem>down</stem>
        <beam number="1">begin</beam>
        <lyric number="1" default-x="6.50" default-y="-49.76" relative-y="-30.00">
          <syllabic>begin</syllabic>
          <text>kro</text>
          </lyric>
        <lyric number="2" default-x="6.50" default-y="-73.73" relative-y="-30.00">
          <syllabic>begin</syllabic>
          <text>bo</text>
          </lyric>
        </note>
      <note default-x="59.30" default-y="-15.00">
        <pitch>
          <step>C</step>
          <octave>5</octave>
          </pitch>
        <duration>2</duration>
        <voice>1</voice>
        <type>eighth</type>
        <stem>down</stem>
        <beam number="1">end</beam>
        <lyric number="1" default-x="6.50" default-y="-49.76" relative-y="-30.00">
          <syllabic>end</syllabic>
          <text>fe</text>
          </lyric>
        <lyric number="2" default-x="6.50" default-y="-73.73" relative-y="-30.00">
          <syllabic>end</syllabic>
          <text>mo</text>
          </lyric>
        </note>
      <note default-x="98.96" default-y="-30.00">
        <pitch>
          <step>G</step>
          <octave>4</octave>
          </pitch>
        <duration>2</duration>
        <voice>1</voice>
        <type>eighth</type>
        <stem>up</stem>
        <beam number="1">begin</beam>
        <lyric number="1" default-x="6.50" default-y="-49.76" relative-y="-30.00">
          <syllabic>begin</syllabic>
          <text>cvr</text>
          </lyric>
        <lyric number="2" default-x="6.50" default-y="-73.73" relative-y="-30.00">
          <syllabic>begin</syllabic>
          <text>sle</text>
          </lyric>
        </note>
      <note default-x="138.62" default-y="-35.00">
        <pitch>
          <step>F</step>
          <octave>4</octave>
          </pitch>
        <duration>2</duration>
        <voice>1</voice>
        <type>eighth</type>
        <stem>up</stem>
        <beam number="1">end</beam>
        <lyric number="1" default-x="8.86" default-y="-49.76" relative-y="-30.00">
          <syllabic>end</syllabic>
          <text>li,</text>
          </lyric>
        <lyric number="2" default-x="8.65" default-y="-73.73" relative-y="-30.00">
          <syllabic>end</syllabic>
          <text>kli,</text>
          </lyric>
        </note>
      </measure>
    <measure number="5" width="120.07">
      <note default-x="21.97" default-y="-25.00">
        <pitch>
          <step>A</step>
          <octave>4</octave>
          </pitch>
        <duration>4</duration>
        <voice>1</voice>
        <type>quarter</type>
        <stem>up</stem>
        <lyric number="1" default-x="6.50" default-y="-49.76" relative-y="-30.00">
          <syllabic>begin</syllabic>
          <text>kak</text>
          </lyric>
        <lyric number="2" default-x="6.50" default-y="-73.73" relative-y="-30.00">
          <syllabic>single</syllabic>
          <text>se</text>
          </lyric>
        </note>
      <note default-x="70.12" default-y="-30.00">
        <pitch>
          <step>G</step>
          <octave>4</octave>
          </pitch>
        <duration>4</duration>
        <voice>1</voice>
        <type>quarter</type>
        <stem>up</stem>
        <lyric number="1" default-x="9.18" default-y="-49.76" relative-y="-30.00">
          <syllabic>end</syllabic>
          <text>šno,</text>
          </lyric>
        <lyric number="2" default-x="6.50" default-y="-73.73" relative-y="-30.00">
          <syllabic>begin</syllabic>
          <text>v͜pa</text>
          </lyric>
        </note>
      </measure>
    <measure number="6" width="203.80">
      <note default-x="21.97" default-y="-25.00">
        <pitch>
          <step>A</step>
          <octave>4</octave>
          </pitch>
        <duration>2</duration>
        <voice>1</voice>
        <type>eighth</type>
        <stem>down</stem>
        <beam number="1">begin</beam>
        <lyric number="1" default-x="6.50" default-y="-49.76" relative-y="-30.00">
          <syllabic>begin</syllabic>
          <text>kak</text>
          </lyric>
        <lyric number="2" default-x="6.50" default-y="-73.73" relative-y="-30.00">
          <syllabic>middle</syllabic>
          <text>ja</text>
          </lyric>
        </note>
      <note default-x="66.97" default-y="-15.00">
        <pitch>
          <step>C</step>
          <octave>5</octave>
          </pitch>
        <duration>2</duration>
        <voice>1</voice>
        <type>eighth</type>
        <stem>down</stem>
        <beam number="1">end</beam>
        <lyric number="1" default-x="6.50" default-y="-49.76" relative-y="-30.00">
          <syllabic>end</syllabic>
          <text>šno</text>
          </lyric>
        <lyric number="2" default-x="6.50" default-y="-73.73" relative-y="-30.00">
          <syllabic>end</syllabic>
          <text>ce</text>
          </lyric>
        </note>
      <note default-x="111.98" default-y="-30.00">
        <pitch>
          <step>G</step>
          <octave>4</octave>
          </pitch>
        <duration>2</duration>
        <voice>1</voice>
        <type>eighth</type>
        <stem>up</stem>
        <beam number="1">begin</beam>
        <lyric number="1" default-x="6.50" default-y="-49.76" relative-y="-30.00">
          <syllabic>begin</syllabic>
          <text>sme</text>
          </lyric>
        <lyric number="2" default-x="6.50" default-y="-73.73" relative-y="-30.00">
          <syllabic>begin</syllabic>
          <text>pre</text>
          </lyric>
        </note>
      <note default-x="156.99" default-y="-35.00">
        <pitch>
          <step>F</step>
          <octave>4</octave>
          </pitch>
        <duration>2</duration>
        <voice>1</voice>
        <type>eighth</type>
        <stem>up</stem>
        <beam number="1">end</beam>
        <lyric number="1" default-x="9.18" default-y="-49.76" relative-y="-30.00">
          <syllabic>end</syllabic>
          <text>šno,</text>
          </lyric>
        <lyric number="2" default-x="6.50" default-y="-73.73" relative-y="-30.00">
          <syllabic>middle</syllabic>
          <text>o</text>
          </lyric>
        </note>
      </measure>
    <measure number="7" width="238.34">
      <print new-system="yes">
        <system-layout>
          <system-margins>
            <left-margin>0.00</left-margin>
            <right-margin>-0.00</right-margin>
            </system-margins>
          <system-distance>150.00</system-distance>
          </system-layout>
        </print>
      <note default-x="76.71" default-y="-20.00">
        <pitch>
          <step>B</step>
          <alter>-1</alter>
          <octave>4</octave>
          </pitch>
        <duration>2</duration>
        <voice>1</voice>
        <type>eighth</type>
        <stem>down</stem>
        <beam number="1">begin</beam>
        <lyric number="1" default-x="6.50" default-y="-45.14" relative-y="-30.00">
          <syllabic>begin</syllabic>
          <text>sme</text>
          </lyric>
        <lyric number="2" default-x="6.50" default-y="-69.11" relative-y="-30.00">
          <syllabic>middle</syllabic>
          <text>ble</text>
          </lyric>
        </note>
      <note default-x="116.67" default-y="-20.00">
        <pitch>
          <step>B</step>
          <alter>-1</alter>
          <octave>4</octave>
          </pitch>
        <duration>2</duration>
        <voice>1</voice>
        <type>eighth</type>
        <stem>down</stem>
        <beam number="1">end</beam>
        <lyric number="1" default-x="6.50" default-y="-45.14" relative-y="-30.00">
          <syllabic>end</syllabic>
          <text>no</text>
          </lyric>
        <lyric number="2" default-x="8.65" default-y="-69.11" relative-y="-30.00">
          <syllabic>end</syllabic>
          <text>kli,</text>
          </lyric>
        </note>
      <note default-x="156.63" default-y="-25.00">
        <pitch>
          <step>A</step>
          <octave>4</octave>
          </pitch>
        <duration>2</duration>
        <voice>1</voice>
        <type>eighth</type>
        <stem>up</stem>
        <beam number="1">begin</beam>
        <lyric number="1" default-x="6.50" default-y="-45.14" relative-y="-30.00">
          <syllabic>single</syllabic>
          <text>še</text>
          </lyric>
        <lyric number="2" default-x="6.50" default-y="-69.11" relative-y="-30.00">
          <syllabic>begin</syllabic>
          <text>pre</text>
          </lyric>
        </note>
      <note default-x="196.58" default-y="-30.00">
        <pitch>
          <step>G</step>
          <octave>4</octave>
          </pitch>
        <duration>2</duration>
        <voice>1</voice>
        <type>eighth</type>
        <stem>up</stem>
        <beam number="1">end</beam>
        <lyric number="1" default-x="6.50" default-y="-45.14" relative-y="-30.00">
          <syllabic>begin</syllabic>
          <text>raz</text>
          </lyric>
        <lyric number="2" default-x="6.50" default-y="-69.11" relative-y="-30.00">
          <syllabic>middle</syllabic>
          <text>o</text>
          </lyric>
        </note>
      </measure>
    <measure number="8" width="111.31">
      <note default-x="18.04" default-y="-35.00">
        <pitch>
          <step>F</step>
          <octave>4</octave>
          </pitch>
        <duration>4</duration>
        <voice>1</voice>
        <type>quarter</type>
        <stem>up</stem>
        <lyric number="1" default-x="6.50" default-y="-45.14" relative-y="-30.00">
          <syllabic>middle</syllabic>
          <text>dr</text>
          </lyric>
        <lyric number="2" default-x="6.50" default-y="-69.11" relative-y="-30.00">
          <syllabic>middle</syllabic>
          <text>ble</text>
          </lyric>
        </note>
      <note default-x="55.26" default-y="-35.00">
        <pitch>
          <step>F</step>
          <octave>4</octave>
          </pitch>
        <duration>4</duration>
        <voice>1</voice>
        <type>quarter</type>
        <stem>up</stem>
        <lyric number="1" default-x="8.67" default-y="-45.14" relative-y="-30.00">
          <syllabic>end</syllabic>
          <text>li.</text>
          </lyric>
        <lyric number="2" default-x="8.46" default-y="-69.11" relative-y="-30.00">
          <syllabic>end</syllabic>
          <text>kli.</text>
          </lyric>
        </note>
      <barline location="right">
        <bar-style>light-heavy</bar-style>
        <repeat direction="backward"/>
        </barline>
      </measure>
    <measure number="9" width="95.04">
      <direction placement="above">
        <direction-type>
          <words relative-x="-4.06" relative-y="27.24" font-style="italic">Meno mosso</words>
          </direction-type>
        </direction>
      <note default-x="16.05" default-y="-40.00">
        <pitch>
          <step>E</step>
          <octave>4</octave>
          </pitch>
        <duration>4</duration>
        <voice>1</voice>
        <type>quarter</type>
        <stem>up</stem>
        <lyric number="1" default-x="6.50" default-y="-45.14" relative-y="-30.00">
          <syllabic>begin</syllabic>
          <text>Ža</text>
          </lyric>
        </note>
      <note default-x="54.64" default-y="-45.00">
        <pitch>
          <step>D</step>
          <octave>4</octave>
          </pitch>
        <duration>4</duration>
        <voice>1</voice>
        <type>quarter</type>
        <stem>up</stem>
        <lyric number="1" default-x="6.50" default-y="-45.14" relative-y="-30.00">
          <syllabic>end</syllabic>
          <text>lost</text>
          </lyric>
        </note>
      </measure>
    <measure number="10" width="190.41">
      <note default-x="19.33" default-y="-40.00">
        <pitch>
          <step>E</step>
          <octave>4</octave>
          </pitch>
        <duration>2</duration>
        <voice>1</voice>
        <type>eighth</type>
        <stem>up</stem>
        <beam number="1">begin</beam>
        <lyric number="1" default-x="6.50" default-y="-45.14" relative-y="-30.00">
          <syllabic>single</syllabic>
          <text>vso</text>
          </lyric>
        </note>
      <note default-x="59.27" default-y="-35.00">
        <pitch>
          <step>F</step>
          <octave>4</octave>
          </pitch>
        <duration>2</duration>
        <voice>1</voice>
        <type>eighth</type>
        <stem>up</stem>
        <beam number="1">end</beam>
        <lyric number="1" default-x="6.50" default-y="-45.14" relative-y="-30.00">
          <syllabic>single</syllabic>
          <text>naj</text>
          </lyric>
        </note>
      <note default-x="105.70" default-y="-40.00">
        <pitch>
          <step>E</step>
          <octave>4</octave>
          </pitch>
        <duration>2</duration>
        <voice>1</voice>
        <type>eighth</type>
        <stem>up</stem>
        <beam number="1">begin</beam>
        <lyric number="1" default-x="6.50" default-y="-45.14" relative-y="-30.00">
          <syllabic>single</syllabic>
          <text>šment</text>
          </lyric>
        </note>
      <note default-x="148.67" default-y="-50.00">
        <pitch>
          <step>C</step>
          <octave>4</octave>
          </pitch>
        <duration>2</duration>
        <voice>1</voice>
        <type>eighth</type>
        <stem>up</stem>
        <beam number="1">end</beam>
        <lyric number="1" default-x="6.50" default-y="-45.14" relative-y="-30.00">
          <syllabic>begin</syllabic>
          <text>po</text>
          </lyric>
        </note>
      </measure>
    <measure number="11" width="106.77">
      <note default-x="21.09" default-y="-40.00">
        <pitch>
          <step>E</step>
          <octave>4</octave>
          </pitch>
        <duration>2</duration>
        <voice>1</voice>
        <type>eighth</type>
        <stem>up</stem>
        <beam number="1">begin</beam>
        <lyric number="1" default-x="6.50" default-y="-45.14" relative-y="-30.00">
          <syllabic>middle</syllabic>
          <text>hru</text>
          </lyric>
        </note>
      <note default-x="58.13" default-y="-45.00">
        <pitch>
          <step>D</step>
          <octave>4</octave>
          </pitch>
        <duration>2</duration>
        <voice>1</voice>
        <type>eighth</type>
        <stem>up</stem>
        <beam number="1">end</beam>
        <lyric number="1" default-x="9.36" default-y="-45.14" relative-y="-30.00">
          <syllabic>end</syllabic>
          <text>sta;</text>
          </lyric>
        </note>
      <note>
        <rest/>
        <duration>4</duration>
        <voice>1</voice>
        <type>quarter</type>
        </note>
      </measure>
    <measure number="12" width="95.63">
      <note default-x="17.67" default-y="-40.00">
        <pitch>
          <step>E</step>
          <octave>4</octave>
          </pitch>
        <duration>4</duration>
        <voice>1</voice>
        <type>quarter</type>
        <stem>up</stem>
        <lyric number="1" default-x="6.50" default-y="-45.14" relative-y="-30.00">
          <syllabic>begin</syllabic>
          <text>Da</text>
          </lyric>
        </note>
      <note default-x="55.75" default-y="-45.00">
        <pitch>
          <step>D</step>
          <octave>4</octave>
          </pitch>
        <duration>4</duration>
        <voice>1</voice>
        <type>quarter</type>
        <stem>up</stem>
        <lyric number="1" default-x="6.50" default-y="-45.14" relative-y="-30.00">
          <syllabic>end</syllabic>
          <text>nes</text>
          </lyric>
        </note>
      </measure>
    <measure number="13" width="138.63">
      <note default-x="14.91" default-y="-40.00">
        <pitch>
          <step>E</step>
          <octave>4</octave>
          </pitch>
        <duration>2</duration>
        <voice>1</voice>
        <type>eighth</type>
        <stem>up</stem>
        <beam number="1">begin</beam>
        <lyric number="1" default-x="6.50" default-y="-45.14" relative-y="-30.00">
          <syllabic>single</syllabic>
          <text>šli</text>
          </lyric>
        </note>
      <note default-x="44.74" default-y="-35.00">
        <pitch>
          <step>F</step>
          <octave>4</octave>
          </pitch>
        <duration>2</duration>
        <voice>1</voice>
        <type>eighth</type>
        <stem>up</stem>
        <beam number="1">end</beam>
        <lyric number="1" default-x="6.50" default-y="-45.14" relative-y="-30.00">
          <syllabic>single</syllabic>
          <text>se</text>
          </lyric>
        </note>
      <note default-x="74.56" default-y="-40.00">
        <pitch>
          <step>E</step>
          <octave>4</octave>
          </pitch>
        <duration>2</duration>
        <voice>1</voice>
        <type>eighth</type>
        <stem>up</stem>
        <beam number="1">begin</beam>
        <lyric number="1" default-x="6.50" default-y="-45.14" relative-y="-30.00">
          <syllabic>begin</syllabic>
          <text>bo</text>
          </lyric>
        </note>
      <note default-x="105.77" default-y="-45.00">
        <pitch>
          <step>D</step>
          <octave>4</octave>
          </pitch>
        <duration>2</duration>
        <voice>1</voice>
        <type>eighth</type>
        <stem>up</stem>
        <beam number="1">end</beam>
        <lyric number="1" default-x="6.50" default-y="-45.14" relative-y="-30.00">
          <syllabic>end</syllabic>
          <text>mo</text>
          </lyric>
        </note>
      </measure>
    <measure number="14" width="101.37">
      <note default-x="20.53" default-y="-25.00">
        <pitch>
          <step>A</step>
          <octave>4</octave>
          </pitch>
        <duration>2</duration>
        <voice>1</voice>
        <type>eighth</type>
        <stem>up</stem>
        <beam number="1">begin</beam>
        <lyric number="1" default-x="6.50" default-y="-45.14" relative-y="-30.00">
          <syllabic>begin</syllabic>
          <text>pus</text>
          </lyric>
        </note>
      <note default-x="53.17" default-y="-30.00">
        <pitch>
          <step>G</step>
          <octave>4</octave>
          </pitch>
        <duration>2</duration>
        <voice>1</voice>
        <type>eighth</type>
        <stem>up</stem>
        <beam number="1">end</beam>
        <lyric number="1" default-x="8.83" default-y="-45.14" relative-y="-30.00">
          <syllabic>end</syllabic>
          <text>ta,</text>
          </lyric>
        </note>
      <note>
        <rest/>
        <duration>4</duration>
        <voice>1</voice>
        <type>quarter</type>
        </note>
      </measure>
    <measure number="15" width="174.56">
      <print new-system="yes">
        <system-layout>
          <system-margins>
            <left-margin>0.00</left-margin>
            <right-margin>0.00</right-margin>
            </system-margins>
          <system-distance>150.00</system-distance>
          </system-layout>
        </print>
      <note default-x="76.71" default-y="-25.00">
        <pitch>
          <step>A</step>
          <octave>4</octave>
          </pitch>
        <duration>4</duration>
        <voice>1</voice>
        <type>quarter</type>
        <stem>up</stem>
        <lyric number="1" default-x="6.50" default-y="-49.76" relative-y="-30.00">
          <syllabic>begin</syllabic>
          <text>s͜krin</text>
          </lyric>
        </note>
      <note default-x="124.74" default-y="-30.00">
        <pitch>
          <step>G</step>
          <octave>4</octave>
          </pitch>
        <duration>4</duration>
        <voice>1</voice>
        <type>quarter</type>
        <stem>up</stem>
        <lyric number="1" default-x="9.02" default-y="-49.76" relative-y="-30.00">
          <syllabic>end</syllabic>
          <text>ko,</text>
          </lyric>
        </note>
      </measure>
    <measure number="16" width="191.78">
      <note default-x="28.31" default-y="-25.00">
        <pitch>
          <step>A</step>
          <octave>4</octave>
          </pitch>
        <duration>2</duration>
        <voice>1</voice>
        <type>eighth</type>
        <stem>down</stem>
        <beam number="1">begin</beam>
        <lyric number="1" default-x="6.50" default-y="-49.76" relative-y="-30.00">
          <syllabic>begin</syllabic>
          <text>s͜krin</text>
          </lyric>
        </note>
      <note default-x="70.07" default-y="-15.00">
        <pitch>
          <step>C</step>
          <octave>5</octave>
          </pitch>
        <duration>2</duration>
        <voice>1</voice>
        <type>eighth</type>
        <stem>down</stem>
        <beam number="1">end</beam>
        <lyric number="1" default-x="6.50" default-y="-49.76" relative-y="-30.00">
          <syllabic>end</syllabic>
          <text>ko</text>
          </lyric>
        </note>
      <note default-x="110.04" default-y="-30.00">
        <pitch>
          <step>G</step>
          <octave>4</octave>
          </pitch>
        <duration>2</duration>
        <voice>1</voice>
        <type>eighth</type>
        <stem>up</stem>
        <beam number="1">begin</beam>
        <lyric number="1" default-x="6.50" default-y="-49.76" relative-y="-30.00">
          <syllabic>begin</syllabic>
          <text>bo</text>
          </lyric>
        </note>
      <note default-x="150.01" default-y="-35.00">
        <pitch>
          <step>F</step>
          <octave>4</octave>
          </pitch>
        <duration>2</duration>
        <voice>1</voice>
        <type>eighth</type>
        <stem>up</stem>
        <beam number="1">end</beam>
        <lyric number="1" default-x="8.90" default-y="-49.76" relative-y="-30.00">
          <syllabic>end</syllabic>
          <text>mo,</text>
          </lyric>
        </note>
      </measure>
    <measure number="17" width="159.56">
      <note default-x="28.31" default-y="-20.00">
        <pitch>
          <step>B</step>
          <alter>-1</alter>
          <octave>4</octave>
          </pitch>
        <duration>2</duration>
        <voice>1</voice>
        <type>eighth</type>
        <stem>down</stem>
        <beam number="1">begin</beam>
        <lyric number="1" default-x="6.50" default-y="-49.76" relative-y="-30.00">
          <syllabic>begin</syllabic>
          <text>s͜krin</text>
          </lyric>
        </note>
      <note default-x="70.07" default-y="-20.00">
        <pitch>
          <step>B</step>
          <alter>-1</alter>
          <octave>4</octave>
          </pitch>
        <duration>2</duration>
        <voice>1</voice>
        <type>eighth</type>
        <stem>down</stem>
        <beam number="1">end</beam>
        <lyric number="1" default-x="6.50" default-y="-49.76" relative-y="-30.00">
          <syllabic>end</syllabic>
          <text>ko</text>
          </lyric>
        </note>
      <note default-x="99.30" default-y="-25.00">
        <pitch>
          <step>A</step>
          <octave>4</octave>
          </pitch>
        <duration>2</duration>
        <voice>1</voice>
        <type>eighth</type>
        <stem>up</stem>
        <beam number="1">begin</beam>
        <lyric number="1" default-x="6.50" default-y="-49.76" relative-y="-30.00">
          <syllabic>single</syllabic>
          <text>si</text>
          </lyric>
        </note>
      <note default-x="128.53" default-y="-30.00">
        <pitch>
          <step>G</step>
          <octave>4</octave>
          </pitch>
        <duration>2</duration>
        <voice>1</voice>
        <type>eighth</type>
        <stem>up</stem>
        <beam number="1">end</beam>
        <lyric number="1" default-x="6.50" default-y="-49.76" relative-y="-30.00">
          <syllabic>begin</syllabic>
          <text>o</text>
          </lyric>
        </note>
      </measure>
    <measure number="18" width="170.76">
      <note default-x="24.58" default-y="-25.00">
        <pitch>
          <step>A</step>
          <octave>4</octave>
          </pitch>
        <duration>2</duration>
        <voice>1</voice>
        <type>eighth</type>
        <stem>down</stem>
        <beam number="1">begin</beam>
        <lyric number="1" default-x="6.50" default-y="-49.76" relative-y="-30.00">
          <syllabic>end</syllabic>
          <text>braz</text>
          </lyric>
        </note>
      <note default-x="61.12" default-y="-15.00">
        <pitch>
          <step>C</step>
          <octave>5</octave>
          </pitch>
        <duration>2</duration>
        <voice>1</voice>
        <type>eighth</type>
        <stem>down</stem>
        <beam number="1">end</beam>
        <lyric number="1" default-x="6.50" default-y="-49.76" relative-y="-30.00">
          <syllabic>begin</syllabic>
          <text>za</text>
          </lyric>
        </note>
      <note default-x="97.67" default-y="-30.00">
        <pitch>
          <step>G</step>
          <octave>4</octave>
          </pitch>
        <duration>2</duration>
        <voice>1</voice>
        <type>eighth</type>
        <stem>up</stem>
        <beam number="1">begin</beam>
        <lyric number="1" default-x="6.50" default-y="-49.76" relative-y="-30.00">
          <syllabic>middle</syllabic>
          <text>kri</text>
          </lyric>
        </note>
      <note default-x="134.21" default-y="-35.00">
        <pitch>
          <step>F</step>
          <octave>4</octave>
          </pitch>
        <duration>2</duration>
        <voice>1</voice>
        <type>eighth</type>
        <stem>up</stem>
        <beam number="1">end</beam>
        <lyric number="1" default-x="8.86" default-y="-49.76" relative-y="-30.00">
          <syllabic>end</syllabic>
          <text>li,</text>
          </lyric>
        </note>
      </measure>
    <measure number="19" width="116.72">
      <barline location="left">
        <bar-style>heavy-light</bar-style>
        <repeat direction="forward"/>
        </barline>
      <note default-x="28.83" default-y="-25.00">
        <pitch>
          <step>A</step>
          <octave>4</octave>
          </pitch>
        <duration>4</duration>
        <voice>1</voice>
        <type>quarter</type>
        <stem>up</stem>
        <lyric number="1" default-x="6.50" default-y="-49.76" relative-y="-30.00">
          <syllabic>begin</syllabic>
          <text>še</text>
          </lyric>
        </note>
      <note default-x="71.88" default-y="-30.00">
        <pitch>
          <step>G</step>
          <octave>4</octave>
          </pitch>
        <duration>4</duration>
        <voice>1</voice>
        <type>quarter</type>
        <stem>up</stem>
        <lyric number="1" default-x="8.90" default-y="-49.76" relative-y="-30.00">
          <syllabic>end</syllabic>
          <text>me,</text>
          </lyric>
        </note>
      </measure>
    <measure number="20" width="95.89">
      <note default-x="13.53" default-y="-15.00">
        <pitch>
          <step>C</step>
          <octave>5</octave>
          </pitch>
        <duration>4</duration>
        <voice>1</voice>
        <type>quarter</type>
        <stem>down</stem>
        <lyric number="1" default-x="6.50" default-y="-49.76" relative-y="-30.00">
          <syllabic>begin</syllabic>
          <text>še</text>
          </lyric>
        </note>
      <note default-x="53.81" default-y="-25.00">
        <pitch>
          <step>A</step>
          <octave>4</octave>
          </pitch>
        <duration>4</duration>
        <voice>1</voice>
        <type>quarter</type>
        <stem>up</stem>
        <lyric number="1" default-x="6.50" default-y="-49.76" relative-y="-30.00">
          <syllabic>end</syllabic>
          <text>me</text>
          </lyric>
        </note>
      </measure>
    <measure number="21" width="168.22">
      <note>
        <rest/>
        <duration>4</duration>
        <voice>1</voice>
        <type>quarter</type>
        </note>
      <note default-x="52.04" default-y="-15.00">
        <pitch>
          <step>C</step>
          <octave>5</octave>
          </pitch>
        <duration>1</duration>
        <voice>1</voice>
        <type>16th</type>
        <stem>up</stem>
        <beam number="1">begin</beam>
        <beam number="2">begin</beam>
        <lyric number="1" default-x="6.50" default-y="-49.76" relative-y="-30.00">
          <syllabic>single</syllabic>
          <text>vset</text>
          </lyric>
        </note>
      <note default-x="84.47" default-y="-20.00">
        <pitch>
          <step>B</step>
          <alter>-1</alter>
          <octave>4</octave>
          </pitch>
        <duration>1</duration>
        <voice>1</voice>
        <type>16th</type>
        <stem>up</stem>
        <beam number="1">continue</beam>
        <beam number="2">continue</beam>
        <lyric number="1" default-x="6.50" default-y="-49.76" relative-y="-30.00">
          <syllabic>single</syllabic>
          <text>se</text>
          </lyric>
        </note>
      <note default-x="108.10" default-y="-25.00">
        <pitch>
          <step>A</step>
          <octave>4</octave>
          </pitch>
        <duration>1</duration>
        <voice>1</voice>
        <type>16th</type>
        <stem>up</stem>
        <beam number="1">continue</beam>
        <beam number="2">continue</beam>
        <lyric number="1" default-x="6.50" default-y="-49.76" relative-y="-30.00">
          <syllabic>begin</syllabic>
          <text>za</text>
          </lyric>
        </note>
      <note default-x="135.81" default-y="-30.00">
        <pitch>
          <step>G</step>
          <octave>4</octave>
          </pitch>
        <duration>1</duration>
        <voice>1</voice>
        <type>16th</type>
        <stem>up</stem>
        <beam number="1">end</beam>
        <beam number="2">end</beam>
        <lyric number="1" default-x="6.50" default-y="-49.76" relative-y="-30.00">
          <syllabic>middle</syllabic>
          <text>po</text>
          </lyric>
        </note>
      </measure>
    <measure number="22" width="323.89">
      <print new-system="yes">
        <system-layout>
          <system-margins>
            <left-margin>0.00</left-margin>
            <right-margin>753.60</right-margin>
            </system-margins>
          <system-distance>150.00</system-distance>
          </system-layout>
        </print>
      <note default-x="76.71" default-y="-35.00">
        <pitch>
          <step>F</step>
          <octave>4</octave>
          </pitch>
        <duration>2</duration>
        <voice>1</voice>
        <type>eighth</type>
        <stem>up</stem>
        <beam number="1">begin</beam>
        <lyric number="1" default-x="6.50" default-y="-40.00" relative-y="-30.00">
          <syllabic>middle</syllabic>
          <text>di</text>
          </lyric>
        </note>
      <note default-x="140.14" default-y="-35.00">
        <pitch>
          <step>F</step>
          <octave>4</octave>
          </pitch>
        <duration>2</duration>
        <voice>1</voice>
        <type>eighth</type>
        <stem>up</stem>
        <beam number="1">end</beam>
        <lyric number="1" default-x="8.80" default-y="-40.00" relative-y="-30.00">
          <syllabic>end</syllabic>
          <text>li!</text>
          </lyric>
        </note>
      <note>
        <rest/>
        <duration>4</duration>
        <voice>1</voice>
        <type>quarter</type>
        </note>
      <barline location="right">
        <bar-style>light-heavy</bar-style>
        <repeat direction="backward"/>
        </barline>
      </measure>
    </part>
  </score-partwise>
