<?xml version="1.0" encoding="UTF-8"?>
<!DOCTYPE score-partwise PUBLIC "-//Recordare//DTD MusicXML 3.1 Partwise//EN" "http://www.musicxml.org/dtds/partwise.dtd">
<score-partwise version="3.1">
  <work>
    <work-title>Stari mlin</work-title>
    </work>
  <identification>
    <creator type="composer">Jean Claude Gillers</creator>
    <creator type="lyricist">Jože Humer</creator>
    <encoding>
      <software>MuseScore 3.6.2</software>
      <encoding-date>2022-03-28</encoding-date>
      <supports element="accidental" type="yes"/>
      <supports element="beam" type="yes"/>
      <supports element="print" attribute="new-page" type="yes" value="yes"/>
      <supports element="print" attribute="new-system" type="yes" value="yes"/>
      <supports element="stem" type="yes"/>
      </encoding>
    </identification>
  <defaults>
    <scaling>
      <millimeters>7.05556</millimeters>
      <tenths>40</tenths>
      </scaling>
    <page-layout>
      <page-height>1683.36</page-height>
      <page-width>1190.88</page-width>
      <page-margins type="even">
        <left-margin>56.6929</left-margin>
        <right-margin>56.6929</right-margin>
        <top-margin>56.6929</top-margin>
        <bottom-margin>113.386</bottom-margin>
        </page-margins>
      <page-margins type="odd">
        <left-margin>56.6929</left-margin>
        <right-margin>56.6929</right-margin>
        <top-margin>56.6929</top-margin>
        <bottom-margin>113.386</bottom-margin>
        </page-margins>
      </page-layout>
    <word-font font-family="Edwin" font-size="10"/>
    <lyric-font font-family="Edwin" font-size="10"/>
    </defaults>
  <credit page="1">
    <credit-type>title</credit-type>
    <credit-words default-x="595.44" default-y="1626.67" justify="center" valign="top" font-size="22">Stari mlin</credit-words>
    </credit>
  <credit page="1">
    <credit-type>composer</credit-type>
    <credit-words default-x="1134.19" default-y="1526.67" justify="right" valign="bottom">Jean Claude Gillers</credit-words>
    </credit>
  <credit page="1">
    <credit-type>lyricist</credit-type>
    <credit-words default-x="56.6929" default-y="1526.67" justify="left" valign="bottom">Jože Humer</credit-words>
    </credit>
  <part-list>
    <score-part id="P1">
      <part-name>Piano</part-name>
      <part-abbreviation>Pno.</part-abbreviation>
      <score-instrument id="P1-I1">
        <instrument-name>Piano</instrument-name>
        </score-instrument>
      <midi-device id="P1-I1" port="1"></midi-device>
      <midi-instrument id="P1-I1">
        <midi-channel>1</midi-channel>
        <midi-program>1</midi-program>
        <volume>78.7402</volume>
        <pan>0</pan>
        </midi-instrument>
      </score-part>
    </part-list>
  <part id="P1">
    <measure number="0" implicit="yes" width="190.36">
      <print>
        <system-layout>
          <system-margins>
            <left-margin>0.00</left-margin>
            <right-margin>0.00</right-margin>
            </system-margins>
          <top-system-distance>170.00</top-system-distance>
          </system-layout>
        </print>
      <attributes>
        <divisions>2</divisions>
        <key>
          <fifths>1</fifths>
          </key>
        <time>
          <beats>2</beats>
          <beat-type>4</beat-type>
          </time>
        <clef>
          <sign>G</sign>
          <line>2</line>
          </clef>
        </attributes>
      <note default-x="100.48" default-y="-30.00">
        <pitch>
          <step>G</step>
          <octave>4</octave>
          </pitch>
        <duration>1</duration>
        <voice>1</voice>
        <type>eighth</type>
        <stem>up</stem>
        <beam number="1">begin</beam>
        <lyric number="1" default-x="-14.67" default-y="-52.58" relative-y="-30.00">
          <syllabic>single</syllabic>
          <text>1.Bel</text>
          </lyric>
        <lyric number="2" default-x="-15.97" default-y="-76.55" relative-y="-30.00">
          <syllabic>begin</syllabic>
          <text>2.Be</text>
          </lyric>
        </note>
      <note default-x="144.52" default-y="-35.00">
        <pitch>
          <step>F</step>
          <alter>1</alter>
          <octave>4</octave>
          </pitch>
        <duration>1</duration>
        <voice>1</voice>
        <type>eighth</type>
        <stem>up</stem>
        <beam number="1">end</beam>
        <lyric number="1" default-x="6.50" default-y="-52.58" relative-y="-30.00">
          <syllabic>begin</syllabic>
          <text>po</text>
          </lyric>
        <lyric number="2" default-x="6.50" default-y="-76.55" relative-y="-30.00">
          <syllabic>end</syllabic>
          <text>le</text>
          </lyric>
        </note>
      </measure>
    <measure number="1" width="180.39">
      <note default-x="14.70" default-y="-30.00">
        <pitch>
          <step>G</step>
          <octave>4</octave>
          </pitch>
        <duration>1</duration>
        <voice>1</voice>
        <type>eighth</type>
        <stem>up</stem>
        <beam number="1">begin</beam>
        <lyric number="1" default-x="6.50" default-y="-52.58" relative-y="-30.00">
          <syllabic>middle</syllabic>
          <text>to</text>
          </lyric>
        <lyric number="2" default-x="6.50" default-y="-76.55" relative-y="-30.00">
          <syllabic>begin</syllabic>
          <text>vo</text>
          </lyric>
        </note>
      <note default-x="55.67" default-y="-40.00">
        <pitch>
          <step>E</step>
          <octave>4</octave>
          </pitch>
        <duration>1</duration>
        <voice>1</voice>
        <type>eighth</type>
        <stem>up</stem>
        <beam number="1">end</beam>
        <lyric number="1" default-x="6.50" default-y="-52.58" relative-y="-30.00">
          <syllabic>end</syllabic>
          <text>ček</text>
          </lyric>
        <lyric number="2" default-x="6.50" default-y="-76.55" relative-y="-30.00">
          <syllabic>end</syllabic>
          <text>de</text>
          </lyric>
        </note>
      <note default-x="96.64" default-y="-45.00">
        <pitch>
          <step>D</step>
          <alter>1</alter>
          <octave>4</octave>
          </pitch>
        <duration>1</duration>
        <voice>1</voice>
        <type>eighth</type>
        <accidental>sharp</accidental>
        <stem>up</stem>
        <beam number="1">begin</beam>
        <lyric number="1" default-x="6.50" default-y="-52.58" relative-y="-30.00">
          <syllabic>begin</syllabic>
          <text>po</text>
          </lyric>
        <lyric number="2" default-x="6.50" default-y="-76.55" relative-y="-30.00">
          <syllabic>single</syllabic>
          <text>se</text>
          </lyric>
        </note>
      <note default-x="137.62" default-y="-40.00">
        <pitch>
          <step>E</step>
          <octave>4</octave>
          </pitch>
        <duration>1</duration>
        <voice>1</voice>
        <type>eighth</type>
        <stem>up</stem>
        <beam number="1">end</beam>
        <lyric number="1" default-x="6.50" default-y="-52.58" relative-y="-30.00">
          <syllabic>middle</syllabic>
          <text>šu</text>
          </lyric>
        <lyric number="2" default-x="6.50" default-y="-76.55" relative-y="-30.00">
          <syllabic>begin</syllabic>
          <text>pe</text>
          </lyric>
        </note>
      </measure>
    <measure number="2" width="203.03">
      <note default-x="18.07" default-y="-35.00">
        <pitch>
          <step>F</step>
          <alter>1</alter>
          <octave>4</octave>
          </pitch>
        <duration>1</duration>
        <voice>1</voice>
        <type>eighth</type>
        <stem>up</stem>
        <beam number="1">begin</beam>
        <lyric number="1" default-x="6.50" default-y="-52.58" relative-y="-30.00">
          <syllabic>middle</syllabic>
          <text>me</text>
          </lyric>
        <lyric number="2" default-x="6.50" default-y="-76.55" relative-y="-30.00">
          <syllabic>middle</syllabic>
          <text>ni</text>
          </lyric>
        </note>
      <note default-x="63.86" default-y="-55.00">
        <pitch>
          <step>B</step>
          <octave>3</octave>
          </pitch>
        <duration>1</duration>
        <voice>1</voice>
        <type>eighth</type>
        <stem>up</stem>
        <beam number="1">end</beam>
        <lyric number="1" default-x="8.92" default-y="-52.58" relative-y="-30.00">
          <syllabic>end</syllabic>
          <text>va,</text>
          </lyric>
        <lyric number="2" default-x="7.85" default-y="-76.55" relative-y="-30.00">
          <syllabic>end</syllabic>
          <text>jo,</text>
          </lyric>
        </note>
      <note default-x="109.65" default-y="-30.00">
        <pitch>
          <step>G</step>
          <octave>4</octave>
          </pitch>
        <duration>1</duration>
        <voice>1</voice>
        <type>eighth</type>
        <stem>up</stem>
        <beam number="1">begin</beam>
        <lyric number="1" default-x="6.50" default-y="-52.58" relative-y="-30.00">
          <syllabic>single</syllabic>
          <text>pod</text>
          </lyric>
        <lyric number="2" default-x="6.50" default-y="-76.55" relative-y="-30.00">
          <syllabic>begin</syllabic>
          <text>ka</text>
          </lyric>
        </note>
      <note default-x="155.44" default-y="-25.00">
        <pitch>
          <step>A</step>
          <octave>4</octave>
          </pitch>
        <duration>1</duration>
        <voice>1</voice>
        <type>eighth</type>
        <stem>up</stem>
        <beam number="1">end</beam>
        <lyric number="1" default-x="6.50" default-y="-52.58" relative-y="-30.00">
          <syllabic>begin</syllabic>
          <text>pla</text>
          </lyric>
        <lyric number="2" default-x="6.50" default-y="-76.55" relative-y="-30.00">
          <syllabic>end</syllabic>
          <text>dar</text>
          </lyric>
        </note>
      </measure>
    <measure number="3" width="105.45">
      <note default-x="14.87" default-y="-20.00">
        <pitch>
          <step>B</step>
          <octave>4</octave>
          </pitch>
        <duration>2</duration>
        <voice>1</voice>
        <type>quarter</type>
        <stem>down</stem>
        <lyric number="1" default-x="6.50" default-y="-52.58" relative-y="-30.00">
          <syllabic>middle</syllabic>
          <text>ni</text>
          </lyric>
        <lyric number="2" default-x="6.50" default-y="-76.55" relative-y="-30.00">
          <syllabic>begin</syllabic>
          <text>po</text>
          </lyric>
        </note>
      <note default-x="59.26" default-y="-25.00">
        <pitch>
          <step>A</step>
          <octave>4</octave>
          </pitch>
        <duration>2</duration>
        <voice>1</voice>
        <type>quarter</type>
        <stem>up</stem>
        <lyric number="1" default-x="6.50" default-y="-52.58" relative-y="-30.00">
          <syllabic>end</syllabic>
          <text>ni</text>
          </lyric>
        <lyric number="2" default-x="6.50" default-y="-76.55" relative-y="-30.00">
          <syllabic>end</syllabic>
          <text>je</text>
          </lyric>
        </note>
      </measure>
    <measure number="4" width="172.47">
      <note default-x="25.59" default-y="-30.00">
        <pitch>
          <step>G</step>
          <octave>4</octave>
          </pitch>
        <duration>2</duration>
        <voice>1</voice>
        <type>quarter</type>
        <stem>up</stem>
        <lyric number="1" default-x="8.65" default-y="-52.58" relative-y="-30.00">
          <syllabic>single</syllabic>
          <text>tam.</text>
          </lyric>
        <lyric number="2" default-x="8.71" default-y="-76.55" relative-y="-30.00">
          <syllabic>single</syllabic>
          <text>mlin.</text>
          </lyric>
        </note>
      <note default-x="90.07" default-y="-30.00">
        <pitch>
          <step>G</step>
          <octave>4</octave>
          </pitch>
        <duration>1</duration>
        <voice>1</voice>
        <type>eighth</type>
        <stem>up</stem>
        <beam number="1">begin</beam>
        <lyric number="1" default-x="6.50" default-y="-52.58" relative-y="-30.00">
          <syllabic>begin</syllabic>
          <text>Sta</text>
          </lyric>
        <lyric number="2" default-x="6.50" default-y="-76.55" relative-y="-30.00">
          <syllabic>begin</syllabic>
          <text>Zla</text>
          </lyric>
        </note>
      <note default-x="130.37" default-y="-35.00">
        <pitch>
          <step>F</step>
          <alter>1</alter>
          <octave>4</octave>
          </pitch>
        <duration>1</duration>
        <voice>1</voice>
        <type>eighth</type>
        <stem>up</stem>
        <beam number="1">end</beam>
        <lyric number="1" default-x="6.50" default-y="-52.58" relative-y="-30.00">
          <syllabic>end</syllabic>
          <text>ri</text>
          </lyric>
        <lyric number="2" default-x="6.50" default-y="-76.55" relative-y="-30.00">
          <syllabic>end</syllabic>
          <text>ta</text>
          </lyric>
        </note>
      </measure>
    <measure number="5" width="225.80">
      <note default-x="25.64" default-y="-30.00">
        <pitch>
          <step>G</step>
          <octave>4</octave>
          </pitch>
        <duration>1</duration>
        <voice>1</voice>
        <type>eighth</type>
        <stem>up</stem>
        <beam number="1">begin</beam>
        <lyric number="1" default-x="6.50" default-y="-52.58" relative-y="-30.00">
          <syllabic>single</syllabic>
          <text>mlin</text>
          </lyric>
        <lyric number="2" default-x="6.50" default-y="-76.55" relative-y="-30.00">
          <syllabic>begin</syllabic>
          <text>zr</text>
          </lyric>
        </note>
      <note default-x="75.23" default-y="-40.00">
        <pitch>
          <step>E</step>
          <octave>4</octave>
          </pitch>
        <duration>1</duration>
        <voice>1</voice>
        <type>eighth</type>
        <stem>up</stem>
        <beam number="1">end</beam>
        <lyric number="1" default-x="6.50" default-y="-52.58" relative-y="-30.00">
          <syllabic>single</syllabic>
          <text>od</text>
          </lyric>
        <lyric number="2" default-x="6.50" default-y="-76.55" relative-y="-30.00">
          <syllabic>end</syllabic>
          <text>na</text>
          </lyric>
        </note>
      <note default-x="124.82" default-y="-45.00">
        <pitch>
          <step>D</step>
          <alter>1</alter>
          <octave>4</octave>
          </pitch>
        <duration>1</duration>
        <voice>1</voice>
        <type>eighth</type>
        <accidental>sharp</accidental>
        <stem>up</stem>
        <beam number="1">begin</beam>
        <lyric number="1" default-x="6.50" default-y="-52.58" relative-y="-30.00">
          <syllabic>single</syllabic>
          <text>njem</text>
          </lyric>
        <lyric number="2" default-x="6.50" default-y="-76.55" relative-y="-30.00">
          <syllabic>single</syllabic>
          <text>se</text>
          </lyric>
        </note>
      <note default-x="174.41" default-y="-40.00">
        <pitch>
          <step>E</step>
          <octave>4</octave>
          </pitch>
        <duration>1</duration>
        <voice>1</voice>
        <type>eighth</type>
        <stem>up</stem>
        <beam number="1">end</beam>
        <lyric number="1" default-x="6.50" default-y="-52.58" relative-y="-30.00">
          <syllabic>begin</syllabic>
          <text>sa</text>
          </lyric>
        <lyric number="2" default-x="6.50" default-y="-76.55" relative-y="-30.00">
          <syllabic>begin</syllabic>
          <text>dro</text>
          </lyric>
        </note>
      </measure>
    <measure number="6" width="249.91">
      <print new-system="yes">
        <system-layout>
          <system-margins>
            <left-margin>0.00</left-margin>
            <right-margin>0.00</right-margin>
            </system-margins>
          <system-distance>150.00</system-distance>
          </system-layout>
        </print>
      <direction placement="below">
        <direction-type>
          <words default-y="-128.02" valign="top">Bel potoček pošumeva,
</words>
          <words>pod planino tam.
</words>
          <words>Stari mlin ob njem sameva,
</words>
          <words>pod planino tam.
</words>
          <words>Pa hrešči, da kar od meva,
</words>
          <words>pod planino tam.
</words>
          <words>
</words>
          <words>Bele vode se penijo,
</words>
          <words>kadar poje mlin. 
</words>
          <words>Zlata zrna se drobijo,
</words>
          <words>kadar poje mlin.
</words>
          <words>Lica mlinarju žarijo, 
</words>
          <words>kadar poje mlin.
</words>
          <words></words>
          </direction-type>
        </direction>
      <note default-x="78.35" default-y="-35.00">
        <pitch>
          <step>F</step>
          <alter>1</alter>
          <octave>4</octave>
          </pitch>
        <duration>1</duration>
        <voice>1</voice>
        <type>eighth</type>
        <stem>up</stem>
        <beam number="1">begin</beam>
        <lyric number="1" default-x="6.50" default-y="-50.02" relative-y="-30.00">
          <syllabic>middle</syllabic>
          <text>me</text>
          </lyric>
        <lyric number="2" default-x="6.50" default-y="-73.99" relative-y="-30.00">
          <syllabic>middle</syllabic>
          <text>bi</text>
          </lyric>
        </note>
      <note default-x="120.79" default-y="-55.00">
        <pitch>
          <step>B</step>
          <octave>3</octave>
          </pitch>
        <duration>1</duration>
        <voice>1</voice>
        <type>eighth</type>
        <stem>up</stem>
        <beam number="1">end</beam>
        <lyric number="1" default-x="8.92" default-y="-50.02" relative-y="-30.00">
          <syllabic>end</syllabic>
          <text>va,</text>
          </lyric>
        <lyric number="2" default-x="7.85" default-y="-73.99" relative-y="-30.00">
          <syllabic>end</syllabic>
          <text>jo,</text>
          </lyric>
        </note>
      <note default-x="163.23" default-y="-30.00">
        <pitch>
          <step>G</step>
          <octave>4</octave>
          </pitch>
        <duration>1</duration>
        <voice>1</voice>
        <type>eighth</type>
        <stem>up</stem>
        <beam number="1">begin</beam>
        <lyric number="1" default-x="6.50" default-y="-50.02" relative-y="-30.00">
          <syllabic>single</syllabic>
          <text>pod</text>
          </lyric>
        <lyric number="2" default-x="6.50" default-y="-73.99" relative-y="-30.00">
          <syllabic>begin</syllabic>
          <text>ka</text>
          </lyric>
        </note>
      <note default-x="205.67" default-y="-25.00">
        <pitch>
          <step>A</step>
          <octave>4</octave>
          </pitch>
        <duration>1</duration>
        <voice>1</voice>
        <type>eighth</type>
        <stem>up</stem>
        <beam number="1">end</beam>
        <lyric number="1" default-x="6.50" default-y="-50.02" relative-y="-30.00">
          <syllabic>begin</syllabic>
          <text>pla</text>
          </lyric>
        <lyric number="2" default-x="6.50" default-y="-73.99" relative-y="-30.00">
          <syllabic>end</syllabic>
          <text>dar</text>
          </lyric>
        </note>
      </measure>
    <measure number="7" width="95.94">
      <note default-x="14.87" default-y="-20.00">
        <pitch>
          <step>B</step>
          <octave>4</octave>
          </pitch>
        <duration>2</duration>
        <voice>1</voice>
        <type>quarter</type>
        <stem>down</stem>
        <lyric number="1" default-x="6.50" default-y="-50.02" relative-y="-30.00">
          <syllabic>middle</syllabic>
          <text>ni</text>
          </lyric>
        <lyric number="2" default-x="6.50" default-y="-73.99" relative-y="-30.00">
          <syllabic>begin</syllabic>
          <text>po</text>
          </lyric>
        </note>
      <note default-x="54.51" default-y="-25.00">
        <pitch>
          <step>A</step>
          <octave>4</octave>
          </pitch>
        <duration>2</duration>
        <voice>1</voice>
        <type>quarter</type>
        <stem>up</stem>
        <lyric number="1" default-x="6.50" default-y="-50.02" relative-y="-30.00">
          <syllabic>end</syllabic>
          <text>no</text>
          </lyric>
        <lyric number="2" default-x="6.50" default-y="-73.99" relative-y="-30.00">
          <syllabic>end</syllabic>
          <text>je</text>
          </lyric>
        </note>
      </measure>
    <measure number="8" width="165.02">
      <note default-x="25.59" default-y="-30.00">
        <pitch>
          <step>G</step>
          <octave>4</octave>
          </pitch>
        <duration>2</duration>
        <voice>1</voice>
        <type>quarter</type>
        <stem>up</stem>
        <lyric number="1" default-x="8.65" default-y="-50.02" relative-y="-30.00">
          <syllabic>single</syllabic>
          <text>tam.</text>
          </lyric>
        <lyric number="2" default-x="8.71" default-y="-73.99" relative-y="-30.00">
          <syllabic>single</syllabic>
          <text>mlin.</text>
          </lyric>
        </note>
      <note default-x="86.76" default-y="-35.00">
        <pitch>
          <step>F</step>
          <alter>1</alter>
          <octave>4</octave>
          </pitch>
        <duration>1</duration>
        <voice>1</voice>
        <type>eighth</type>
        <stem>up</stem>
        <beam number="1">begin</beam>
        <lyric number="1" default-x="6.50" default-y="-50.02" relative-y="-30.00">
          <syllabic>single</syllabic>
          <text>Pa</text>
          </lyric>
        <lyric number="2" default-x="6.50" default-y="-73.99" relative-y="-30.00">
          <syllabic>begin</syllabic>
          <text>Li</text>
          </lyric>
        </note>
      <note default-x="124.99" default-y="-30.00">
        <pitch>
          <step>G</step>
          <octave>4</octave>
          </pitch>
        <duration>1</duration>
        <voice>1</voice>
        <type>eighth</type>
        <stem>up</stem>
        <beam number="1">end</beam>
        <lyric number="1" default-x="6.50" default-y="-50.02" relative-y="-30.00">
          <syllabic>begin</syllabic>
          <text>hre</text>
          </lyric>
        <lyric number="2" default-x="6.50" default-y="-73.99" relative-y="-30.00">
          <syllabic>end</syllabic>
          <text>ca</text>
          </lyric>
        </note>
      </measure>
    <measure number="9" width="191.14">
      <note default-x="19.45" default-y="-25.00">
        <pitch>
          <step>A</step>
          <octave>4</octave>
          </pitch>
        <duration>1</duration>
        <voice>1</voice>
        <type>eighth</type>
        <stem>up</stem>
        <beam number="1">begin</beam>
        <lyric number="1" default-x="9.18" default-y="-50.02" relative-y="-30.00">
          <syllabic>end</syllabic>
          <text>šči,</text>
          </lyric>
        <lyric number="2" default-x="6.50" default-y="-73.99" relative-y="-30.00">
          <syllabic>begin</syllabic>
          <text>mli</text>
          </lyric>
        </note>
      <note default-x="61.92" default-y="-30.00">
        <pitch>
          <step>G</step>
          <octave>4</octave>
          </pitch>
        <duration>1</duration>
        <voice>1</voice>
        <type>eighth</type>
        <stem>up</stem>
        <beam number="1">end</beam>
        <lyric number="1" default-x="6.50" default-y="-50.02" relative-y="-30.00">
          <syllabic>single</syllabic>
          <text>da</text>
          </lyric>
        <lyric number="2" default-x="6.50" default-y="-73.99" relative-y="-30.00">
          <syllabic>middle</syllabic>
          <text>nar</text>
          </lyric>
        </note>
      <note default-x="104.39" default-y="-35.00">
        <pitch>
          <step>F</step>
          <alter>1</alter>
          <octave>4</octave>
          </pitch>
        <duration>1</duration>
        <voice>1</voice>
        <type>eighth</type>
        <stem>up</stem>
        <beam number="1">begin</beam>
        <lyric number="1" default-x="6.50" default-y="-50.02" relative-y="-30.00">
          <syllabic>single</syllabic>
          <text>kar</text>
          </lyric>
        <lyric number="2" default-x="6.50" default-y="-73.99" relative-y="-30.00">
          <syllabic>end</syllabic>
          <text>ju</text>
          </lyric>
        </note>
      <note default-x="146.86" default-y="-40.00">
        <pitch>
          <step>E</step>
          <octave>4</octave>
          </pitch>
        <duration>1</duration>
        <voice>1</voice>
        <type>eighth</type>
        <stem>up</stem>
        <beam number="1">end</beam>
        <lyric number="1" default-x="6.50" default-y="-50.02" relative-y="-30.00">
          <syllabic>begin</syllabic>
          <text>od</text>
          </lyric>
        <lyric number="2" default-x="6.50" default-y="-73.99" relative-y="-30.00">
          <syllabic>begin</syllabic>
          <text>ža</text>
          </lyric>
        </note>
      </measure>
    <measure number="10" width="189.62">
      <note default-x="18.07" default-y="-35.00">
        <pitch>
          <step>F</step>
          <alter>1</alter>
          <octave>4</octave>
          </pitch>
        <duration>1</duration>
        <voice>1</voice>
        <type>eighth</type>
        <stem>up</stem>
        <beam number="1">begin</beam>
        <lyric number="1" default-x="6.50" default-y="-50.02" relative-y="-30.00">
          <syllabic>middle</syllabic>
          <text>me</text>
          </lyric>
        <lyric number="2" default-x="6.50" default-y="-73.99" relative-y="-30.00">
          <syllabic>middle</syllabic>
          <text>ri</text>
          </lyric>
        </note>
      <note default-x="60.51" default-y="-55.00">
        <pitch>
          <step>B</step>
          <octave>3</octave>
          </pitch>
        <duration>1</duration>
        <voice>1</voice>
        <type>eighth</type>
        <stem>up</stem>
        <beam number="1">end</beam>
        <lyric number="1" default-x="8.92" default-y="-50.02" relative-y="-30.00">
          <syllabic>end</syllabic>
          <text>va,</text>
          </lyric>
        <lyric number="2" default-x="7.85" default-y="-73.99" relative-y="-30.00">
          <syllabic>end</syllabic>
          <text>jo,</text>
          </lyric>
        </note>
      <note default-x="102.95" default-y="-20.00">
        <pitch>
          <step>B</step>
          <octave>4</octave>
          </pitch>
        <duration>1</duration>
        <voice>1</voice>
        <type>eighth</type>
        <stem>up</stem>
        <beam number="1">begin</beam>
        <lyric number="1" default-x="6.50" default-y="-50.02" relative-y="-30.00">
          <syllabic>single</syllabic>
          <text>pod</text>
          </lyric>
        <lyric number="2" default-x="6.50" default-y="-73.99" relative-y="-30.00">
          <syllabic>begin</syllabic>
          <text>ka</text>
          </lyric>
        </note>
      <note default-x="145.39" default-y="-25.00">
        <pitch>
          <step>A</step>
          <octave>4</octave>
          </pitch>
        <duration>1</duration>
        <voice>1</voice>
        <type>eighth</type>
        <stem>up</stem>
        <beam number="1">end</beam>
        <lyric number="1" default-x="6.50" default-y="-50.02" relative-y="-30.00">
          <syllabic>begin</syllabic>
          <text>pla</text>
          </lyric>
        <lyric number="2" default-x="6.50" default-y="-73.99" relative-y="-30.00">
          <syllabic>end</syllabic>
          <text>dar</text>
          </lyric>
        </note>
      </measure>
    <measure number="11" width="95.94">
      <note default-x="14.87" default-y="-30.00">
        <pitch>
          <step>G</step>
          <octave>4</octave>
          </pitch>
        <duration>2</duration>
        <voice>1</voice>
        <type>quarter</type>
        <stem>up</stem>
        <lyric number="1" default-x="6.50" default-y="-50.02" relative-y="-30.00">
          <syllabic>middle</syllabic>
          <text>ni</text>
          </lyric>
        <lyric number="2" default-x="6.50" default-y="-73.99" relative-y="-30.00">
          <syllabic>begin</syllabic>
          <text>po</text>
          </lyric>
        </note>
      <note default-x="54.51" default-y="-35.00">
        <pitch>
          <step>F</step>
          <alter>1</alter>
          <octave>4</octave>
          </pitch>
        <duration>2</duration>
        <voice>1</voice>
        <type>quarter</type>
        <stem>up</stem>
        <lyric number="1" default-x="6.50" default-y="-50.02" relative-y="-30.00">
          <syllabic>end</syllabic>
          <text>no</text>
          </lyric>
        <lyric number="2" default-x="6.50" default-y="-73.99" relative-y="-30.00">
          <syllabic>end</syllabic>
          <text>je</text>
          </lyric>
        </note>
      </measure>
    <measure number="12" width="89.92">
      <note default-x="25.59" default-y="-40.00">
        <pitch>
          <step>E</step>
          <octave>4</octave>
          </pitch>
        <duration>2</duration>
        <voice>1</voice>
        <type>quarter</type>
        <stem>up</stem>
        <lyric number="1" default-x="8.65" default-y="-50.02" relative-y="-30.00">
          <syllabic>single</syllabic>
          <text>tam.</text>
          </lyric>
        <lyric number="2" default-x="8.71" default-y="-73.99" relative-y="-30.00">
          <syllabic>single</syllabic>
          <text>mlin.</text>
          </lyric>
        </note>
      <barline location="right">
        <bar-style>light-heavy</bar-style>
        </barline>
      </measure>
    </part>
  </score-partwise>
