<?xml version="1.0" encoding="UTF-8"?>
<!DOCTYPE score-partwise PUBLIC "-//Recordare//DTD MusicXML 3.1 Partwise//EN" "http://www.musicxml.org/dtds/partwise.dtd">
<score-partwise version="3.1">
  <work>
    <work-title>Šuštar je srako klal</work-title>
    </work>
  <identification>
    <encoding>
      <software>MuseScore 3.6.2</software>
      <encoding-date>2022-03-28</encoding-date>
      <supports element="accidental" type="yes"/>
      <supports element="beam" type="yes"/>
      <supports element="print" attribute="new-page" type="yes" value="yes"/>
      <supports element="print" attribute="new-system" type="yes" value="yes"/>
      <supports element="stem" type="yes"/>
      </encoding>
    </identification>
  <defaults>
    <scaling>
      <millimeters>7.05556</millimeters>
      <tenths>40</tenths>
      </scaling>
    <page-layout>
      <page-height>1683.36</page-height>
      <page-width>1190.88</page-width>
      <page-margins type="even">
        <left-margin>56.6929</left-margin>
        <right-margin>56.6929</right-margin>
        <top-margin>56.6929</top-margin>
        <bottom-margin>113.386</bottom-margin>
        </page-margins>
      <page-margins type="odd">
        <left-margin>56.6929</left-margin>
        <right-margin>56.6929</right-margin>
        <top-margin>56.6929</top-margin>
        <bottom-margin>113.386</bottom-margin>
        </page-margins>
      </page-layout>
    <word-font font-family="Edwin" font-size="10"/>
    <lyric-font font-family="Edwin" font-size="10"/>
    </defaults>
  <credit page="1">
    <credit-type>title</credit-type>
    <credit-words default-x="595.44" default-y="1626.67" justify="center" valign="top" font-size="22">Šuštar je srako klal</credit-words>
    </credit>
  <credit page="1">
    <credit-type>subtitle</credit-type>
    <credit-words default-x="595.44" default-y="1569.97" justify="center" valign="top" font-size="16">Koroška ljudska
</credit-words>
    <credit-words>Ciciban, maj 1999</credit-words>
    </credit>
  <credit page="1">
    <credit-type>composer</credit-type>
    <credit-words default-x="1134.19" default-y="1526.67" justify="right" valign="bottom">Igor Cvetko</credit-words>
    </credit>
  <part-list>
    <score-part id="P1">
      <part-name>Piano</part-name>
      <part-abbreviation>Pno.</part-abbreviation>
      <score-instrument id="P1-I1">
        <instrument-name>Piano</instrument-name>
        </score-instrument>
      <midi-device id="P1-I1" port="1"></midi-device>
      <midi-instrument id="P1-I1">
        <midi-channel>1</midi-channel>
        <midi-program>1</midi-program>
        <volume>78.7402</volume>
        <pan>0</pan>
        </midi-instrument>
      </score-part>
    </part-list>
  <part id="P1">
    <measure number="1" width="226.50">
      <print>
        <system-layout>
          <system-margins>
            <left-margin>0.00</left-margin>
            <right-margin>-0.00</right-margin>
            </system-margins>
          <top-system-distance>170.00</top-system-distance>
          </system-layout>
        </print>
      <attributes>
        <divisions>1</divisions>
        <key>
          <fifths>1</fifths>
          </key>
        <time>
          <beats>3</beats>
          <beat-type>4</beat-type>
          </time>
        <clef>
          <sign>G</sign>
          <line>2</line>
          </clef>
        </attributes>
      <note default-x="100.48" default-y="-30.00">
        <pitch>
          <step>G</step>
          <octave>4</octave>
          </pitch>
        <duration>1</duration>
        <voice>1</voice>
        <type>quarter</type>
        <stem>up</stem>
        <lyric number="1" default-x="6.50" default-y="-46.54" relative-y="-30.00">
          <syllabic>begin</syllabic>
          <text>Šuš</text>
          </lyric>
        <lyric number="2" default-x="6.50" default-y="-70.51" relative-y="-30.00">
          <syllabic>single</syllabic>
          <text>Kam</text>
          </lyric>
        </note>
      <note default-x="141.89" default-y="-30.00">
        <pitch>
          <step>G</step>
          <octave>4</octave>
          </pitch>
        <duration>1</duration>
        <voice>1</voice>
        <type>quarter</type>
        <stem>up</stem>
        <lyric number="1" default-x="6.50" default-y="-46.54" relative-y="-30.00">
          <syllabic>end</syllabic>
          <text>tar</text>
          </lyric>
        <lyric number="2" default-x="6.50" default-y="-70.51" relative-y="-30.00">
          <syllabic>single</syllabic>
          <text>pa</text>
          </lyric>
        </note>
      <note default-x="183.29" default-y="-45.00">
        <pitch>
          <step>D</step>
          <octave>4</octave>
          </pitch>
        <duration>1</duration>
        <voice>1</voice>
        <type>quarter</type>
        <stem>up</stem>
        <lyric number="1" default-x="6.50" default-y="-46.54" relative-y="-30.00">
          <syllabic>single</syllabic>
          <text>ke</text>
          </lyric>
        <lyric number="2" default-x="6.50" default-y="-70.51" relative-y="-30.00">
          <syllabic>single</syllabic>
          <text>je</text>
          </lyric>
        </note>
      </measure>
    <measure number="2" width="185.09">
      <note default-x="28.69" default-y="-20.00">
        <pitch>
          <step>B</step>
          <octave>4</octave>
          </pitch>
        <duration>1</duration>
        <voice>1</voice>
        <type>quarter</type>
        <stem>down</stem>
        <lyric number="1" default-x="6.50" default-y="-46.54" relative-y="-30.00">
          <syllabic>begin</syllabic>
          <text>sta</text>
          </lyric>
        <lyric number="2" default-x="6.50" default-y="-70.51" relative-y="-30.00">
          <syllabic>begin</syllabic>
          <text>kljun</text>
          </lyric>
        </note>
      <note default-x="80.22" default-y="-20.00">
        <pitch>
          <step>B</step>
          <octave>4</octave>
          </pitch>
        <duration>1</duration>
        <voice>1</voice>
        <type>quarter</type>
        <stem>down</stem>
        <lyric number="1" default-x="6.50" default-y="-46.54" relative-y="-30.00">
          <syllabic>end</syllabic>
          <text>ko</text>
          </lyric>
        <lyric number="2" default-x="6.50" default-y="-70.51" relative-y="-30.00">
          <syllabic>end</syllabic>
          <text>ček</text>
          </lyric>
        </note>
      <note default-x="131.76" default-y="-30.00">
        <pitch>
          <step>G</step>
          <octave>4</octave>
          </pitch>
        <duration>1</duration>
        <voice>1</voice>
        <type>quarter</type>
        <stem>up</stem>
        <lyric number="1" default-x="8.65" default-y="-46.54" relative-y="-30.00">
          <syllabic>single</syllabic>
          <text>klal,</text>
          </lyric>
        <lyric number="2" default-x="9.14" default-y="-70.51" relative-y="-30.00">
          <syllabic>single</syllabic>
          <text>dal,</text>
          </lyric>
        </note>
      </measure>
    <measure number="3" width="137.78">
      <note default-x="14.47" default-y="-25.00">
        <pitch>
          <step>A</step>
          <octave>4</octave>
          </pitch>
        <duration>1</duration>
        <voice>1</voice>
        <type>quarter</type>
        <stem>up</stem>
        <lyric number="1" default-x="6.50" default-y="-46.54" relative-y="-30.00">
          <syllabic>begin</syllabic>
          <text>ju</text>
          </lyric>
        <lyric number="2" default-x="6.50" default-y="-70.51" relative-y="-30.00">
          <syllabic>begin</syllabic>
          <text>ju</text>
          </lyric>
        </note>
      <note default-x="54.97" default-y="-25.00">
        <pitch>
          <step>A</step>
          <octave>4</octave>
          </pitch>
        <duration>1</duration>
        <voice>1</voice>
        <type>quarter</type>
        <stem>up</stem>
        <lyric number="1" default-x="6.50" default-y="-46.54" relative-y="-30.00">
          <syllabic>middle</syllabic>
          <text>hu</text>
          </lyric>
        <lyric number="2" default-x="6.50" default-y="-70.51" relative-y="-30.00">
          <syllabic>middle</syllabic>
          <text>hu</text>
          </lyric>
        </note>
      <note default-x="95.48" default-y="-35.00">
        <pitch>
          <step>F</step>
          <alter>1</alter>
          <octave>4</octave>
          </pitch>
        <duration>1</duration>
        <voice>1</voice>
        <type>quarter</type>
        <stem>up</stem>
        <lyric number="1" default-x="8.82" default-y="-46.54" relative-y="-30.00">
          <syllabic>end</syllabic>
          <text>hu,</text>
          </lyric>
        <lyric number="2" default-x="8.82" default-y="-70.51" relative-y="-30.00">
          <syllabic>end</syllabic>
          <text>hu,</text>
          </lyric>
        </note>
      </measure>
    <measure number="4" width="91.75">
      <note default-x="16.67" default-y="-30.00">
        <pitch>
          <step>G</step>
          <octave>4</octave>
          </pitch>
        <duration>2</duration>
        <voice>1</voice>
        <type>half</type>
        <stem>up</stem>
        <lyric number="1" default-x="8.64" default-y="-46.54" relative-y="-30.00">
          <syllabic>single</syllabic>
          <text>hu.</text>
          </lyric>
        <lyric number="2" default-x="10.76" default-y="-70.51" relative-y="-30.00">
          <syllabic>single</syllabic>
          <text>hu?</text>
          </lyric>
        </note>
      <note>
        <rest/>
        <duration>1</duration>
        <voice>1</voice>
        <type>quarter</type>
        </note>
      <barline location="right">
        <bar-style>light-heavy</bar-style>
        <repeat direction="backward"/>
        </barline>
      </measure>
    <measure number="5" width="162.53">
      <note default-x="30.38" default-y="-20.00">
        <pitch>
          <step>B</step>
          <octave>4</octave>
          </pitch>
        <duration>1</duration>
        <voice>1</voice>
        <type>quarter</type>
        <stem>down</stem>
        <lyric number="1" default-x="6.50" default-y="-46.54" relative-y="-30.00">
          <syllabic>begin</syllabic>
          <text>Kljun</text>
          </lyric>
        </note>
      <note default-x="78.72" default-y="-20.00">
        <pitch>
          <step>B</step>
          <octave>4</octave>
          </pitch>
        <duration>1</duration>
        <voice>1</voice>
        <type>quarter</type>
        <stem>down</stem>
        <lyric number="1" default-x="6.50" default-y="-46.54" relative-y="-30.00">
          <syllabic>end</syllabic>
          <text>ček</text>
          </lyric>
        </note>
      <note default-x="119.72" default-y="-30.00">
        <pitch>
          <step>G</step>
          <octave>4</octave>
          </pitch>
        <duration>1</duration>
        <voice>1</voice>
        <type>quarter</type>
        <stem>up</stem>
        <lyric number="1" default-x="6.50" default-y="-46.54" relative-y="-30.00">
          <syllabic>single</syllabic>
          <text>je</text>
          </lyric>
        </note>
      </measure>
    <measure number="6" width="154.37">
      <note default-x="18.92" default-y="-10.00">
        <pitch>
          <step>D</step>
          <octave>5</octave>
          </pitch>
        <duration>1</duration>
        <voice>1</voice>
        <type>quarter</type>
        <stem>down</stem>
        <lyric number="1" default-x="6.50" default-y="-46.54" relative-y="-30.00">
          <syllabic>begin</syllabic>
          <text>ssa</text>
          </lyric>
        </note>
      <note default-x="63.47" default-y="-10.00">
        <pitch>
          <step>D</step>
          <octave>5</octave>
          </pitch>
        <duration>1</duration>
        <voice>1</voice>
        <type>quarter</type>
        <stem>down</stem>
        <lyric number="1" default-x="6.50" default-y="-46.54" relative-y="-30.00">
          <syllabic>end</syllabic>
          <text>bo</text>
          </lyric>
        </note>
      <note default-x="108.02" default-y="-25.00">
        <pitch>
          <step>A</step>
          <octave>4</octave>
          </pitch>
        <duration>1</duration>
        <voice>1</voice>
        <type>quarter</type>
        <stem>up</stem>
        <lyric number="1" default-x="9.07" default-y="-46.54" relative-y="-30.00">
          <syllabic>single</syllabic>
          <text>vzel,</text>
          </lyric>
        </note>
      </measure>
    <measure number="7" width="119.49">
      <note default-x="15.49" default-y="-10.00">
        <pitch>
          <step>D</step>
          <octave>5</octave>
          </pitch>
        <duration>1</duration>
        <voice>1</voice>
        <type>quarter</type>
        <stem>down</stem>
        <lyric number="1" default-x="6.50" default-y="-46.54" relative-y="-30.00">
          <syllabic>single</syllabic>
          <text>da</text>
          </lyric>
        </note>
      <note default-x="49.55" default-y="-10.00">
        <pitch>
          <step>D</step>
          <octave>5</octave>
          </pitch>
        <duration>1</duration>
        <voice>1</voice>
        <type>quarter</type>
        <stem>down</stem>
        <lyric number="1" default-x="6.50" default-y="-46.54" relative-y="-30.00">
          <syllabic>single</syllabic>
          <text>bo</text>
          </lyric>
        </note>
      <note default-x="83.62" default-y="-15.00">
        <pitch>
          <step>C</step>
          <octave>5</octave>
          </pitch>
        <duration>1</duration>
        <voice>1</voice>
        <type>quarter</type>
        <stem>down</stem>
        <lyric number="1" default-x="6.50" default-y="-46.54" relative-y="-30.00">
          <syllabic>single</syllabic>
          <text>za</text>
          </lyric>
        </note>
      </measure>
    <measure number="8" width="348.76">
      <print new-system="yes">
        <system-layout>
          <system-margins>
            <left-margin>0.00</left-margin>
            <right-margin>0.00</right-margin>
            </system-margins>
          <system-distance>150.00</system-distance>
          </system-layout>
        </print>
      <direction placement="below">
        <direction-type>
          <words default-y="-859.42" valign="top">učke - očke
</words>
          <words>rinkce - obročki
</words>
          <words>povšter - blazina
</words>
          <words></words>
          </direction-type>
        </direction>
      <direction placement="below">
        <direction-type>
          <words default-y="-110.00" valign="top">Šuštar je stako klal,
</words>
          <words>ju-hu-hu, du.
</words>
          <words>Kam pa je 
</words>
          <words font-weight="bold">kljunček 
</words>
          <words font-weight="normal">dal,
</words>
          <words>ju-hu-hu, hu?
</words>
          <words>Kljunček je s sabo vzel,
</words>
          <words>da bo za 
</words>
          <words font-weight="bold">šilo
</words>
          <words font-weight="normal"> imel,
</words>
          <words>da bo za 
</words>
          <words font-weight="bold">šilo 
</words>
          <words font-weight="normal">imel,
</words>
          <words>ju-hu-hu, hu.
</words>
          <words>
</words>
          <words>Šuštar je krako klal, 
</words>
          <words>ju-hu-hu, hu.
</words>
          <words>Kam pa je 
</words>
          <words font-weight="bold">glavco
</words>
          <words font-weight="normal"> dal,
</words>
          <words>ju-hu-hu, hu?
</words>
          <words>Glavco je s sabo vzel, d
</words>
          <words>da bo za 
</words>
          <words font-weight="bold">kladvo 
</words>
          <words font-weight="normal">imel,
</words>
          <words>da bo za 
</words>
          <words font-weight="bold">kladvo
</words>
          <words font-weight="normal"> imel, 
</words>
          <words>ju-hu-hu, hu.
</words>
          <words>
</words>
          <words font-style="italic">Nadaljuješ s pari:
</words>
          <words font-weight="bold" font-style="normal">učke – rinkce
</words>
          <words>kremplje – klinčke
</words>
          <words>perje – povšter
</words>
          <words>kožo – usnje
</words>
          <words>čreva – dreto
</words>
          <words>mesek – golaž
</words>
          <words></words>
          </direction-type>
        </direction>
      <note default-x="78.35" default-y="-20.00">
        <pitch>
          <step>B</step>
          <octave>4</octave>
          </pitch>
        <duration>1</duration>
        <voice>1</voice>
        <type>quarter</type>
        <stem>down</stem>
        <lyric number="1" default-x="6.50" default-y="-46.54" relative-y="-30.00">
          <syllabic>begin</syllabic>
          <text>ši</text>
          </lyric>
        </note>
      <note default-x="167.89" default-y="-20.00">
        <pitch>
          <step>B</step>
          <octave>4</octave>
          </pitch>
        <duration>1</duration>
        <voice>1</voice>
        <type>quarter</type>
        <stem>down</stem>
        <lyric number="1" default-x="6.50" default-y="-46.54" relative-y="-30.00">
          <syllabic>end</syllabic>
          <text>lo</text>
          </lyric>
        </note>
      <note default-x="257.43" default-y="-30.00">
        <pitch>
          <step>G</step>
          <octave>4</octave>
          </pitch>
        <duration>1</duration>
        <voice>1</voice>
        <type>quarter</type>
        <stem>up</stem>
        <lyric number="1" default-x="9.09" default-y="-46.54" relative-y="-30.00">
          <syllabic>single</syllabic>
          <text>imel,</text>
          </lyric>
        </note>
      </measure>
    <measure number="9" width="182.99">
      <note default-x="15.49" default-y="-15.00">
        <pitch>
          <step>C</step>
          <octave>5</octave>
          </pitch>
        <duration>1</duration>
        <voice>1</voice>
        <type>quarter</type>
        <stem>down</stem>
        <lyric number="1" default-x="6.50" default-y="-46.54" relative-y="-30.00">
          <syllabic>single</syllabic>
          <text>da</text>
          </lyric>
        </note>
      <note default-x="70.72" default-y="-15.00">
        <pitch>
          <step>C</step>
          <octave>5</octave>
          </pitch>
        <duration>1</duration>
        <voice>1</voice>
        <type>quarter</type>
        <stem>down</stem>
        <lyric number="1" default-x="6.50" default-y="-46.54" relative-y="-30.00">
          <syllabic>single</syllabic>
          <text>bo</text>
          </lyric>
        </note>
      <note default-x="125.96" default-y="-20.00">
        <pitch>
          <step>B</step>
          <octave>4</octave>
          </pitch>
        <duration>1</duration>
        <voice>1</voice>
        <type>quarter</type>
        <stem>down</stem>
        <lyric number="1" default-x="6.50" default-y="-46.54" relative-y="-30.00">
          <syllabic>single</syllabic>
          <text>za</text>
          </lyric>
        </note>
      </measure>
    <measure number="10" width="200.72">
      <note default-x="11.76" default-y="-25.00">
        <pitch>
          <step>A</step>
          <octave>4</octave>
          </pitch>
        <duration>1</duration>
        <voice>1</voice>
        <type>quarter</type>
        <stem>up</stem>
        <lyric number="1" default-x="6.50" default-y="-46.54" relative-y="-30.00">
          <syllabic>begin</syllabic>
          <text>ši</text>
          </lyric>
        </note>
      <note default-x="74.15" default-y="-25.00">
        <pitch>
          <step>A</step>
          <octave>4</octave>
          </pitch>
        <duration>1</duration>
        <voice>1</voice>
        <type>quarter</type>
        <stem>up</stem>
        <lyric number="1" default-x="6.50" default-y="-46.54" relative-y="-30.00">
          <syllabic>end</syllabic>
          <text>lo</text>
          </lyric>
        </note>
      <note default-x="136.53" default-y="-45.00">
        <pitch>
          <step>D</step>
          <octave>4</octave>
          </pitch>
        <duration>1</duration>
        <voice>1</voice>
        <type>quarter</type>
        <stem>up</stem>
        <lyric number="1" default-x="9.09" default-y="-46.54" relative-y="-30.00">
          <syllabic>single</syllabic>
          <text>imel,</text>
          </lyric>
        </note>
      </measure>
    <measure number="11" width="201.29">
      <note default-x="14.47" default-y="-20.00">
        <pitch>
          <step>B</step>
          <octave>4</octave>
          </pitch>
        <duration>1</duration>
        <voice>1</voice>
        <type>quarter</type>
        <stem>down</stem>
        <lyric number="1" default-x="6.50" default-y="-46.54" relative-y="-30.00">
          <syllabic>begin</syllabic>
          <text>ju</text>
          </lyric>
        </note>
      <note default-x="76.14" default-y="-20.00">
        <pitch>
          <step>B</step>
          <octave>4</octave>
          </pitch>
        <duration>1</duration>
        <voice>1</voice>
        <type>quarter</type>
        <stem>down</stem>
        <lyric number="1" default-x="6.50" default-y="-46.54" relative-y="-30.00">
          <syllabic>middle</syllabic>
          <text>hu</text>
          </lyric>
        </note>
      <note default-x="137.81" default-y="-25.00">
        <pitch>
          <step>A</step>
          <octave>4</octave>
          </pitch>
        <duration>1</duration>
        <voice>1</voice>
        <type>quarter</type>
        <stem>up</stem>
        <lyric number="1" default-x="8.82" default-y="-46.54" relative-y="-30.00">
          <syllabic>end</syllabic>
          <text>hu,</text>
          </lyric>
        </note>
      </measure>
    <measure number="12" width="143.73">
      <note default-x="16.67" default-y="-30.00">
        <pitch>
          <step>G</step>
          <octave>4</octave>
          </pitch>
        <duration>2</duration>
        <voice>1</voice>
        <type>half</type>
        <stem>up</stem>
        <lyric number="1" default-x="8.64" default-y="-46.54" relative-y="-30.00">
          <syllabic>single</syllabic>
          <text>hu.</text>
          </lyric>
        </note>
      <note>
        <rest/>
        <duration>1</duration>
        <voice>1</voice>
        <type>quarter</type>
        </note>
      <barline location="right">
        <bar-style>light-light</bar-style>
        </barline>
      </measure>
    </part>
  </score-partwise>
