<?xml version="1.0" encoding="UTF-8"?>
<!DOCTYPE score-partwise PUBLIC "-//Recordare//DTD MusicXML 3.1 Partwise//EN" "http://www.musicxml.org/dtds/partwise.dtd">
<score-partwise version="3.1">
  <work>
    <work-title>Zumzum</work-title>
    </work>
  <identification>
    <creator type="composer">Napisal: Jože Petelin Uglasbil: Damijan Močnik</creator>
    <creator type="lyricist">Uredila: Katja Virant Iršič</creator>
    <rights>Prepisala: Lucija Gorjup</rights>
    <encoding>
      <software>MuseScore 3.6.2</software>
      <encoding-date>2022-05-03</encoding-date>
      <supports element="accidental" type="yes"/>
      <supports element="beam" type="yes"/>
      <supports element="print" attribute="new-page" type="yes" value="yes"/>
      <supports element="print" attribute="new-system" type="yes" value="yes"/>
      <supports element="stem" type="yes"/>
      </encoding>
    </identification>
  <defaults>
    <scaling>
      <millimeters>7.05556</millimeters>
      <tenths>40</tenths>
      </scaling>
    <page-layout>
      <page-height>1683.36</page-height>
      <page-width>1190.88</page-width>
      <page-margins type="even">
        <left-margin>56.6929</left-margin>
        <right-margin>56.6929</right-margin>
        <top-margin>56.6929</top-margin>
        <bottom-margin>113.386</bottom-margin>
        </page-margins>
      <page-margins type="odd">
        <left-margin>56.6929</left-margin>
        <right-margin>56.6929</right-margin>
        <top-margin>56.6929</top-margin>
        <bottom-margin>113.386</bottom-margin>
        </page-margins>
      </page-layout>
    <word-font font-family="Edwin" font-size="10"/>
    <lyric-font font-family="Edwin" font-size="10"/>
    </defaults>
  <credit page="1">
    <credit-type>title</credit-type>
    <credit-words default-x="595.44" default-y="1626.67" justify="center" valign="top" font-size="22">Zumzum</credit-words>
    </credit>
  <credit page="1">
    <credit-type>subtitle</credit-type>
    <credit-words default-x="595.44" default-y="1569.97" justify="center" valign="top" font-size="16">Ciciban, maj 2005</credit-words>
    </credit>
  <credit page="1">
    <credit-type>composer</credit-type>
    <credit-words default-x="1134.19" default-y="1488.59" justify="right" valign="bottom">Napisal: Jože Petelin 
</credit-words>
    <credit-words>Uglasbil: Damijan Močnik
</credit-words>
    <credit-words></credit-words>
    </credit>
  <credit page="1">
    <credit-type>lyricist</credit-type>
    <credit-words default-x="56.6929" default-y="1488.59" justify="left" valign="bottom">Uredila: Katja Virant Iršič</credit-words>
    </credit>
  <credit page="1">
    <credit-type>rights</credit-type>
    <credit-words default-x="595.44" default-y="113.386" justify="center" valign="bottom" font-family="FreeSerif" font-size="8">Prepisala: Lucija Gorjup</credit-words>
    </credit>
  <part-list>
    <score-part id="P1">
      <part-name>Piano</part-name>
      <part-abbreviation>Pno.</part-abbreviation>
      <score-instrument id="P1-I1">
        <instrument-name>Piano</instrument-name>
        </score-instrument>
      <midi-device id="P1-I1" port="1"></midi-device>
      <midi-instrument id="P1-I1">
        <midi-channel>1</midi-channel>
        <midi-program>1</midi-program>
        <volume>78.7402</volume>
        <pan>0</pan>
        </midi-instrument>
      </score-part>
    </part-list>
  <part id="P1">
    <measure number="1" width="294.85">
      <print>
        <system-layout>
          <system-margins>
            <left-margin>0.00</left-margin>
            <right-margin>0.00</right-margin>
            </system-margins>
          <top-system-distance>208.08</top-system-distance>
          </system-layout>
        </print>
      <attributes>
        <divisions>4</divisions>
        <key>
          <fifths>0</fifths>
          </key>
        <time>
          <beats>3</beats>
          <beat-type>4</beat-type>
          </time>
        <clef>
          <sign>G</sign>
          <line>2</line>
          </clef>
        </attributes>
      <direction placement="above">
        <direction-type>
          <words default-y="0.17" relative-x="-29.42" relative-y="35.00" font-style="italic">Poskočno, zmerno</words>
          </direction-type>
        </direction>
      <direction placement="above">
        <direction-type>
          <dynamics default-x="6.50" relative-x="8.12" relative-y="9.27">
            <mf/>
            </dynamics>
          </direction-type>
        <sound dynamics="88.89"/>
        </direction>
      <note default-x="80.72" default-y="-45.00">
        <pitch>
          <step>D</step>
          <octave>4</octave>
          </pitch>
        <duration>3</duration>
        <voice>1</voice>
        <type>eighth</type>
        <dot/>
        <stem>up</stem>
        <beam number="1">begin</beam>
        <lyric number="1" default-x="6.50" default-y="-49.75" relative-y="-30.00">
          <syllabic>begin</syllabic>
          <text>Zvez</text>
          </lyric>
        </note>
      <note default-x="124.38" default-y="-40.00">
        <pitch>
          <step>E</step>
          <octave>4</octave>
          </pitch>
        <duration>1</duration>
        <voice>1</voice>
        <type>16th</type>
        <stem>up</stem>
        <beam number="1">end</beam>
        <beam number="2">backward hook</beam>
        <lyric number="1" default-x="6.50" default-y="-49.75" relative-y="-30.00">
          <syllabic>middle</syllabic>
          <text>di</text>
          </lyric>
        </note>
      <note default-x="149.85" default-y="-35.00">
        <pitch>
          <step>F</step>
          <octave>4</octave>
          </pitch>
        <duration>2</duration>
        <voice>1</voice>
        <type>eighth</type>
        <stem>up</stem>
        <beam number="1">begin</beam>
        <lyric number="1" default-x="6.50" default-y="-49.75" relative-y="-30.00">
          <syllabic>end</syllabic>
          <text>ca</text>
          </lyric>
        </note>
      <note default-x="185.65" default-y="-40.00">
        <pitch>
          <step>E</step>
          <octave>4</octave>
          </pitch>
        <duration>2</duration>
        <voice>1</voice>
        <type>eighth</type>
        <stem>up</stem>
        <beam number="1">end</beam>
        <lyric number="1" default-x="6.50" default-y="-49.75" relative-y="-30.00">
          <syllabic>begin</syllabic>
          <text>za</text>
          </lyric>
        </note>
      <note default-x="221.45" default-y="-35.00">
        <pitch>
          <step>F</step>
          <octave>4</octave>
          </pitch>
        <duration>2</duration>
        <voice>1</voice>
        <type>eighth</type>
        <stem>up</stem>
        <beam number="1">begin</beam>
        <lyric number="1" default-x="6.50" default-y="-49.75" relative-y="-30.00">
          <syllabic>middle</syllabic>
          <text>ple</text>
          </lyric>
        </note>
      <note default-x="257.25" default-y="-30.00">
        <pitch>
          <step>G</step>
          <octave>4</octave>
          </pitch>
        <duration>2</duration>
        <voice>1</voice>
        <type>eighth</type>
        <stem>up</stem>
        <beam number="1">end</beam>
        <lyric number="1" default-x="6.50" default-y="-49.75" relative-y="-30.00">
          <syllabic>end</syllabic>
          <text>še</text>
          </lyric>
        </note>
      </measure>
    <measure number="2" width="277.89">
      <note default-x="23.89" default-y="-25.00">
        <pitch>
          <step>A</step>
          <octave>4</octave>
          </pitch>
        <duration>3</duration>
        <voice>1</voice>
        <type>eighth</type>
        <dot/>
        <stem>up</stem>
        <beam number="1">begin</beam>
        <lyric number="1" default-x="6.50" default-y="-49.75" relative-y="-30.00">
          <syllabic>begin</syllabic>
          <text>zvez</text>
          </lyric>
        </note>
      <note default-x="80.97" default-y="-30.00">
        <pitch>
          <step>G</step>
          <octave>4</octave>
          </pitch>
        <duration>1</duration>
        <voice>1</voice>
        <type>16th</type>
        <stem>up</stem>
        <beam number="1">end</beam>
        <beam number="2">backward hook</beam>
        <lyric number="1" default-x="6.50" default-y="-49.75" relative-y="-30.00">
          <syllabic>end</syllabic>
          <text>dni</text>
          </lyric>
        </note>
      <note default-x="118.10" default-y="-25.00">
        <pitch>
          <step>A</step>
          <octave>4</octave>
          </pitch>
        <duration>2</duration>
        <voice>1</voice>
        <type>eighth</type>
        <stem>down</stem>
        <beam number="1">begin</beam>
        <lyric number="1" default-x="6.50" default-y="-49.75" relative-y="-30.00">
          <syllabic>single</syllabic>
          <text>ples</text>
          </lyric>
        </note>
      <note default-x="164.91" default-y="-15.00">
        <pitch>
          <step>C</step>
          <octave>5</octave>
          </pitch>
        <duration>2</duration>
        <voice>1</voice>
        <type>eighth</type>
        <stem>down</stem>
        <beam number="1">end</beam>
        <lyric number="1" default-x="6.50" default-y="-49.75" relative-y="-30.00">
          <syllabic>begin</syllabic>
          <text>zum</text>
          </lyric>
        </note>
      <note default-x="211.73" default-y="-25.00">
        <pitch>
          <step>A</step>
          <octave>4</octave>
          </pitch>
        <duration>4</duration>
        <voice>1</voice>
        <type>quarter</type>
        <stem>up</stem>
        <lyric number="1" default-x="9.09" default-y="-49.75" relative-y="-30.00">
          <syllabic>end</syllabic>
          <text>zum,</text>
          </lyric>
        </note>
      </measure>
    <measure number="3" width="248.57">
      <note default-x="15.49" default-y="-30.00">
        <pitch>
          <step>G</step>
          <octave>4</octave>
          </pitch>
        <duration>3</duration>
        <voice>1</voice>
        <type>eighth</type>
        <dot/>
        <stem>up</stem>
        <beam number="1">begin</beam>
        <lyric number="1" default-x="6.50" default-y="-49.75" relative-y="-30.00">
          <syllabic>single</syllabic>
          <text>da</text>
          </lyric>
        </note>
      <note default-x="60.84" default-y="-25.00">
        <pitch>
          <step>A</step>
          <octave>4</octave>
          </pitch>
        <duration>1</duration>
        <voice>1</voice>
        <type>16th</type>
        <stem>up</stem>
        <beam number="1">end</beam>
        <beam number="2">backward hook</beam>
        <lyric number="1" default-x="6.50" default-y="-49.75" relative-y="-30.00">
          <syllabic>single</syllabic>
          <text>se</text>
          </lyric>
        </note>
      <note default-x="97.48" default-y="-30.00">
        <pitch>
          <step>G</step>
          <octave>4</octave>
          </pitch>
        <duration>2</duration>
        <voice>1</voice>
        <type>eighth</type>
        <stem>up</stem>
        <beam number="1">begin</beam>
        <lyric number="1" default-x="6.50" default-y="-49.75" relative-y="-30.00">
          <syllabic>single</syllabic>
          <text>mars</text>
          </lyric>
        </note>
      <note default-x="135.19" default-y="-35.00">
        <pitch>
          <step>F</step>
          <octave>4</octave>
          </pitch>
        <duration>2</duration>
        <voice>1</voice>
        <type>eighth</type>
        <stem>up</stem>
        <beam number="1">end</beam>
        <lyric number="1" default-x="6.50" default-y="-49.75" relative-y="-30.00">
          <syllabic>begin</syllabic>
          <text>za</text>
          </lyric>
        </note>
      <note default-x="172.39" default-y="-40.00">
        <pitch>
          <step>E</step>
          <octave>4</octave>
          </pitch>
        <duration>2</duration>
        <voice>1</voice>
        <type>eighth</type>
        <stem>up</stem>
        <beam number="1">begin</beam>
        <lyric number="1" default-x="6.50" default-y="-49.75" relative-y="-30.00">
          <syllabic>middle</syllabic>
          <text>tre</text>
          </lyric>
        </note>
      <note default-x="209.58" default-y="-35.00">
        <pitch>
          <step>F</step>
          <octave>4</octave>
          </pitch>
        <duration>2</duration>
        <voice>1</voice>
        <type>eighth</type>
        <stem>up</stem>
        <beam number="1">end</beam>
        <lyric number="1" default-x="9.13" default-y="-49.75" relative-y="-30.00">
          <syllabic>end</syllabic>
          <text>se!</text>
          </lyric>
        </note>
      </measure>
    <measure number="4" width="256.18">
      <note default-x="23.88" default-y="-45.00">
        <pitch>
          <step>D</step>
          <octave>4</octave>
          </pitch>
        <duration>3</duration>
        <voice>1</voice>
        <type>eighth</type>
        <dot/>
        <stem>up</stem>
        <beam number="1">begin</beam>
        <lyric number="1" default-x="6.50" default-y="-49.75" relative-y="-30.00">
          <syllabic>begin</syllabic>
          <text>Mar</text>
          </lyric>
        </note>
      <note default-x="75.73" default-y="-40.00">
        <pitch>
          <step>E</step>
          <octave>4</octave>
          </pitch>
        <duration>1</duration>
        <voice>1</voice>
        <type>16th</type>
        <stem>up</stem>
        <beam number="1">end</beam>
        <beam number="2">backward hook</beam>
        <lyric number="1" default-x="6.50" default-y="-49.75" relative-y="-30.00">
          <syllabic>middle</syllabic>
          <text>sov</text>
          </lyric>
        </note>
      <note default-x="110.86" default-y="-35.00">
        <pitch>
          <step>F</step>
          <octave>4</octave>
          </pitch>
        <duration>2</duration>
        <voice>1</voice>
        <type>eighth</type>
        <stem>up</stem>
        <beam number="1">begin</beam>
        <lyric number="1" default-x="8.86" default-y="-49.75" relative-y="-30.00">
          <syllabic>end</syllabic>
          <text>čki,</text>
          </lyric>
        </note>
      <note default-x="153.39" default-y="-25.00">
        <pitch>
          <step>A</step>
          <octave>4</octave>
          </pitch>
        <duration>2</duration>
        <voice>1</voice>
        <type>eighth</type>
        <stem>up</stem>
        <beam number="1">end</beam>
        <lyric number="1" default-x="6.50" default-y="-49.75" relative-y="-30.00">
          <syllabic>begin</syllabic>
          <text>po</text>
          </lyric>
        </note>
      <note default-x="195.91" default-y="-30.00">
        <pitch>
          <step>G</step>
          <octave>4</octave>
          </pitch>
        <duration>4</duration>
        <voice>1</voice>
        <type>quarter</type>
        <stem>up</stem>
        <lyric number="1" default-x="8.85" default-y="-49.75" relative-y="-30.00">
          <syllabic>end</syllabic>
          <text>gum!</text>
          </lyric>
        </note>
      </measure>
    <measure number="5" width="272.59">
      <print new-system="yes">
        <system-layout>
          <system-margins>
            <left-margin>0.00</left-margin>
            <right-margin>0.00</right-margin>
            </system-margins>
          <system-distance>150.00</system-distance>
          </system-layout>
        </print>
      <direction placement="above">
        <direction-type>
          <dynamics default-x="6.50" relative-x="2.03" relative-y="29.56">
            <f/>
            </dynamics>
          </direction-type>
        <sound dynamics="106.67"/>
        </direction>
      <note default-x="68.91" default-y="-20.00">
        <pitch>
          <step>B</step>
          <alter>-1</alter>
          <octave>4</octave>
          </pitch>
        <duration>3</duration>
        <voice>1</voice>
        <type>eighth</type>
        <dot/>
        <accidental>flat</accidental>
        <stem>up</stem>
        <beam number="1">begin</beam>
        <lyric number="1" default-x="6.50" default-y="-50.14" relative-y="-30.00">
          <syllabic>single</syllabic>
          <text>Kaj</text>
          </lyric>
        </note>
      <note default-x="110.90" default-y="-25.00">
        <pitch>
          <step>A</step>
          <octave>4</octave>
          </pitch>
        <duration>1</duration>
        <voice>1</voice>
        <type>16th</type>
        <stem>up</stem>
        <beam number="1">end</beam>
        <beam number="2">backward hook</beam>
        <lyric number="1" default-x="6.50" default-y="-50.14" relative-y="-30.00">
          <syllabic>single</syllabic>
          <text>bi</text>
          </lyric>
        </note>
      <note default-x="133.05" default-y="-20.00">
        <pitch>
          <step>B</step>
          <alter>-1</alter>
          <octave>4</octave>
          </pitch>
        <duration>2</duration>
        <voice>1</voice>
        <type>eighth</type>
        <stem>up</stem>
        <beam number="1">begin</beam>
        <lyric number="1" default-x="6.50" default-y="-50.14" relative-y="-30.00">
          <syllabic>single</syllabic>
          <text>se</text>
          </lyric>
        </note>
      <note default-x="167.49" default-y="-25.00">
        <pitch>
          <step>A</step>
          <octave>4</octave>
          </pitch>
        <duration>2</duration>
        <voice>1</voice>
        <type>eighth</type>
        <stem>up</stem>
        <beam number="1">end</beam>
        <lyric number="1" default-x="6.50" default-y="-50.14" relative-y="-30.00">
          <syllabic>single</syllabic>
          <text>le</text>
          </lyric>
        </note>
      <note default-x="201.92" default-y="-20.00">
        <pitch>
          <step>B</step>
          <alter>-1</alter>
          <octave>4</octave>
          </pitch>
        <duration>2</duration>
        <voice>1</voice>
        <type>eighth</type>
        <stem>up</stem>
        <beam number="1">begin</beam>
        <lyric number="1" default-x="6.50" default-y="-50.14" relative-y="-30.00">
          <syllabic>begin</syllabic>
          <text>ba</text>
          </lyric>
        </note>
      <note default-x="236.36" default-y="-30.00">
        <pitch>
          <step>G</step>
          <octave>4</octave>
          </pitch>
        <duration>2</duration>
        <voice>1</voice>
        <type>eighth</type>
        <stem>up</stem>
        <beam number="1">end</beam>
        <lyric number="1" default-x="10.80" default-y="-50.14" relative-y="-30.00">
          <syllabic>end</syllabic>
          <text>li?</text>
          </lyric>
        </note>
      </measure>
    <measure number="6" width="257.61">
      <note default-x="20.45" default-y="-25.00">
        <pitch>
          <step>A</step>
          <octave>4</octave>
          </pitch>
        <duration>3</duration>
        <voice>1</voice>
        <type>eighth</type>
        <dot/>
        <stem>up</stem>
        <beam number="1">begin</beam>
        <lyric number="1" default-x="6.50" default-y="-50.14" relative-y="-30.00">
          <syllabic>single</syllabic>
          <text>Naj</text>
          </lyric>
        </note>
      <note default-x="75.44" default-y="-20.00">
        <pitch>
          <step>B</step>
          <alter>-1</alter>
          <octave>4</octave>
          </pitch>
        <duration>1</duration>
        <voice>1</voice>
        <type>16th</type>
        <accidental>flat</accidental>
        <stem>up</stem>
        <beam number="1">end</beam>
        <beam number="2">backward hook</beam>
        <lyric number="1" default-x="6.50" default-y="-50.14" relative-y="-30.00">
          <syllabic>single</syllabic>
          <text>ne</text>
          </lyric>
        </note>
      <note default-x="103.62" default-y="-25.00">
        <pitch>
          <step>A</step>
          <octave>4</octave>
          </pitch>
        <duration>2</duration>
        <voice>1</voice>
        <type>eighth</type>
        <stem>up</stem>
        <beam number="1">begin</beam>
        <lyric number="1" default-x="6.50" default-y="-50.14" relative-y="-30.00">
          <syllabic>single</syllabic>
          <text>bo</text>
          </lyric>
        </note>
      <note default-x="148.71" default-y="-30.00">
        <pitch>
          <step>G</step>
          <octave>4</octave>
          </pitch>
        <duration>2</duration>
        <voice>1</voice>
        <type>eighth</type>
        <stem>up</stem>
        <beam number="1">end</beam>
        <lyric number="1" default-x="6.50" default-y="-50.14" relative-y="-30.00">
          <syllabic>single</syllabic>
          <text>vas</text>
          </lyric>
        </note>
      <note default-x="193.81" default-y="-35.00">
        <pitch>
          <step>F</step>
          <octave>4</octave>
          </pitch>
        <duration>4</duration>
        <voice>1</voice>
        <type>quarter</type>
        <stem>up</stem>
        <lyric number="1" default-x="9.33" default-y="-50.14" relative-y="-30.00">
          <syllabic>single</syllabic>
          <text>strah!</text>
          </lyric>
        </note>
      </measure>
    <measure number="7" width="257.67">
      <note default-x="25.34" default-y="-30.00">
        <pitch>
          <step>G</step>
          <octave>4</octave>
          </pitch>
        <duration>3</duration>
        <voice>1</voice>
        <type>eighth</type>
        <dot/>
        <stem>up</stem>
        <beam number="1">begin</beam>
        <lyric number="1" default-x="6.50" default-y="-50.14" relative-y="-30.00">
          <syllabic>begin</syllabic>
          <text>Zvez</text>
          </lyric>
        </note>
      <note default-x="73.25" default-y="-35.00">
        <pitch>
          <step>F</step>
          <octave>4</octave>
          </pitch>
        <duration>1</duration>
        <voice>1</voice>
        <type>16th</type>
        <stem>up</stem>
        <beam number="1">end</beam>
        <beam number="2">backward hook</beam>
        <lyric number="1" default-x="6.50" default-y="-50.14" relative-y="-30.00">
          <syllabic>middle</syllabic>
          <text>di</text>
          </lyric>
        </note>
      <note default-x="98.72" default-y="-30.00">
        <pitch>
          <step>G</step>
          <octave>4</octave>
          </pitch>
        <duration>2</duration>
        <voice>1</voice>
        <type>eighth</type>
        <stem>up</stem>
        <beam number="1">begin</beam>
        <lyric number="1" default-x="6.50" default-y="-50.14" relative-y="-30.00">
          <syllabic>end</syllabic>
          <text>ca</text>
          </lyric>
        </note>
      <note default-x="138.01" default-y="-25.00">
        <pitch>
          <step>A</step>
          <octave>4</octave>
          </pitch>
        <duration>2</duration>
        <voice>1</voice>
        <type>eighth</type>
        <stem>up</stem>
        <beam number="1">end</beam>
        <lyric number="1" default-x="6.50" default-y="-50.14" relative-y="-30.00">
          <syllabic>begin</syllabic>
          <text>ba</text>
          </lyric>
        </note>
      <note default-x="177.29" default-y="-30.00">
        <pitch>
          <step>G</step>
          <octave>4</octave>
          </pitch>
        <duration>2</duration>
        <voice>1</voice>
        <type>eighth</type>
        <stem>up</stem>
        <beam number="1">begin</beam>
        <lyric number="1" default-x="6.50" default-y="-50.14" relative-y="-30.00">
          <syllabic>middle</syllabic>
          <text>let</text>
          </lyric>
        </note>
      <note default-x="216.58" default-y="-35.00">
        <pitch>
          <step>F</step>
          <octave>4</octave>
          </pitch>
        <duration>2</duration>
        <voice>1</voice>
        <type>eighth</type>
        <stem>up</stem>
        <beam number="1">end</beam>
        <lyric number="1" default-x="6.50" default-y="-50.14" relative-y="-30.00">
          <syllabic>end</syllabic>
          <text>ka</text>
          </lyric>
        </note>
      </measure>
    <measure number="8" width="289.62">
      <note default-x="21.85" default-y="-40.00">
        <pitch>
          <step>E</step>
          <octave>4</octave>
          </pitch>
        <duration>3</duration>
        <voice>1</voice>
        <type>eighth</type>
        <dot/>
        <stem>up</stem>
        <beam number="1">begin</beam>
        <lyric number="1" default-x="6.50" default-y="-50.14" relative-y="-30.00">
          <syllabic>begin</syllabic>
          <text>stre</text>
          </lyric>
        </note>
      <note default-x="78.99" default-y="-35.00">
        <pitch>
          <step>F</step>
          <octave>4</octave>
          </pitch>
        <duration>1</duration>
        <voice>1</voice>
        <type>16th</type>
        <stem>up</stem>
        <beam number="1">end</beam>
        <beam number="2">backward hook</beam>
        <lyric number="1" default-x="6.50" default-y="-50.14" relative-y="-30.00">
          <syllabic>end</syllabic>
          <text>sa</text>
          </lyric>
        </note>
      <note default-x="112.67" default-y="-40.00">
        <pitch>
          <step>E</step>
          <octave>4</octave>
          </pitch>
        <duration>2</duration>
        <voice>1</voice>
        <type>eighth</type>
        <stem>up</stem>
        <beam number="1">begin</beam>
        <lyric number="1" default-x="6.50" default-y="-50.14" relative-y="-30.00">
          <syllabic>begin</syllabic>
          <text>zvez</text>
          </lyric>
        </note>
      <note default-x="159.52" default-y="-50.00">
        <pitch>
          <step>C</step>
          <octave>4</octave>
          </pitch>
        <duration>2</duration>
        <voice>1</voice>
        <type>eighth</type>
        <stem>up</stem>
        <beam number="1">end</beam>
        <lyric number="1" default-x="6.50" default-y="-50.14" relative-y="-30.00">
          <syllabic>end</syllabic>
          <text>dni</text>
          </lyric>
        </note>
      <note default-x="206.37" default-y="-45.00">
        <pitch>
          <step>D</step>
          <octave>4</octave>
          </pitch>
        <duration>4</duration>
        <voice>1</voice>
        <type>quarter</type>
        <stem>up</stem>
        <lyric number="1" default-x="8.85" default-y="-50.14" relative-y="-30.00">
          <syllabic>single</syllabic>
          <text>prah.</text>
          </lyric>
        </note>
      <barline location="right">
        <bar-style>light-heavy</bar-style>
        <repeat direction="backward"/>
        </barline>
      </measure>
    </part>
  </score-partwise>
